<svg width="740" height="316" viewBox="0 0 740 316" fill="none" xmlns="http://www.w3.org/2000/svg">
<g clip-path="url(#clip0_3011_1015)">
<path d="M438.921 242.5V228.4H441.501V234.28H448.721V228.4H451.301V242.5H448.721V236.42H441.501V242.5H438.921ZM452.85 242.5L459.23 228.4H461.39L467.85 242.5H465.23L463.51 238.54L464.55 239.24H456.09L457.17 238.54L455.45 242.5H452.85ZM460.29 231.16L457.47 237.84L456.95 237.22H463.67L463.25 237.84L460.37 231.16H460.29ZM469.41 242.5V228.4H471.35L479.53 238.98H479.01V228.4H481.41V242.5H479.47L471.31 231.92H471.81V242.5H469.41ZM484.507 242.5V228.4H489.627C491.241 228.4 492.601 228.68 493.707 229.24C494.827 229.787 495.674 230.587 496.247 231.64C496.821 232.68 497.107 233.947 497.107 235.44C497.107 236.92 496.821 238.187 496.247 239.24C495.674 240.293 494.827 241.1 493.707 241.66C492.601 242.22 491.241 242.5 489.627 242.5H484.507ZM487.087 240.36H489.467C491.174 240.36 492.441 239.953 493.267 239.14C494.094 238.327 494.507 237.093 494.507 235.44C494.507 233.773 494.094 232.54 493.267 231.74C492.441 230.927 491.174 230.52 489.467 230.52H487.087V240.36ZM499.742 242.5V228.4H506.002C507.548 228.4 508.728 228.773 509.542 229.52C510.355 230.267 510.762 231.293 510.762 232.6C510.762 233.893 510.355 234.92 509.542 235.68C508.728 236.44 507.548 236.82 506.002 236.82H502.322V242.5H499.742ZM502.322 234.78H505.702C506.555 234.78 507.195 234.593 507.622 234.22C508.048 233.833 508.262 233.293 508.262 232.6C508.262 231.907 508.048 231.373 507.622 231C507.195 230.613 506.555 230.42 505.702 230.42H502.322V234.78ZM510.037 242.5L516.417 228.4H518.577L525.037 242.5H522.417L520.697 238.54L521.737 239.24H513.277L514.357 238.54L512.637 242.5H510.037ZM517.477 231.16L514.657 237.84L514.137 237.22H520.857L520.437 237.84L517.557 231.16H517.477ZM526.597 242.5V228.4H528.537L536.717 238.98H536.197V228.4H538.597V242.5H536.657L528.497 231.92H528.997V242.5H526.597ZM547.183 242.5V228.4H553.443C554.99 228.4 556.17 228.773 556.983 229.52C557.796 230.267 558.203 231.293 558.203 232.6C558.203 233.893 557.796 234.92 556.983 235.68C556.17 236.44 554.99 236.82 553.443 236.82H549.763V242.5H547.183ZM549.763 234.78H553.143C553.996 234.78 554.636 234.593 555.063 234.22C555.49 233.833 555.703 233.293 555.703 232.6C555.703 231.907 555.49 231.373 555.063 231C554.636 230.613 553.996 230.42 553.143 230.42H549.763V234.78ZM560.503 242.5V228.4H570.003V230.42H562.983V234.32H569.543V236.36H562.983V240.46H570.003V242.5H560.503ZM572.398 242.5V228.4H578.558C580.105 228.4 581.298 228.767 582.138 229.5C582.991 230.233 583.418 231.253 583.418 232.56C583.418 233.427 583.225 234.167 582.838 234.78C582.465 235.393 581.925 235.867 581.218 236.2C580.511 236.52 579.678 236.68 578.718 236.68L578.998 236.3H579.678C580.238 236.3 580.738 236.447 581.178 236.74C581.618 237.033 581.978 237.48 582.258 238.08L584.318 242.5H581.478L579.398 237.92C579.211 237.453 578.925 237.147 578.538 237C578.165 236.853 577.711 236.78 577.178 236.78H574.978V242.5H572.398ZM574.978 234.88H578.138C579.045 234.88 579.731 234.693 580.198 234.32C580.678 233.933 580.918 233.373 580.918 232.64C580.918 231.907 580.678 231.353 580.198 230.98C579.731 230.607 579.045 230.42 578.138 230.42H574.978V234.88ZM586.441 242.5V228.4H595.741V230.42H589.021V234.42H595.281V236.44H589.021V242.5H586.441ZM597.172 235.44C597.172 233.96 597.439 232.68 597.972 231.6C598.519 230.52 599.299 229.687 600.312 229.1C601.326 228.5 602.532 228.2 603.932 228.2C605.319 228.2 606.519 228.5 607.532 229.1C608.546 229.687 609.326 230.52 609.872 231.6C610.432 232.68 610.712 233.953 610.712 235.42C610.712 236.9 610.432 238.187 609.872 239.28C609.326 240.36 608.546 241.2 607.532 241.8C606.519 242.4 605.319 242.7 603.932 242.7C602.532 242.7 601.326 242.4 600.312 241.8C599.312 241.2 598.539 240.36 597.992 239.28C597.446 238.187 597.172 236.907 597.172 235.44ZM599.872 235.44C599.872 237.027 600.212 238.267 600.892 239.16C601.572 240.053 602.586 240.5 603.932 240.5C605.239 240.5 606.246 240.053 606.952 239.16C607.659 238.267 608.012 237.027 608.012 235.44C608.012 233.84 607.659 232.6 606.952 231.72C606.259 230.84 605.252 230.4 603.932 230.4C602.586 230.4 601.572 230.84 600.892 231.72C600.212 232.6 599.872 233.84 599.872 235.44ZM613.374 242.5V228.4H619.534C621.081 228.4 622.274 228.767 623.114 229.5C623.968 230.233 624.394 231.253 624.394 232.56C624.394 233.427 624.201 234.167 623.814 234.78C623.441 235.393 622.901 235.867 622.194 236.2C621.488 236.52 620.654 236.68 619.694 236.68L619.974 236.3H620.654C621.214 236.3 621.714 236.447 622.154 236.74C622.594 237.033 622.954 237.48 623.234 238.08L625.294 242.5H622.454L620.374 237.92C620.188 237.453 619.901 237.147 619.514 237C619.141 236.853 618.688 236.78 618.154 236.78H615.954V242.5H613.374ZM615.954 234.88H619.114C620.021 234.88 620.708 234.693 621.174 234.32C621.654 233.933 621.894 233.373 621.894 232.64C621.894 231.907 621.654 231.353 621.174 230.98C620.708 230.607 620.021 230.42 619.114 230.42H615.954V234.88ZM627.437 242.5V228.4H629.697L634.877 240.06H634.257L639.437 228.4H641.677V242.5H639.337V232.04H640.057L635.317 242.5H633.777L629.037 232.04H629.777V242.5H627.437ZM643.26 242.5L649.64 228.4H651.8L658.26 242.5H655.64L653.92 238.54L654.96 239.24H646.5L647.58 238.54L645.86 242.5H643.26ZM650.7 231.16L647.88 237.84L647.36 237.22H654.08L653.66 237.84L650.78 231.16H650.7ZM659.82 242.5V228.4H661.76L669.94 238.98H669.42V228.4H671.82V242.5H669.88L661.72 231.92H662.22V242.5H659.82ZM681.477 242.7C680.011 242.7 678.751 242.407 677.697 241.82C676.657 241.22 675.857 240.38 675.297 239.3C674.737 238.207 674.457 236.92 674.457 235.44C674.457 233.96 674.737 232.68 675.297 231.6C675.857 230.52 676.657 229.687 677.697 229.1C678.751 228.5 680.011 228.2 681.477 228.2C682.464 228.2 683.351 228.34 684.137 228.62C684.937 228.9 685.624 229.313 686.197 229.86L685.357 231.9C684.731 231.393 684.124 231.033 683.537 230.82C682.964 230.593 682.304 230.48 681.557 230.48C680.131 230.48 679.037 230.913 678.277 231.78C677.531 232.633 677.157 233.853 677.157 235.44C677.157 237.027 677.531 238.253 678.277 239.12C679.037 239.987 680.131 240.42 681.557 240.42C682.304 240.42 682.964 240.313 683.537 240.1C684.124 239.873 684.731 239.5 685.357 238.98L686.197 241.02C685.624 241.553 684.937 241.967 684.137 242.26C683.351 242.553 682.464 242.7 681.477 242.7ZM688.609 242.5V228.4H698.109V230.42H691.089V234.32H697.649V236.36H691.089V240.46H698.109V242.5H688.609ZM705.228 242.7C704.095 242.7 703.048 242.56 702.088 242.28C701.141 241.987 700.328 241.587 699.648 241.08L700.448 239.06C700.901 239.38 701.375 239.653 701.868 239.88C702.361 240.093 702.888 240.26 703.448 240.38C704.008 240.487 704.601 240.54 705.228 240.54C706.281 240.54 707.041 240.367 707.508 240.02C707.975 239.673 708.208 239.22 708.208 238.66C708.208 238.167 708.048 237.793 707.728 237.54C707.408 237.273 706.835 237.053 706.008 236.88L703.748 236.42C702.455 236.153 701.488 235.707 700.848 235.08C700.208 234.453 699.888 233.613 699.888 232.56C699.888 231.68 700.121 230.913 700.588 230.26C701.055 229.607 701.708 229.1 702.548 228.74C703.388 228.38 704.368 228.2 705.488 228.2C706.488 228.2 707.415 228.347 708.268 228.64C709.121 228.92 709.835 229.327 710.408 229.86L709.608 231.78C709.035 231.3 708.408 230.947 707.728 230.72C707.048 230.48 706.288 230.36 705.448 230.36C704.501 230.36 703.761 230.547 703.228 230.92C702.708 231.28 702.448 231.78 702.448 232.42C702.448 232.913 702.608 233.307 702.928 233.6C703.261 233.893 703.821 234.12 704.608 234.28L706.848 234.72C708.181 234.987 709.168 235.427 709.808 236.04C710.448 236.64 710.768 237.453 710.768 238.48C710.768 239.32 710.541 240.06 710.088 240.7C709.635 241.327 708.995 241.82 708.168 242.18C707.341 242.527 706.361 242.7 705.228 242.7ZM459.915 263.7C458.448 263.7 457.188 263.407 456.135 262.82C455.095 262.22 454.295 261.38 453.735 260.3C453.175 259.207 452.895 257.92 452.895 256.44C452.895 254.96 453.175 253.68 453.735 252.6C454.295 251.52 455.095 250.687 456.135 250.1C457.188 249.5 458.448 249.2 459.915 249.2C460.902 249.2 461.788 249.34 462.575 249.62C463.375 249.9 464.062 250.313 464.635 250.86L463.795 252.9C463.168 252.393 462.562 252.033 461.975 251.82C461.402 251.593 460.742 251.48 459.995 251.48C458.568 251.48 457.475 251.913 456.715 252.78C455.968 253.633 455.595 254.853 455.595 256.44C455.595 258.027 455.968 259.253 456.715 260.12C457.475 260.987 458.568 261.42 459.995 261.42C460.742 261.42 461.402 261.313 461.975 261.1C462.562 260.873 463.168 260.5 463.795 259.98L464.635 262.02C464.062 262.553 463.375 262.967 462.575 263.26C461.788 263.553 460.902 263.7 459.915 263.7ZM467.046 263.5V249.4H469.626V261.32H476.266V263.5H467.046ZM476.365 263.5L482.745 249.4H484.905L491.365 263.5H488.745L487.025 259.54L488.065 260.24H479.605L480.685 259.54L478.965 263.5H476.365ZM483.805 252.16L480.985 258.84L480.465 258.22H487.185L486.765 258.84L483.885 252.16H483.805ZM497.689 263.7C496.556 263.7 495.509 263.56 494.549 263.28C493.602 262.987 492.789 262.587 492.109 262.08L492.909 260.06C493.362 260.38 493.836 260.653 494.329 260.88C494.822 261.093 495.349 261.26 495.909 261.38C496.469 261.487 497.062 261.54 497.689 261.54C498.742 261.54 499.502 261.367 499.969 261.02C500.436 260.673 500.669 260.22 500.669 259.66C500.669 259.167 500.509 258.793 500.189 258.54C499.869 258.273 499.296 258.053 498.469 257.88L496.209 257.42C494.916 257.153 493.949 256.707 493.309 256.08C492.669 255.453 492.349 254.613 492.349 253.56C492.349 252.68 492.582 251.913 493.049 251.26C493.516 250.607 494.169 250.1 495.009 249.74C495.849 249.38 496.829 249.2 497.949 249.2C498.949 249.2 499.876 249.347 500.729 249.64C501.582 249.92 502.296 250.327 502.869 250.86L502.069 252.78C501.496 252.3 500.869 251.947 500.189 251.72C499.509 251.48 498.749 251.36 497.909 251.36C496.962 251.36 496.222 251.547 495.689 251.92C495.169 252.28 494.909 252.78 494.909 253.42C494.909 253.913 495.069 254.307 495.389 254.6C495.722 254.893 496.282 255.12 497.069 255.28L499.309 255.72C500.642 255.987 501.629 256.427 502.269 257.04C502.909 257.64 503.229 258.453 503.229 259.48C503.229 260.32 503.002 261.06 502.549 261.7C502.096 262.327 501.456 262.82 500.629 263.18C499.802 263.527 498.822 263.7 497.689 263.7ZM510.58 263.7C509.446 263.7 508.4 263.56 507.44 263.28C506.493 262.987 505.68 262.587 505 262.08L505.8 260.06C506.253 260.38 506.726 260.653 507.22 260.88C507.713 261.093 508.24 261.26 508.8 261.38C509.36 261.487 509.953 261.54 510.58 261.54C511.633 261.54 512.393 261.367 512.86 261.02C513.326 260.673 513.56 260.22 513.56 259.66C513.56 259.167 513.4 258.793 513.08 258.54C512.76 258.273 512.186 258.053 511.36 257.88L509.1 257.42C507.806 257.153 506.84 256.707 506.2 256.08C505.56 255.453 505.24 254.613 505.24 253.56C505.24 252.68 505.473 251.913 505.94 251.26C506.406 250.607 507.06 250.1 507.9 249.74C508.74 249.38 509.72 249.2 510.84 249.2C511.84 249.2 512.766 249.347 513.62 249.64C514.473 249.92 515.186 250.327 515.76 250.86L514.96 252.78C514.386 252.3 513.76 251.947 513.08 251.72C512.4 251.48 511.64 251.36 510.8 251.36C509.853 251.36 509.113 251.547 508.58 251.92C508.06 252.28 507.8 252.78 507.8 253.42C507.8 253.913 507.96 254.307 508.28 254.6C508.613 254.893 509.173 255.12 509.96 255.28L512.2 255.72C513.533 255.987 514.52 256.427 515.16 257.04C515.8 257.64 516.12 258.453 516.12 259.48C516.12 260.32 515.893 261.06 515.44 261.7C514.986 262.327 514.346 262.82 513.52 263.18C512.693 263.527 511.713 263.7 510.58 263.7ZM518.55 263.5V249.4H528.05V251.42H521.03V255.32H527.59V257.36H521.03V261.46H528.05V263.5H518.55ZM535.169 263.7C534.036 263.7 532.989 263.56 532.029 263.28C531.083 262.987 530.269 262.587 529.589 262.08L530.389 260.06C530.843 260.38 531.316 260.653 531.809 260.88C532.303 261.093 532.829 261.26 533.389 261.38C533.949 261.487 534.543 261.54 535.169 261.54C536.223 261.54 536.983 261.367 537.449 261.02C537.916 260.673 538.149 260.22 538.149 259.66C538.149 259.167 537.989 258.793 537.669 258.54C537.349 258.273 536.776 258.053 535.949 257.88L533.689 257.42C532.396 257.153 531.429 256.707 530.789 256.08C530.149 255.453 529.829 254.613 529.829 253.56C529.829 252.68 530.063 251.913 530.529 251.26C530.996 250.607 531.649 250.1 532.489 249.74C533.329 249.38 534.309 249.2 535.429 249.2C536.429 249.2 537.356 249.347 538.209 249.64C539.063 249.92 539.776 250.327 540.349 250.86L539.549 252.78C538.976 252.3 538.349 251.947 537.669 251.72C536.989 251.48 536.229 251.36 535.389 251.36C534.443 251.36 533.703 251.547 533.169 251.92C532.649 252.28 532.389 252.78 532.389 253.42C532.389 253.913 532.549 254.307 532.869 254.6C533.203 254.893 533.763 255.12 534.549 255.28L536.789 255.72C538.123 255.987 539.109 256.427 539.749 257.04C540.389 257.64 540.709 258.453 540.709 259.48C540.709 260.32 540.483 261.06 540.029 261.7C539.576 262.327 538.936 262.82 538.109 263.18C537.283 263.527 536.303 263.7 535.169 263.7ZM560.228 263.7C559.615 263.487 559.028 263.2 558.468 262.84C557.908 262.467 557.402 262.073 556.948 261.66L557.488 261.68C556.875 262.307 556.162 262.8 555.348 263.16C554.535 263.52 553.668 263.7 552.748 263.7C551.722 263.7 550.835 263.54 550.088 263.22C549.342 262.9 548.768 262.46 548.368 261.9C547.968 261.327 547.768 260.66 547.768 259.9C547.768 258.993 548.035 258.22 548.568 257.58C549.102 256.94 549.835 256.34 550.768 255.78L551.448 255.4L551.068 255.86C550.495 255.287 550.068 254.733 549.788 254.2C549.508 253.667 549.368 253.113 549.368 252.54C549.368 251.873 549.528 251.293 549.848 250.8C550.182 250.293 550.642 249.9 551.228 249.62C551.828 249.34 552.528 249.2 553.328 249.2C554.368 249.2 555.215 249.48 555.868 250.04C556.522 250.587 556.848 251.333 556.848 252.28C556.848 252.787 556.748 253.26 556.548 253.7C556.348 254.14 556.022 254.56 555.568 254.96C555.128 255.36 554.548 255.76 553.828 256.16L553.888 255.66L557.388 259.28H556.868C557.215 258.733 557.482 258.093 557.668 257.36C557.855 256.627 557.968 255.853 558.008 255.04H560.108C560.068 256.133 559.895 257.167 559.588 258.14C559.282 259.113 558.868 259.973 558.348 260.72L558.328 260.12C558.688 260.493 559.102 260.833 559.568 261.14C560.035 261.447 560.542 261.7 561.088 261.9L560.228 263.7ZM552.888 261.76C553.555 261.76 554.148 261.633 554.668 261.38C555.202 261.127 555.675 260.753 556.088 260.26L556.028 260.86L551.828 256.6L552.848 256.62L552.268 256.94C551.815 257.22 551.435 257.5 551.128 257.78C550.835 258.06 550.615 258.36 550.468 258.68C550.322 258.987 550.248 259.34 550.248 259.74C550.248 260.367 550.475 260.86 550.928 261.22C551.382 261.58 552.035 261.76 552.888 261.76ZM553.328 250.9C552.822 250.9 552.415 251.047 552.108 251.34C551.802 251.633 551.648 252.02 551.648 252.5C551.648 252.753 551.695 252.993 551.788 253.22C551.882 253.447 552.035 253.693 552.248 253.96C552.462 254.213 552.742 254.527 553.088 254.9L552.488 254.94C553.315 254.487 553.915 254.073 554.288 253.7C554.675 253.313 554.868 252.873 554.868 252.38C554.868 251.913 554.728 251.553 554.448 251.3C554.168 251.033 553.795 250.9 553.328 250.9ZM571.806 263.5L566.826 249.4H569.506L573.346 260.96H572.546L576.686 249.4H578.606L582.446 260.96H581.706L585.726 249.4H588.246L583.226 263.5H581.086L577.366 252.66H577.806L573.946 263.5H571.806ZM590.308 263.5V249.4H599.808V251.42H592.788V255.32H599.348V257.36H592.788V261.46H599.808V263.5H590.308ZM602.203 263.5V249.4H604.783V261.32H611.423V263.5H602.203ZM613.394 263.5V249.4H615.974V261.32H622.614V263.5H613.394ZM624.585 263.5V249.4H630.765C632.299 249.4 633.479 249.727 634.305 250.38C635.132 251.02 635.545 251.913 635.545 253.06C635.545 253.913 635.292 254.633 634.785 255.22C634.279 255.807 633.579 256.2 632.685 256.4V256.1C633.712 256.247 634.505 256.62 635.065 257.22C635.639 257.807 635.925 258.587 635.925 259.56C635.925 260.813 635.492 261.787 634.625 262.48C633.759 263.16 632.552 263.5 631.005 263.5H624.585ZM627.065 261.54H630.705C631.572 261.54 632.245 261.38 632.725 261.06C633.205 260.727 633.445 260.187 633.445 259.44C633.445 258.68 633.205 258.14 632.725 257.82C632.245 257.487 631.572 257.32 630.705 257.32H627.065V261.54ZM627.065 255.38H630.325C631.245 255.38 631.925 255.213 632.365 254.88C632.819 254.533 633.045 254.027 633.045 253.36C633.045 252.693 632.819 252.193 632.365 251.86C631.925 251.513 631.245 251.34 630.325 251.34H627.065V255.38ZM638.394 263.5V249.4H647.894V251.42H640.874V255.32H647.434V257.36H640.874V261.46H647.894V263.5H638.394ZM650.289 263.5V249.4H652.869V263.5H650.289ZM655.972 263.5V249.4H657.912L666.092 259.98H665.572V249.4H667.972V263.5H666.032L657.872 252.92H658.372V263.5H655.972ZM677.87 263.7C676.283 263.7 674.95 263.407 673.87 262.82C672.79 262.233 671.976 261.4 671.43 260.32C670.883 259.24 670.61 257.96 670.61 256.48C670.61 254.987 670.903 253.7 671.49 252.62C672.076 251.527 672.916 250.687 674.01 250.1C675.116 249.5 676.443 249.2 677.99 249.2C679.016 249.2 679.916 249.34 680.69 249.62C681.463 249.887 682.143 250.28 682.73 250.8L681.87 252.8C681.443 252.467 681.036 252.2 680.65 252C680.263 251.8 679.863 251.66 679.45 251.58C679.036 251.487 678.556 251.44 678.01 251.44C676.463 251.44 675.29 251.88 674.49 252.76C673.703 253.627 673.31 254.873 673.31 256.5C673.31 258.127 673.683 259.367 674.43 260.22C675.19 261.073 676.376 261.5 677.99 261.5C678.536 261.5 679.083 261.447 679.63 261.34C680.19 261.233 680.736 261.08 681.27 260.88L680.79 261.96V257.74H677.49V255.86H682.93V262.64C682.276 262.973 681.496 263.233 680.59 263.42C679.683 263.607 678.776 263.7 677.87 263.7ZM690.794 263.7C689.661 263.7 688.614 263.56 687.654 263.28C686.708 262.987 685.894 262.587 685.214 262.08L686.014 260.06C686.468 260.38 686.941 260.653 687.434 260.88C687.928 261.093 688.454 261.26 689.014 261.38C689.574 261.487 690.168 261.54 690.794 261.54C691.848 261.54 692.608 261.367 693.074 261.02C693.541 260.673 693.774 260.22 693.774 259.66C693.774 259.167 693.614 258.793 693.294 258.54C692.974 258.273 692.401 258.053 691.574 257.88L689.314 257.42C688.021 257.153 687.054 256.707 686.414 256.08C685.774 255.453 685.454 254.613 685.454 253.56C685.454 252.68 685.688 251.913 686.154 251.26C686.621 250.607 687.274 250.1 688.114 249.74C688.954 249.38 689.934 249.2 691.054 249.2C692.054 249.2 692.981 249.347 693.834 249.64C694.688 249.92 695.401 250.327 695.974 250.86L695.174 252.78C694.601 252.3 693.974 251.947 693.294 251.72C692.614 251.48 691.854 251.36 691.014 251.36C690.068 251.36 689.328 251.547 688.794 251.92C688.274 252.28 688.014 252.78 688.014 253.42C688.014 253.913 688.174 254.307 688.494 254.6C688.828 254.893 689.388 255.12 690.174 255.28L692.414 255.72C693.748 255.987 694.734 256.427 695.374 257.04C696.014 257.64 696.334 258.453 696.334 259.48C696.334 260.32 696.108 261.06 695.654 261.7C695.201 262.327 694.561 262.82 693.734 263.18C692.908 263.527 691.928 263.7 690.794 263.7Z" fill="white"/>
<path d="M36.7625 173.804C29.4238 173.804 23.0238 171.671 17.5625 167.404C12.1865 163.052 8.04783 157.207 5.14649 149.868C2.33049 142.444 0.922494 134.209 0.922494 125.164C0.922494 116.545 2.37316 108.652 5.27449 101.484C8.17583 94.316 12.3145 88.6413 17.6905 84.46C23.0665 80.1933 29.3385 78.06 36.5065 78.06C40.2612 78.06 43.8025 78.9133 47.1305 80.62C50.4585 82.3267 53.1892 84.1613 55.3225 86.124C57.3705 88.0013 58.7358 88.94 59.4185 88.94C60.1012 88.94 60.5705 88.7267 60.8265 88.3C61.1678 87.8733 61.5092 87.1907 61.8505 86.252L64.2825 79.084H67.4825L67.9945 118.764H64.4105C62.5332 110.657 60.1012 103.873 57.1145 98.412C54.1278 92.8653 50.8425 88.7693 47.2585 86.124C43.7598 83.4787 40.2612 82.156 36.7625 82.156C30.8745 82.156 26.3092 83.948 23.0665 87.532C19.8238 91.0307 17.5625 95.9373 16.2825 102.252C15.0878 108.567 14.4905 116.46 14.4905 125.932C14.4905 135.404 15.0878 143.297 16.2825 149.612C17.5625 155.927 19.8238 160.876 23.0665 164.46C26.3092 167.959 30.8745 169.708 36.7625 169.708C39.9198 169.708 42.9492 168.599 45.8505 166.38C48.7518 164.076 51.0985 161.175 52.8905 157.676C54.7678 154.177 55.7065 150.721 55.7065 147.308V135.788C55.7065 134.593 55.4078 133.74 54.8105 133.228C54.2985 132.631 53.4452 132.332 52.2505 132.332H38.0425V128.236H80.2825V132.332H70.9385C69.7438 132.332 68.8478 132.631 68.2505 133.228C67.7385 133.74 67.4825 134.593 67.4825 135.788V173.164H63.3865V161.516C63.3865 160.065 63.2158 158.999 62.8745 158.316C62.5332 157.548 61.9785 157.164 61.2105 157.164C60.2718 157.164 59.4612 157.505 58.7785 158.188C58.0958 158.871 57.4132 159.809 56.7305 161.004C54.7678 164.161 51.9945 167.105 48.4105 169.836C44.8265 172.481 40.9438 173.804 36.7625 173.804ZM110.2 173.036C102.264 173.036 95.8635 170.348 90.9995 164.972C86.2208 159.596 83.8315 152.129 83.8315 142.572C83.8315 137.111 84.8982 132.033 87.0315 127.34C89.1648 122.561 92.1088 118.764 95.8635 115.948C99.7035 113.047 103.97 111.596 108.664 111.596C113.869 111.596 118.136 113.004 121.464 115.82C124.792 118.636 127.181 122.22 128.632 126.572C130.168 130.839 130.936 135.233 130.936 139.756C130.936 140.695 130.637 141.335 130.04 141.676C129.442 141.932 128.418 142.06 126.968 142.06H95.0955C95.0955 150.593 96.2902 157.377 98.6795 162.412C101.154 167.447 105.165 169.964 110.712 169.964C114.637 169.964 118.306 168.471 121.72 165.484C125.218 162.497 127.437 157.847 128.376 151.532H131.448C130.936 157.761 128.76 162.924 124.92 167.02C121.165 171.031 116.258 173.036 110.2 173.036ZM119.928 138.988C119.928 132.161 119.032 126.401 117.24 121.708C115.448 117.015 112.504 114.668 108.408 114.668C104.056 114.668 100.728 117.057 98.4235 121.836C96.2048 126.529 95.0955 132.247 95.0955 138.988H119.928ZM135.026 168.428H140.402C141.426 168.428 142.152 168.215 142.578 167.788C143.005 167.361 143.218 166.636 143.218 165.612V119.02C143.218 117.996 143.005 117.271 142.578 116.844C142.152 116.417 141.426 116.204 140.402 116.204H135.026V113.132H152.434V125.932L152.946 126.06C154.738 121.623 157.042 118.124 159.858 115.564C162.76 112.919 165.832 111.596 169.074 111.596C172.317 111.596 174.962 112.535 177.01 114.412C179.058 116.289 180.082 118.849 180.082 122.092C180.082 123.969 179.4 125.804 178.034 127.596C176.754 129.388 175.09 130.284 173.042 130.284C171.421 130.284 170.056 129.857 168.946 129.004C167.837 128.151 167.282 126.956 167.282 125.42C167.282 123.628 168.136 122.092 169.842 120.812C170.61 120.3 171.165 119.831 171.506 119.404C171.933 118.977 172.146 118.423 172.146 117.74C172.146 116.972 171.762 116.375 170.994 115.948C170.312 115.436 169.33 115.18 168.05 115.18C165.405 115.18 162.845 116.46 160.37 119.02C157.981 121.58 156.061 124.908 154.61 129.004C153.16 133.1 152.434 137.367 152.434 141.804V165.612C152.434 166.636 152.648 167.361 153.074 167.788C153.501 168.215 154.226 168.428 155.25 168.428H160.626V171.5H135.026V168.428ZM198.791 173.036C194.268 173.036 190.343 171.927 187.015 169.708C183.772 167.489 182.151 163.564 182.151 157.932C182.151 153.58 183.26 150.167 185.479 147.692C187.697 145.217 190.257 143.468 193.159 142.444C196.145 141.335 199.729 140.396 203.911 139.628L215.687 137.452V126.572C215.687 118.636 211.719 114.668 203.783 114.668C200.881 114.668 198.236 115.436 195.847 116.972C193.457 118.423 192.263 120.087 192.263 121.964C192.263 122.817 192.391 123.457 192.647 123.884C192.817 124.14 193.073 124.396 193.415 124.652C193.841 124.908 194.225 125.079 194.567 125.164C196.103 125.591 197.255 126.188 198.023 126.956C198.876 127.724 199.303 128.791 199.303 130.156C199.303 131.948 198.748 133.228 197.639 133.996C196.615 134.764 195.292 135.148 193.671 135.148C191.793 135.148 190.087 134.423 188.551 132.972C187.015 131.521 186.247 129.431 186.247 126.7C186.247 123.543 187.1 120.812 188.807 118.508C190.599 116.204 192.86 114.497 195.591 113.388C198.407 112.193 201.265 111.596 204.167 111.596C209.799 111.596 214.663 113.089 218.759 116.076C222.855 118.977 224.903 123.543 224.903 129.772V161.26C224.903 165.527 226.225 167.66 228.871 167.66C231.004 167.66 232.54 166.423 233.479 163.948C234.417 161.473 234.887 158.444 234.887 154.86H237.191C237.191 159.98 236.423 164.289 234.887 167.788C233.436 171.287 230.791 173.036 226.951 173.036C223.281 173.036 220.508 171.969 218.631 169.836C216.839 167.617 215.857 164.588 215.687 160.748L215.047 160.492C213.767 163.479 211.676 166.337 208.775 169.068C205.959 171.713 202.631 173.036 198.791 173.036ZM200.839 168.428C204.679 168.428 207.665 166.935 209.799 163.948C212.017 160.876 213.98 156.993 215.687 152.3V140.14L204.551 142.572C200.455 143.425 197.468 145.132 195.591 147.692C193.799 150.167 192.903 153.708 192.903 158.316C192.903 162.241 193.713 164.929 195.335 166.38C196.956 167.745 198.791 168.428 200.839 168.428ZM237.976 168.428H243.352C244.376 168.428 245.102 168.215 245.528 167.788C245.955 167.361 246.168 166.636 246.168 165.612V119.02C246.168 117.996 245.955 117.271 245.528 116.844C245.102 116.417 244.376 116.204 243.352 116.204H237.976V113.132H255.384V125.932L255.896 126.06C257.688 121.623 259.992 118.124 262.808 115.564C265.71 112.919 268.782 111.596 272.024 111.596C275.267 111.596 277.912 112.535 279.96 114.412C282.008 116.289 283.032 118.849 283.032 122.092C283.032 123.969 282.35 125.804 280.984 127.596C279.704 129.388 278.04 130.284 275.992 130.284C274.371 130.284 273.006 129.857 271.896 129.004C270.787 128.151 270.232 126.956 270.232 125.42C270.232 123.628 271.086 122.092 272.792 120.812C273.56 120.3 274.115 119.831 274.456 119.404C274.883 118.977 275.096 118.423 275.096 117.74C275.096 116.972 274.712 116.375 273.944 115.948C273.262 115.436 272.28 115.18 271 115.18C268.355 115.18 265.795 116.46 263.32 119.02C260.931 121.58 259.011 124.908 257.56 129.004C256.11 133.1 255.384 137.367 255.384 141.804V165.612C255.384 166.636 255.598 167.361 256.024 167.788C256.451 168.215 257.176 168.428 258.2 168.428H263.576V171.5H237.976V168.428ZM307.884 173.036C303.874 173.036 300.119 171.713 296.62 169.068C293.207 166.337 290.476 162.625 288.428 157.932C286.38 153.239 285.356 148.033 285.356 142.316C285.356 136.599 286.38 131.393 288.428 126.7C290.476 122.007 293.207 118.337 296.62 115.692C300.119 112.961 303.874 111.596 307.884 111.596C311.212 111.596 314.199 112.705 316.844 114.924C319.49 117.057 321.452 119.66 322.732 122.732L323.244 122.604V86.252C323.244 85.228 323.031 84.5027 322.604 84.076C322.178 83.6493 321.452 83.436 320.428 83.436H311.212V80.364H332.46V165.612C332.46 166.636 332.674 167.361 333.1 167.788C333.527 168.215 334.252 168.428 335.276 168.428H341.932V171.5H323.244V162.028L322.732 161.9C321.111 165.313 319.02 168.044 316.46 170.092C313.986 172.055 311.127 173.036 307.884 173.036ZM309.292 169.452C311.852 169.452 314.199 168.513 316.332 166.636C318.466 164.759 320.13 162.199 321.324 158.956C322.604 155.628 323.244 152.044 323.244 148.204V136.428C323.244 132.588 322.604 129.047 321.324 125.804C320.13 122.476 318.466 119.873 316.332 117.996C314.199 116.119 311.852 115.18 309.292 115.18C305.111 115.18 301.954 117.527 299.82 122.22C297.687 126.913 296.62 133.612 296.62 142.316C296.62 151.02 297.687 157.719 299.82 162.412C301.954 167.105 305.111 169.452 309.292 169.452ZM384.616 173.804C381.032 173.804 377.49 173.036 373.992 171.5C370.578 169.879 367.592 168.129 365.032 166.252C361.448 163.521 359.314 162.156 358.632 162.156C356.925 162.156 355.816 163.991 355.304 167.66L354.792 172.78H351.848L350.952 132.332H354.024C354.536 138.647 356.285 144.705 359.272 150.508C362.344 156.225 366.141 160.876 370.664 164.46C375.186 167.959 379.837 169.708 384.616 169.708C391.613 169.708 396.69 168.001 399.848 164.588C403.09 161.175 404.712 157.079 404.712 152.3C404.712 148.119 403.474 144.833 401 142.444C398.61 140.055 395.069 137.921 390.376 136.044L370.92 128.236C364.178 125.505 359.186 122.007 355.944 117.74C352.786 113.388 351.208 108.183 351.208 102.124C351.208 93.932 353.597 87.8733 358.376 83.948C363.154 80.0227 369.128 78.06 376.296 78.06C381.928 78.06 388.157 80.62 394.984 85.74C395.837 86.3373 396.69 86.892 397.544 87.404C398.397 87.8307 399.165 88.044 399.848 88.044C401.298 88.044 402.152 87.02 402.408 84.972L402.92 80.364H405.992L407.271 113.644H404.2C402.834 107.5 400.658 102.039 397.672 97.26C394.77 92.4813 391.357 88.7693 387.432 86.124C383.506 83.4787 379.453 82.156 375.272 82.156C370.493 82.156 366.568 83.7347 363.496 86.892C360.424 89.964 358.888 94.2733 358.888 99.82C358.888 103.66 359.869 106.647 361.832 108.78C363.794 110.913 366.696 112.748 370.536 114.284L395.24 124.14C400.957 126.444 405.224 129.729 408.04 133.996C410.941 138.263 412.392 142.743 412.392 147.436C412.392 151.959 411.368 156.225 409.32 160.236C407.357 164.247 404.285 167.532 400.104 170.092C396.008 172.567 390.845 173.804 384.616 173.804ZM416.246 197.868H422.902C423.926 197.868 424.652 197.655 425.078 197.228C425.505 196.801 425.718 196.076 425.718 195.052V119.02C425.718 117.996 425.505 117.271 425.078 116.844C424.652 116.417 423.926 116.204 422.902 116.204H416.246V113.132H434.934V122.604L435.446 122.732C437.068 119.319 439.116 116.631 441.59 114.668C444.15 112.62 447.052 111.596 450.294 111.596C454.305 111.596 458.017 112.961 461.43 115.692C464.929 118.337 467.702 122.007 469.75 126.7C471.798 131.393 472.822 136.599 472.822 142.316C472.822 148.033 471.798 153.239 469.75 157.932C467.702 162.625 464.929 166.337 461.43 169.068C458.017 171.713 454.305 173.036 450.294 173.036C446.966 173.036 443.98 171.969 441.334 169.836C438.689 167.617 436.726 164.972 435.446 161.9L434.934 162.028V195.052C434.934 196.076 435.148 196.801 435.574 197.228C436.001 197.655 436.726 197.868 437.75 197.868H444.406V200.94H416.246V197.868ZM448.886 169.452C453.068 169.452 456.225 167.105 458.358 162.412C460.492 157.719 461.558 151.02 461.558 142.316C461.558 133.612 460.492 126.913 458.358 122.22C456.225 117.527 453.068 115.18 448.886 115.18C446.326 115.18 443.98 116.119 441.846 117.996C439.713 119.873 438.006 122.476 436.726 125.804C435.532 129.047 434.934 132.588 434.934 136.428V148.204C434.934 152.044 435.532 155.628 436.726 158.956C438.006 162.199 439.713 164.759 441.846 166.636C443.98 168.513 446.326 169.452 448.886 169.452ZM505.024 173.036C497.088 173.036 490.688 170.348 485.824 164.972C481.046 159.596 478.656 152.129 478.656 142.572C478.656 137.111 479.723 132.033 481.856 127.34C483.99 122.561 486.934 118.764 490.688 115.948C494.528 113.047 498.795 111.596 503.488 111.596C508.694 111.596 512.96 113.004 516.288 115.82C519.616 118.636 522.006 122.22 523.456 126.572C524.992 130.839 525.76 135.233 525.76 139.756C525.76 140.695 525.462 141.335 524.864 141.676C524.267 141.932 523.243 142.06 521.792 142.06H489.92C489.92 150.593 491.115 157.377 493.504 162.412C495.979 167.447 499.99 169.964 505.536 169.964C509.462 169.964 513.131 168.471 516.544 165.484C520.043 162.497 522.262 157.847 523.2 151.532H526.272C525.76 157.761 523.584 162.924 519.744 167.02C515.99 171.031 511.083 173.036 505.024 173.036ZM514.752 138.988C514.752 132.161 513.856 126.401 512.064 121.708C510.272 117.015 507.328 114.668 503.232 114.668C498.88 114.668 495.552 117.057 493.248 121.836C491.03 126.529 489.92 132.247 489.92 138.988H514.752ZM529.852 168.428H535.228C536.252 168.428 536.977 168.215 537.404 167.788C537.83 167.361 538.044 166.636 538.044 165.612V119.02C538.044 117.996 537.83 117.271 537.404 116.844C536.977 116.417 536.252 116.204 535.228 116.204H529.852V113.132H547.26V123.628L547.772 123.756C549.734 119.66 552.166 116.631 555.068 114.668C557.969 112.62 561.169 111.596 564.668 111.596C570.897 111.596 575.292 113.516 577.852 117.356C580.497 121.196 581.82 125.804 581.82 131.18V165.612C581.82 166.636 582.033 167.361 582.46 167.788C582.886 168.215 583.612 168.428 584.636 168.428H590.012V171.5H564.412V168.428H569.788C570.812 168.428 571.537 168.215 571.964 167.788C572.39 167.361 572.604 166.636 572.604 165.612V128.748C572.604 124.993 571.836 121.793 570.3 119.148C568.849 116.503 566.332 115.18 562.748 115.18C559.761 115.18 557.073 116.247 554.684 118.38C552.38 120.428 550.545 123.287 549.18 126.956C547.9 130.54 547.26 134.551 547.26 138.988V165.612C547.26 166.636 547.473 167.361 547.9 167.788C548.326 168.215 549.052 168.428 550.076 168.428H555.452V171.5H529.852V168.428ZM618.945 173.036C613.995 173.036 609.601 171.671 605.761 168.94C602.006 166.209 599.062 162.497 596.929 157.804C594.881 153.111 593.857 147.948 593.857 142.316C593.857 136.684 594.923 131.521 597.057 126.828C599.19 122.135 602.134 118.423 605.889 115.692C609.729 112.961 614.081 111.596 618.945 111.596C622.87 111.596 626.283 112.449 629.185 114.156C632.086 115.777 634.305 117.911 635.841 120.556C637.377 123.116 638.145 125.719 638.145 128.364C638.145 131.009 637.462 133.1 636.097 134.636C634.731 136.087 633.067 136.812 631.105 136.812C629.398 136.812 627.947 136.257 626.753 135.148C625.643 134.039 625.089 132.716 625.089 131.18C625.089 129.644 625.515 128.364 626.369 127.34C627.222 126.316 628.246 125.633 629.441 125.292C630.806 124.865 631.489 124.097 631.489 122.988C631.489 121.964 631.019 120.812 630.081 119.532C629.227 118.252 627.862 117.143 625.985 116.204C624.107 115.18 621.761 114.668 618.945 114.668C613.569 114.668 609.899 116.972 607.937 121.58C606.059 126.188 605.121 133.1 605.121 142.316C605.121 151.532 606.059 158.444 607.937 163.052C609.814 167.66 613.483 169.964 618.945 169.964C624.15 169.964 628.161 168.129 630.977 164.46C633.793 160.791 635.499 156.481 636.097 151.532H639.169C638.913 155.031 638.017 158.444 636.481 161.772C634.945 165.015 632.683 167.703 629.697 169.836C626.71 171.969 623.126 173.036 618.945 173.036ZM669.575 173.036C661.639 173.036 655.239 170.348 650.375 164.972C645.596 159.596 643.207 152.129 643.207 142.572C643.207 137.111 644.273 132.033 646.407 127.34C648.54 122.561 651.484 118.764 655.239 115.948C659.079 113.047 663.345 111.596 668.039 111.596C673.244 111.596 677.511 113.004 680.839 115.82C684.167 118.636 686.556 122.22 688.007 126.572C689.543 130.839 690.311 135.233 690.311 139.756C690.311 140.695 690.012 141.335 689.415 141.676C688.817 141.932 687.793 142.06 686.343 142.06H654.471C654.471 150.593 655.665 157.377 658.055 162.412C660.529 167.447 664.54 169.964 670.087 169.964C674.012 169.964 677.681 168.471 681.095 165.484C684.593 162.497 686.812 157.847 687.751 151.532H690.823C690.311 157.761 688.135 162.924 684.295 167.02C680.54 171.031 675.633 173.036 669.575 173.036ZM679.303 138.988C679.303 132.161 678.407 126.401 676.615 121.708C674.823 117.015 671.879 114.668 667.783 114.668C663.431 114.668 660.103 117.057 657.799 121.836C655.58 126.529 654.471 132.247 654.471 138.988H679.303ZM694.401 168.428H699.777C700.801 168.428 701.527 168.215 701.953 167.788C702.38 167.361 702.593 166.636 702.593 165.612V119.02C702.593 117.996 702.38 117.271 701.953 116.844C701.527 116.417 700.801 116.204 699.777 116.204H694.401V113.132H711.809V125.932L712.321 126.06C714.113 121.623 716.417 118.124 719.233 115.564C722.135 112.919 725.207 111.596 728.449 111.596C731.692 111.596 734.337 112.535 736.385 114.412C738.433 116.289 739.457 118.849 739.457 122.092C739.457 123.969 738.775 125.804 737.409 127.596C736.129 129.388 734.465 130.284 732.417 130.284C730.796 130.284 729.431 129.857 728.321 129.004C727.212 128.151 726.657 126.956 726.657 125.42C726.657 123.628 727.511 122.092 729.217 120.812C729.985 120.3 730.54 119.831 730.881 119.404C731.308 118.977 731.521 118.423 731.521 117.74C731.521 116.972 731.137 116.375 730.369 115.948C729.687 115.436 728.705 115.18 727.425 115.18C724.78 115.18 722.22 116.46 719.745 119.02C717.356 121.58 715.436 124.908 713.985 129.004C712.535 133.1 711.809 137.367 711.809 141.804V165.612C711.809 166.636 712.023 167.361 712.449 167.788C712.876 168.215 713.601 168.428 714.625 168.428H720.001V171.5H694.401V168.428Z" fill="white"/>
<path d="M419.426 88.404H431.714C434.018 88.404 435.17 87.252 435.17 84.948V8.532C435.17 7.33733 434.914 6.484 434.403 5.97199C433.89 5.37466 432.994 5.076 431.714 5.076H427.106C421.73 5.076 417.08 7.80666 413.154 13.268C410.68 16.7667 409.016 21.1613 408.162 26.452C407.309 31.6573 406.882 35.4973 406.882 37.972H403.298L404.322 1.364H477.795L478.819 37.972H475.234C475.234 35.4973 474.808 31.6573 473.954 26.452C473.101 21.1613 471.437 16.7667 468.963 13.268C465.037 7.80666 460.387 5.076 455.01 5.076H450.403C449.122 5.076 448.226 5.37466 447.715 5.97199C447.202 6.484 446.946 7.33733 446.946 8.532V84.948C446.946 87.252 448.098 88.404 450.403 88.404H462.69V92.5H419.426V88.404ZM481.361 89.428H488.529C489.553 89.428 490.279 89.2147 490.705 88.788C491.132 88.3613 491.345 87.636 491.345 86.612V7.252C491.345 6.228 491.132 5.50266 490.705 5.076C490.279 4.64933 489.553 4.436 488.529 4.436H481.361V1.364H500.561V44.628L501.073 44.756C503.036 40.66 505.468 37.6307 508.369 35.668C511.271 33.62 514.471 32.596 517.969 32.596C524.199 32.596 528.593 34.516 531.153 38.356C533.799 42.196 535.121 46.804 535.121 52.18V86.612C535.121 87.636 535.335 88.3613 535.761 88.788C536.188 89.2147 536.914 89.428 537.938 89.428H543.313V92.5H517.713V89.428H523.089C524.113 89.428 524.839 89.2147 525.265 88.788C525.692 88.3613 525.905 87.636 525.905 86.612V49.748C525.905 45.9933 525.137 42.7933 523.601 40.148C522.151 37.5027 519.633 36.18 516.049 36.18C513.063 36.18 510.375 37.2467 507.985 39.38C505.681 41.428 503.847 44.2867 502.481 47.956C501.201 51.54 500.561 55.5507 500.561 59.988V86.612C500.561 87.636 500.775 88.3613 501.201 88.788C501.628 89.2147 502.353 89.428 503.377 89.428H508.753V92.5H481.361V89.428ZM572.235 94.036C564.299 94.036 557.899 91.348 553.035 85.972C548.256 80.596 545.867 73.1293 545.867 63.572C545.867 58.1107 546.933 53.0333 549.067 48.34C551.2 43.5613 554.144 39.764 557.899 36.948C561.739 34.0467 566.005 32.596 570.699 32.596C575.904 32.596 580.171 34.004 583.499 36.82C586.827 39.636 589.216 43.22 590.667 47.572C592.203 51.8387 592.971 56.2333 592.971 60.756C592.971 61.6947 592.672 62.3347 592.075 62.676C591.477 62.932 590.453 63.06 589.003 63.06H557.131C557.131 71.5933 558.325 78.3773 560.715 83.412C563.189 88.4467 567.2 90.964 572.747 90.964C576.672 90.964 580.341 89.4707 583.755 86.484C587.253 83.4973 589.472 78.8467 590.411 72.532H593.483C592.971 78.7613 590.795 83.924 586.955 88.02C583.2 92.0307 578.293 94.036 572.235 94.036ZM581.963 59.988C581.963 53.1613 581.067 47.4013 579.275 42.708C577.483 38.0147 574.539 35.668 570.443 35.668C566.091 35.668 562.763 38.0573 560.459 42.836C558.24 47.5293 557.131 53.2467 557.131 59.988H581.963Z" fill="white"/>
<path d="M77.2885 280.404H86.5045C88.8085 280.404 89.9605 279.252 89.9605 276.948V200.916C89.9605 199.721 89.6618 198.868 89.0645 198.356C88.5525 197.759 87.6992 197.46 86.5045 197.46H77.2885V193.364H120.04C126.014 193.364 131.304 194.388 135.912 196.436C140.606 198.399 144.232 201.215 146.792 204.884C149.438 208.468 150.76 212.564 150.76 217.172C150.76 221.865 149.438 226.047 146.792 229.716C144.232 233.385 140.606 236.287 135.912 238.42C131.304 240.468 126.014 241.492 120.04 241.492H101.736V276.948C101.736 278.143 101.992 279.039 102.504 279.636C103.016 280.148 103.912 280.404 105.192 280.404H116.456V284.5H77.2885V280.404ZM121.704 237.396C126.312 237.396 130.024 235.433 132.84 231.508C135.742 227.497 137.192 222.719 137.192 217.172C137.192 211.625 135.784 206.975 132.968 203.22C130.152 199.38 126.398 197.46 121.704 197.46H105.192C103.998 197.46 103.102 197.759 102.504 198.356C101.992 198.868 101.736 199.721 101.736 200.916V237.396H121.704ZM153.536 281.428H158.912C159.936 281.428 160.662 281.215 161.088 280.788C161.515 280.361 161.728 279.636 161.728 278.612V232.02C161.728 230.996 161.515 230.271 161.088 229.844C160.662 229.417 159.936 229.204 158.912 229.204H153.536V226.132H170.944V238.932L171.456 239.06C173.248 234.623 175.552 231.124 178.368 228.564C181.27 225.919 184.342 224.596 187.584 224.596C190.827 224.596 193.472 225.535 195.52 227.412C197.568 229.289 198.592 231.849 198.592 235.092C198.592 236.969 197.91 238.804 196.544 240.596C195.264 242.388 193.6 243.284 191.552 243.284C189.931 243.284 188.566 242.857 187.456 242.004C186.347 241.151 185.792 239.956 185.792 238.42C185.792 236.628 186.646 235.092 188.352 233.812C189.12 233.3 189.675 232.831 190.016 232.404C190.443 231.977 190.656 231.423 190.656 230.74C190.656 229.972 190.272 229.375 189.504 228.948C188.822 228.436 187.84 228.18 186.56 228.18C183.915 228.18 181.355 229.46 178.88 232.02C176.491 234.58 174.571 237.908 173.12 242.004C171.67 246.1 170.944 250.367 170.944 254.804V278.612C170.944 279.636 171.158 280.361 171.584 280.788C172.011 281.215 172.736 281.428 173.76 281.428H179.136V284.5H153.536V281.428ZM225.236 286.036C220.543 286.036 216.234 284.671 212.308 281.94C208.383 279.124 205.268 275.369 202.964 270.676C200.746 265.983 199.636 260.863 199.636 255.316C199.636 249.769 200.746 244.649 202.964 239.956C205.268 235.263 208.383 231.551 212.308 228.82C216.234 226.004 220.543 224.596 225.236 224.596C229.93 224.596 234.239 226.004 238.164 228.82C242.09 231.551 245.162 235.263 247.38 239.956C249.684 244.649 250.836 249.769 250.836 255.316C250.836 260.863 249.684 265.983 247.38 270.676C245.162 275.369 242.09 279.124 238.164 281.94C234.239 284.671 229.93 286.036 225.236 286.036ZM225.236 282.964C230.356 282.964 234.026 280.575 236.244 275.796C238.463 270.932 239.572 264.105 239.572 255.316C239.572 246.527 238.463 239.743 236.244 234.964C234.026 230.1 230.356 227.668 225.236 227.668C220.116 227.668 216.447 230.1 214.228 234.964C212.01 239.743 210.9 246.527 210.9 255.316C210.9 264.105 212.01 270.932 214.228 275.796C216.447 280.575 220.116 282.964 225.236 282.964ZM271.841 210.26C269.963 210.26 268.385 209.62 267.105 208.34C265.825 207.06 265.185 205.481 265.185 203.604C265.185 201.641 265.825 200.063 267.105 198.868C268.385 197.588 269.963 196.948 271.841 196.948C273.803 196.948 275.382 197.588 276.577 198.868C277.857 200.063 278.497 201.641 278.497 203.604C278.497 205.481 277.857 207.06 276.577 208.34C275.382 209.62 273.803 210.26 271.841 210.26ZM257.633 314.964C254.049 314.964 250.977 313.855 248.416 311.636C245.771 309.503 244.448 306.601 244.448 302.932C244.448 300.628 245.131 298.665 246.496 297.044C247.776 295.508 249.355 294.74 251.233 294.74C252.683 294.74 253.835 295.124 254.689 295.892C255.542 296.745 255.969 297.812 255.969 299.092C255.969 300.116 255.713 300.969 255.201 301.652C254.774 302.42 254.134 303.188 253.281 303.956C252.001 305.151 251.361 306.431 251.361 307.796C251.361 309.247 252.001 310.271 253.281 310.868C254.646 311.551 256.182 311.892 257.889 311.892C260.705 311.892 263.094 310.527 265.057 307.796C267.019 305.065 268.001 300.329 268.001 293.588V232.02C268.001 230.996 267.787 230.271 267.361 229.844C266.934 229.417 266.209 229.204 265.185 229.204H255.969V226.132H277.217V290.004C277.217 295.721 276.235 300.457 274.273 304.212C272.395 307.967 269.963 310.697 266.977 312.404C263.99 314.111 260.875 314.964 257.633 314.964ZM315.144 286.036C307.208 286.036 300.808 283.348 295.944 277.972C291.166 272.596 288.776 265.129 288.776 255.572C288.776 250.111 289.843 245.033 291.976 240.34C294.11 235.561 297.054 231.764 300.808 228.948C304.648 226.047 308.915 224.596 313.608 224.596C318.814 224.596 323.08 226.004 326.408 228.82C329.736 231.636 332.126 235.22 333.576 239.572C335.112 243.839 335.88 248.233 335.88 252.756C335.88 253.695 335.582 254.335 334.984 254.676C334.387 254.932 333.363 255.06 331.912 255.06H300.04C300.04 263.593 301.235 270.377 303.624 275.412C306.099 280.447 310.11 282.964 315.656 282.964C319.582 282.964 323.251 281.471 326.664 278.484C330.163 275.497 332.382 270.847 333.32 264.532H336.392C335.88 270.761 333.704 275.924 329.864 280.02C326.11 284.031 321.203 286.036 315.144 286.036ZM324.872 251.988C324.872 245.161 323.976 239.401 322.184 234.708C320.392 230.015 317.448 227.668 313.352 227.668C309 227.668 305.672 230.057 303.368 234.836C301.15 239.529 300.04 245.247 300.04 251.988H324.872ZM365.06 286.036C360.11 286.036 355.716 284.671 351.876 281.94C348.121 279.209 345.177 275.497 343.044 270.804C340.996 266.111 339.972 260.948 339.972 255.316C339.972 249.684 341.038 244.521 343.172 239.828C345.305 235.135 348.249 231.423 352.004 228.692C355.844 225.961 360.196 224.596 365.06 224.596C368.985 224.596 372.398 225.449 375.3 227.156C378.201 228.777 380.42 230.911 381.956 233.556C383.492 236.116 384.26 238.719 384.26 241.364C384.26 244.009 383.577 246.1 382.212 247.636C380.846 249.087 379.182 249.812 377.22 249.812C375.513 249.812 374.062 249.257 372.868 248.148C371.758 247.039 371.204 245.716 371.204 244.18C371.204 242.644 371.63 241.364 372.484 240.34C373.337 239.316 374.361 238.633 375.556 238.292C376.921 237.865 377.604 237.097 377.604 235.988C377.604 234.964 377.134 233.812 376.196 232.532C375.342 231.252 373.977 230.143 372.1 229.204C370.222 228.18 367.876 227.668 365.06 227.668C359.684 227.668 356.014 229.972 354.052 234.58C352.174 239.188 351.236 246.1 351.236 255.316C351.236 264.532 352.174 271.444 354.052 276.052C355.929 280.66 359.598 282.964 365.06 282.964C370.265 282.964 374.276 281.129 377.092 277.46C379.908 273.791 381.614 269.481 382.212 264.532H385.284C385.028 268.031 384.132 271.444 382.596 274.772C381.06 278.015 378.798 280.703 375.812 282.836C372.825 284.969 369.241 286.036 365.06 286.036ZM408.266 286.036C404.426 286.036 401.226 284.671 398.666 281.94C396.191 279.209 394.954 275.497 394.954 270.804V229.716H385.482V226.132H388.298C392.138 226.132 395.124 224.084 397.258 219.988C399.476 215.807 400.586 211.199 400.586 206.164V201.556H404.17V226.132H420.042V229.716H404.17V271.444C404.17 274.004 404.682 276.137 405.706 277.844C406.73 279.551 408.479 280.404 410.954 280.404C417.012 280.404 420.042 275.284 420.042 265.044H422.346C422.346 270.761 421.492 275.711 419.786 279.892C418.164 283.988 414.324 286.036 408.266 286.036Z" fill="white"/>
</g>
<defs>
<clipPath id="clip0_3011_1015">
<rect width="740" height="315" fill="white" transform="translate(0 0.5)"/>
</clipPath>
</defs>
</svg>
