<svg width="194" height="196" viewBox="0 0 194 196" fill="none" xmlns="http://www.w3.org/2000/svg">
<path d="M192.006 83.0183C192.249 84.3367 192.09 85.5335 191.903 85.0473C192.586 87.6934 192.212 87.7963 192.914 88.0768C193.382 89.7973 193.064 91.6954 192.633 89.7318L193.036 92.2284C193.167 93.0606 193.232 93.9021 193.335 94.7436C193.335 93.7338 193.382 92.7239 193.316 91.7235C194 92.5182 193.298 96.5576 194 97.5113C193.925 95.6787 193.906 93.846 193.775 92.0133L193.981 92.2751C193.682 91.0315 193.588 88.6098 193.597 87.7495C193.71 87.8711 193.85 87.7682 193.934 88.7407C193.635 85.4213 193.26 85.0099 192.97 84.7481C192.811 84.6172 192.652 84.5143 192.483 84.1216C192.315 83.7195 192.127 83.0183 191.818 81.6812C191.893 82.0084 191.959 82.4292 192.006 83.0183Z" fill="#FFC441"/>
<path d="M192.324 77.221L191.107 75.1172C190.901 73.8362 190.573 72.5832 190.283 71.3209C190.03 71.3396 189.075 68.6935 189.384 70.5916C189.525 70.9376 189.796 71.6295 189.936 72.2092C189.618 72.069 189.206 70.8628 188.85 69.8342C188.457 68.815 188.092 68.0015 188.026 68.6187C188.607 70.0212 188.794 70.8815 189.047 71.564C189.29 72.256 189.525 72.7889 189.983 73.6398C190.311 74.9956 190.517 76.1925 190.695 77.193C190.873 78.1935 190.966 79.0257 190.976 79.6895C191.2 80.4843 191.538 80.5404 191.79 81.5689C191.744 81.3445 191.697 81.1295 191.641 80.8677L192.408 80.6152C192.081 79.7737 192.043 78.9321 191.809 77.9784C192.427 79.3997 192.97 80.849 193.551 82.2983C193.794 81.5128 193.597 80.0168 193.354 78.4927C193.064 76.9779 192.652 75.4445 192.605 74.5188C192.464 76.8564 191.884 72.8637 192.324 77.221Z" fill="#FFC441"/>
<path d="M191.8 81.5689C191.809 81.597 191.818 81.6438 191.818 81.6812C191.809 81.6438 191.8 81.597 191.8 81.5689Z" fill="#FFC441"/>
<path d="M25.9072 149.004C26.4503 149.743 26.7593 149.845 26.9091 149.902C25.9166 148.508 24.9054 147.134 24.0066 145.684C23.5478 144.965 23.0703 144.254 22.6302 143.525L21.3475 141.309C21.3194 141.683 22.574 144.385 21.4786 142.739C21.6846 143.646 23.3231 145.815 23.7725 145.984L23.0984 145.526C23.9129 146.414 24.3624 147.311 24.5028 147.835C24.6526 148.349 24.4373 148.518 23.8942 147.947L24.0066 148.116C25.7293 149.621 27.3866 151.117 29.1843 152.473C27.7892 150.528 27.5926 151.36 25.9072 149.004Z" fill="#FFC441"/>
<path d="M188.045 112.575C187.877 113.912 187.923 114.09 188.026 113.949C188.055 113.463 188.073 112.996 188.045 112.575Z" fill="#FFC441"/>
<path d="M30.4202 153.427C30.9632 153.857 31.5531 154.249 32.1149 154.652C31.4875 154.119 30.8602 153.716 30.4202 153.427Z" fill="#FFC441"/>
<path d="M15.9264 145.628C15.8983 145.638 15.8702 145.628 15.8702 145.694L16.5818 146.423C16.5724 146.414 16.5724 146.404 16.5724 146.404C16.329 146.124 16.123 145.862 15.9264 145.628Z" fill="#FFC441"/>
<path d="M68.0779 178.401C68.2839 178.467 68.4524 178.532 68.6958 178.607C68.4805 178.523 68.2745 178.458 68.0779 178.401Z" fill="#FFC441"/>
<path d="M2.39691 118.503L3.19276 120.906L3.59537 122.103L4.05415 123.281C3.65154 122.692 4.38185 125.011 3.8388 124.066C3.97925 124.431 4.55975 126.133 4.53166 125.628L4.23205 124.646C5.59903 127.002 5.33687 125.422 7.2001 129.377C6.9473 128.04 6.64768 127.124 6.31998 126.376C6.02037 125.619 5.6833 125.039 5.34624 124.394C5.16834 123.936 5.03726 123.552 4.90618 123.169C4.20396 121.925 3.63282 120.644 3.01486 119.354L2.39691 118.503Z" fill="#FFC441"/>
<path d="M158.955 169.846L158.945 169.921C158.973 169.874 158.973 169.855 158.955 169.846Z" fill="#FFC441"/>
<path d="M158.926 170.211L158.955 169.911C158.823 170.164 158.103 170.846 158.926 170.211Z" fill="#FFC441"/>
<path d="M29.6243 153.099C29.7554 153.071 30.0363 153.184 30.4202 153.417L29.1936 152.454C29.3153 152.641 29.4745 152.875 29.6243 153.099Z" fill="#FFC441"/>
<path d="M26.3473 151.22L24.0159 148.106L22.9579 147.087C23.838 148.293 24.9803 149.63 26.3473 151.22Z" fill="#FFC441"/>
<path d="M62.8159 175.765C69.8849 178.832 60.7654 175.69 63.9301 177.317C64.9226 177.738 65.6529 177.897 66.2802 178.009C66.9075 178.13 67.4412 178.214 68.0779 178.401C65.166 177.42 65.475 177.223 65.784 177.008C66.0929 176.774 66.3738 176.606 63.565 175.419C64.0986 175.288 65.1567 175.606 66.3364 176.008C67.5255 176.391 68.7988 176.933 69.7258 177.392C70.7276 178.055 70.2033 178.018 69.3419 177.831C68.4899 177.616 67.3008 177.27 66.9356 177.466C69.267 178.261 68.8925 178.027 70.0067 178.037C71.8043 178.719 73.7425 179.206 75.5027 179.552C76.3828 179.739 77.1974 179.963 77.9277 180.187C78.6674 180.393 79.3041 180.655 79.819 181.001C82.5624 181.506 82.4594 181.094 84.0792 181.066C84.2945 180.758 83.302 180.487 82.1504 180.215C81.0081 179.898 79.6973 179.524 79.2666 179.159C79.4539 179.262 79.8284 179.467 79.6973 179.533C78.9389 179.299 78.1711 179.112 77.4315 178.832C78.4801 179.252 78.3771 179.365 77.8341 179.402C77.3098 179.402 76.3641 179.262 75.7742 179.121C74.9222 178.897 73.2275 178.448 73.5178 178.317C73.9485 178.42 74.3979 178.476 74.8379 178.551C74.0421 178.233 73.1152 178.046 72.1789 177.831C71.2426 177.616 70.2782 177.41 69.5011 176.915C69.4636 176.737 70.1284 176.924 70.2595 176.859C68.2183 176.559 66.3738 175.886 63.5088 174.904L65.372 175.007C62.8627 174.774 58.0221 172.118 55.026 169.818C55.3256 170.136 55.9435 170.566 55.4754 170.454C53.4904 169.444 52.3482 168.116 53.4062 168.378C52.8819 168.2 52.1796 167.836 51.44 167.303C50.7003 166.76 49.867 166.115 49.0243 165.451C48.1723 164.797 47.3671 164.049 46.5525 163.45C46.1499 163.142 45.7567 162.861 45.3728 162.618C44.9983 162.356 44.6518 162.132 44.3148 161.964C40.1202 159.944 36.0379 157.494 32.1242 154.67C32.5362 155.016 32.9575 155.39 33.3601 155.811C33.5568 156.494 33.7815 156.952 33.7346 157.073C33.6691 157.195 33.3227 156.998 32.377 156.325C34.0624 157.803 33.8845 156.811 36.169 159.205C35.0736 158.466 34.3058 158.728 36.5248 161.047C38.0791 162.328 39.5397 163.441 41.0377 164.357C41.7774 164.825 42.489 165.283 43.2287 165.685C43.9683 166.078 44.6987 166.461 45.4196 166.844C48.3221 168.35 51.2714 169.565 54.5578 171.108C54.5578 171.37 55.8031 172.183 57.348 173.109C58.1157 173.586 59.0052 174.007 59.8198 174.446C60.6437 174.867 61.4021 175.316 62.0294 175.606C60.8591 175.606 58.949 174.783 57.0015 173.857C57.5727 174.222 58.406 174.615 59.2486 175.073C60.11 175.512 60.9902 176.017 61.7766 176.363L62.8159 175.765Z" fill="#FFC441"/>
<path d="M46.4308 167.798C46.5619 167.948 46.721 168.079 46.8802 168.219C46.8147 168.125 46.6836 168.004 46.4308 167.798Z" fill="#FFC441"/>
<path d="M56.4304 173.493C56.4023 173.493 56.4023 173.511 56.3836 173.521C56.5896 173.623 56.7862 173.726 56.9922 173.829C56.7862 173.717 56.5709 173.577 56.4304 173.493Z" fill="#FFC441"/>
<path d="M30.0176 155.222C29.5962 154.951 29.3434 154.698 28.9502 154.399C29.1655 154.605 29.4183 154.876 29.6899 155.119C29.9614 155.334 30.1206 155.418 30.0176 155.222Z" fill="#FFC441"/>
<path d="M29.6243 153.464L29.9239 153.548C29.8116 153.38 29.7273 153.258 29.6243 153.109C29.512 153.127 29.4839 153.221 29.6243 153.464Z" fill="#FFC441"/>
<path d="M90.68 187.453L91.4571 187.415C90.9984 187.387 90.7924 187.406 90.68 187.453Z" fill="#FFC441"/>
<path d="M70.5029 179.692C67.9375 178.86 69.9599 180.272 66.3738 178.878L67.4131 179.327C64.6979 178.673 60.3348 176.475 57.4229 174.961C57.8629 174.914 55.8405 173.698 56.3836 173.521C55.3911 173.006 54.3986 172.511 53.5185 172.081C52.6478 171.632 51.8707 171.286 51.2621 171.155C50.1479 170.323 48.2285 169.388 46.8802 168.219C47.339 168.864 44.296 167.443 48.0225 169.706C47.7135 169.528 47.8633 169.706 47.5637 169.537C49.6236 171.482 50.9531 171.52 52.9568 172.819C54.0335 173.81 50.7565 171.894 51.8519 172.716C53.1627 173.464 55.2132 174.643 56.9173 175.615C58.6681 176.494 60.11 177.12 60.2224 176.644C62.2073 177.532 62.4133 177.803 62.9283 178.243C63.8178 178.373 64.9788 178.794 66.2615 179.243C67.5349 179.72 68.9018 180.328 70.2033 180.767C72.7781 181.768 75.0346 182.385 75.1937 181.768C74.5851 181.618 73.7893 181.412 72.9185 181.188C72.0571 180.935 71.1208 180.683 70.2033 180.515L70.5029 179.692Z" fill="#FFC441"/>
<path d="M33.1729 158.682C33.2852 158.812 33.4444 158.971 33.538 159.084C33.435 158.962 33.2946 158.812 33.1729 158.682Z" fill="#FFC441"/>
<path d="M18.2764 127.685L19.4749 128.414C19.7839 129.134 20.0648 129.808 20.3269 130.425C20.5891 131.042 20.8793 131.603 21.1228 132.145C21.6284 133.211 22.0029 134.193 22.4804 135.1C22.9298 136.016 23.3699 136.914 23.8474 137.886C24.353 138.849 24.9522 139.859 25.6357 141.047C25.7481 141.467 25.3455 140.925 25.1488 140.654C27.1712 143.955 30.3453 148.845 32.4894 150.752C32.6766 150.995 32.9294 151.351 33.1916 151.725C33.4725 152.09 33.7534 152.482 33.9781 152.819C34.4369 153.492 34.6709 153.96 34.1747 153.576C34.6241 153.978 35.1297 154.455 35.5604 154.997C35.4574 155.343 34.4837 153.885 34.2683 154.016C34.6148 154.446 34.7084 154.642 34.8676 154.68C34.0624 154.147 34.7365 156.101 31.8808 152.781C31.3471 151.042 33.9125 155.026 33.8657 153.754C32.9294 152.669 32.8077 152.987 32.6486 152.959C31.4782 151.538 31.6935 151.426 31.8902 151.398C31.2816 150.986 30.0737 149.013 29.2498 148.415C27.1338 145.544 29.8397 148.228 28.4914 146.348C28.0233 146.133 27.527 145.928 27.0682 145.694L25.102 142.346C23.5759 139.99 23.3792 140.327 23.1171 140.598C22.986 140.729 22.8362 140.85 22.4898 140.589C22.1527 140.327 21.5722 139.71 20.7483 138.298C21.1321 138.588 21.1696 138.064 20.973 137.129C20.87 136.661 20.7108 136.091 20.4955 135.474C20.2895 134.847 20.0741 134.146 19.8026 133.445C20.1771 134.258 20.8232 135.371 21.5535 136.502C22.2651 137.653 22.9392 138.877 23.4354 139.915C22.3587 136.792 25.7293 143.758 25.5046 141.926C24.4279 140.71 23.0047 138.438 22.2651 136.474L22.6396 137.045C22.1808 136.035 21.5347 135.278 20.9542 134.361C20.3737 133.445 19.7558 132.416 19.2783 130.948C18.6978 129.536 19.0068 129.723 19.2783 129.901C18.6884 128.76 18.1173 127.75 18.2764 127.685ZM19.6434 130.696C19.8681 131.332 20.149 131.949 20.3925 132.575C20.3269 132.08 19.9899 131.406 19.6434 130.696Z" fill="#FFC441"/>
<path d="M180.639 48.1788C180.733 48.3845 180.836 48.6182 180.929 48.8052C180.883 48.6556 180.77 48.4219 180.639 48.1788Z" fill="#FFC441"/>
<path d="M15.2429 51.3392L15.917 50.2171C15.6361 50.6473 15.4301 51.0119 15.2429 51.3392Z" fill="#FFC441"/>
<path d="M31.3097 26.3643L32.6017 24.8776C32.0587 25.4199 31.6654 25.8875 31.3097 26.3643Z" fill="#FFC441"/>
<path d="M171.566 35.6025L171.529 35.5464C171.445 35.4716 171.389 35.4248 171.304 35.35L171.566 35.6025Z" fill="#FFC441"/>
<path d="M85.081 2.1936C85.3806 2.22165 85.7177 2.24035 86.1671 2.231C86.1109 2.16555 85.6989 2.1562 85.081 2.1936Z" fill="#FFC441"/>
<path d="M31.0756 26.6355C31.113 26.6074 31.1411 26.5887 31.1692 26.5607C31.216 26.4952 31.2628 26.4298 31.3097 26.355L31.0756 26.6355Z" fill="#FFC441"/>
<path d="M7.62143 62.195C7.53716 62.4755 7.47162 62.7186 7.37799 63.0178C7.51844 62.6344 7.58398 62.4007 7.62143 62.195Z" fill="#FFC441"/>
<path d="M10.4022 61.288C10.3086 61.5778 10.2243 61.849 10.1775 62.0734L10.4022 61.288Z" fill="#FFC441"/>
<path d="M2.0973 105.656L2.3501 107.423C2.26583 106.544 2.18156 106.03 2.0973 105.656Z" fill="#FFC441"/>
<path d="M8.24875 65.4676C8.24875 65.5798 8.24875 65.6827 8.25811 65.7668C8.32365 65.5237 8.31429 65.3928 8.24875 65.4676Z" fill="#FFC441"/>
<path d="M183.682 59.0065C183.663 58.9691 183.645 58.9317 183.635 58.913H183.532L183.682 59.0065Z" fill="#FFC441"/>
<path d="M186.388 62.3913C186.594 62.8495 186.8 63.317 187.006 63.7845C186.809 63.2609 186.585 62.756 186.388 62.3913Z" fill="#FFC441"/>
<path d="M110.604 3.17539C111.054 3.34369 112.112 3.62421 111.587 3.68966C112.486 3.63356 112.486 3.23149 110.604 3.17539Z" fill="#FFC441"/>
<path d="M175.564 54.0508C175.789 54.2191 176.014 54.4622 176.248 54.696C175.845 54.2378 175.508 53.8264 175.564 54.0508Z" fill="#FFC441"/>
<path d="M176.248 54.7053C176.445 54.9297 176.66 55.1728 176.847 55.3785C176.65 55.1354 176.445 54.9017 176.248 54.7053Z" fill="#FFC441"/>
<path d="M98.8632 9.03807C98.7602 8.99132 98.5917 8.94457 98.367 8.93522C98.4325 9.03807 98.6104 9.05677 98.8632 9.03807Z" fill="#FFC441"/>
<path d="M187.343 64.972C187.624 65.1497 190.133 71.3209 188.438 65.9912C189.038 66.0099 189.908 69.2919 190.395 70.7132C190.227 69.6285 190.91 71.1246 191.023 70.7506C190.742 70.0493 190.367 69.2358 189.993 68.067C190.068 67.4405 190.863 69.161 191.135 70.6103C190.938 68.7776 192.212 72.6954 191.734 70.1521C189.936 64.944 188.326 61.3721 185.929 58.2491C186.276 58.941 186.641 59.6517 187.006 60.3716C187.324 61.1103 187.643 61.849 187.961 62.569C188.261 63.2983 188.551 64.0089 188.804 64.7009C189.028 65.4021 189.216 66.066 189.365 66.6925L188.541 65.851C188.317 64.411 187.858 63.3451 187.427 62.2698C187.203 61.7368 186.968 61.2132 186.734 60.6522C186.482 60.1005 186.201 59.5301 185.92 58.8756C186.753 60.8205 187.362 62.8401 188.073 64.8224C188.364 66.2904 188.307 66.5616 188.092 66.1969C187.886 65.8323 187.493 64.8318 187.006 63.7845C187.212 64.3175 187.371 64.8037 187.343 64.972Z" fill="#FFC441"/>
<path d="M181.678 62.784L181.706 62.8869C181.753 62.9617 181.809 63.0552 181.847 63.1019L181.678 62.784Z" fill="#FFC441"/>
<path d="M12.3497 104.505L12.5744 104.982C12.4621 104.58 12.3872 104.459 12.3497 104.505Z" fill="#FFC441"/>
<path d="M182.446 58.4922C182.418 58.4548 182.427 58.4548 182.446 58.4922V58.4922Z" fill="#FFC441"/>
<path d="M12.2561 92.1442C12.2654 92.1629 12.2842 92.1816 12.2935 92.2097C12.2842 92.1723 12.2748 92.1629 12.2561 92.1442Z" fill="#FFC441"/>
<path d="M1.58234 87.7682C1.55425 87.7963 1.53552 87.7963 1.50743 87.8524C1.50743 88.1516 1.54488 88.0114 1.58234 87.7682Z" fill="#FFC441"/>
<path d="M12.2093 92.1349C12.228 92.1349 12.2374 92.1255 12.2561 92.1442C12.2467 92.1349 12.228 92.1162 12.2093 92.1349Z" fill="#FFC441"/>
<path d="M34.259 36.7713C34.259 36.7713 34.0624 36.8554 33.7908 37.0144C33.744 37.136 33.8657 37.0892 34.259 36.7713Z" fill="#FFC441"/>
<path d="M25.9634 45.7103C25.8979 45.7664 25.8698 45.7944 25.7855 45.8599L25.9634 45.7103Z" fill="#FFC441"/>
<path d="M107.749 0.575982C107.093 0.51988 106.597 0.491829 106.185 0.482479C106.663 0.52923 107.178 0.566632 107.749 0.575982Z" fill="#FFC441"/>
<path d="M12.3029 92.2097C12.3497 92.3406 12.3872 92.5182 12.434 92.8081C12.3778 92.4902 12.3403 92.3125 12.3029 92.2097Z" fill="#FFC441"/>
<path d="M46.7585 22.5961C46.6649 22.6896 46.5712 22.7738 46.4776 22.8673L46.6742 22.7551L46.7585 22.5961Z" fill="#FFC441"/>
<path d="M52.4231 19.3702C52.2639 19.5292 52.2077 19.6321 52.1235 19.7349C53.0691 19.071 54.4923 18.2482 55.7095 17.5189C56.9547 16.8456 57.9753 16.2285 58.0783 15.8732C57.7318 16.0602 56.6083 16.5464 55.6346 16.9111C54.6702 17.2945 53.8556 17.603 54.0803 17.2851C53.4062 17.7526 52.498 18.2014 51.6647 18.6035C50.8314 19.0056 50.1198 19.417 49.764 19.6788C52.1796 18.482 50.2509 19.9126 48.8371 21.0346C47.3671 21.7826 48.8558 20.5016 47.6105 21.1842L44.5395 23.4377L47.2828 21.5769L46.7585 22.5868C46.8521 22.5026 46.9083 22.4465 47.0019 22.353C49.2303 20.6606 49.4737 20.8195 49.6704 20.8757C49.8951 20.9692 50.0823 20.9879 52.4231 19.3702Z" fill="#FFC441"/>
<path d="M52.1235 19.7443C51.8332 19.9406 51.6085 20.1463 51.44 20.324C51.8707 20.0248 52.0111 19.8752 52.1235 19.7443Z" fill="#FFC441"/>
<path d="M73.0122 11.4131C73.2743 11.3196 73.5646 11.2167 73.9204 11.0671C73.7518 11.1419 73.3492 11.2915 73.0122 11.4131Z" fill="#FFC441"/>
<path d="M21.5254 144.703C21.5816 144.544 20.2708 141.598 19.9524 141.851C20.3925 142.702 20.8419 143.553 21.2819 144.413C21.3569 144.516 21.4411 144.609 21.5254 144.703Z" fill="#FFC441"/>
<path d="M133.75 12.0302C133.412 11.8806 133.075 11.7497 132.729 11.6188C132.645 11.6094 132.57 11.6001 132.504 11.6001C132.701 11.731 133.394 11.9273 133.75 12.0302Z" fill="#FFC441"/>
<path d="M54.8668 16.6306C54.3799 16.9859 54.1739 17.1729 54.0803 17.2945C54.3987 17.0794 54.6889 16.855 54.8668 16.6306Z" fill="#FFC441"/>
<path d="M133.581 12.9839C133.965 13.2644 134.536 13.6572 134.555 13.8442C135.407 14.2369 136.09 14.3117 136.998 14.6389C135.978 14.2743 134.892 13.6572 133.581 12.9839Z" fill="#FFC441"/>
<path d="M137.073 14.667C137.045 14.6577 137.027 14.6483 136.998 14.6389L137.073 14.667Z" fill="#FFC441"/>
<path d="M22.4242 146.414C22.5928 146.629 22.7707 146.863 22.9579 147.087L22.6208 146.769C22.9954 147.414 23.3418 148.069 23.735 148.695C23.9129 148.901 24.1002 149.125 24.3155 149.406C24.2219 149.294 24.1189 149.228 24.044 149.2C24.1751 149.406 24.2968 149.602 24.4185 149.808C25.7387 151.052 28.688 154.315 29.6805 155.119C30.9258 156.25 32.274 157.765 33.1635 158.682C32.3302 157.84 31.2722 156.681 31.4033 157.195C32.0868 158.195 32.5549 158.99 33.2291 159.888C33.9032 160.785 34.802 161.795 36.5435 163.001C35.9537 162.44 35.3451 161.889 34.7739 161.309C36.3095 162.366 37.8075 163.441 39.3711 164.413C39.9704 165.18 39.3805 164.815 38.5472 164.226C37.7326 163.609 36.684 162.74 36.3001 162.599C37.1521 163.254 37.8824 163.974 38.5847 164.628C39.2869 165.283 39.9236 165.937 40.5134 166.545C41.6651 167.77 42.7512 168.649 43.753 168.976C43.7062 169.491 43.5657 170.454 45.9252 172.043C44.5676 170.435 47.4982 172.754 46.4589 171.333C46.927 171.51 47.545 171.996 48.088 172.417C48.6311 172.838 49.118 173.147 49.2771 173.053L48.9494 173.072C50.7752 174.671 52.1796 175.456 53.3968 175.849C54.6046 176.26 55.5597 176.4 56.5521 176.709C57.8442 177.317 58.949 177.859 59.9415 178.373C60.9527 178.85 61.8703 179.271 62.7504 179.692C63.1904 179.898 63.6211 180.103 64.0612 180.318C64.5013 180.505 64.9507 180.683 65.4095 180.879C66.327 181.244 67.282 181.655 68.3775 182.029C68.443 182.375 69.37 183.572 71.177 184.152C72.132 184.068 76.2705 185.003 76.8135 184.601C73.6582 183.507 74.0702 184.292 72.0946 183.871C70.6808 182.805 72.1133 183.301 70.0722 182.254C71.7107 183.161 78.0401 184.339 79.8939 185.227L79.1917 185.143C80.7085 185.676 81.5792 186.237 82.7402 186.714C83.3207 186.957 83.9762 187.172 84.8375 187.34C85.6896 187.499 86.7476 187.537 88.1052 187.518C88.9666 187.518 89.828 187.537 90.6894 187.471C90.5583 187.518 90.5396 187.574 90.474 187.621C92.562 187.808 93.3204 188.032 94.1256 188.191C94.9402 188.332 95.8203 188.369 98.1516 188.201C97.7958 188.229 98.0206 188.294 97.6554 188.322C98.9756 188.537 100.314 188.397 101.56 188.238C102.805 188.079 103.966 187.883 104.949 187.714C106.194 188.06 104.687 188.173 103.947 188.547C108.657 188.462 113.572 186.976 116.269 185.891C117.271 185.826 118.254 185.648 119.237 185.517C117.561 186.134 115.501 186.948 116.082 187.116C117.701 186.742 117.336 186.592 119.64 186.144C119.312 186.508 118.413 186.994 117.392 187.574C122.271 186.948 118.226 186.359 121.765 186.433C123.254 186.041 123.993 185.386 124.059 185.012C124.976 184.891 125.922 184.825 126.84 184.657C126.989 184.115 130.248 183.095 132.27 182.16C132.448 181.88 130.444 182.413 129.705 182.824C129.761 182.488 131.886 181.44 133.291 180.907C133.74 181.263 135.987 180.206 137.982 179.29C139.938 178.308 141.624 177.429 141.081 178.327C142.597 177.513 144.17 176.466 145.828 175.465C146.652 174.951 147.447 174.381 148.262 173.838C149.067 173.287 149.882 172.754 150.64 172.165C152.166 171.015 153.636 169.921 154.863 168.827C155.481 168.294 156.061 167.789 156.604 167.321C157.11 166.835 157.569 166.377 157.962 165.975C158.599 165.582 159.507 164.9 160.097 164.488C160.677 164.058 160.968 163.927 160.453 164.713C161.454 163.759 162.288 162.88 163.046 162.048C163.795 161.197 164.413 160.355 165.059 159.542C165.387 159.13 165.705 158.728 166.033 158.317C166.351 157.887 166.67 157.457 167.016 157.017C167.69 156.129 168.514 155.259 169.385 154.212C169.572 154.072 169.188 154.558 168.804 155.082C168.402 155.587 167.99 156.129 168.168 156.157C170.171 153.212 172.615 151.379 175.443 146.591C174.956 147.386 174.965 147.714 174.975 147.882C174.797 147.882 175.939 145.797 176.585 144.516C177.072 143.871 176.107 145.479 176.444 145.152C179.441 140.701 181.369 136.334 182.942 131.911C184.534 127.479 185.639 122.926 186.875 117.802C186.219 120.738 186.397 121.981 186.65 122.084C186.922 121.13 187.221 120.177 187.427 119.204C187.38 118.007 187.942 115.847 188.008 113.968C188.158 113.762 188.438 112.893 188.42 113.828C188.832 112.406 189.084 111.116 189.141 109.863C189.216 108.61 189.262 107.423 189.206 106.179C189.141 104.936 189.075 103.664 189.075 102.261C189.01 100.849 189 99.3066 189.122 97.5207L189.618 101.878C189.74 103.337 189.815 104.805 189.908 106.282L190.498 104.15C190.573 105.45 190.714 106.759 190.695 108.068C191.032 106.937 190.976 105.833 190.948 104.992C190.92 104.15 190.882 103.58 191.126 103.449C191.219 103.944 191.088 105.132 191.332 105.188C191.669 102.963 191.397 102.766 191.332 101.083C191.566 102.205 191.603 103.58 191.631 105.113C191.678 106.647 191.556 108.302 191.406 109.966C191.303 111.64 191.013 113.295 190.789 114.838C190.592 116.39 190.264 117.783 190.068 118.952C189.974 119.69 189.993 118.279 189.927 118.129C189.721 119.073 189.487 119.803 189.253 120.607C188.991 121.402 188.71 122.243 188.457 123.431C188.42 124.992 189.047 122.402 189.422 121.261C189.712 121.504 189.525 122.084 189.206 123.384C188.757 123.552 186.875 130.359 185.611 131.706C185.002 133.37 184.768 134.165 184.721 134.511C184.684 134.866 184.871 134.782 185.058 134.688C185.414 134.511 185.751 134.296 184.216 137.447C183.785 138.017 183.308 138.559 182.83 139.092C181.454 142.917 179.019 147.639 176.295 151.351L176.847 150.547C177.034 149.892 176.304 150.687 175.939 151.005C174.843 152.351 173.991 153.763 173.102 154.941C172.241 156.138 171.473 157.204 170.565 157.812C168.514 161.244 164.114 166.255 160.79 169.416C160.097 169.556 161.136 168.471 162.466 167.162C163.739 165.778 165.34 164.198 165.827 163.347C164.872 164.338 163.851 165.255 162.868 166.209C164.703 164.451 165.265 163.581 166.014 162.197C164.75 163.469 163.936 164.339 163.205 165.264C162.831 165.722 162.466 166.181 162.063 166.695C161.632 167.181 161.136 167.695 160.518 168.294C160.593 167.976 160.172 168.191 158.983 169.21L158.936 169.855C158.889 169.846 158.739 169.939 158.337 170.211C156.792 171.529 155.275 172.894 153.646 174.119C154.807 173.511 155.125 173.838 156.38 172.866C155.771 173.006 156.801 172.137 158.046 171.164C157.138 172.249 159.423 170.407 159.544 170.613C158.29 171.604 156.904 172.716 155.612 173.736C154.292 174.708 153.093 175.624 152.269 176.279L151.464 176.298C150.153 177.064 148.871 177.962 147.653 178.719C146.418 179.458 145.294 180.141 144.367 180.599L144.816 180.085C143.197 180.917 141.596 181.74 140.041 182.544C138.45 183.264 136.886 183.956 135.322 184.395C133.909 185.19 132.298 186.134 130.707 186.901C129.105 187.658 127.589 188.481 126.353 189.052C125.735 189.482 123.385 190.08 120.726 190.492C118.085 191.015 115.136 191.342 113.376 192.044C113.123 192.044 115.81 191.202 117.009 190.781C115.801 190.959 114.743 191.296 113.881 191.539C113.02 191.773 112.336 191.857 111.925 191.632C113.291 191.52 113.956 191.398 114.209 191.314C114.471 191.23 114.331 191.183 114.097 191.146C113.629 191.071 112.786 191.015 113.984 190.716C112.73 190.94 111.419 191.09 110.286 191.305C109.715 191.408 109.191 191.501 108.732 191.604C108.273 191.688 107.87 191.754 107.561 191.829C111.69 191.417 106.176 192.829 110.333 192.081C108.741 192.567 106.812 192.829 104.799 193.082C102.786 193.297 100.68 193.315 98.7228 193.259C98.7602 193.016 98.2827 192.885 96.8315 192.745L95.6517 193.072C93.8353 192.96 99.1909 192.736 95.53 192.521C95.0525 192.586 94.5188 192.633 93.9477 192.633C93.3765 192.623 92.7586 192.595 92.1313 192.558C90.8673 192.455 89.5097 192.39 88.2363 192.184C86.9536 192.016 85.7458 191.866 84.7346 191.81C83.7327 191.735 82.9275 191.735 82.4687 191.941C81.083 191.464 82.4594 191.595 83.6485 191.679C84.2477 191.726 84.8001 191.744 84.9405 191.67C85.081 191.595 84.8001 191.492 83.7608 191.155C85.0248 191.193 86.5135 191.333 87.7869 191.511C89.0602 191.688 90.1276 191.744 90.5677 191.483C88.1052 191.455 89.725 190.931 88.1614 190.753H85.4087L86.0079 190.847C84.8469 190.856 83.5455 190.697 82.1317 190.501C81.4294 190.398 80.6991 190.286 79.9501 190.174C79.2104 190.015 78.4614 189.846 77.6936 189.678C76.9259 189.5 76.1581 189.323 75.381 189.145C74.6132 188.93 73.8455 188.706 73.0871 188.491C72.3287 188.275 71.5703 188.06 70.8306 187.845C70.1003 187.602 69.3793 187.368 68.6771 187.144C63.7897 186.078 60.2224 185.526 54.8481 182.712C55.7188 182.974 54.6421 182.329 53.7994 181.768C52.9661 181.197 52.395 180.702 54.202 181.328C51.9175 179.739 49.3801 178.663 49.2116 178.822C51.2714 180.141 49.9138 179.327 51.6366 180.468C50.9625 180.243 49.9044 179.757 48.9307 179.159C47.957 178.551 47.03 177.897 46.5244 177.457C47.03 177.803 46.8615 177.635 47.03 177.625C44.6799 175.877 45.6818 177.111 43.8747 176.008C43.7155 175.643 42.7792 174.942 41.7025 174.166C40.6539 173.343 39.4741 172.445 38.7813 171.763C37.9105 171.351 37.0959 170.874 36.2439 170.416C37.6764 171.127 34.2777 168.556 34.2215 167.966C32.5924 166.77 30.9632 166.003 28.9315 163.665C29.9614 164.441 27.1993 161.44 27.4989 161.094C26.7125 160.037 25.9166 159.149 25.1114 158.336C24.353 157.494 23.5759 156.727 22.8175 155.961C22.0403 155.203 21.3288 154.408 20.6453 153.529C19.9711 152.651 19.2689 151.725 18.7259 150.584C18.885 150.668 19.6528 151.36 18.9506 150.079C18.2577 149.172 17.1623 147.489 16.5349 146.433L16.563 146.461C16.5443 146.442 16.5349 146.433 16.5256 146.414C16.2072 145.909 15.9732 145.6 15.8889 145.638C15.196 144.824 14.6155 144.235 13.9414 143.403C13.2954 142.552 12.5276 141.467 11.4228 139.672C11.1606 140.14 12.9021 143.244 13.7916 144.497L14.8403 145.423C14.859 146.143 15.3552 146.947 15.8795 147.685C16.4319 148.405 17.0312 149.06 17.1903 149.527C16.6941 149.107 16.0481 148.415 15.402 147.517C14.7653 146.62 14.0631 145.544 13.3515 144.403C11.9939 142.094 10.5895 139.541 9.50338 137.634C9.93407 140.364 12.5557 145.628 15.3365 149.902C15.0088 149.219 14.6717 148.555 14.3908 147.854C14.8215 148.63 15.3271 149.359 15.8046 150.107C15.4863 149.294 15.1305 148.508 14.859 147.676C15.4488 148.789 16.123 149.743 16.7409 150.696C17.0593 151.173 17.3682 151.641 17.6772 152.108C18.0049 152.566 18.3233 153.025 18.651 153.483C17.8645 152.417 17.4993 151.557 17.4057 151.136C17.3121 150.715 17.4806 150.743 17.8458 151.398C19.1285 154.081 19.8494 153.735 21.1134 155.587C20.4206 154.549 19.4843 153.221 20.3082 153.922C21.3381 155.895 22.2276 156.989 23.0047 158.102C23.7819 159.214 24.6058 160.224 25.7013 161.945C25.8417 161.496 26.6282 162.468 27.6113 163.469C28.5757 164.479 29.6243 165.591 30.055 165.591L28.8191 164.198C29.8397 165.049 30.8415 165.891 31.9182 166.667C34.1279 169.621 29.1375 164.89 32.8639 169.042C36.6559 172.52 37.0772 171.819 40.27 174.241C39.6146 174.016 38.594 173.483 37.4143 172.744C36.2533 171.996 34.9893 170.987 33.7534 169.921L35.1016 171.379C34.1092 170.931 30.8041 167.807 29.2498 166.171C30.7479 167.321 30.467 166.975 29.6992 166.171C28.9502 165.348 27.7143 164.049 27.2836 163.291C26.7499 163.357 28.4446 165.058 26.2443 163.226C27.1619 164.189 27.6862 164.741 28.2761 165.358C28.8659 165.975 29.4652 166.704 30.6449 167.92C29.3341 166.639 28.4071 165.694 27.5738 165.021C26.7593 164.329 26.0477 163.908 25.4204 163.432C24.7837 162.973 24.1657 162.525 23.4635 161.87C23.1077 161.543 22.7332 161.169 22.3306 160.711C21.9374 160.243 21.516 159.682 21.0572 159.018C23.0515 161.234 20.9074 157.812 20.8606 157.41C19.915 156.381 18.2577 154.1 17.4806 153.221L17.5742 154.436C16.3477 152.996 15.917 151.753 15.3739 150.509C15.1118 149.883 14.8122 149.266 14.4283 148.574C14.0631 147.872 13.5856 147.124 12.9021 146.264C12.2935 145.965 14.6904 149.64 14.2504 148.995C12.5931 146.526 11.6849 144.703 11.067 142.851C10.7486 141.926 10.449 141.028 10.1307 140.037C9.84981 139.036 9.5221 137.961 9.10077 136.717C8.81988 136.512 8.42664 136.755 7.44353 135.175C8.01467 135.558 7.66824 134.24 8.71689 136.035C8.19257 134.361 7.19073 132.547 6.48851 131.154C7.03156 132.893 6.78813 132.594 6.31998 131.79C5.8612 130.986 5.29006 129.639 5.06535 129.359C4.51293 127.535 5.6084 129.789 6.08591 130.855C5.69266 129.377 5.64585 127.507 4.83127 126.862C5.00917 126.778 5.59903 127.704 6.2638 128.966C6.60087 129.602 6.9473 130.312 7.28436 131.032C7.64952 131.743 7.99595 132.454 8.27683 133.09L7.64952 131.322C8.31429 132.454 8.34237 132.697 8.96969 134.445C8.58581 132.641 8.96969 132.687 9.39102 132.968C9.41911 133.211 9.25058 132.884 9.28803 133.108C9.72809 134.529 10.2711 135.539 10.3367 135.137C10.861 135.633 10.7018 135.147 10.4584 134.38C10.2056 133.613 9.82172 132.594 9.76554 132.08C9.46593 131.388 9.12886 130.715 8.85734 130.023L6.80685 126.656C6.14209 125.516 5.54286 124.347 4.89681 123.178C4.31631 121.607 4.15714 120.401 3.99797 119.307C3.86689 118.204 3.77326 117.213 3.69836 115.96L3.12722 115.371C2.61226 112.519 2.45309 109.788 3.26766 111.537C3.13658 111.658 3.19276 112.032 3.28639 112.65C3.36129 112.724 3.42683 112.855 3.50174 113.033C3.53919 113.089 3.56728 113.117 3.60473 113.164C2.97741 110.153 2.70589 108.246 2.64035 108.077C3.96052 113.173 3.50174 108.236 4.4193 109.012C4.07288 107.311 3.89498 105.581 3.67027 103.86C3.65154 107.03 3.27703 103.944 3.08041 102.832C3.5111 102.504 2.92124 98.624 3.0055 96.782L3.09913 96.9223C3.30512 95.2299 3.29575 92.2658 3.38938 90.1432C3.23958 90.2367 2.64971 87.4503 2.41564 86.0852C2.08793 87.8992 2.00367 88.2732 1.90068 88.2077C1.79768 88.1516 1.72278 87.6654 1.57297 87.7963C1.61979 87.4129 1.73214 86.7304 1.67597 86.6462C1.61042 86.1039 1.4138 87.3381 1.24527 87.4316C1.20782 89.4139 1.0861 91.4149 1.13292 93.126C1.20782 94.8371 1.34826 96.249 1.64788 97.0532C1.96622 95.8563 1.42317 94.9961 1.64788 93.659C1.83514 94.6408 1.90068 95.7441 1.90068 97.0158C1.92876 98.2874 1.95685 99.718 1.98494 101.345L1.62915 102.43L2.07857 105.684C1.78832 104.337 1.39508 105.188 1.13292 101.747C0.730309 102.205 1.44189 105.169 1.46998 107.282C1.65724 107.628 1.89131 107.965 2.0973 108.302C1.76023 107.918 2.27519 112.425 1.48871 109.274C1.09546 107.554 0.870753 105.814 0.589865 104.075L0.355792 105.562C0.215347 104.075 0.0374517 102.589 0 101.102L0.290251 102.149C-0.215347 94.9774 1.15164 100.036 0.70222 92.8362C0.252799 90.564 0.262162 88.0955 1.02992 83.7289C0.758398 86.9267 1.42317 84.1123 1.61979 85.3465C2.2471 82.158 2.01303 81.0173 2.05985 79.2968C2.52799 78.5394 2.89315 78.0158 2.33137 80.8583C2.94932 81.3352 2.86506 77.0808 3.67027 76.9779C4.68147 72.3121 4.7751 70.3578 4.91554 68.1605C5.1777 66.0099 5.50541 63.5975 8.1083 58.539L8.19257 59.0345C8.85734 57.3702 9.45656 55.8741 10.0839 54.509C10.7486 53.1625 11.3853 51.9189 12.0314 50.694C12.7242 49.4972 13.3984 48.3097 14.1193 47.0661C14.8309 45.8131 15.6642 44.5695 16.5069 43.1296C17.6491 41.7924 18.9038 40.5395 20.0929 39.2678C19.503 40.287 18.1454 43.1295 19.2689 42.1384C18.2203 42.9332 17.4338 43.9711 16.6567 45.0464C16.2728 45.5887 15.8795 46.131 15.4863 46.6733C15.0931 47.225 14.7185 47.786 14.2878 48.3284C14.3159 48.665 14.9807 47.7767 15.3271 47.4214C14.5125 48.8333 13.7916 49.3756 12.8553 51.3298C13.0145 51.2924 14.3627 49.3475 13.5482 50.9278C12.9489 51.7132 12.3778 52.5267 11.7973 53.3215C10.9827 55.1167 11.0202 55.6778 10.9921 56.2855C10.9546 56.8933 10.8329 57.5572 9.79363 59.6049C9.7749 58.6699 9.97153 56.8372 10.6269 55.1541C10.1588 56.1079 10.3741 55.4253 10.6269 54.7334C10.8891 54.0508 11.1419 53.3308 10.5988 54.1443C10.1588 55.6404 9.7749 56.7063 9.24122 57.847C8.69817 58.9878 8.16448 60.2688 7.6027 62.223C7.69633 61.7462 7.64015 61.5872 7.97722 60.6428L6.77876 63.3451C6.38552 64.252 6.05782 65.1777 5.69266 66.0941C6.09527 65.4583 5.78629 66.6457 5.47732 67.9454C5.1777 69.2451 4.94363 70.6851 5.26197 70.4887C5.49604 69.7407 5.69266 69.1236 5.8612 68.5813C6.04846 68.0483 6.20763 67.6088 6.33871 67.2255C6.60087 66.4494 6.77876 65.8977 6.96602 65.3273C7.31245 64.1679 7.81805 62.9336 9.25994 59.6891C8.64199 61.6152 8.11767 64.1866 8.23002 65.4957C8.21129 65.5144 8.16448 65.6078 8.08958 65.8136C8.23002 66.9917 8.70753 66.0006 9.54083 66.3185C9.71873 64.7102 10.2243 63.476 10.7299 62.1856C11.2262 60.8766 11.8628 59.5675 12.4714 57.7909C12.3403 56.9494 10.9546 59.5021 10.3929 61.2973C10.6737 60.222 11.067 59.1841 11.4134 58.1276L11.3479 58.8195C12.5182 56.2668 13.8478 53.789 15.2335 51.3579C14.4657 52.7604 14.5125 53.3963 14.3159 54.2191C14.8309 53.2747 15.402 52.3677 16.1136 51.4607C15.5893 51.442 15.3739 51.1522 15.9076 50.2358C18.6884 45.5887 20.8419 43.4101 22.4149 42.1197C22.5272 41.9421 22.6489 41.7457 22.7519 41.5961C21.7969 42.0169 24.3717 38.0523 25.0646 36.4347C25.3923 36.8087 27.1151 34.5179 28.3322 33.508C28.4727 32.5169 27.1431 32.7974 25.5421 33.9568C23.5103 37.0986 24.5871 35.8737 24.0627 37.6876L22.443 40.1468C21.928 40.979 21.4318 41.8298 20.9355 42.6714L21.3288 41.3436C19.4187 43.5971 18.4263 46.318 18.0424 45.8225C18.3045 45.0651 18.8101 44.1581 19.3719 43.2979C19.9337 42.4376 20.5048 41.5774 20.7951 40.8294L19.4843 42.2974C21.0479 39.1556 20.8981 41.1379 23.1639 37.6128C21.825 38.5198 23.3605 37.2856 24.2313 35.6773C23.632 36.1168 22.5272 37.6035 21.5628 38.7816C20.6078 39.9504 19.8869 40.8855 19.9056 40.1187C20.3644 39.0902 21.7407 37.7998 23.0796 36.3973C24.4185 34.9854 25.8885 33.6015 26.5065 32.2083L26.4877 32.3766C29.4745 29.3097 30.2048 27.9165 31.1786 26.5981C31.9463 26.0745 32.686 25.2703 33.4912 24.5036C34.2871 23.7275 35.0736 22.9047 35.8226 22.2408L35.9443 22.4652C36.6184 21.8107 37.3487 21.231 38.0603 20.6232C37.6858 21.2216 37.0117 21.6985 36.2626 22.2876C35.5042 22.8766 34.6148 23.5125 33.7253 24.3259L34.259 24.4755C33.0137 25.1581 32.2459 26.0371 31.5999 26.9066C30.9632 27.7949 30.4202 28.6645 29.849 29.5902C30.776 28.3279 32.4145 26.8692 33.7627 25.5321C35.1672 24.2605 36.3188 23.1478 36.3095 22.5587C36.89 22.2502 37.4986 21.979 38.0978 21.6985L38.7157 20.9972C40.064 20.3988 39.2213 21.6985 37.1615 23.5218C36.7214 23.7462 36.5061 23.8584 36.5529 23.6901C36.1316 24.1857 35.757 24.7 35.1953 25.3171C34.9144 25.635 34.5773 25.9716 34.1747 26.3643C33.7815 26.7664 33.3133 27.2246 32.7328 27.7295L33.7627 26.4111C32.3677 27.7388 31.01 28.9918 30.055 30.1793C29.0719 31.3481 28.3603 32.3205 28.0701 32.947C31.937 28.9918 35.9911 25.3638 40.064 22.1567C40.3449 21.2777 40.7569 20.4268 41.122 19.6601C41.4965 18.9027 41.8149 18.2108 41.8523 17.5843C44.605 15.3028 48.7341 12.6754 51.6179 11.4692L51.4587 11.7777C52.8069 11.1045 54.0522 10.478 55.026 9.83286C56.5615 9.33729 54.2863 10.7866 55.3349 10.4032C56.7768 9.50559 58.303 8.75756 59.8011 7.94408C59.7449 8.20589 58.743 8.77626 57.5259 9.39339C56.3087 9.99181 54.9323 10.7679 54.0335 11.2261C54.3612 11.0204 55.0072 10.5996 54.7638 10.665C53.6683 11.1139 52.2264 12.0115 50.9625 12.8624C49.6891 13.7039 48.5187 14.3678 47.9289 14.4052C47.0113 15.1252 49.661 12.7408 46.3465 14.826C43.9964 16.0228 43.6219 17.0046 43.5189 17.3225C43.6032 17.5095 47.1143 15.3496 46.075 16.3781C47.7603 15.2748 48.2472 14.5267 50.6254 13.4608C48.8745 14.4426 46.8896 16.3688 45.7754 16.6119C42.7512 19.1926 43.9496 19.8565 45.457 18.8373C44.8578 18.7438 51.1965 14.6202 46.618 16.9765C48.2847 15.3122 51.9268 13.1148 54.511 11.5066L54.4267 11.6562C55.5409 11.0671 56.6177 10.4032 57.7599 9.87026C57.3199 10.1882 56.3555 10.8053 56.4304 11.0484C57.8817 10.0573 59.3984 9.19703 60.9059 8.26199C59.6512 9.07547 60.1007 8.95392 61.0182 8.58926C61.9452 8.23394 63.3777 7.71032 64.0331 7.55136C64.417 6.99969 66.2334 5.9805 64.3234 6.50412C62.1605 7.06514 63.1904 7.168 61.3366 7.93473L63.7709 6.33581L64.0237 6.29841C64.5013 5.9431 64.9788 5.55973 65.4656 5.22312C69.1921 3.99822 64.2297 6.84074 68.8082 4.78365L67.9843 4.36288C68.6771 4.14783 69.3981 3.90472 70.1377 3.71771C70.8868 3.54005 71.6545 3.3624 72.4223 3.17539C73.1994 2.99773 73.9672 2.81072 74.7443 2.66112C75.5214 2.52086 76.3079 2.38996 77.0663 2.2497C77.8247 2.10944 78.5737 1.97854 79.304 1.84763C80.0344 1.74478 80.7459 1.63257 81.4201 1.53907C82.7683 1.34271 83.9668 1.0622 84.978 0.884545C83.9106 1.40817 83.5267 2.07204 85.0997 2.231C84.229 2.25905 82.9369 2.51151 81.5512 2.74527C80.8583 2.86682 80.1467 2.99773 79.4538 3.13799C78.7704 3.30629 78.1056 3.4746 77.497 3.62421C77.2536 3.62421 77.9651 3.25019 79.0887 2.82942C80.2122 2.41801 81.7571 2.03464 83.1148 1.85698C82.3751 1.44557 80.6991 1.88504 79.1636 2.35255C77.6374 2.86682 76.2517 3.35304 75.9708 2.85747C69.0985 4.26938 71.2426 5.19507 65.4563 6.46672C65.5499 6.96229 63.9769 7.30825 63.8552 7.82252C65.7091 7.84122 71.2145 5.16702 74.9877 4.46574C74.6413 4.606 73.9391 4.87716 73.8267 5.00806C75.1469 4.69015 76.0832 4.51249 76.9071 4.27873C77.7311 4.05432 78.452 3.81121 79.3509 3.512H79.1074C82.2627 2.39931 81.1954 3.4933 83.1335 3.3624C83.8544 3.11929 86.551 2.92293 86.0735 2.62371C87.2626 2.63307 88.4329 2.62372 89.6126 2.66112L89.3879 2.12814C91.3635 1.94114 91.8223 2.27775 93.5919 1.80088L93.6481 1.30531C92.0002 1.38011 90.3429 1.41752 88.6857 1.53907C91.1762 1.137 89.3317 1.0061 92.1032 0.678836C89.0509 1.46427 94.3128 0.76299 94.6312 1.24921L96.6536 0.921946L96.1386 1.0622C97.7397 1.29596 98.0299 0.791041 99.9025 0.893895C98.807 0.706888 97.8895 0.622734 96.897 0.557282C95.9045 0.51988 94.8372 0.501179 93.4421 0.77234C95.4645 0.398325 99.5374 -0.0317922 100.549 0.0336604C102.711 -0.115946 104.209 0.26742 106.213 0.51053C104.275 0.463778 104.593 0.865844 104.434 1.15571C104.275 1.43622 103.638 1.65128 99.8089 1.38011C99.9493 1.28661 100.577 1.32401 100.811 1.38947C99.7902 0.678836 96.2041 1.45492 94.5656 1.73543C95.0057 2.09074 93.2923 2.22165 96.2135 2.3432C95.7266 2.24035 96.3352 2.02529 97.4213 1.85698C97.9644 1.78218 98.6198 1.69803 99.322 1.68868C100.024 1.68868 100.764 1.72608 101.457 1.81958L100.951 2.58631C102.29 2.67047 103.638 2.67047 104.977 2.82942L104.603 2.83877C106.073 3.4559 108.9 3.01643 111.616 3.71771C113.657 3.57745 121.156 5.35402 118.076 3.89537C120.417 4.92391 122.711 4.74625 125.37 5.44753C124.302 5.04546 123.235 4.58729 122.139 4.25068C124.181 4.43769 124.883 4.6621 125.51 4.7182C126.137 4.8117 126.681 4.80235 128.375 4.86781C128.628 5.17637 129.265 5.57843 128.562 5.57843C129.855 6.0366 131.296 6.51347 132.748 7.06514C134.19 7.64487 135.66 8.24329 137.073 8.81366C138.459 9.43079 139.798 10.0012 140.987 10.4593C142.148 10.9736 143.169 11.3757 143.964 11.6094C145.697 12.479 146.521 13.3018 147.569 14.106C148.084 14.5174 148.665 14.9195 149.386 15.415C150.107 15.92 150.996 16.4716 152.176 17.1262C152.681 17.388 152.597 17.1168 152.747 17.042C152.897 16.9672 153.29 17.0887 154.685 18.2295C154.844 18.4165 151.548 16.7054 154.825 18.9588C155.49 19.2487 156.155 19.6508 156.82 20.1183C157.475 20.6138 158.121 21.1842 158.786 21.7639C160.144 22.9047 161.492 24.2137 163.056 25.2329C163.739 25.9342 164.675 26.8786 165.349 27.6173C166.033 28.356 166.445 28.8889 166.024 28.8141C163.926 26.5607 160.518 23.8397 159.872 23.5873C160.387 23.634 158.327 22.0257 160.247 23.2506C156.782 20.1183 157.737 21.5489 154.479 18.9495C154.133 18.9495 155.93 20.5951 156.736 21.0066C156.389 21.4834 149.872 16.5558 152.457 19.2767C156.005 21.8294 157.878 21.5956 160.425 24.5597C159.732 24.195 158.936 23.606 158.093 23.0075C157.241 22.4185 156.352 21.792 155.359 21.4928C156.155 22.1754 156.904 22.9047 157.672 23.606C158.355 23.9613 159.067 24.2792 159.741 24.6626L159.582 24.6439C161.473 26.6916 162.578 27.3461 163.617 28.0006C164.151 28.3186 164.694 28.5991 165.34 29.0011C165.986 29.4032 166.754 29.9268 167.662 30.7871C165.967 28.3747 168.935 30.4878 167.597 28.7206C170.022 31.0863 171.651 32.9844 171.154 33.4426C168.851 31.2733 168.626 31.3855 168.486 31.4696C168.327 31.5818 168.224 31.7127 165.967 29.8988C166.23 30.3102 165.818 30.2354 165.64 30.3663C165.462 30.4972 165.546 30.8151 166.679 32.0681C169.656 34.5179 166.276 30.8619 169.076 33.4893C169.188 33.695 169.31 33.9007 169.151 33.8727C170.555 34.976 170.405 35.4996 172.081 36.8741L171.651 36.5749C173.036 38.8284 173.795 38.5479 174.872 40.5769C174.778 40.0813 175.106 40.3057 175.564 40.8107C176.014 41.3156 176.613 42.0636 177.147 42.5498C175.967 40.5582 175.78 39.1182 172.83 35.5838C172.175 35.4061 172.231 35.7989 170.864 34.4992L172.84 36.7152C172.372 36.2664 171.978 35.9672 171.538 35.5744L169.816 33.293C172.39 35.8456 171.604 34.3215 172.924 35.2378C174.946 37.9027 174.731 37.323 175.958 39.0341C175.461 39.165 179.001 44.7659 180.648 48.1975C180.358 47.6832 179.928 47.0567 179.722 46.7014C177.933 44.5789 180.368 48.5341 180.255 48.7117L181.491 50.3013C181.266 49.9927 180.901 49.6094 181.257 50.3854C182.708 52.6669 183.092 52.2836 184.431 54.6586C184.253 54.9765 182.793 53.1532 183.42 54.724C183.429 55.0419 183.485 55.6871 183.776 56.6315C184.028 57.5852 184.478 58.8569 185.339 60.4277C185.564 60.6054 185.976 61.4282 186.407 62.41C186.341 62.2791 186.257 62.1108 186.21 62.0547L186.762 64.3736C186.154 63.5321 185.836 62.569 185.517 61.6059C185.199 60.6428 184.806 59.6984 184.16 58.8849L183.635 58.9317C183.027 57.4917 181.847 55.7152 181.173 54.9765C181.678 56.0424 182.006 56.6782 182.381 57.3328C182.736 57.9966 183.102 58.6886 183.701 59.8761C183.57 60.3342 182.587 58.7447 182.446 58.5203L182.867 58.754C182.427 57.2206 181.735 56.2481 181.032 55.1822C180.677 54.6492 180.302 54.1069 179.89 53.4804C179.459 52.8633 179.019 52.1714 178.551 51.3111C178.27 50.7875 178.486 51.0867 178.635 51.1522C176.65 48.6743 175.471 45.729 173.149 43.6158L173.945 44.2796C173.598 43.8869 173.167 43.4007 172.671 42.849C172.166 42.3067 171.566 41.7176 170.93 41.0818C169.694 39.7821 168.168 38.4263 166.67 37.0612L166.501 37.164C166.716 37.5754 165.724 36.4347 165.209 35.8082H165.218C164.441 35.163 163.683 34.5272 162.962 33.9288C162.222 33.3584 161.52 32.8161 160.893 32.3392C161.174 32.7693 161.567 33.2836 162.082 33.8166C162.709 34.069 165.078 36.8741 165.115 36.1542C165.602 36.8648 166.351 37.6783 167.072 38.445C167.793 39.2117 168.514 39.913 168.823 40.4647C168.224 39.4829 168.57 39.7073 169.132 40.2029C169.675 40.7078 170.424 41.4839 170.658 41.5493C170.771 41.9514 171.295 42.6153 171.735 43.1763C172.156 43.756 172.465 44.2516 172.203 44.2516C172.372 44.6911 171.8 43.1483 170.967 42.5592C170.068 41.7457 170.677 42.662 171.229 43.5129C171.763 44.3825 172.231 45.2053 171.22 44.1113C173.72 46.9539 176.276 51.2083 178.514 54.4248L177.577 52.4425C178.448 53.9479 180.368 57.5852 180.321 57.9499C179.675 56.8279 179.029 55.472 178.149 54.0695C177.727 54.2097 179.965 57.5759 179.787 57.8751C180.751 59.1654 181.613 60.5306 182.54 61.8771L181.697 59.9509C182.54 61.0262 183.963 65.2245 184.89 68.3475C184.272 67.5714 183.897 66.412 183.392 65.0842C182.914 63.7471 182.437 62.195 181.575 60.7083C180.321 58.5577 181.613 62.3633 180.499 60.3062C180.602 60.9233 181.257 62.2885 181.706 62.9149L181.931 63.8126C181.294 62.9523 180.461 61.4843 179.628 59.8948C178.795 58.2959 177.765 56.6595 176.856 55.4159C177.034 55.6217 177.203 55.7993 177.306 55.8461C176.37 53.6674 175.19 51.5542 173.767 49.7309C174.254 50.8623 174.637 51.1896 175.059 51.7506C174.993 51.8909 173.748 50.1049 173.167 49.5065C174.169 51.3953 173.074 50.0395 173.72 51.227C172.83 50.1517 172.315 49.1512 171.389 47.7486C171.07 46.9071 172.072 48.1601 172.222 47.8421C171.641 47.1783 171.379 46.5892 171.042 45.916C170.705 45.2521 170.312 44.4854 169.366 43.5971C171.37 46.3554 168.28 43.2885 167.409 42.5124L167.746 42.9706C167.278 42.662 166.904 42.3348 166.613 41.9795C166.314 41.6428 166.098 41.2782 165.986 40.8948C167.025 41.8298 167.737 42.9799 167.784 42.4283C167.222 41.7083 166.604 41.0257 165.836 40.3151L166.651 40.8574C165.612 39.7447 164.657 38.5572 163.561 37.5006C162.831 37.1921 161.67 36.6404 160.911 36.5188C160.368 35.537 159.086 34.6955 158.28 34.0597L158.72 34.2934C158.402 33.9101 157.971 33.4145 157.456 32.947C156.932 32.4795 156.361 31.9933 155.809 31.5631C155.256 31.1237 154.741 30.7309 154.329 30.4598C153.899 30.198 153.59 30.039 153.468 30.0297C153.234 29.7585 153.674 29.9268 154.348 30.2354C155.013 30.5533 155.883 31.0489 156.567 31.3761C157.897 32.0494 158.43 31.9933 154.442 28.8328C151.389 26.4578 152.017 28.0287 150.06 27.0189C150.06 27.0189 150.219 27.0189 150.069 26.8412C148.74 25.8314 148.421 25.981 147.204 25.3545C147.972 26.009 149.123 26.8786 149.582 27.0282C149.264 27.0376 148.571 26.5326 147.794 25.9529C147.017 25.3919 146.118 24.8215 145.509 24.5971C147.223 24.9992 142.916 22.6803 144.161 23.1104C142.813 22.138 141.324 21.2497 139.92 20.6699C138.506 20.0902 137.242 19.6695 136.362 19.4918C135.5 18.7064 134.583 18.3136 133.497 17.9022C132.411 17.4815 131.109 17.1542 129.489 16.3127C130.004 16.5371 130.987 16.8082 131.69 17.1729C133.806 17.5095 128.253 15.5553 131.399 16.3407C130.735 16.1537 131.259 16.5558 131.942 16.7428C133.122 17.1262 134.246 17.4441 134.049 17.1168C133.197 16.5558 132.308 16.0976 131.428 15.5927L132.448 15.8732C131.09 15.1532 129.752 14.3584 128.347 13.7226C128.197 13.7694 128.572 14.0218 128.759 14.1434C123.815 12.0956 117.776 10.9081 113.17 10.1508C112.908 10.4219 112.056 10.4967 110.876 10.4874C109.696 10.478 108.198 10.2817 106.588 10.2349C104.987 10.1508 103.292 10.0199 101.766 10.0853C100.24 10.1134 98.8819 10.1601 97.955 10.4126C98.9475 10.0012 99.5093 9.34664 98.8819 9.08483C99.7246 9.03807 101.466 8.5612 103.386 8.72016C103.685 8.92587 106.026 9.36534 104.49 9.47754C109.762 9.73 103.816 8.85107 105.408 8.4864C99.4999 8.25264 96.045 9.12223 92.4122 9.7113L92.3092 9.5617C91.3916 9.73935 90.474 9.87026 89.5658 10.0853C90.6987 9.99181 91.2512 10.1975 91.1575 10.3565C91.0639 10.5341 90.3242 10.6744 88.873 10.7492L89.2194 10.665C88.3767 10.6183 87.1127 10.7866 85.7364 11.011C84.3694 11.3009 82.9088 11.6468 81.6261 11.8432C81.083 12.0956 80.5493 12.3762 80.0063 12.6473C77.4876 13.1803 77.1787 12.4136 76.2424 12.1891C74.2668 12.7315 72.7406 13.2738 71.4298 13.9657C70.1096 14.6389 68.9486 15.2561 67.6846 15.9948C67.0292 16.0883 65.2409 16.6025 64.0331 17.0513C62.8159 17.4721 62.1043 17.6591 63.4994 16.7989C61.889 17.7152 61.4302 18.4633 60.6624 19.2861C60.2786 19.6975 59.8011 20.0996 59.052 20.5203C58.6775 20.7354 58.2281 20.9505 57.685 21.1749C57.1514 21.418 56.5334 21.6798 55.7937 21.9603L57.039 20.857C54.4455 22.3624 51.4119 24.382 48.8839 26.3737C48.2472 26.8599 47.6292 27.3368 47.0394 27.7856C46.4682 28.2531 45.9252 28.6926 45.4383 29.0946C44.4458 29.8988 43.5938 30.5065 43.032 30.9086C43.4815 29.7211 41.871 30.7122 39.9235 31.9932C38.0322 33.3397 35.832 35.0041 35.0642 35.0134C35.4668 34.9854 33.9406 36.7058 33.8189 37.0425C33.5942 37.1734 33.3133 37.3697 33.0324 37.6409C32.7703 37.9214 32.5081 38.258 32.3021 38.6788C33.1729 37.8559 33.1261 38.3796 33.1916 38.632C33.2759 38.8938 33.3976 38.8471 34.7927 37.0705C34.5492 37.6222 34.259 38.1832 33.9406 38.8003C33.6317 39.4268 33.2665 40.0813 32.8265 40.7733C31.9182 42.1478 30.8602 43.7934 29.3247 45.7196L28.9689 45.3643L31.5063 42.3815C30.9632 42.447 32.2928 40.9322 32.7141 40.1935C32.0868 40.8574 31.6186 41.3436 31.2535 41.6802C30.907 42.0262 30.6823 42.2413 30.5138 42.3441C30.1861 42.5592 30.158 42.3909 30.1299 42.2226C30.0737 41.8953 30.0363 41.6054 27.733 44.6069C27.5645 45.3923 27.733 44.9248 26.7031 46.5985C27.2274 45.8412 27.0495 45.5045 26.1788 46.7107L25.6732 48.0946C24.6339 48.9829 25.0646 47.9637 25.6732 46.9819C26.2537 45.9908 26.8903 44.9716 25.9915 45.729C26.3473 45.0744 26.7686 44.2983 27.2368 43.5503C27.7143 42.8023 28.1918 42.0543 28.6038 41.3997C29.3996 40.072 29.952 39.1556 29.3903 39.3146C26.1413 42.9799 27.5551 43.4381 24.4092 47.384L23.8942 47.6925C23.0796 49.2915 23.295 49.7683 22.9954 50.7127C22.8175 50.7034 22.4617 51.0119 21.8718 51.9844C21.413 53.4524 20.9168 54.5931 20.5516 55.7526C20.1771 56.9214 19.8213 58.0528 19.5217 59.4179C20.2239 57.7535 20.7857 56.5847 21.2726 55.6684C21.7782 54.7708 22.237 54.1256 22.6864 53.4804C23.5665 52.1714 24.5122 50.881 26.3941 47.6645C25.8604 48.7211 23.2014 53.2373 23.6882 53.8731L23.295 53.5646C22.2838 55.7713 21.4037 57.9966 19.9711 60.6522C20.1303 60.0537 20.3082 59.4553 20.5142 58.8756C19.7745 60.7363 18.9599 62.195 18.2015 63.5695C17.5274 64.972 16.8907 66.2998 16.7409 67.9268C17.1435 66.8889 17.4993 66.0567 17.6679 65.3834C17.0686 67.3657 16.226 69.7968 15.4582 71.8913C15.3178 73.4622 15.1024 74.9956 15.0181 76.5478C14.7934 76.4449 14.1193 79.2875 14.0538 77.8288C13.7729 78.6142 13.5856 79.3155 13.4639 79.9513C13.3703 80.5872 13.3328 81.1575 13.3141 81.6905C13.286 82.7471 13.3235 83.6354 13.2392 84.5891C12.771 86.2348 12.7991 85.4961 12.874 84.2899C13.0051 83.0931 13.2111 81.4287 12.9021 81.2043C12.6493 82.3544 12.3684 83.5232 12.2093 84.692C12.0595 85.8608 11.9284 87.0015 11.8254 88.0862C11.7037 90.2554 11.7224 92.1816 11.8722 93.5094C11.9939 92.5556 12.1531 92.0975 12.2561 92.1536C12.1812 92.219 12.0875 92.7239 12.0595 93.3411C12.0407 93.9582 12.022 94.6969 12.0126 95.2205L12.3123 95.9498C12.0501 97.689 11.8628 97.4552 11.6662 95.9498C11.5164 97.6423 12.2561 99.6245 11.816 101.364C11.6007 99.9331 11.4977 98.2968 11.5351 96.8381C11.582 95.3701 11.6381 94.0891 11.5351 93.3317C11.61 96.3425 11.3198 97.848 11.1606 99.5778C11.0764 100.438 10.9453 101.364 10.9734 102.542C11.0202 103.72 11.0857 105.16 11.3853 107.058C11.2449 107.17 10.7861 105.908 10.964 107.376C11.5164 110.77 11.7318 108.189 12.2186 109.199C11.9658 107.909 11.816 106.955 11.816 106.132C11.8254 105.3 11.9284 104.608 12.0688 103.842L12.3778 104.515C12.2561 104.627 12.3497 106.263 12.2935 106.759L12.874 107.124C12.2842 106.983 12.1156 109.657 12.6774 111.668C12.7523 109.545 12.8647 110.106 13.4358 109.452C13.904 110.836 13.9414 111.64 13.932 112.509C13.9508 113.37 13.904 114.305 14.6062 115.791C14.3347 115.604 13.6886 112.865 13.9976 115.286C14.4283 117.259 14.8122 116.895 15.2616 118.176C14.447 116.811 14.1755 117.278 13.2392 115.773C12.4808 112.229 12.977 114.342 12.125 110.892L12.2467 113.921C11.6288 110.892 11.3011 111.799 11.067 111.574C11.4977 116.913 12.5276 115.371 13.1456 118.709C13.8384 120.223 12.4995 115.595 13.4171 118.007C13.7261 119.56 13.8665 119.709 14.0444 119.906C14.2223 120.093 14.4376 120.326 15.0275 121.991L14.653 121.486C14.6811 122.608 15.2803 123.543 15.7485 124.702C16.3477 125.936 16.8346 122.748 18.7352 127.947C18.5105 127.741 18.3888 127.676 18.3326 127.704C17.3402 127.105 16.4507 126.46 15.4863 125.806C14.55 125.142 13.5575 124.478 12.6587 123.767C13.08 125.179 13.6043 126.619 14.0819 128.124C14.6062 129.611 15.2054 131.107 15.7765 132.659C16.4413 134.165 17.0593 135.726 17.7615 137.269C18.5105 138.784 19.1659 140.373 19.9992 141.879C20.0648 142.777 19.2783 141.804 18.5292 140.635C17.7989 139.457 17.0499 138.111 16.9844 138.382C16.5349 137.428 16.1511 136.437 15.7672 135.455C15.9732 135.455 16.6286 136.979 17.2933 138.073C17.93 139.177 18.4169 139.934 18.033 138.531C15.3552 133.66 14.7373 131.201 12.3778 126.451C12.0969 128.293 14.8496 132.959 15.7953 136.306C15.2522 134.96 14.6343 133.894 14.0819 132.828C14.6624 134.352 15.3365 135.895 16.0013 137.503C16.7597 139.064 17.4712 140.729 18.3514 142.365L18.9412 142.992C18.651 142.44 18.3794 141.926 18.136 141.477C17.9207 141.009 17.724 140.598 17.5555 140.243C17.2278 139.541 17.0312 139.102 16.9937 138.99C17.3589 139.728 17.7334 140.43 18.0986 141.065C18.4731 141.692 18.885 142.225 19.2408 142.674C19.9618 143.571 20.5516 144.086 20.8606 144.029L20.5891 143.515L21.3381 144.441C21.6658 145.086 22.0403 145.75 22.4242 146.414ZM187.455 119.279C187.465 119.485 187.493 119.653 187.549 119.784C187.493 119.653 187.408 119.765 187.455 119.279ZM6.98475 84.9818C6.24508 89.3765 5.90801 93.8647 5.81438 98.1565C6.08591 96.221 6.45106 94.4444 6.72259 93.0699C7.04093 91.6954 7.35927 90.7323 7.55589 90.3957C8.01467 89.7318 7.90232 91.5645 7.82741 97.8854L7.93041 98.7082C7.96786 97.8854 8.01467 96.7633 8.07085 95.5104C8.12703 94.2574 8.09894 92.8829 8.19257 91.5458C8.08021 90.4518 7.71506 88.1236 7.57461 86.0478C7.47162 85.0099 7.37799 84.0374 7.31245 83.3268C7.26564 82.6255 7.22819 82.1767 7.19073 82.1861C6.71322 82.9061 6.90985 84.0936 6.63832 85.4961L6.98475 84.9818ZM9.38166 82.1861C9.94344 79.783 9.58765 80.2879 9.42848 79.8578C9.30676 80.7181 9.17568 81.5876 9.05396 82.4385C9.17568 82.1206 9.27867 81.9804 9.38166 82.1861ZM9.17568 79.9607C9.1195 80.2318 9.07268 80.4656 9.01651 80.5872L9.17568 79.9607ZM12.3029 127.713C12.2654 127.61 12.2467 127.573 12.2093 127.479C12.3872 128.04 12.5557 128.611 12.743 129.2C12.6868 128.957 12.5744 128.517 12.3029 127.713ZM11.3198 122.729L10.7486 122.28C10.8797 122.813 11.0202 123.356 11.1606 123.907C11.2917 123.674 11.3947 123.44 11.3198 122.729ZM9.61573 106.75C9.02587 105.805 8.75434 102.43 8.14575 102.252C7.97722 102.046 7.97722 102.757 7.98658 103.57C8.04276 104.468 8.09894 105.422 8.15512 106.441C8.24874 106.469 8.33301 106.665 8.44537 106.993C8.42664 105.983 8.52963 105.31 8.92288 105.674C8.35174 108.311 9.73745 107.9 9.85917 110.649C10.3835 111.453 9.88726 107.554 9.61573 106.75ZM156.595 26.5981C156.623 26.6916 156.754 26.9627 156.951 27.3181L155.228 26.3363C154.563 25.7753 153.955 25.1955 153.374 24.6345C152.766 24.1015 152.185 23.5779 151.605 23.073C150.444 22.0444 149.198 21.2123 147.672 20.6793C146.539 19.7162 146.052 18.9869 145.547 18.3417C146.165 18.7251 146.745 19.0804 147.195 19.445C151.268 21.3712 152.026 22.3624 152.606 23.1571C152.897 23.5592 153.14 23.9426 153.693 24.4475C154.217 24.9711 155.069 25.635 156.595 26.5981ZM120.885 7.79447C121.25 7.84123 121.4 7.77577 121.4 7.77577C113.404 6.92489 106.981 6.71918 102.749 6.48542C102.945 6.59763 103.339 6.70048 103.826 6.82203C104.312 6.95294 104.912 7.08385 105.539 7.21475C106.794 7.48591 108.17 7.66357 109.041 7.89733C108.498 7.98148 107.964 8.09369 107.421 8.22459L106.475 7.76642L103.723 8.00018C104.462 8.38355 106.663 8.4864 108.095 8.84171C108.161 8.79496 109.378 8.78561 110.745 8.76691C111.428 8.75756 112.159 8.74821 112.795 8.72951C113.432 8.74821 113.984 8.74821 114.321 8.72951C113.104 8.3742 111.868 8.10304 110.623 7.84123C111.625 8.05628 116.615 8.74821 118.591 9.11288C118.638 9.01002 117.842 8.63601 116.952 8.4116C116.063 8.19654 115.099 8.05628 114.836 8.28069C114.49 7.85058 118.432 8.55185 116.016 7.71967C117.542 7.74772 119.443 8.23394 121.231 8.69211C123.02 9.17833 124.658 9.83286 125.697 10.2069L125.875 10.8894C128.094 11.8712 127.654 10.7118 130.276 11.9647C126.886 10.9455 130.613 12.7876 127.945 11.9273C128.712 12.4416 127.767 12.5164 130.398 13.4141C131.615 13.4608 132.261 13.8535 132.879 14.2462C133.497 14.6296 134.087 15.0223 135.229 15.1626C136.455 15.9948 133.6 14.9569 136.175 16.2379C137.766 16.7054 138.543 16.9017 138.974 16.9017C139.414 16.9017 139.517 16.7054 139.742 16.4903C138.394 15.6862 137.504 15.5179 136.689 15.3683C135.875 15.2187 135.135 15.0878 134.002 14.508C135.66 14.8914 137.354 15.2561 139.03 15.6955C138.262 15.1345 137.616 14.8634 137.073 14.6483C138.038 15.013 138.89 15.2374 139.648 15.4057C140.079 15.4992 140.472 15.5927 140.837 15.6768C140.191 15.3402 139.564 15.013 138.974 14.7138C138.375 14.4332 137.822 14.1621 137.345 13.9377C136.381 13.4608 135.716 13.0868 135.557 12.8811L136.034 12.7876C135.201 12.0863 133.525 11.6936 132.729 11.5907C132.12 11.357 131.493 11.1419 130.903 10.9549C130.304 10.7772 129.733 10.637 129.227 10.4874C128.216 10.2069 127.458 9.95441 127.242 9.6926L128.263 9.7674C126.727 9.27183 125.847 9.05677 124.883 8.81366C124.396 8.68276 123.89 8.5425 123.254 8.3742C122.626 8.20589 121.877 8.00018 120.885 7.79447ZM25.7855 40.1374C26.8154 39.698 27.7892 39.165 29.3247 37.9588C30.8321 36.7339 32.7796 34.7516 35.9724 31.5818L35.5136 32.1242C36.4593 31.4696 37.2645 30.6935 38.0791 29.9175C38.903 29.1507 39.6895 28.3279 40.5134 27.4864C42.1894 25.8594 44.0058 24.1389 46.4963 22.8673C45.5132 23.8023 45.0544 24.2418 44.605 24.7561C44.1743 25.289 43.753 25.8968 42.8822 27.1498L44.9421 25.1581C44.6425 26.0651 46.7772 24.195 48.4906 23.0075L47.3858 24.6252C46.8334 24.915 45.8597 25.4854 45.1013 26.0464C44.3429 26.6168 43.7343 27.1124 43.8185 27.1498C44.0713 26.9066 43.1069 27.3929 41.8149 28.1783C40.579 29.0292 38.9966 30.1512 38.0697 31.1517C38.5659 31.2733 42.7699 27.4303 41.328 29.6557C42.0583 28.7954 42.5733 28.4308 43.1163 28.0848C43.65 27.7295 44.2118 27.3929 45.0825 26.6074C43.5189 28.2344 45.0264 27.4396 43.9403 28.7206C44.914 27.9165 45.8316 27.0469 46.8428 26.2895C46.9551 26.2989 42.7137 29.9362 45.4758 28.4588C45.7379 28.1783 46.1405 27.8323 46.59 27.4583C47.0675 27.1124 47.5824 26.729 48.0693 26.3737C49.043 25.663 49.8483 25.0366 49.7359 24.8122L49.8951 24.887C52.3294 23.4564 50.5505 23.6153 53.6403 22.007C53.5466 21.7639 52.8819 21.9603 51.8613 22.6896C51.0374 23.3629 51.0654 23.6995 49.3146 24.9711C48.809 25.0927 49.3427 24.7187 49.8202 24.3727C50.307 24.0361 50.7097 23.7088 49.8951 23.8491C49.0711 23.98 45.3634 27.4022 46.2248 25.8781L48.6124 24.3166C48.3783 23.8491 50.1292 22.727 49.867 22.4372C51.2527 21.3245 52.938 20.9037 54.2863 19.6601C54.7825 19.0149 53.3406 19.1365 56.0746 17.8929C56.6832 17.79 57.5165 17.5095 58.4528 17.1262C58.9209 16.9391 59.4172 16.7147 59.9321 16.481C60.4471 16.2659 60.9902 16.0415 61.5238 15.8171C62.6006 15.3683 63.6492 14.8447 64.6136 14.4613C65.578 14.0686 66.4113 13.7039 67.0012 13.4421C67.6566 13.0587 68.3307 12.7034 69.0142 12.3762C68.7052 12.0956 64.9881 13.947 66.2053 13.0494L67.8345 12.3481L69.4917 11.7216L69.2951 11.9928C70.4186 11.6655 71.4766 11.0578 72.4785 10.6557C71.5235 11.3009 69.0797 12.0115 69.7258 12.3294C71.3268 11.918 71.6077 11.9647 73.0309 11.4598C72.7219 11.5814 72.4597 11.7123 72.5253 11.7684C75.7836 11.0765 75.4652 10.3378 76.233 9.94506C77.7966 9.23443 76.9259 9.25313 75.7087 9.44014C74.4915 9.64585 72.9185 9.96376 73.0496 9.64585C74.6413 9.15028 76.2143 8.61731 77.8434 8.23394L80.2684 7.60747C81.083 7.41111 81.8976 7.2615 82.7122 7.08385C81.8976 7.40176 81.0924 7.71032 81.4482 7.85993C83.8919 7.66357 81.5792 8.24329 84.9312 7.61682C84.7533 7.27085 85.8019 7.02774 87.197 6.77528C87.8992 6.65373 88.6763 6.51347 89.4347 6.38257C90.1931 6.26101 90.9235 6.15816 91.5227 6.00855C92.6743 6.20491 92.9084 6.25166 90.4459 6.44802C90.7736 6.89684 94.0507 6.41062 95.2398 6.44802C95.9139 6.31711 97.0843 6.22361 97.8239 6.10206C96.8315 5.9057 97.2434 5.58778 99.4063 5.37273L99.5374 5.27922C98.6479 5.22312 97.6367 5.23247 96.588 5.18572C95.5394 5.16702 94.4346 5.09222 93.3859 5.15767C91.2792 5.24182 89.3317 5.35403 88.2644 5.75609L88.8636 5.44753C86.7944 5.51298 84.5847 5.97115 82.6841 6.50412C81.729 6.75658 80.8396 6.95294 80.0718 7.1119C79.304 7.27085 78.6486 7.33631 78.1337 7.23345C78.2273 6.85944 77.3097 7.34566 77.2629 6.85009L75.7836 7.35501L74.3604 7.95343L74.9128 7.56071C73.265 8.09369 71.589 8.5238 69.9786 9.15028L70.0816 9.01937C68.9955 9.62715 68.0217 10.1695 67.151 10.6557C66.3083 11.1887 65.5686 11.6562 64.9132 12.0769C64.9881 12.2827 65.1567 12.2827 64.4638 12.7221C63.7429 13.1148 63.1811 13.3579 62.6755 13.5637C61.5145 14.0218 60.625 14.0779 59.155 14.6109C60.5969 13.947 62.0294 13.2551 63.4807 12.6193C63.7054 12.1424 63.1717 11.9086 60.9152 12.6567C61.786 12.2453 62.0482 11.8151 60.934 12.2733C60.8497 12.4136 58.1438 13.7881 59.3236 13.573C57.2918 14.6202 54.5297 15.7797 51.6272 17.3506C50.1479 18.0892 48.706 19.043 47.2266 19.978C45.7847 20.9692 44.3897 22.0632 43.0882 23.2226C44.9795 21.5863 44.1088 22.0819 43.2848 22.5494C42.8729 22.7831 42.5077 23.0449 42.4984 23.0075C42.489 22.9888 42.5826 22.8953 42.8073 22.699C43.0227 22.4933 43.4066 22.2221 43.959 21.8013C43.0695 22.2408 42.4984 22.6335 42.077 23.0075C41.6557 23.3722 41.3748 23.6995 41.1033 24.0454C40.5696 24.7374 40.0359 25.4293 38.5285 26.7009C38.1352 26.757 40.167 25.3077 40.6445 24.4568C37.9948 26.4204 36.066 28.4588 34.2683 30.5439C33.3414 31.5631 32.4987 32.6384 31.5812 33.7231C31.113 34.256 30.6449 34.7984 30.158 35.3594C29.6805 35.9298 29.1843 36.5001 28.6506 37.0892L28.1263 36.9957C27.7611 37.4726 27.3585 37.9588 26.9653 38.4918C26.5814 39.0154 26.1881 39.5671 25.7855 40.1374ZM19.2034 50.7688C18.651 51.8535 18.0517 52.9194 17.5274 54.0601C17.5836 53.9573 17.6398 53.8544 17.7053 53.7422L16.3758 57.1364C17.5555 55.2289 18.6603 54.1817 17.4525 57.0336C17.4057 56.7156 16.7784 57.4169 17.1716 56.4164C16.8814 56.8466 16.4881 57.4169 16.1511 58.0247C15.814 58.6418 15.4769 59.2964 15.2148 59.8574C14.6811 60.9981 14.4376 61.8022 14.9994 61.4002C16.0574 57.5011 16.1698 60.914 17.0405 57.8751C16.7409 59.5862 15.8795 60.9981 15.4301 62.5222C15.5706 61.69 15.3458 61.6994 14.9339 62.1856C14.5313 62.6812 13.9695 63.6723 13.4264 64.7944C13.08 65.8229 12.0969 68.5813 11.6756 70.3298C12.2842 69.8529 12.0126 71.3957 13.0519 68.6748C12.9302 69.1984 12.7617 69.8529 12.5276 70.5916C12.3216 71.3396 12.0595 72.1718 11.6943 73.0227C11.8254 72.3027 12.125 71.0498 11.9565 71.0965C11.2542 72.1344 10.8891 73.4902 10.5146 74.2009C10.3554 74.7993 10.2618 75.4258 10.1401 76.0148C10.215 75.8465 10.2992 75.7063 10.3835 75.6128L10.2805 77.6979C10.7018 74.9956 10.7486 76.5197 10.9827 76.6039C10.5146 76.4169 10.5239 78.2963 10.3367 79.194L11.3011 77.3426C11.3198 77.8475 11.0389 78.6516 10.8236 79.2968C10.6363 79.942 10.5239 80.4189 10.8236 80.2225C11.3198 78.1561 11.7411 76.7441 12.022 75.3603C12.3591 73.9858 12.6868 72.658 13.1456 70.788L12.331 72.1718C12.7617 70.0306 13.2205 69.4602 13.6324 68.8244C13.8478 68.5065 14.0819 68.1792 14.344 67.6462C14.4845 67.3751 14.6249 67.0572 14.7841 66.6645C14.962 66.2717 15.1586 65.8136 15.3833 65.2432C15.7016 63.1955 18.239 58.5296 17.6304 58.1276C17.5649 58.7727 19.5779 55.7058 20.0929 54.0975C20.2614 53.1438 21.0011 51.4046 21.6284 50.1143C22.2744 48.8426 22.7238 47.9543 22.134 48.5902C21.2726 49.8525 20.5704 51.8254 19.5873 52.6669L20.9542 50.0301L19.6528 51.5262C20.2614 50.7408 19.9056 50.6379 19.2034 50.7688ZM4.21332 116.455C4.21332 116.493 4.22268 116.53 4.22268 116.577C4.21332 116.53 4.20396 116.483 4.20396 116.446L4.21332 116.455Z" fill="#FFC441"/>
<path d="M184.347 60.6522C184.89 61.3628 185.601 63.3918 185.807 62.8588C185.63 62.9523 185.264 62.0641 184.946 61.316C184.6 60.5867 184.3 59.9976 184.347 60.6522Z" fill="#FFC441"/>
<path d="M184.965 63.1674C185.105 63.2703 185.208 63.1207 185.583 64.0089L184.515 61.5872L184.965 63.1674Z" fill="#FFC441"/>
<path d="M183.392 66.599C184.103 67.7491 184.525 68.4971 185.171 70.4794C184.487 71.5173 183.822 67.3283 182.661 66.7579C183.233 68.5532 183.804 69.6566 184.375 70.6851C184.918 71.723 185.414 72.6954 185.892 74.1915C185.854 73.3967 185.536 71.4331 184.965 69.722C184.394 68.0202 183.757 66.5242 183.392 66.599Z" fill="#FFC441"/>
<path d="M181.622 65.4769C181.941 66.1034 182.287 66.7112 182.577 67.347L182.568 67.132L181.603 65.2619L181.622 65.4769Z" fill="#FFC441"/>
<path d="M160.808 22.7457C160.846 22.3811 159.526 21.7359 158.889 21.3151C159.367 21.7172 159.994 22.3063 160.808 22.7457Z" fill="#FFC441"/>
<path d="M168.804 165.302C172.802 161.066 176.416 156.475 179.6 151.603C178.186 153.67 176.838 155.68 175.124 157.849C174.31 158.962 173.364 160.093 172.325 161.318C171.323 162.571 170.134 163.862 168.804 165.302Z" fill="#FFC441"/>
<path d="M107.889 2.97903C110.183 3.04448 111.859 3.10993 113.544 3.11928C115.22 3.25019 116.934 3.32499 119.256 3.76446C117.776 3.25954 116.494 3.07253 115.361 2.90423C114.79 2.82942 114.256 2.77332 113.75 2.73592C113.235 2.70787 112.739 2.71722 112.262 2.70787C111.288 2.70787 110.361 2.70787 109.35 2.62371C108.339 2.53956 107.252 2.47411 105.97 2.2123L107.889 2.97903Z" fill="#FFC441"/>
<path d="M109.771 0.734939C110.127 1.0809 109.209 1.09025 108.282 1.18376C107.355 1.25856 106.428 1.32401 106.747 1.55777C109.883 1.66063 108.254 1.10895 111.091 1.50167L109.771 0.734939Z" fill="#FFC441"/>
<path d="M127.486 14.3117L126.175 14.1808L127.186 14.4145L127.486 14.3117Z" fill="#FFC441"/>
<path d="M88.4329 1.23051L88.9291 1.03415L86.5697 1.14636L88.4329 1.23051Z" fill="#FFC441"/>
<path d="M125.538 14.9569L127.289 15.6768L128.263 15.7236L125.538 14.9569Z" fill="#FFC441"/>
<path d="M109.64 8.3929L111.4 8.4303C111.054 8.42095 108.704 7.88798 109.64 8.3929Z" fill="#FFC441"/>
<path d="M74.2762 3.5868L72.1227 4.41899L72.3661 4.40964L74.5102 3.57745L74.2762 3.5868Z" fill="#FFC441"/>
<path d="M96.0263 9.40274C97.2247 9.8048 92.6088 9.62715 95.0619 9.93571C97.2247 9.81415 96.3446 9.60845 96.0263 9.40274Z" fill="#FFC441"/>
<path d="M70.3437 10.9643C70.0722 11.0578 69.782 11.17 69.5198 11.3102C69.8381 11.17 70.119 11.0578 70.3437 10.9643Z" fill="#FFC441"/>
<path d="M70.3437 10.9643C71.2332 10.6557 72.1789 10.5154 72.7594 10.2349C71.5703 10.3471 71.1957 10.5996 70.3437 10.9643Z" fill="#FFC441"/>
<path d="M60.3722 15.0317L61.1587 14.7138C60.4565 15.2654 60.8216 15.0691 61.4583 14.5922C62.2729 14.2088 62.1699 14.0966 62.2354 13.9657C62.3759 13.8442 62.5163 13.7133 62.6755 13.5824C62.4414 13.7507 62.2354 13.9003 62.0669 14.0312C60.7748 14.6015 60.007 14.9756 60.3722 15.0317Z" fill="#FFC441"/>
<path d="M23.2482 34.5085C25.5983 32.04 26.2349 31.4416 26.366 31.8062C28.6506 29.5435 27.8828 29.5154 29.1281 28.0006C27.8922 29.3471 27.1151 30.1232 26.2818 30.9741C25.4672 31.8436 24.6339 32.8254 23.2482 34.5085Z" fill="#FFC441"/>
<path d="M29.1375 28.01C29.4183 27.7108 29.6992 27.4396 30.0363 27.103C29.6431 27.4677 29.3528 27.7388 29.1375 28.01Z" fill="#FFC441"/>
<path d="M73.1994 14.0499C72.6564 14.3958 72.1227 14.7792 71.589 15.1345L72.2163 14.8447C72.544 14.5922 72.8624 14.3023 73.1994 14.0499Z" fill="#FFC441"/>
<path d="M19.9711 38.3609C20.3737 37.8746 20.9917 37.0705 21.3943 36.7526C21.2351 36.3973 19.5685 38.8471 19.9711 38.3609Z" fill="#FFC441"/>
<path d="M33.332 33.1059C33.6785 32.9937 35.0642 31.507 35.7196 31.0021C34.8488 31.7969 33.6691 31.9839 33.332 33.1059Z" fill="#FFC441"/>
<path d="M15.7016 47.1876C16.0481 46.664 16.769 45.9908 16.7784 46.4863C17.1248 45.6355 17.2746 44.2796 15.7016 47.1876Z" fill="#FFC441"/>
<path d="M29.3528 37.3417L29.7367 37.0705C30.158 36.4814 30.5606 35.8643 31.01 35.2939C30.4389 35.9578 29.9052 36.6591 29.3528 37.3417Z" fill="#FFC441"/>
<path d="M38.2008 35.2939C39.6052 33.3865 34.8301 37.1547 37.5079 34.1251C36.478 34.9386 36.0379 35.3874 35.8788 35.6025C35.7196 35.8176 35.8413 35.8082 36.0005 35.7802C36.3188 35.7147 36.7963 35.5651 35.4481 36.9209C37.0772 35.3781 38.2476 35.0321 38.2008 35.2939Z" fill="#FFC441"/>
<path d="M35.4387 36.9302C35.1953 37.1547 34.9425 37.3978 34.6803 37.6783C34.9893 37.3791 35.2327 37.136 35.4387 36.9302Z" fill="#FFC441"/>
<path d="M15.2616 63.3357C15.3458 62.9991 15.3927 62.756 15.4301 62.5316C15.3552 62.7934 15.299 63.0552 15.2616 63.3357Z" fill="#FFC441"/>
<path d="M27.9109 46.5144L28.6787 44.9155L29.5213 43.354C28.3135 45.3923 25.0459 50.2639 25.7855 50.3013C26.8716 48.7491 28.1075 46.8604 28.4259 45.9253L27.9109 46.5144Z" fill="#FFC441"/>
<path d="M1.76023 81.2884L1.81641 79.5773L1.37635 81.6531C1.57297 81.064 1.82577 82.2235 1.76023 81.2884Z" fill="#FFC441"/>
<path d="M1.29208 82.0552L1.37635 81.6531C1.34826 81.7373 1.32017 81.8682 1.29208 82.0552Z" fill="#FFC441"/>
<path d="M17.8177 57.0055C18.3888 55.9863 18.7914 55.1448 19.194 54.1536C18.8757 54.4809 17.4619 57.0336 17.8177 57.0055Z" fill="#FFC441"/>
<path d="M1.40444 93.1821C1.37635 92.2564 1.45125 91.3307 1.46998 90.4051C1.4138 91.4149 1.32017 92.4154 1.3389 93.4252L1.40444 93.1821Z" fill="#FFC441"/>
<path d="M0.655405 106.188L0.580502 106.684C0.70222 107.451 0.870753 108.208 1.04865 108.975L1.10483 108.479C0.908205 107.713 0.786486 106.955 0.655405 106.188Z" fill="#FFC441"/>
<path d="M12.5931 90.1339C12.7523 88.4789 12.4246 87.1231 12.2467 87.5438C12.0875 88.6191 12.0501 89.7038 11.9752 90.7884C12.5276 90.003 12.0033 89.8814 12.3216 88.0207C12.3591 88.722 12.4995 89.4326 12.5931 90.1339Z" fill="#FFC441"/>
<path d="M52.2077 183.357C51.3463 183.226 47.9476 181.094 47.957 180.692C48.4719 180.889 50.4194 181.824 49.3427 180.992C48.2847 180.711 47.2922 180.328 46.2529 179.991C42.9946 177.298 49.4644 180.898 51.4212 181.581C50.513 181.029 49.7546 180.608 49.0524 180.243C48.3596 179.869 47.751 179.542 47.133 179.206C45.8877 178.551 44.5863 177.887 42.7605 176.55C43.8092 177.373 44.3709 178.046 44.8859 178.56C44.7923 178.841 43.9028 178.336 42.7418 177.513C41.5714 176.709 40.1108 175.615 38.9217 174.671C40.2981 176.055 39.2962 175.531 38.0416 174.82C37.8356 174.68 37.6764 174.596 37.5641 174.549C37.4143 174.465 37.2832 174.39 37.1334 174.315L37.4236 174.54C37.3675 174.568 37.3768 174.68 37.5266 174.923C38.594 175.643 39.418 176.429 40.1951 177.102C40.9722 177.775 41.6463 178.392 42.3205 178.878C41.9179 178.018 43.0695 178.85 44.6331 179.879C46.1967 180.917 48.1068 182.273 49.0992 182.647L51.2246 183.769L52.0017 184.208C52.1141 184.376 51.8332 184.376 50.5505 183.843C51.5991 184.311 55.0072 186.05 54.8106 185.648C56.0933 186.331 57.4229 186.91 58.743 187.499L60.728 188.388L62.7504 189.182C62.9845 189.313 63.2279 189.454 63.3871 189.594C63.6867 189.65 63.7522 189.631 63.7335 189.566C75.5495 194.073 88.2363 196.233 100.839 195.98C98.9662 195.99 97.3558 195.7 95.4458 195.559C98.3389 195.045 92.3092 195.363 93.1893 194.793C94.4814 194.699 96.354 194.755 97.4681 194.942C97.8895 194.671 96.2978 194.372 96.4944 194.045C94.163 193.839 92.8054 193.96 91.4478 194.129C90.7643 194.213 90.0901 194.297 89.2943 194.335C88.4985 194.353 87.5902 194.269 86.448 194.073C86.6727 193.755 88.1146 193.643 85.1278 193.306L85.8956 193.334C84.6877 193.287 83.8638 193.166 83.2552 193.007C82.6466 192.857 82.2534 192.708 81.9163 192.586C81.2328 192.334 80.7647 192.212 79.1917 192.38L79.3696 191.913C78.2741 191.847 76.6824 191.585 75.0814 191.268C73.4897 190.903 71.8886 190.445 70.7276 190.155L70.8961 190.099C64.3421 188.519 67.2352 189.154 60.1569 186.518C61.2804 186.845 62.4414 187.06 63.5837 187.312C61.2523 186.162 60.4939 186.461 58.8086 185.639C58.9678 185.611 58.7243 185.106 60.3628 185.742C57.4603 184.797 54.6046 183.703 51.7864 182.478C49.7078 181.693 52.0017 183.002 52.2077 183.357Z" fill="#FFC441"/>
<path d="M42.7418 176.55C42.3579 176.251 41.9179 175.924 41.3748 175.559C41.8898 175.933 42.3298 176.251 42.7418 176.55Z" fill="#FFC441"/>
<path d="M103.498 195.905L100.839 195.98C101.663 195.99 102.524 195.971 103.498 195.905Z" fill="#FFC441"/>
<path d="M31.8527 169.032C32.8452 170.323 30.7385 168.462 30.4014 168.406L32.4987 170.398L34.6803 172.296C34.7833 172.137 35.3544 172.342 35.3825 172.137C34.1934 171.118 32.9763 170.126 31.8527 169.032Z" fill="#FFC441"/>
<path d="M35.7196 173.661C35.9443 173.698 36.5061 173.979 37.1147 174.315C36.272 173.68 35.4855 172.978 34.6803 172.286C34.6054 172.408 34.7833 172.744 35.7196 173.661Z" fill="#FFC441"/>
<path d="M41.7868 165.498L42.4984 166.087L43.6875 166.835C43.0508 166.405 42.3954 165.975 41.7868 165.498Z" fill="#FFC441"/>
<path d="M53.1066 174.568C52.2826 173.782 50.4194 172.791 49.7734 172.483C51.8332 173.773 50.8688 173.343 53.1066 174.568Z" fill="#FFC441"/>
<path d="M52.2264 170.388L54.2208 171.463L54.0709 171.305L52.2264 170.388Z" fill="#FFC441"/>
<path d="M122.467 191.202C122.87 191.099 123.254 191.006 123.656 190.866C123.113 191.024 122.757 191.118 122.467 191.202Z" fill="#FFC441"/>
<path d="M101.045 194.493C107.121 194.896 97.0843 195.054 98.9849 195.709L102.309 195.391L102.028 195.587L104.06 195.503L106.082 195.326C105.23 195.064 104.612 195.092 104.771 194.737C107.458 194.606 107.889 194.671 108.151 194.783C108.404 194.886 108.488 195.111 110.492 195.064L113.497 194.652C114.499 194.512 115.492 194.297 116.484 194.119L116.016 194.306C116.522 194.213 116.737 194.129 116.896 194.045C123.581 192.745 130.135 190.753 136.399 188.107C138.066 187.294 137.523 187.322 136.877 187.415C136.221 187.481 135.444 187.555 136.605 186.826C132.682 188.491 126.568 190.08 126.39 190.763C126.503 190.632 126.718 190.379 125.866 190.538L123.638 191.754L125.96 191.286C125.398 191.585 124.49 191.95 123.413 192.315C122.327 192.633 121.072 192.941 119.846 193.222C117.392 193.764 115.005 193.989 114.265 193.97C116.503 193.474 117.027 193.166 117.776 192.876C118.535 192.614 119.499 192.296 122.626 191.763C122.308 191.66 121.11 191.623 122.467 191.211C115.314 193.138 108.685 193.727 101.045 194.493Z" fill="#FFC441"/>
<path d="M167.634 165.76V165.844C167.7 165.722 167.718 165.676 167.634 165.76Z" fill="#FFC441"/>
<path d="M165.78 167.415C165.059 168.397 164.357 169.416 163.58 170.351C164.301 169.743 164.975 169.088 165.649 168.425L167.671 166.461L167.634 165.844C167.372 166.274 166.098 167.807 165.415 168.2L165.78 167.415Z" fill="#FFC441"/>
<path d="M160.621 173.39C162.765 171.379 162.241 171.024 160.893 171.884C162.737 169.949 162.344 171.417 163.355 169.771C163.037 169.509 160.733 171.847 160.181 172.361L160.621 173.39Z" fill="#FFC441"/>
<path d="M142.317 184.797L142.953 184.217L141.118 185.078L142.317 184.797Z" fill="#FFC441"/>
<path d="M142.953 184.217L144.77 183.357C144.564 183.273 144.367 183.189 144.021 183.236L142.953 184.217Z" fill="#FFC441"/>
<path d="M149.432 180.898C150.181 180.487 150.987 180 151.96 179.393C151.118 179.898 150.284 180.412 149.432 180.898Z" fill="#FFC441"/>
<path d="M147.373 181.927L147.466 181.955L149.432 180.898C148.693 181.263 148.037 181.599 147.373 181.927Z" fill="#FFC441"/>
<path d="M144.77 183.357C145.247 183.554 145.79 183.75 148.262 182.188L147.466 181.955C146.567 182.422 145.697 182.936 144.77 183.357Z" fill="#FFC441"/>
<path d="M66.6173 178.448L68.6116 179L68.4337 178.86L66.4394 178.317L66.6173 178.448Z" fill="#FFC441"/>
<path d="M77.8247 182.441C78.3397 182.488 78.7329 182.506 79.0887 182.516C78.555 182.431 78.1243 182.403 77.8247 182.441Z" fill="#FFC441"/>
<path d="M86.888 181.515C89.1819 182.198 83.5642 181.618 87.9086 182.338C88.255 182.721 86.1203 183.011 84.0885 182.413C84.3132 182.104 86.1203 182.553 84.9218 181.983C83.4986 182.132 83.0211 181.768 83.405 182.357C81.0456 182.282 80.7179 182.525 79.0793 182.497C79.7909 182.6 80.671 182.815 81.6729 183.021C82.6747 183.217 83.7889 183.423 84.9218 183.638C86.0547 183.871 87.2345 183.956 88.3393 184.068C88.8917 184.115 89.4347 184.152 89.9497 184.171C90.4647 184.171 90.9609 184.133 91.4197 184.096C93.4514 183.628 92.3092 182.703 92.3934 181.814C92.253 181.683 90.9328 181.562 89.6314 181.412C88.3393 181.281 87.0285 181.244 86.888 181.515Z" fill="#FFC441"/>
<path d="M83.3957 180.038C82.3376 179.804 82.0099 179.795 81.3452 179.701C81.4013 179.869 81.6916 179.926 82.0848 179.963C82.4874 179.972 82.965 179.963 83.3957 180.038Z" fill="#FFC441"/>
<path d="M108.844 187.677C109.05 187.527 111.119 187.097 110.642 186.938C109.593 187.107 108.554 187.35 107.496 187.462C108.245 187.434 108.526 187.555 108.844 187.677Z" fill="#FFC441"/>
<path d="M106.11 187.64L107.496 187.462C107.149 187.481 106.719 187.527 106.11 187.64Z" fill="#FFC441"/>
<path d="M109.003 187.742C108.947 187.724 108.9 187.705 108.844 187.686C108.797 187.714 108.816 187.742 109.003 187.742Z" fill="#FFC441"/>
<path d="M156.492 176.457C156.595 176.681 157.775 175.69 158.318 175.138C157.822 175.522 157.063 175.97 156.492 176.457Z" fill="#FFC441"/>
<path d="M189.918 130.799L190.536 129.592C190.274 130.004 190.142 130.219 189.918 130.799Z" fill="#FFC441"/>
<path d="M188.261 109.882C188.214 109.835 188.186 109.742 188.167 109.611C188.186 109.742 188.214 109.826 188.261 109.882Z" fill="#FFC441"/>
<path d="M188.167 109.611C188.073 108.741 188.738 106.17 188.457 105.197L188.541 105.328L188.495 103.561C188.438 104.384 188.354 105.656 188.279 106.834C188.158 108.021 188.083 109.115 188.167 109.611Z" fill="#FFC441"/>
<path d="M99.0224 189.136C149.698 189.136 190.779 148.11 190.779 97.502C190.779 46.8941 149.698 5.8683 99.0224 5.8683C48.3465 5.8683 7.26564 46.8941 7.26564 97.502C7.26564 148.11 48.3465 189.136 99.0224 189.136Z" fill="#FFC441"/>
</svg>
