<svg width="39" height="40" viewBox="0 0 39 40" fill="none" xmlns="http://www.w3.org/2000/svg">
<path d="M36.0184 28.2872C35.9289 28.4746 35.8242 28.662 35.8495 28.6587C35.9826 28.4428 36.0989 28.217 36.1974 27.9833C36.2058 27.9276 36.1062 28.0998 36.0133 28.2838" fill="currentColor"/>
<path d="M35.5176 29.5997C35.5345 29.6318 35.6864 29.3954 35.813 29.1472C35.8046 29.0814 35.678 29.3363 35.5176 29.5997Z" fill="currentColor"/>
<path d="M21.7793 39.3707C21.7891 39.3673 21.7983 39.3621 21.8063 39.3555L21.7793 39.3707Z" fill="currentColor"/>
<path d="M36.1751 28.0958C36.0485 28.4554 36.4098 27.7581 36.4824 27.5234C36.3939 27.7214 36.2912 27.9127 36.1751 28.0958Z" fill="currentColor"/>
<path d="M36.4141 27.485C36.5576 27.1254 36.6606 26.9785 36.6606 26.8789C36.5491 27.0678 36.4661 27.272 36.4141 27.485Z" fill="currentColor"/>
<path d="M25.6321 38.1238C25.7114 38.0816 25.8009 38.0343 25.7891 38.0563C25.7334 38.0816 25.681 38.1069 25.703 38.1086C25.8887 38.0157 26.3091 37.8486 26.3395 37.8047C25.9579 37.9837 25.9242 37.96 25.5055 38.1525C25.4734 38.1964 25.551 38.1643 25.6321 38.1238Z" fill="currentColor"/>
<path d="M25.4402 38.2734C25.219 38.3697 24.7648 38.5301 24.6973 38.5824C24.9544 38.504 25.2032 38.4005 25.4402 38.2734Z" fill="currentColor"/>
<path d="M23.1813 39.1337C23.3501 39.0763 23.5831 39.0104 23.6591 38.9648C23.5105 38.9868 23.1053 39.105 23.1813 39.1337Z" fill="currentColor"/>
<path d="M29.9467 35.9244C29.7931 35.9818 30.1493 35.7404 30.1679 35.6914C29.9619 35.8383 29.9991 35.8282 29.6614 36.0527C29.604 36.1304 29.5837 36.1878 29.9433 35.9244" fill="currentColor"/>
<path d="M22.1875 39.2556C22.4154 39.2016 22.4762 39.21 22.7717 39.1307C22.8105 39.0648 22.3209 39.2033 22.1875 39.2556Z" fill="currentColor"/>
<path d="M26.2176 37.7673C26.4743 37.6288 26.3274 37.6576 26.5435 37.5039C26.3746 37.59 26.3493 37.6103 26.1855 37.6863C26.2548 37.7099 26.2497 37.6981 26.2176 37.7673Z" fill="currentColor"/>
<path d="M30.3263 35.3678C30.193 35.5164 29.8114 35.7292 29.6797 35.8744C29.9853 35.6684 30.5239 35.2513 30.3263 35.3678Z" fill="currentColor"/>
<path d="M14.7256 0.954426C14.8945 0.924035 14.7864 0.954426 14.6564 0.983129C14.5264 1.01183 14.3761 1.06924 14.4319 1.0608C14.6682 1.01014 14.989 0.871694 15.2271 0.834549C15.0718 0.834549 15.3301 0.758571 15.0144 0.834549C15.0144 0.859875 14.6868 0.937542 14.7256 0.956114" fill="currentColor"/>
<path d="M12.8505 1.55556C12.8117 1.5353 13.222 1.38672 13.1257 1.38672C12.8319 1.51841 12.729 1.54881 12.6445 1.59777C12.7093 1.5705 12.7774 1.55232 12.8471 1.54374C12.7931 1.564 12.7408 1.59608 12.8471 1.55556" fill="currentColor"/>
<path d="M15.8402 0.611635C16.0357 0.581028 16.2288 0.535879 16.4176 0.476562C16.3383 0.476563 15.9246 0.594751 16.0073 0.533968C16.0073 0.533968 15.9888 0.523838 15.9043 0.545787C15.8891 0.579555 15.7524 0.60657 15.6021 0.635273C15.4663 0.658456 15.3337 0.697559 15.207 0.751772C15.3202 0.718004 15.4282 0.69099 15.5329 0.665664L15.8402 0.611635Z" fill="currentColor"/>
<path d="M13.9121 1.12284C14.2295 1.00803 14.6584 0.901656 15.0028 0.785156C14.6313 0.870163 14.2667 0.983043 13.9121 1.12284Z" fill="currentColor"/>
<path d="M14.4267 1.0389C14.4925 1.01696 14.5567 0.991629 14.6242 0.973057C14.7829 0.900455 14.6124 0.959549 14.6124 0.925781C14.5449 0.944354 14.4807 0.96968 14.4148 0.991629C14.4317 1.02033 14.2561 1.07098 14.4267 1.0389Z" fill="currentColor"/>
<path d="M17.7473 0.29394C17.9854 0.258484 18.1289 0.221339 18.4615 0.187571C18.4615 0.211209 18.1829 0.239912 18.2623 0.263549C18.7502 0.19939 18.6928 0.216274 19.1825 0.179129C19.1031 0.228093 19.3766 0.216274 19.1825 0.253419C19.6417 0.204455 19.819 0.299006 20.106 0.253419C19.9473 0.253419 20.0351 0.229781 20.106 0.216274C19.762 0.203181 19.4192 0.168784 19.0795 0.113281C18.8228 0.150426 18.6084 0.165622 18.3855 0.185883L17.6443 0.258484C17.5852 0.305759 18.0141 0.226404 17.7524 0.29394" fill="currentColor"/>
<path d="M23.8069 0.472098C23.8153 0.488982 23.8322 0.505866 24.0078 0.531192C24.077 0.487293 23.7849 0.441706 23.5013 0.40625C23.4776 0.450149 23.584 0.424822 23.8069 0.472098Z" fill="currentColor"/>
<path d="M17.7285 0.143514C17.9987 0.130007 18.5609 0.0320797 18.7567 0C18.3161 0.0405217 17.9767 0.109746 17.7285 0.143514Z" fill="currentColor"/>
<path d="M11.6286 3.20706C11.4598 3.27797 11.3534 3.31343 11.166 3.40629C11.3129 3.39447 11.6286 3.21888 11.9883 3.03822C11.8954 3.0264 12.4222 2.81535 12.3259 2.80859C12.0354 2.89426 11.7577 3.01863 11.5003 3.17835C11.7384 3.0703 11.8667 3.05341 11.6202 3.2003" fill="currentColor"/>
<path d="M7.44899 36.5902L7.18729 36.3927L6.96442 36.2103L6.67909 35.9807C6.58116 35.903 6.69091 36.0077 7.1856 36.4248C7.13336 36.3784 7.07683 36.3371 7.01676 36.3015C7.06742 36.342 7.11469 36.3809 7.09443 36.3792C7.14846 36.4248 7.20755 36.4653 7.26327 36.5058C7.1856 36.4028 7.41354 36.5801 7.46081 36.5902" fill="currentColor"/>
<path d="M1.76583 29.7629C1.71855 29.6616 1.71855 29.638 1.6831 29.5519C1.63582 29.5131 1.72362 29.7055 1.82155 29.9183C1.9074 30.0701 1.9819 30.2282 2.04441 30.391C2.04441 30.3995 2.04441 30.4113 2.08494 30.4957C2.09844 30.4957 2.18455 30.6646 2.20819 30.6848C2.02078 30.3269 2.04779 30.2982 1.87895 29.9656C1.81479 29.8339 1.81817 29.8828 1.76583 29.7714" fill="currentColor"/>
<path d="M4.8418 34.3594C4.91634 34.4899 5.01027 34.6083 5.12038 34.7106C5.21684 34.8151 5.32314 34.9101 5.4378 34.9942C5.14908 34.7156 5.117 34.6565 4.8418 34.3594Z" fill="currentColor"/>
<path d="M13.8105 39.5593C14.0773 39.6167 14.3424 39.6808 14.6075 39.7281C14.6294 39.6876 13.8713 39.5255 13.8105 39.5593Z" fill="currentColor"/>
<path d="M12.2598 2.62191C12.489 2.56035 12.7064 2.46106 12.903 2.32812C12.6194 2.4767 12.3357 2.55268 12.2598 2.62191Z" fill="currentColor"/>
<path d="M1.30968 28.7317C1.26517 28.5482 1.20414 28.369 1.12733 28.1965C1.15941 28.3451 1.12733 28.2894 1.07499 28.1745C1.02265 28.0597 0.963555 27.8808 0.917969 27.793C0.956802 27.8926 0.993946 28.0125 1.03784 28.1306C1.08174 28.2488 1.13577 28.3873 1.18473 28.5156C1.26089 28.7361 1.35579 28.9496 1.46838 29.1538C1.36202 28.9056 1.39747 28.9563 1.45319 29.0677C1.49819 29.1608 1.5507 29.25 1.61021 29.3345C1.4515 28.9782 1.39916 28.7756 1.27253 28.5004C1.28435 28.5629 1.40254 28.9529 1.31136 28.73" fill="currentColor"/>
<path d="M15.6148 39.8836C15.6638 39.9191 15.5321 39.9174 15.3768 39.8971C15.2533 39.8735 15.1277 39.8622 15.002 39.8634C15.2333 39.9005 16.2531 40.0322 16.1146 39.9934C15.6283 39.9579 15.7904 39.9208 15.6081 39.8836" fill="currentColor"/>
<path d="M11.2793 3.41219L11.2996 3.45778L11.5663 3.31933C11.5781 3.27712 11.5123 3.28725 11.2793 3.41219Z" fill="currentColor"/>
<path d="M38.4295 16.2636C38.2835 15.2345 38.0577 14.2184 37.7541 13.2244C37.1652 11.2867 36.2697 9.45579 35.1016 7.80129C34.9564 7.60543 34.8247 7.40113 34.6728 7.2171L34.2271 6.65655C34.0751 6.47589 33.9181 6.30367 33.7644 6.12808C33.6108 5.95248 33.4521 5.7904 33.2917 5.62156C32.6801 4.98711 32.0227 4.39852 31.3247 3.86055C31.2015 3.7508 31.0073 3.60223 30.7827 3.43676L30.0398 2.9505C29.7832 2.79854 29.5333 2.65334 29.3341 2.53009C29.1896 2.4499 29.0514 2.35904 28.9204 2.25826C28.446 1.99824 28.007 1.88681 27.6693 1.70446C27.8382 1.77706 28.1455 1.9307 28.0611 1.85304C27.8278 1.76626 27.6019 1.66067 27.3857 1.53731C27.1716 1.47681 26.9613 1.40351 26.7559 1.31781L26.0046 1.05273C26.0299 1.12196 26.7509 1.32794 26.7728 1.40392C26.3423 1.23508 25.7226 1.02065 25.2955 0.885583C25.4609 0.938138 25.6303 0.977101 25.802 1.00208C25.5234 0.915974 25.1942 0.801162 24.8852 0.713365C24.5762 0.625568 24.2875 0.563097 24.0967 0.536083C24.2757 0.608684 24.7586 0.704923 24.897 0.779213C24.5999 0.7083 24.3263 0.639076 24.0629 0.569851L23.2897 0.401011C22.7466 0.292995 22.1953 0.230868 21.6418 0.215286C21.6992 0.215286 21.7583 0.23217 21.6418 0.227105C21.4983 0.216974 21.2484 0.203467 21.4375 0.227105C21.7752 0.252431 21.944 0.235547 22.361 0.286199C22.0521 0.286199 22.5029 0.34867 22.6616 0.384126C22.3239 0.373996 22.5063 0.395945 22.3509 0.409453C22.1348 0.368931 21.9119 0.350358 21.6891 0.318279C21.4662 0.286199 21.2433 0.260873 21.0238 0.249054C21.3413 0.201779 20.779 0.176453 21.4392 0.178141C21.1251 0.152815 20.7351 0.161257 20.7166 0.119047C20.8535 0.139211 20.9925 0.142047 21.1302 0.127489C20.9073 0.11567 20.6237 0.112293 20.3806 0.108917C20.1374 0.10554 19.9078 0.124112 19.7896 0.108917C20.2269 0.0599529 19.4655 0.0920326 19.8909 0.03125C19.7339 0.03125 19.5735 0.03125 19.4165 0.03125L18.9606 0.0667065C18.6868 0.0696612 18.4137 0.0933668 18.1434 0.137619C18.4372 0.0987862 18.7074 0.0970978 18.9471 0.0869673C19.1869 0.0768369 19.4013 0.0667065 19.5853 0.0650181C19.457 0.110605 19.7373 0.100475 19.6934 0.161257C19.9551 0.161257 20.1645 0.173076 20.3569 0.186583L20.936 0.252431C20.622 0.252431 20.6338 0.22204 20.3198 0.230482C20.1695 0.27438 20.7773 0.230482 20.6288 0.282822C20.3451 0.243989 20.5325 0.298018 20.3215 0.304771C20.3046 0.289576 20.34 0.267627 20.2202 0.269315C19.7491 0.294641 19.3321 0.260873 18.9184 0.260873C18.4953 0.242309 18.0714 0.273476 17.6555 0.353735C17.7771 0.353735 18.081 0.311525 18.0692 0.353735C17.6234 0.404387 17.3938 0.441532 17.5525 0.353735C17.225 0.397634 17.3465 0.42296 17.1524 0.461793C16.9059 0.480366 16.3521 0.600242 16.3335 0.559721C16.8113 0.438155 16.8299 0.493873 17.1473 0.438155C17.2199 0.392568 17.1473 0.395945 17.4445 0.319967C17.274 0.33565 17.1048 0.362725 16.9379 0.401011C16.9768 0.424648 16.5597 0.480366 16.2221 0.569851C15.8844 0.659336 15.6125 0.69817 15.935 0.649206C15.8392 0.696104 15.7367 0.727993 15.6311 0.743757C15.5323 0.764236 15.4352 0.792464 15.3407 0.828177C15.827 0.706612 16.6036 0.58167 16.0583 0.747133C16.504 0.62388 16.9025 0.644141 17.1659 0.531018C16.9126 0.558032 16.5682 0.654271 16.4551 0.628945C16.8403 0.539457 17.2304 0.472372 17.6234 0.428025C17.9113 0.390418 18.2025 0.386451 18.4913 0.416206C18.9317 0.361454 19.3769 0.356922 19.8183 0.402699C19.6866 0.402699 19.6765 0.39088 19.5127 0.402699C19.4722 0.463481 20.107 0.419583 20.1239 0.384126C19.9838 0.384126 19.7238 0.346982 19.9196 0.340228C20.1155 0.333474 19.999 0.385815 20.3265 0.365554C20.5376 0.365554 20.4228 0.319967 20.6338 0.319967C20.6963 0.33854 21.0272 0.319967 21.0407 0.352047C20.703 0.363866 20.6119 0.352047 20.7351 0.407764C20.6017 0.407764 20.4633 0.407764 20.3367 0.407764C20.21 0.407764 20.0986 0.42296 20.0226 0.434779C20.286 0.434779 20.828 0.434779 20.8364 0.483742C20.6153 0.483742 20.5123 0.441532 20.5325 0.483742C20.9546 0.483742 21.0103 0.514134 21.3429 0.525952C21.4409 0.505692 21.0407 0.471923 21.3429 0.476989C22.0622 0.578293 23.2559 0.645829 23.656 0.848438C22.4742 0.679597 21.3514 0.510757 20.4312 0.531018C20.6169 0.531018 21.0796 0.569851 20.8364 0.574916C20.7334 0.564786 20.5258 0.556344 20.3823 0.546213C20.2387 0.536083 20.1661 0.532706 20.3299 0.505692C20.053 0.505692 19.6951 0.505692 19.3574 0.505692C19.0197 0.505692 18.7023 0.53946 18.5132 0.559721C18.7344 0.537771 18.8357 0.542836 18.8205 0.571539C18.7183 0.57719 18.617 0.593602 18.5183 0.620503C18.4811 0.564786 17.9543 0.639076 17.7062 0.639076C17.7382 0.701546 16.8113 0.784278 17.0072 0.784278C17.203 0.784278 17.5643 0.701546 17.6167 0.738691C18.1485 0.608684 18.4609 0.671155 19.0282 0.640764C19.0501 0.628945 19.0282 0.617126 19.1261 0.608684C19.4114 0.608684 20.0986 0.596865 20.1391 0.661025C20.476 0.618939 20.8172 0.625763 21.1522 0.681286C20.9006 0.691416 20.7318 0.635699 20.6456 0.671155C20.9614 0.671155 20.8719 0.713365 21.2467 0.706612C21.4155 0.645829 21.8174 0.767394 22.0521 0.785967C22.3644 0.811293 21.7971 0.731938 22.1534 0.755575C22.219 0.773649 22.2863 0.784408 22.3543 0.787655C22.3459 0.802851 22.2226 0.787655 22.2496 0.812981C22.643 0.865322 23.0786 0.915974 23.1445 0.971691L22.2175 0.843372C21.9856 0.819255 21.7552 0.783188 21.527 0.735315C21.2535 0.752417 20.979 0.74677 20.7064 0.718431C20.4784 0.691442 20.2488 0.680722 20.0192 0.686351C20.1999 0.730249 20.9124 0.742068 21.2231 0.79272C20.9591 0.77276 20.6942 0.767123 20.4295 0.775836C20.3839 0.797786 20.6997 0.843372 20.7301 0.818046C20.6051 0.79272 20.8398 0.79272 21.1133 0.801162C21.3868 0.809604 21.6992 0.850126 21.7313 0.846749C21.5975 0.856487 21.4631 0.855358 21.3294 0.843372C21.1606 0.833242 20.9766 0.826488 20.9242 0.818046C20.882 0.846749 21.1049 0.848438 21.0222 0.882206C21.2897 0.857856 21.5594 0.880716 21.8191 0.949742C21.8478 0.929481 21.5405 0.868698 21.8191 0.875452C22.1416 0.897401 22.5198 0.921039 22.7105 1.0139C22.3864 0.985198 22.2496 0.942988 22.0166 0.926104C22.2739 0.999732 22.5393 1.04169 22.8068 1.05105C23.1968 1.1017 23.0921 1.1591 23.4821 1.22833C23.5868 1.17092 23.0516 1.06962 22.8068 1.0139C22.9806 1.02715 23.1536 1.04913 23.3251 1.07975C23.451 1.09854 23.5778 1.11094 23.705 1.11689C23.5384 1.088 23.3742 1.0468 23.2137 0.99364C23.3837 0.992914 23.5534 1.00932 23.7202 1.0426C23.8482 1.08656 23.9807 1.11601 24.1153 1.1304C24.1706 1.17809 24.2326 1.21734 24.2993 1.2469C24.7957 1.33639 24.9392 1.3634 24.9983 1.34821C25.0253 1.37353 25.1334 1.40899 25.0861 1.4225C24.5408 1.25365 25.1165 1.48497 24.691 1.34821C24.74 1.42587 25.0186 1.44782 25.0844 1.436C25.2006 1.51237 25.3395 1.54635 25.4778 1.53224L25.7142 1.59809C25.7653 1.61286 25.8145 1.63325 25.8611 1.65887C25.65 1.63355 26.0941 1.82771 26.6107 1.99655C26.6006 2.01175 26.6462 2.04045 26.6935 2.06915C26.4571 1.97798 26.241 1.90031 26.0536 1.82771C25.8908 1.75467 25.7211 1.6981 25.547 1.65887L26.5077 2.00837C26.8201 2.14344 27.1324 2.27514 27.4279 2.43385C27.1443 2.30384 27.0818 2.30891 26.8606 2.22111C26.7361 2.14142 26.6044 2.07359 26.4672 2.0185C26.2907 1.94662 26.1096 1.88628 25.9252 1.83784C26.349 1.97798 26.4318 2.04889 26.474 2.11136C26.2224 1.99486 26.084 2.0337 25.7176 1.84628C25.8408 1.83109 25.4728 1.67744 25.2499 1.64874C25.515 1.76693 24.8548 1.53562 24.8531 1.59134C25.1401 1.69771 25.6264 1.8294 26.035 1.99486C26.311 2.07707 26.5745 2.19634 26.8184 2.34943C26.6623 2.27475 26.5023 2.2088 26.3389 2.15189L25.6635 1.91551C25.179 1.76862 24.6725 1.61666 24.3618 1.51536C24.6792 1.58121 24.5576 1.50016 24.3736 1.44276C24.5424 1.4799 24.6978 1.51367 24.8599 1.55419C24.7856 1.49341 24.9527 1.53224 25.0659 1.55419C24.8244 1.47821 24.6117 1.42925 24.3989 1.37184C24.1862 1.31444 23.9667 1.25534 23.7033 1.21313C23.651 1.25872 23.7422 1.28911 23.7861 1.33976C23.9195 1.33018 24.0535 1.34858 24.1794 1.39379C24.0796 1.39814 23.9796 1.39362 23.8806 1.38029C24.0629 1.40392 24.1997 1.48834 24.2689 1.46471C24.1676 1.44107 24.1946 1.43094 24.3702 1.47484C24.3787 1.50692 24.3095 1.51367 24.1642 1.49172C23.651 1.34931 23.1278 1.24547 22.5991 1.18105C22.828 1.21576 23.0538 1.26826 23.2745 1.33807C23.0819 1.2907 22.8851 1.26299 22.6869 1.25534C22.9797 1.31311 23.2694 1.38581 23.5547 1.47315C23.3775 1.436 23.2171 1.40561 23.0769 1.3786C22.9368 1.35158 22.8034 1.34314 22.6818 1.32626C22.4543 1.29482 22.2289 1.25029 22.0065 1.19287C21.9896 1.20638 22.02 1.23002 21.9052 1.22326C21.7988 1.18612 21.5675 1.14729 21.3835 1.10845C21.1994 1.06962 21.0863 1.04429 21.2146 1.00546C21.3462 1.02806 21.4798 1.03599 21.6131 1.0291L21.3007 0.985198C21.1859 0.971691 21.061 0.964938 20.9344 0.958184C20.698 0.935006 20.4599 0.935006 20.2235 0.958184C20.0547 0.944677 19.8335 0.934546 19.5921 0.926104C19.3506 0.917662 19.0856 0.926104 18.812 0.939611C18.5385 0.953119 18.2599 0.975068 17.9915 1.00377L17.5998 1.04598C17.4748 1.06455 17.355 1.0865 17.2418 1.10676L17.6167 1.0578L17.9864 1.02741C18.1368 1.00234 18.2908 1.00809 18.4389 1.04429C18.9606 0.995329 18.2042 1.03416 18.5335 0.995329C18.8948 0.995329 19.0096 1.0291 19.43 1.00884C19.0231 1.04429 19.4722 1.06962 19.5313 1.0426C19.3625 1.01897 19.7863 0.98351 19.4283 0.959872C19.762 0.943003 20.0965 0.970826 20.4228 1.0426C20.4059 0.991952 21.0171 1.05273 21.1167 1.06793C20.877 1.06793 20.9006 1.04092 20.6203 1.04598C20.6102 1.07131 21.0373 1.08481 20.8179 1.11183C20.4261 1.06004 20.0312 1.03578 19.636 1.03923C19.8403 1.08481 20.3603 1.06793 20.5275 1.13209C20.1661 1.13209 19.7272 1.12196 19.9348 1.07975C19.5127 1.07975 18.9978 1.15742 18.65 1.12196C18.8813 1.10339 18.9404 1.12196 19.2409 1.0865C19.0102 1.06255 18.7777 1.06255 18.547 1.0865C18.4254 1.12027 18.655 1.14222 18.2566 1.16079C18.1823 1.22158 18.4693 1.17599 18.655 1.17768C18.883 1.08988 19.1615 1.19456 19.4452 1.17768C19.4452 1.15742 19.43 1.13378 19.6411 1.13378C19.6512 1.18105 20.1222 1.15742 20.1341 1.20469C20.4532 1.20469 20.2083 1.15573 20.5275 1.17599C20.6592 1.24184 21.3396 1.27729 20.9192 1.33301C21.2568 1.30093 21.5624 1.37691 22.101 1.37184C21.9947 1.4073 22.3036 1.42925 22.3881 1.46471C22.2901 1.45457 22.1922 1.43938 22.096 1.43431C22.0757 1.46977 22.7156 1.57445 22.8676 1.57276C22.7561 1.55588 22.4151 1.4799 22.6785 1.50016C22.9858 1.56094 23.3352 1.65043 23.732 1.73823C23.4095 1.71797 23.2255 1.63186 22.9587 1.63355C23.2424 1.67238 23.2525 1.71121 23.5328 1.75342C23.5328 1.71121 23.987 1.83784 24.0207 1.79394C24.3584 1.87836 24.0663 1.86486 23.9127 1.84628C24.1057 1.88097 24.2955 1.9318 24.48 1.99824C23.8249 1.84628 24.8345 2.11305 24.2791 2.01681C24.1242 1.96776 23.9663 1.92885 23.8063 1.90031C23.8063 1.86486 23.6105 1.80914 23.3386 1.73147C23.3217 1.74329 23.3521 1.76862 23.239 1.75173C23.136 1.67069 22.4911 1.61666 22.3796 1.54913C22.3205 1.60315 21.6705 1.52886 21.5067 1.49003C21.5169 1.47146 21.7566 1.49003 21.7043 1.46639C21.3159 1.43769 20.9867 1.43094 20.8297 1.40223C20.8297 1.42418 20.8077 1.44107 20.7318 1.4512L21.2197 1.5086C21.3885 1.53224 21.5759 1.56094 21.7954 1.58458C21.6958 1.66394 22.0858 1.69095 22.3661 1.73485C22.2029 1.71207 22.0367 1.7265 21.8799 1.77706C21.635 1.7416 21.4206 1.7129 21.3058 1.69939C21.4443 1.68757 21.3058 1.6555 21.1201 1.6403C20.9576 1.6319 20.7957 1.61329 20.6355 1.58458C20.9377 1.5964 20.8905 1.54744 21.1184 1.58458C21.0306 1.5086 20.2742 1.4951 19.9551 1.47146C19.9399 1.52718 20.5562 1.48328 20.4413 1.55926C19.82 1.57445 19.3675 1.51029 18.9893 1.55926C19.1801 1.55926 19.3608 1.55926 19.5617 1.55926C19.7626 1.55926 19.9821 1.57614 20.2489 1.57445C20.2016 1.60147 20.3029 1.60484 20.4177 1.61666C20.5221 1.61962 20.6253 1.63958 20.7233 1.67576C20.5318 1.66007 20.3395 1.65612 20.1476 1.66394C20.1104 1.67744 20.1374 1.6842 20.1881 1.68926C16.8705 1.5657 13.5841 2.36904 10.6976 4.00913C10.8665 3.89432 11.0471 3.77613 11.2717 3.63937C11.1383 3.63937 11.5672 3.42325 11.6803 3.33039L11.2531 3.52625C11.113 3.59547 10.9712 3.66638 10.8277 3.74067C10.6841 3.81496 10.5339 3.89094 10.3819 3.97874C10.23 4.06654 10.078 4.17459 9.91761 4.28941C9.93112 4.35356 10.2046 4.10706 10.2789 4.12056C9.96826 4.29785 10.2468 4.18979 10.0425 4.31642C9.58162 4.55448 9.24394 4.59332 9.8315 4.13576C10.1016 3.96692 10.0003 4.07498 9.85345 4.17797C10.0459 4.04796 10.2452 3.92133 10.4207 3.82678C10.553 3.75758 10.6815 3.6815 10.8057 3.59885C10.7702 3.59885 10.9053 3.5043 11.0522 3.39624C11.1682 3.32325 11.2763 3.23838 11.3747 3.14298C10.3671 3.61624 9.41422 4.19826 8.53313 4.87866C7.53529 5.64347 6.60135 6.48821 5.74053 7.40451C5.81819 7.32685 5.90937 7.25931 5.81313 7.36061C5.66456 7.50814 5.5274 7.66675 5.40285 7.83505C5.55312 7.66621 5.63078 7.59024 5.63585 7.62232C3.82623 9.55992 2.39517 11.8191 1.41656 14.2831C1.48072 14.1142 1.53644 13.8964 1.4537 14.1142C1.30681 14.5194 1.02148 15.2623 0.793544 16.061C0.584046 16.7626 0.41493 17.4758 0.287026 18.1968C0.300039 18.1227 0.320983 18.0503 0.349497 17.9807C0.322483 18.1276 0.292092 18.2846 0.265077 18.4484L0.194165 18.9549C0.140136 19.2926 0.10468 19.6184 0.0709124 19.8903C0.030391 20.4069 0.0405214 20.8526 0.0253259 21.241C0.0101303 21.6293 0.0371446 21.9873 0.0422098 22.3199C0.0472749 22.6525 0.077666 22.9615 0.0962383 23.2991C0.114811 23.6368 0.158709 23.9576 0.211049 24.3291C0.147197 23.9943 0.103781 23.656 0.0810428 23.316C0.0472749 23.5237 0.00168839 22.536 0 22.9784C0.0185723 23.2502 0.0489633 23.517 0.0726008 23.7972C0.0844195 23.9391 0.0979267 24.0826 0.109745 24.2311C0.121564 24.3797 0.151955 24.5317 0.177281 24.6921C0.195853 24.8086 0.202607 24.8457 0.205984 24.8609C0.20936 24.8761 0.205984 24.9183 0.221179 25.0298C0.261433 25.2985 0.317814 25.5647 0.390018 25.8267C0.425474 25.9702 0.457554 26.0985 0.481191 26.1813C0.489052 26.2133 0.501567 26.244 0.518336 26.2724C0.518336 26.3788 0.62977 26.9022 0.687175 26.9174C0.687175 26.8127 0.617951 26.7621 0.557169 26.4801C0.636523 26.6624 0.557169 26.3433 0.641589 26.5747C0.742892 26.9664 0.736138 26.9799 0.883028 27.4509C0.852637 27.4509 0.857703 27.5252 0.901601 27.689C0.974202 27.7532 1.05356 27.9811 1.01979 27.7633C0.763153 27.0423 0.427163 25.7372 0.400149 25.3421C0.457554 25.6004 0.511582 25.8486 0.568988 26.0867C0.626393 26.3248 0.690552 26.551 0.747957 26.7739C0.778348 26.887 0.808739 26.9968 0.83913 27.1116L0.945499 27.4341C1.0181 27.6485 1.09408 27.8595 1.17174 28.0723C1.18694 28.1314 1.24603 28.3036 1.32876 28.5315C1.41149 28.7594 1.5128 29.0465 1.64112 29.3234C1.8011 29.7066 1.98609 30.0788 2.19491 30.4377C2.13075 30.3634 2.27595 30.7231 2.37557 30.8362C2.31647 30.7298 2.26751 30.5863 2.34011 30.7247C2.47328 30.9911 2.62212 31.2493 2.78584 31.498C2.77065 31.498 2.78584 31.5588 2.81286 31.6145C2.89728 31.7209 3.15054 32.1109 3.31938 32.3811C3.48822 32.6512 3.61653 32.7846 3.38016 32.4267L3.92889 33.178C4.11123 33.4059 4.26656 33.6085 4.36618 33.7504L3.93564 33.2118C3.84278 33.097 3.80563 33.0429 3.80057 33.0429C3.80698 33.0572 3.8149 33.0708 3.82421 33.0835C3.84109 33.1088 3.86473 33.1493 3.90018 33.1966L4.2024 33.6102C4.13791 33.5217 4.06619 33.4387 3.98798 33.362C4.13825 33.5461 4.34929 33.8145 4.47592 33.958C4.60255 34.1016 4.64476 34.1269 4.42021 33.8567C4.68022 34.1471 4.92672 34.4156 5.13102 34.6486C5.33531 34.8816 5.53792 35.0589 5.69663 35.1906C5.53376 35.0028 5.35893 34.8257 5.17323 34.6604C5.02946 34.537 4.91031 34.3874 4.82204 34.2197C4.93179 34.397 5.20869 34.6824 4.97569 34.3734C5.18843 34.6115 5.38766 34.7803 5.57169 34.9491C5.75572 35.118 5.94145 35.2868 6.16263 35.4675C6.28783 35.644 6.4475 35.7933 6.632 35.9065C6.48511 35.7917 6.22341 35.5688 6.32133 35.6093C6.5307 35.8052 6.72486 35.947 6.8937 36.0871C7.06254 36.2273 7.21787 36.3488 7.37827 36.4586L7.86452 36.7963C8.03336 36.9144 8.22922 37.0276 8.44871 37.1694C8.39974 37.1829 8.653 37.4277 8.76612 37.4682C8.59729 37.345 9.06666 37.6084 9.22537 37.7198C9.31823 37.7299 9.16459 37.632 9.07004 37.5611L9.43979 37.7671C9.56136 37.8329 9.68123 37.8886 9.79267 37.9461C10.0172 38.0575 10.2097 38.1655 10.3549 38.2432C10.2519 38.2348 9.59344 37.8431 9.60019 37.9055C9.8163 38.0119 9.68967 37.9916 9.86358 38.0744L10.2181 38.2432C10.3414 38.3006 10.4714 38.3513 10.6014 38.4121C10.8631 38.5252 11.1282 38.6451 11.3882 38.7396C11.8947 38.9507 12.3759 39.1043 12.6359 39.2039L14.5387 39.6395C15.394 39.8151 16.2616 39.9235 17.1338 39.9637C17.0105 39.9181 17.4597 39.9738 17.3364 39.9249C17.149 39.9063 16.9987 39.9401 16.9346 39.8995C17.0376 39.8995 17.2013 39.9097 17.3583 39.908C17.4857 39.9005 17.6134 39.9051 17.7399 39.9215C17.7399 39.9451 17.4647 39.9316 17.5373 39.9671C18.0438 39.9502 17.9155 39.9316 18.4423 39.9097C18.9674 40.0025 19.7609 39.8691 20.4447 39.751C20.4785 39.7763 20.1577 39.8033 20.1493 39.8269C20.5169 39.7964 20.8819 39.7399 21.2416 39.6581C21.1167 39.6767 21.0373 39.68 21.0407 39.6581C21.2396 39.6303 21.4364 39.5897 21.63 39.5365C21.0289 39.6041 22.0639 39.442 22.0149 39.4116C21.8376 39.4572 21.7887 39.4504 21.8208 39.4352C21.915 39.4039 22.0115 39.3802 22.1095 39.3643C21.9609 39.3643 21.7397 39.3998 21.7718 39.3643C21.7161 39.3846 21.6215 39.3643 21.5033 39.3913C21.5033 39.4285 21.9288 39.3913 21.5169 39.4774C21.3461 39.4779 21.1761 39.4989 21.0103 39.5399C20.8185 39.5737 20.6243 39.5929 20.4295 39.5973C20.4295 39.5771 20.703 39.5551 20.7233 39.5348L20.0378 39.6176L19.3355 39.6817C19.8757 39.6361 19.2156 39.7949 19.04 39.751C19.5296 39.7206 18.8492 39.751 19.04 39.7003C18.7783 39.7003 18.6111 39.7189 18.6415 39.751C18.7415 39.7425 18.8421 39.7425 18.9421 39.751C18.7209 39.7763 19.0687 39.778 18.8424 39.7915C18.6752 39.7633 18.505 39.7559 18.3359 39.7695C18.2718 39.8168 18.0405 39.8354 18.3359 39.8573C18.1147 39.8793 17.9256 39.8708 17.7349 39.8725C17.5441 39.8742 17.355 39.8725 17.1321 39.8573C17.2722 39.8489 17.1777 39.805 17.4343 39.8101C17.5691 39.8049 17.7039 39.8156 17.8362 39.8421C18.054 39.805 17.9932 39.7611 17.7349 39.7526C17.7028 39.7206 18.2954 39.7746 18.1333 39.7239C17.9189 39.6986 17.5897 39.7037 17.2554 39.7003C16.9497 39.6944 16.6447 39.6701 16.3419 39.6277C17.1051 39.6733 17.8615 39.7054 18.6314 39.675C18.7226 39.6497 18.6635 39.6108 18.8272 39.5939C19.0856 39.6463 19.4266 39.5365 19.6174 39.5433C19.6174 39.5889 19.0028 39.6074 19.1295 39.6581C19.4418 39.6395 19.4773 39.6074 19.8217 39.5889C19.8217 39.5737 19.8673 39.5585 19.9179 39.545C19.6613 39.572 19.7491 39.5078 19.8133 39.4909C20.0128 39.5159 20.2154 39.4928 20.4042 39.4234C20.5291 39.4808 19.874 39.5433 19.923 39.5923C20.3738 39.5281 20.5173 39.496 21.007 39.4403C20.958 39.3829 21.4561 39.3339 21.5895 39.3086C21.7228 39.2833 21.5895 39.2596 21.7752 39.2242C22.0048 39.236 22.4151 39.0739 22.6548 39.0553C22.5687 39.0908 22.2986 39.1448 22.3712 39.1617L22.8557 39.0452C22.8287 39.0165 22.8676 38.976 23.033 38.9169C23.3257 38.8605 23.6149 38.7872 23.8992 38.6974C24.1298 38.5824 24.3692 38.4858 24.615 38.4087C24.8474 38.3289 25.0705 38.2242 25.2803 38.0963C25.2803 38.1115 25.2431 38.1402 25.1992 38.1689C25.6467 38.0001 25.5757 37.9764 26.0164 37.7907C26.0637 37.7181 25.6196 37.9477 25.5437 37.9596C26.0839 37.7046 25.2178 38.0339 25.7007 37.8076C25.8341 37.762 25.9708 37.7131 26.1312 37.6489C26.3304 37.5745 26.5239 37.486 26.7103 37.3838C26.6563 37.4682 26.9653 37.2758 27.2692 37.1626C27.2175 37.2106 27.1609 37.253 27.1004 37.2893C26.9429 37.3527 26.7951 37.438 26.6614 37.5425C26.9099 37.4259 27.1512 37.2946 27.384 37.1491C27.5309 37.0428 27.5967 36.9803 27.5984 36.9313C27.4296 37.0124 27.3232 37.1356 27.2489 37.1289C27.5795 36.8981 27.9325 36.7012 28.3025 36.5413C28.397 36.5278 28.0931 36.7101 28.0661 36.7422C28.3498 36.5649 28.4274 36.4856 28.3346 36.6055C28.5098 36.5028 28.6789 36.3901 28.8411 36.2678C28.6334 36.3741 28.495 36.4366 28.6368 36.3134C28.8231 36.2338 29.0021 36.1383 29.172 36.028C29.172 36.055 28.9002 36.2289 28.939 36.234C29.1366 36.1023 29.3273 35.9588 29.5215 35.8204C29.5215 35.8643 29.7613 35.6988 29.7309 35.7748C30.0266 35.5416 30.3356 35.3257 30.6561 35.1281C30.7963 34.9737 30.9487 34.8308 31.112 34.7009C31.0647 34.6435 30.5379 35.118 30.2796 35.3037C30.3674 35.1534 31.0276 34.6283 31.4395 34.2772C31.475 34.2265 31.6691 34.0306 31.8701 33.8382C32.071 33.6457 32.2651 33.4414 32.3259 33.4026C32.2046 33.5735 32.0603 33.7269 31.8971 33.8584C31.8819 33.9817 31.4024 34.3768 31.2758 34.5743C31.4446 34.4291 31.5982 34.2873 31.7823 34.1269L32.076 33.8618L32.4222 33.5106C32.4458 33.5359 32.2364 33.7554 32.0119 33.9665C31.7873 34.1775 31.5577 34.3886 31.5662 34.4392C31.7705 34.2434 31.9528 34.0661 32.0727 33.9496C32.1262 33.8922 32.1863 33.8412 32.2516 33.7976C32.3192 33.6736 32.4125 33.5654 32.5252 33.4802C32.5691 33.4802 32.25 33.7824 32.3377 33.7453C32.4559 33.6153 32.5859 33.4966 32.7261 33.3907C32.6856 33.4617 32.3681 33.7622 32.4576 33.7284L32.873 33.2996C32.9743 33.1848 33.0722 33.0733 33.2444 32.8673C33.0469 33.0564 32.9591 33.0885 32.8848 33.0986C33.1819 32.7204 33.3778 32.6056 33.4892 32.3608C33.4058 32.474 33.312 32.5792 33.209 32.6749L33.7695 31.8982C33.9924 31.704 33.6327 32.1599 33.572 32.2967C33.7999 32.0012 34.07 31.6652 34.2051 31.4373C34.1341 31.514 34.0702 31.5971 34.0143 31.6855C33.977 31.7479 33.9309 31.8048 33.8776 31.8543C33.9265 31.7614 34.0937 31.5065 34.271 31.2482L34.5293 30.8767L34.6981 30.6032C34.6036 30.7416 34.6373 30.6488 34.6711 30.5812L34.4786 30.8598L34.2743 31.135C34.1393 31.3039 34.0109 31.4727 33.9096 31.5977C34.0037 31.4315 34.108 31.2713 34.222 31.1181L34.4314 30.8261L34.6745 30.4479C34.5056 30.7602 34.6644 30.5694 34.7792 30.3972C34.8433 30.4107 34.8771 30.3584 34.8011 30.5508C35.0763 30.1152 34.8112 30.6319 34.9564 30.4023C34.9649 30.3162 35.392 29.6526 35.4072 29.5344C35.2975 29.6813 35.2046 29.9076 35.159 29.8839C35.2817 29.7059 35.3858 29.5158 35.4697 29.3166C35.3465 29.4855 35.1202 29.8789 35.0037 30.0308C35.024 29.965 35.2131 29.6763 35.2029 29.6509C35.0864 29.7978 35.078 29.8941 34.8653 30.1963C34.8653 30.1423 34.7386 30.3432 34.7606 30.2486C34.8914 30.0782 35.0046 29.8949 35.0983 29.7016C35.1752 29.5417 35.2716 29.392 35.3853 29.2558C35.5325 28.9298 35.6982 28.6124 35.8817 28.3053C35.8057 28.3424 36.2312 27.5033 36.3021 27.3361C36.1571 27.661 36.033 27.9949 35.9306 28.3357C36.0117 28.1668 36.0792 28.0334 36.1282 27.9541C36.0877 27.9169 36.1923 27.7008 36.3055 27.4611C36.4186 27.2213 36.5452 26.9545 36.584 26.8482C36.5584 26.9164 36.5261 26.982 36.4878 27.044C36.6567 26.6591 36.8255 26.1779 36.9943 25.7473C37.1632 25.3168 37.2982 24.9217 37.3877 24.7039C37.3519 24.8838 37.3017 25.0605 37.2375 25.2324C37.2944 25.1348 37.357 25.0407 37.4249 24.9504C37.3658 25.1513 37.2054 25.5768 37.2763 25.4839C37.4772 24.9217 37.5397 24.6195 37.7338 23.8901C37.7338 23.8411 37.6697 24.042 37.7018 23.88C37.7347 23.774 37.759 23.6656 37.7744 23.5558C37.7592 23.7246 37.7457 23.8563 37.8284 23.571C37.8571 23.4359 37.8858 23.2941 37.9162 23.1472C37.9466 23.0003 37.9668 22.845 37.9939 22.6879L38.0749 22.2169C38.1002 22.0582 38.1171 21.8978 38.1391 21.7424C38.161 21.5871 38.183 21.4318 38.2032 21.2832C38.2235 21.1346 38.2353 20.9894 38.2522 20.8527C38.2809 20.5774 38.3214 20.3343 38.3434 20.1418C38.3113 20.13 38.3214 19.7603 38.3434 19.3246C38.3434 19.1068 38.3434 18.8722 38.3434 18.6493C38.3434 18.5412 38.3434 18.4382 38.3434 18.3471C38.3434 18.2559 38.3434 18.1782 38.3349 18.1022C38.3356 18.2653 38.3458 18.4283 38.3653 18.5902C38.3788 18.6442 38.3923 18.629 38.3991 18.6662C38.3843 18.8166 38.3843 18.9682 38.3991 19.1187C38.3991 18.9768 38.4109 18.8873 38.4295 18.8924C38.4403 19.0436 38.4403 19.1954 38.4295 19.3466C38.3906 19.2588 38.3704 18.7708 38.3518 19.3466C38.4058 19.2031 38.3113 19.9156 38.3518 20.022C38.3771 19.8345 38.3839 19.3601 38.4278 19.4614C38.4143 19.7231 38.4143 19.8953 38.4176 20.027C38.3889 20.2144 38.4041 20.0152 38.3737 20.027C38.3733 20.1868 38.3631 20.3463 38.3434 20.5048C38.3282 20.6264 38.313 20.7193 38.2978 20.8121C38.3417 20.7395 38.2978 21.0468 38.2809 21.1498H38.3366C38.2775 21.582 38.313 21.5517 38.2859 21.8252C38.2201 21.994 38.2623 21.6462 38.1745 21.8049C38.1607 21.954 38.1359 22.1019 38.1002 22.2473C38.1543 22.2473 38.0597 22.6424 38.0141 22.7994C38.0496 22.7994 38.0918 22.617 38.08 22.8163C38.053 22.9632 38.0428 22.9142 38.0175 23.0324C38.0175 23.1388 38.0681 23.0847 38.0378 23.2688C38.0074 23.4528 37.9179 23.6993 37.8689 23.9036C37.82 24.1079 37.7541 24.2413 37.7676 24.1197C37.5988 24.6718 37.6849 24.5806 37.614 24.8896C37.5478 25.1402 37.462 25.3853 37.3573 25.6224C37.4384 25.2391 37.1547 26.009 37.1041 26.237C37.1649 26.1222 37.2729 25.8132 37.2982 25.8402L36.3004 28.1736C36.3612 28.1297 36.3899 28.1516 36.4085 28.2377C36.8037 27.3996 37.1515 26.54 37.4502 25.6629C37.435 25.5582 37.6309 24.947 37.7237 24.6955C37.8081 24.5401 37.6292 25.0635 37.6663 25.0331C37.8149 24.5604 37.7288 24.8643 37.7085 25.0483C37.9805 24.1477 38.1954 23.2307 38.3518 22.303C38.5076 21.3207 38.5967 20.3291 38.6186 19.3348C38.6301 18.3061 38.5669 17.278 38.4295 16.2585V16.2636ZM18.1671 0.360489C18.0708 0.350358 18.1924 0.326721 18.3798 0.301395C18.5672 0.276069 18.8222 0.271003 18.9826 0.267627C19.0079 0.328409 18.2684 0.294641 18.1671 0.360489ZM21.6418 0.419583C21.8812 0.412958 22.1206 0.436212 22.3543 0.488808C22.1095 0.502315 22.0538 0.426337 21.6418 0.419583ZM22.5637 0.439844C22.736 0.43975 22.9072 0.468278 23.0702 0.524264C22.7933 0.542836 22.8406 0.460105 22.5637 0.439844ZM22.6683 0.414518C22.6869 0.377373 23.2947 0.46517 23.2795 0.50738C23.028 0.46517 22.7882 0.444909 22.6683 0.414518ZM24.068 0.78259C23.9346 0.755575 23.7996 0.735315 23.6645 0.711677C23.4653 0.635699 24.2402 0.79272 23.8722 0.711677C23.8553 0.69817 23.9127 0.711677 23.9751 0.711677C24.0376 0.711677 24.1085 0.738691 24.1778 0.752199C24.0967 0.752199 24.0646 0.752199 24.068 0.779213V0.78259ZM19.5364 39.7695C19.5499 39.7898 19.4165 39.805 19.4401 39.8269L19.1278 39.8472H18.9032C18.7665 39.8472 18.6415 39.8472 18.4372 39.8472C18.7158 39.7932 19.2004 39.8337 19.5364 39.756V39.7695ZM37.0602 11.6492C37.1362 11.8332 37.2088 12.0189 37.2814 12.2131C37.435 12.5947 37.5447 13.0235 37.7035 13.5267C37.5734 13.2413 37.457 12.8766 37.3151 12.4647C37.1733 12.0527 37.0078 11.5867 36.7867 11.1139C36.8846 11.298 36.9774 11.4753 37.0602 11.6559V11.6492ZM36.9302 23.9813C36.9056 24.0481 36.8903 24.118 36.8846 24.1889C36.8356 24.3493 36.8491 24.2615 36.8626 24.1704L36.9133 23.9711C36.9147 23.9744 36.9171 23.9771 36.9201 23.9789C36.9231 23.9807 36.9267 23.9816 36.9302 23.9813ZM36.7107 24.7985C36.5537 25.2543 36.5418 25.3793 36.4101 25.7017C36.4101 25.6663 36.4912 25.4502 36.5368 25.2965C36.5283 25.3168 36.5182 25.3387 36.5098 25.3607C36.5402 25.2695 36.5705 25.1767 36.5992 25.0855C36.6482 24.9487 36.6904 24.7478 36.7107 24.7985ZM23.7557 2.18059C23.8821 2.20653 24.0054 2.24557 24.1237 2.29709C24.2419 2.32073 24.2217 2.29709 24.1237 2.27176C24.2959 2.31042 24.4652 2.3612 24.6302 2.42372L24.8126 2.50476L24.5999 2.43891C24.5678 2.42878 24.5256 2.41528 24.4715 2.40177C24.2689 2.34436 24.0646 2.29033 23.8587 2.23293C23.8046 2.21267 23.7371 2.18734 23.7489 2.17552L23.7557 2.18059ZM29.557 4.7267C29.7571 4.83484 29.944 4.96571 30.1141 5.11672C29.9192 5.00041 29.733 4.87006 29.557 4.7267ZM30.4248 5.35648C30.5902 5.46446 30.7482 5.58348 30.8976 5.71273C30.8233 5.68065 30.852 5.72624 30.9161 5.79546C30.6882 5.60636 30.4535 5.42232 30.2154 5.24504C29.9369 5.01711 30.5531 5.47129 30.4265 5.36154L30.4248 5.35648ZM32.0541 6.78318C32.1351 6.88279 32.2229 6.98241 32.3226 7.08709L32.0642 6.82877C32.0828 6.84227 32.0845 6.82877 32.0541 6.78318ZM36.086 12.6622C35.9171 12.262 35.7162 11.7977 35.517 11.3284C35.7443 11.7559 35.9347 12.2022 36.086 12.6622ZM35.5322 11.0802C35.566 11.1511 35.6048 11.2287 35.6436 11.3081C35.6825 11.3875 35.7179 11.4769 35.7567 11.5664C35.8327 11.7353 35.9138 11.9244 35.988 12.0983C36.0999 12.3666 36.187 12.6447 36.2481 12.929C36.0894 12.5254 35.9762 12.1743 35.8479 11.8788C35.7196 11.5833 35.6352 11.3132 35.5322 11.0802ZM36.2075 13.059C36.2379 13.1181 36.292 13.2818 36.3021 13.243C36.3602 13.4085 36.407 13.5777 36.4422 13.7495C36.4591 13.7276 36.5689 14.0129 36.5486 13.8204C36.6482 14.1581 36.736 14.4958 36.8255 14.8335C36.8424 14.8132 36.8458 14.7541 36.8154 14.6174C36.9015 14.7862 36.8289 14.7862 36.9234 15.134C36.8745 15.0564 36.9234 15.2826 36.893 15.2505C36.7332 14.6212 36.5387 14.0012 36.3105 13.3933C36.2838 13.2819 36.2494 13.1724 36.2075 13.0657V13.059ZM37.1885 16.5911C37.1176 16.2816 37.0696 15.9673 37.045 15.6507C37.1145 15.9605 37.1624 16.2747 37.1885 16.5911ZM37.126 15.1948C37.2189 15.4227 37.2155 15.5983 37.2949 16.039C37.2612 15.9198 37.2386 15.7977 37.2273 15.6743C37.2054 15.5308 37.1767 15.3687 37.1345 15.1999L37.126 15.1948ZM36.9825 15.5646C36.9589 15.4683 36.9369 15.3721 36.9116 15.2759C36.9335 15.3518 36.9555 15.4329 36.9842 15.5646H36.9825ZM35.1405 10.8387H35.1303C35.0932 10.7746 35.0561 10.7104 35.0206 10.6462C35.0639 10.7112 35.1039 10.7782 35.1405 10.8472V10.8387ZM35.0662 10.653C35.2287 10.9129 35.3775 11.1812 35.5119 11.4567C35.325 11.2119 35.1749 10.9412 35.0662 10.653ZM31.4041 33.0632C31.6945 32.8054 31.9759 32.5381 32.2483 32.2612C32.2077 32.3068 32.1689 32.3541 32.1301 32.3996C32.0018 32.5432 31.8701 32.6799 31.735 32.8234C31.5955 32.976 31.4479 33.1209 31.2926 33.2574C31.4615 33.0615 31.4885 33.0396 31.399 33.0632H31.4041ZM32.7497 31.7378L32.8915 31.5808L32.7565 31.7496C32.7463 31.7496 32.7447 31.7496 32.7565 31.7378H32.7497ZM37.2527 16.971C37.2539 16.9463 37.2539 16.9215 37.2527 16.8967C37.284 17.0324 37.301 17.1711 37.3033 17.3104C37.2881 17.1956 37.2729 17.0824 37.256 16.9727L37.2527 16.971ZM36.427 10.9147C36.5064 11.0937 36.5959 11.2963 36.6567 11.4314C36.5165 11.2287 36.4557 10.9738 36.2261 10.5416C36.3038 10.6599 36.371 10.7847 36.427 10.9147ZM35.5102 8.62692C35.6318 8.79576 35.7061 8.90888 35.7838 9.04058C35.8614 9.17227 35.9425 9.3276 36.0877 9.57749C35.9732 9.42878 35.8715 9.27063 35.7838 9.10473C35.676 8.95554 35.5843 8.79537 35.5102 8.62692ZM36.1856 9.91348C36.0573 9.67204 35.8716 9.36137 35.7213 9.0946C35.6032 8.92568 35.5025 8.74523 35.4207 8.556C35.62 8.88524 36.1096 9.68217 36.1856 9.90673V9.91348ZM35.2874 10.3525C35.4039 10.577 35.5085 10.8202 35.6757 11.1173C35.5795 10.9721 35.4292 10.68 35.3515 10.5855C35.2177 10.2633 35.0585 9.95217 34.8754 9.65515C35.0442 9.91348 35.1658 10.1296 35.2874 10.3525ZM35.257 10.5213C35.1786 10.4071 35.1065 10.2887 35.0409 10.1667C35.0409 10.1954 35.1371 10.3491 35.127 10.3592C35.2046 10.5399 34.8619 9.83413 34.7353 9.62645C34.9041 9.88815 35.0881 10.2225 35.257 10.5213ZM34.6795 9.75477C34.742 9.88647 34.7893 10.0198 34.867 10.1634C34.7862 10.046 34.7162 9.92172 34.6576 9.79191C34.5866 9.64263 34.5077 9.49722 34.4212 9.35631C34.5199 9.48186 34.6038 9.6184 34.6711 9.76321L34.6795 9.75477ZM34.5715 9.76321C34.5377 9.76321 34.3233 9.42553 34.1663 9.1824C34.3233 9.40696 34.2828 9.32254 34.2017 9.19253C34.1207 9.06252 33.989 8.89875 33.989 8.93589L33.7678 8.59821C33.7678 8.54587 33.8961 8.7316 33.8725 8.64211C33.9806 8.78563 33.9856 8.81095 33.9215 8.7316C33.9519 8.81433 34.1139 9.01863 34.2591 9.23812C34.3766 9.4064 34.4827 9.58239 34.5766 9.7649L34.5715 9.76321ZM34.2541 8.97979C34.0645 8.73686 33.8908 8.48195 33.7341 8.21663C33.8472 8.32469 34.0515 8.70627 34.2541 8.97979ZM33.5399 8.41755C33.6192 8.53405 33.6868 8.64042 33.7357 8.72991C33.6463 8.61341 33.5551 8.4986 33.4639 8.39223C33.4639 8.3821 33.4842 8.39223 33.523 8.426C33.3103 8.14234 32.9827 7.75063 32.9169 7.62569C33.0351 7.75739 33.1465 7.89921 33.2545 8.03766C33.3626 8.17611 33.4571 8.30612 33.5449 8.426L33.5399 8.41755ZM33.1414 7.53621C32.9919 7.39854 32.8552 7.24766 32.7328 7.0854C32.9017 7.2019 32.9709 7.35724 33.1414 7.53621ZM32.6349 6.8963C32.6653 6.87773 32.9287 7.20866 33.0553 7.33529C33.0317 7.39607 32.7919 7.06852 32.6349 6.8963ZM32.7784 6.07574C32.9186 6.23276 32.4846 5.79209 32.4087 5.70091C32.5015 5.71948 32.6754 5.95417 32.7784 6.07574ZM32.3529 6.76461C32.4509 6.86028 32.5336 6.94639 32.6011 7.02293C32.6575 7.08669 32.7099 7.15379 32.7582 7.22385C32.8358 7.33529 32.8612 7.40113 32.8375 7.42477C32.7933 7.37418 32.7569 7.31727 32.7295 7.25593C32.6345 7.11669 32.5209 6.99114 32.3918 6.88279C32.4711 6.91487 32.3124 6.75954 32.358 6.76629L32.3529 6.76461ZM31.3939 5.36323C31.5898 5.55571 31.4446 5.46116 31.5982 5.62831C31.4648 5.50168 31.2032 5.3092 31.1255 5.22309C31.166 5.22309 31.4125 5.4257 31.3939 5.36323ZM31.5003 5.20452C31.1778 4.98672 31.3129 5.09984 31.4615 5.26361C31.2673 5.11504 31.2926 5.10659 31.0698 4.92593C31.1947 4.97996 31.1137 4.90736 31.1998 4.90736C31.4632 5.10659 31.35 5.0762 31.5003 5.19608V5.20452ZM30.7979 3.54313L31.318 3.91964C31.2876 3.93991 30.6848 3.52287 30.7979 3.54313ZM30.6291 3.88081C30.8098 4.01588 30.9668 4.14083 31.1103 4.25395L30.4923 3.82847C30.3163 3.72352 30.1512 3.60135 29.9993 3.46378C30.234 3.61404 30.4451 3.74912 30.6291 3.88081ZM30.8553 5.25517C30.7439 5.15725 30.6629 5.08633 30.5464 4.99685C30.2678 4.81788 30.7811 5.21296 30.516 5.0475C30.1243 4.74696 30.2999 4.74021 29.6718 4.34681C29.9385 4.54942 29.7258 4.41266 29.4101 4.20667C29.7376 4.46669 29.6178 4.40759 29.3577 4.25226L28.8715 3.97536L28.63 3.83691L28.4173 3.72886C28.7162 3.84029 28.4713 3.71535 28.6976 3.82172C28.7415 3.78795 28.1066 3.5178 28.2839 3.53807C28.6027 3.71037 28.9116 3.90033 29.2092 4.10706C29.5283 4.22862 29.4928 4.16953 28.8917 3.8538C28.9069 3.8538 29.2733 4.03277 29.1805 3.93653L29.4523 4.10537L29.6887 4.27421L30.1749 4.61189C30.0804 4.58319 29.8626 4.38733 29.589 4.23031C29.7089 4.36538 30.1597 4.61189 30.2205 4.73683C30.6527 5.05932 30.6477 5.04919 30.9482 5.26193C30.9482 5.28219 30.9111 5.24673 30.8638 5.20959C30.646 5.04075 31.0867 5.42401 30.8385 5.25011L30.8553 5.25517ZM29.8659 3.91289L30.2036 4.15602C30.1192 4.15602 30.2779 4.26239 30.4569 4.40422C30.612 4.51369 30.7592 4.63385 30.8976 4.76385C30.7085 4.60345 30.1884 4.26746 30.1749 4.19148C30.0061 4.09693 29.8541 4.00744 29.6532 3.88081C30.0669 4.0716 28.625 3.26792 28.6402 3.20545C28.8445 3.32026 28.9677 3.40468 29.1298 3.50599L29.4185 3.68665C29.535 3.75418 29.6718 3.84367 29.844 3.96354C30.0162 4.08342 29.7478 3.86393 29.871 3.90951L29.8659 3.91289ZM29.8457 4.17797C29.6999 4.09487 29.5599 4.00179 29.427 3.89938C29.5516 3.94865 29.6696 4.01331 29.7781 4.09186C29.763 4.10199 29.7494 4.11381 29.8457 4.17797ZM30.3286 4.75034C30.5282 4.87705 30.7184 5.01813 30.8976 5.17244C30.7005 5.04453 30.5132 4.90232 30.337 4.74696L30.3286 4.75034ZM30.5666 4.74696C30.6741 4.80666 30.7759 4.87618 30.8705 4.95464C30.9853 5.04581 31.0748 5.14036 31.0394 5.12348C30.9516 5.02217 30.6646 4.83138 30.5683 4.74021L30.5666 4.74696ZM29.3409 3.37598C29.8963 3.69171 29.5789 3.62755 30.0821 3.94835C29.9347 3.87847 29.7915 3.80011 29.6532 3.71366C29.4945 3.62924 29.3155 3.52962 29.0977 3.40468C29.2575 3.46403 29.4086 3.54467 29.5468 3.64443C29.4287 3.55664 29.5924 3.60391 29.6718 3.61911C29.6262 3.56508 29.226 3.35741 29.3341 3.37091L29.3409 3.37598ZM28.7533 2.37982C28.948 2.46824 29.1335 2.5757 29.3071 2.70062C29.2159 2.66516 28.6233 2.36294 28.76 2.3832L28.7533 2.37982ZM28.6435 2.66516C28.4361 2.5419 28.2225 2.4292 28.0037 2.32748C28.1353 2.34774 28.7212 2.66516 28.6435 2.66516ZM28.289 2.72763C27.9986 2.58412 27.9901 2.55879 27.6474 2.40515C27.7504 2.4406 27.9429 2.51489 28.0948 2.57399C28.2468 2.63308 28.3515 2.71412 28.289 2.71919V2.72763ZM27.8584 1.82602C28.11 1.93577 28.2704 2.01513 28.2299 2.0337C27.9783 1.92395 27.8196 1.84291 27.8584 1.82602ZM27.5005 1.90538C27.6693 1.94759 27.9344 2.12656 28.2569 2.25826C27.9938 2.17043 27.7371 2.06437 27.4887 1.94084C27.4769 1.91213 27.6575 1.98305 27.5005 1.90538ZM27.0784 2.1941C27.6768 2.44426 28.25 2.75067 28.7904 3.10921C28.6503 3.0822 28.2434 2.83062 27.9733 2.70062C28.002 2.69049 28.2502 2.82218 28.2569 2.80867C28.1412 2.73608 28.0211 2.67067 27.8973 2.61282C27.6187 2.49632 27.9766 2.67698 27.8804 2.65841L27.5106 2.48957C27.6997 2.53515 27.5917 2.47268 27.4364 2.39164C27.281 2.3106 27.075 2.2228 27.0784 2.19241V2.1941ZM27.639 2.73439L27.6558 2.6888C28.0239 2.84582 28.1928 2.95219 28.1809 2.99946C28.0053 2.90119 27.8244 2.8127 27.639 2.73439ZM27.953 3.0383C27.7166 2.97245 27.2472 2.70062 27.0446 2.62633L27.0598 2.58074C27.5664 2.77828 27.5444 2.85257 27.953 3.0383ZM26.918 2.36294C27.0393 2.39672 27.157 2.44253 27.2692 2.4997C27.3908 2.56386 27.487 2.62802 27.46 2.63646C27.2811 2.54564 27.0967 2.46612 26.9079 2.39839C26.9754 2.41359 27.0632 2.42203 26.918 2.36294ZM27.1628 2.834L27.6693 3.1261C27.4752 3.02662 27.2744 2.94087 27.0683 2.86946C27.021 2.76309 26.7137 2.67023 26.6496 2.56217L27.1561 2.83738L27.1628 2.834ZM25.6635 2.07253C25.4339 2.00837 25.4609 1.99149 25.1908 1.92564C25.0371 1.9459 25.7345 2.08604 25.6517 2.12149C25.0523 1.95265 25.0709 1.89018 24.718 1.77199C25.0491 1.8126 25.3698 1.91452 25.6635 2.07253ZM23.1529 1.57614C22.7409 1.50016 22.8929 1.44276 22.3847 1.37691C22.2395 1.36509 22.4235 1.39717 22.3847 1.41405C21.9221 1.35834 22.1517 1.36171 21.9997 1.32626L21.8039 1.31106C21.9018 1.31106 22.0149 1.31106 22.1331 1.32626C22.2513 1.34145 22.3779 1.36002 22.5029 1.3786C22.7494 1.4225 22.9925 1.45964 23.1664 1.50185L23.1529 1.57614ZM23.2475 1.60484C23.2272 1.54913 23.9633 1.73823 23.6408 1.63355C24.0984 1.67407 23.6172 1.6842 24.1102 1.78888C23.8435 1.75849 23.4872 1.65718 23.2475 1.60484ZM23.9464 1.56263C23.7489 1.50354 24.4226 1.64874 24.3449 1.58965C24.485 1.63186 24.6471 1.67576 24.6252 1.70277C24.4563 1.66056 24.4243 1.669 24.5273 1.69264C24.3162 1.67913 24.252 1.59809 23.9464 1.56263ZM23.6966 1.91889C23.7742 1.94759 23.8164 1.97291 23.7827 1.99655C23.8468 2.00668 23.9093 2.02188 23.9735 2.03539C24.0444 2.00668 24.0866 1.99318 24.4496 2.11812C24.4006 2.09617 24.3533 2.07591 24.3601 2.05902C24.8666 2.18228 24.5289 2.16539 24.816 2.25657C24.816 2.22111 24.6927 2.11305 25.3073 2.27852C25.3647 2.24137 25.1503 2.16539 25.0456 2.10968C25.3319 2.18437 25.6097 2.28848 25.8746 2.42034C25.6973 2.38657 25.7058 2.37476 25.7699 2.43891C25.62 2.37665 25.4645 2.3286 25.3056 2.2954C25.5234 2.3832 25.9084 2.49801 26.3186 2.65841C26.1498 2.57905 26.1498 2.59256 26.241 2.58074C26.5027 2.67191 26.6158 2.74958 26.8741 2.84751C26.8471 2.79348 26.2815 2.60607 26.4385 2.59931C26.7792 2.73251 27.102 2.90777 27.3992 3.12103C27.7149 3.26961 27.6356 3.17844 27.9513 3.33039C28.0155 3.41988 27.8652 3.38273 28.3515 3.64443L28.3278 3.70015C28.0881 3.58703 28.159 3.58703 27.9901 3.49923C28.0519 3.51857 28.1113 3.54462 28.1674 3.5769C27.9513 3.44689 27.6964 3.31857 27.4144 3.18012C27.1324 3.04167 26.8201 2.90829 26.4909 2.76309C26.4621 2.77322 26.5989 2.83738 26.7965 2.9218L27.1341 3.06194L27.4718 3.23078C27.4583 3.24259 27.4448 3.2561 27.5461 3.30507C27.386 3.24621 27.2293 3.17857 27.0767 3.10246C26.9729 3.04408 26.8577 3.00894 26.739 2.99946L26.4773 2.85764C26.2511 2.77153 26.0873 2.73776 25.9252 2.6888C25.7632 2.63983 25.6011 2.59594 25.3613 2.54697C25.7328 2.6601 26.0282 2.77153 26.2882 2.85595L26.9771 3.12272C27.4654 3.32126 27.9422 3.54672 28.4055 3.79808C28.4561 3.79808 28.2907 3.71197 28.1539 3.64106C27.9598 3.52118 28.7499 3.93146 28.8546 3.98718C28.8715 4.01926 28.7651 3.96017 28.7533 3.97199C28.9627 4.06284 29.1663 4.1666 29.3628 4.28265C29.064 4.15433 29.8693 4.64735 29.9098 4.72333C30.0973 4.83138 30.1327 4.82463 30.2627 4.89217C30.1579 4.81522 30.0446 4.75063 29.925 4.69969C29.7191 4.53085 29.8102 4.50214 30.2154 4.78242C29.9808 4.67436 30.44 4.98672 30.5869 5.1201C31.0097 5.39632 31.382 5.74296 31.6877 6.14496C31.7536 6.19055 31.8954 6.3138 31.9241 6.32562C31.8684 6.24795 31.6776 6.07405 31.5729 5.96261C31.5391 5.88832 31.919 6.2851 31.8853 6.21081L31.3551 5.72117C31.1998 5.58272 31.1052 5.48142 31.1761 5.48986C31.4243 5.68234 31.4412 5.72624 31.7029 5.95248C31.6286 5.91196 31.4547 5.7465 31.3112 5.64519C31.6765 5.94516 32.0072 6.28495 32.2972 6.65824C32.1875 6.58057 32.0946 6.5029 31.9089 6.34757C31.9646 6.41342 32.1318 6.58226 32.2466 6.71395C32.1601 6.66248 32.0853 6.59346 32.0271 6.51135C31.9207 6.47251 32.2516 6.77811 32.2736 6.8389C32.2246 6.83045 31.9359 6.49108 31.7671 6.36614C31.8076 6.37458 31.7232 6.29692 31.6354 6.21587C31.7485 6.28003 31.6134 6.16016 31.8042 6.30874C31.7063 6.20406 31.3737 5.92547 31.6101 6.07236L31.3872 5.87313C31.4108 5.94573 31.5814 6.10106 31.4142 6.0082C30.9955 5.65701 31.1508 5.6874 30.6865 5.32271C30.8655 5.41051 31.1407 5.7026 31.318 5.79884C31.2724 5.7178 31.1154 5.65532 30.9313 5.48817C30.9026 5.43246 30.7321 5.27712 30.8857 5.37505C30.5869 5.11672 30.7051 5.28556 30.3978 5.03737C30.5666 5.20621 30.5143 5.18088 30.6814 5.33115C30.5398 5.24826 30.4043 5.15515 30.2762 5.05256C30.7372 5.39024 30.8351 5.54727 31.3332 5.94911C31.4125 6.06223 30.8891 5.64688 31.0698 5.81235C30.9336 5.72256 30.8043 5.62266 30.6831 5.5135C30.8216 5.59623 30.6831 5.49493 30.7085 5.47298C30.4434 5.24167 30.413 5.27543 30.0702 5.02048C30.2391 5.09477 30.0382 4.94957 29.8507 4.81281C29.6633 4.67605 29.9419 4.89385 29.7511 4.79086C29.5333 4.63891 29.4 4.54435 29.275 4.46331C29.1501 4.38227 29.0268 4.32993 28.836 4.24044C28.6976 4.15096 28.7955 4.18472 28.9306 4.26746C28.5406 4.02433 28.1472 3.84367 27.6457 3.59209C27.7065 3.66301 27.8618 3.69171 28.1522 3.85886C27.9834 3.78964 28.0324 3.82678 27.9733 3.81496C27.1593 3.37868 26.3126 3.00666 25.4407 2.70231C25.4491 2.70231 25.4407 2.69049 25.4153 2.67191C25.3411 2.65165 25.2701 2.60944 25.1283 2.55035C25.0574 2.52165 24.9679 2.48619 24.8531 2.44736C24.7092 2.39817 24.5619 2.35924 24.4124 2.33086C24.3365 2.28358 24.3365 2.2802 24.4243 2.27007C24.1603 2.22152 23.9018 2.14686 23.6527 2.0472C23.484 1.96521 23.306 1.90398 23.1225 1.86486C23.3164 1.85055 23.5113 1.86708 23.6999 1.91382L23.6966 1.91889ZM21.8782 1.65212C21.6857 1.59978 22.2614 1.6403 21.9795 1.60991C22.1871 1.60991 23.1039 1.80576 22.9283 1.82771C22.8203 1.81252 22.876 1.80914 22.9283 1.81589C22.7409 1.76186 22.1297 1.68757 21.8765 1.64705L21.8782 1.65212ZM20.8145 1.73147C21.1116 1.75173 21.1741 1.74498 20.9107 1.72134L21.2028 1.73147C21.3294 1.73147 21.4763 1.75511 21.6215 1.77031C21.8333 1.78176 22.0429 1.81803 22.2462 1.87836C21.8799 1.83784 21.8073 1.80239 21.3902 1.77537C21.505 1.8007 21.7532 1.81927 21.8647 1.8446L21.7549 1.83615C21.4409 1.79676 21.1274 1.76524 20.8145 1.7416C20.8145 1.7416 20.8145 1.7416 20.8145 1.73147ZM5.94482 32.8251C5.81022 32.683 5.68555 32.5318 5.57169 32.3726L5.75741 32.5685C5.82326 32.6326 5.89417 32.7019 5.97859 32.7897L5.94482 32.8251ZM6.60836 33.5207C6.49186 33.3941 6.3551 33.2641 6.21328 33.1037C6.33991 33.2236 6.50875 33.3654 6.67083 33.5174L6.9224 33.7402L7.15709 33.9361C7.00513 33.9141 7.57581 34.3649 7.62309 34.4426C7.38181 34.2742 7.15582 34.085 6.94773 33.877C6.83629 33.7774 6.73499 33.6558 6.61005 33.5393L6.60836 33.5207ZM7.21112 36.1918C7.2719 36.1631 7.50321 36.4012 7.71763 36.5649C7.90505 36.7338 7.43905 36.3539 7.21112 36.1918ZM12.0045 38.7649C11.9091 38.7264 11.8203 38.6734 11.7411 38.6079C11.4709 38.515 11.8694 38.6923 11.6313 38.618C11.4372 38.5387 11.2329 38.4644 11.0438 38.3766C10.8547 38.2888 10.6673 38.2078 10.5001 38.1385C10.5204 38.1774 10.8175 38.3074 10.7618 38.3226C10.699 38.2931 10.6326 38.2721 10.5643 38.2601C10.4275 38.1926 10.6082 38.2601 10.5778 38.2263C9.91085 37.995 9.50226 37.7198 8.22753 36.9144C8.24779 36.9144 8.32039 36.96 8.32546 36.9499C8.12623 36.8131 7.98778 36.722 7.90505 36.6544C7.86466 36.6269 7.8268 36.5958 7.79192 36.5616C7.80205 36.5616 7.96076 36.6831 8.18194 36.8233C8.40312 36.9634 8.68846 37.1609 8.94509 37.2994C9.20173 37.4378 9.41953 37.5662 9.50058 37.605C9.47187 37.6421 9.79942 37.8042 9.83825 37.8633C9.9972 37.9307 10.1512 38.0091 10.2992 38.098C10.3178 38.0828 10.1962 38.017 10.2249 38.0051C10.0352 37.9239 9.85129 37.8297 9.67448 37.7232C9.77116 37.7591 9.86487 37.8026 9.95475 37.8532C10.2755 38.022 9.95475 37.8194 10.1506 37.914C10.7331 38.2517 11.1299 38.3243 12.0332 38.694C12.1142 38.7565 12.484 38.8764 12.4941 38.9253C12.3268 38.8837 12.1635 38.8272 12.0061 38.7565L12.0045 38.7649ZM8.10428 34.733C8.27312 34.858 8.34403 34.9204 8.31532 34.9339C7.93375 34.6587 8.47572 35.0842 8.21233 34.9187C8.11272 34.831 7.86284 34.6216 7.94219 34.6317C8.00635 34.6807 8.01141 34.6942 8.01141 34.7026C8.18025 34.8326 7.93037 34.6131 8.10428 34.733ZM8.63274 37.0225C9.4094 37.4953 8.83366 37.1913 9.50564 37.583C9.31823 37.4953 9.08692 37.3669 8.81678 37.2099C8.54663 37.0529 8.24779 36.8452 7.9118 36.6173C8.15324 36.7372 8.56183 37.0411 8.63274 37.0225ZM8.886 35.2868C9.08861 35.4202 9.29459 35.5553 9.26758 35.5772C9.03796 35.4303 8.83197 35.2969 8.886 35.2868ZM11.2936 38.3462C11.0319 38.1993 11.6313 38.4357 11.7698 38.515C11.7174 38.5387 11.2633 38.2939 11.2936 38.3462ZM13.7418 39.3812C13.6473 39.3609 13.6675 39.3474 13.649 39.3339C13.5855 39.3104 13.5189 39.2962 13.4514 39.2917C13.2724 39.214 13.4413 39.2529 13.6067 39.3035C13.7722 39.3542 13.9444 39.4015 13.7418 39.3812ZM12.8824 39.0435C13.1002 39.1263 13.4278 39.1904 13.86 39.3069C13.86 39.3592 12.847 39.0756 12.8824 39.0435ZM14.7397 39.6074C14.5708 39.5754 14.5151 39.5433 14.5472 39.523C14.716 39.5534 15.0436 39.621 14.9473 39.5686L15.1466 39.6024C15.1972 39.621 15.2479 39.6395 15.2428 39.6564C14.7785 39.5906 14.5674 39.523 14.7363 39.6074H14.7397ZM14.2568 39.4082C14.2433 39.3761 14.6046 39.4859 14.7515 39.4977C14.8241 39.4757 14.5489 39.4403 14.4594 39.4031C14.3245 39.4032 14.1906 39.3815 14.0626 39.339C14.1031 39.3035 14.3378 39.3694 14.174 39.2883C14.4442 39.3441 14.2585 39.3542 14.4594 39.4031C14.478 39.3643 14.9068 39.4791 14.6671 39.3829C15.0047 39.4589 15.1246 39.4656 15.5551 39.5315C15.4775 39.5315 15.4454 39.5433 15.4505 39.5669C15.7209 39.5704 15.9887 39.6201 16.2423 39.7138C15.5738 39.6616 14.9101 39.5594 14.2568 39.4082ZM14.868 39.3913C15.0368 39.4031 15.2192 39.4217 15.4099 39.4403C15.6007 39.4589 15.7932 39.4622 15.962 39.469C15.962 39.5045 15.7003 39.4791 15.6598 39.5061C15.3221 39.4454 15.2631 39.4639 14.868 39.3913ZM15.8354 37.7958C15.9908 37.7971 16.1445 37.8286 16.2879 37.8886C16.0549 37.8583 15.8185 37.8296 15.8354 37.7958ZM16.9734 39.0638C17.0966 39.0317 17.1118 39.0469 17.1676 39.0148C17.2959 39.0266 17.4242 39.0266 17.5542 39.03C17.642 39.0857 17.3482 39.0992 16.9734 39.0638ZM18.8678 38.1402C19.0813 38.0975 19.3005 38.0912 19.5161 38.1216C19.1784 38.1216 19.1784 38.1487 18.8678 38.1402ZM19.9179 39.4825C19.7491 39.4926 19.6917 39.4825 19.7153 39.4487L20.0125 39.4251C20.0547 39.447 19.9466 39.4622 19.9179 39.4825ZM20.8972 37.941C21.1001 37.854 21.3075 37.7779 21.5185 37.7131C21.2619 37.7958 21.6874 37.7384 21.7161 37.7603C21.3784 37.8059 21.272 37.8667 20.8972 37.941ZM21.6604 38.0929L21.1235 38.1875C21.1049 38.1588 21.3953 38.1031 21.63 38.0626C21.8647 38.022 22.0267 37.9764 21.7684 38.017C21.8967 37.9444 21.998 37.9883 22.2294 37.9207C22.1821 37.9427 22.1365 37.9629 22.1432 37.9781C21.917 38.0372 21.7954 38.0676 21.6654 38.0929H21.6604ZM22.1466 37.9916C22.437 37.9393 22.199 38.0051 22.3425 38.0085C22.069 38.0761 22.0048 38.0406 22.1466 37.9916ZM21.7634 37.8701C21.5466 37.9329 21.3261 37.982 21.1032 38.017C20.9141 37.9798 21.7786 37.8988 21.8241 37.8009L22.3695 37.6725C22.2007 37.7299 21.9862 37.8025 21.7634 37.8701ZM23.4197 37.6033C23.2508 37.6658 23.0448 37.7384 22.7865 37.816C22.6852 37.816 22.9841 37.7367 23.1428 37.6877C23.0735 37.6962 22.9739 37.7181 22.8642 37.7434C23.4467 37.5273 22.7494 37.7266 23.3876 37.502L23.2069 37.5543C23.0111 37.5679 23.2238 37.4429 23.5446 37.372C23.3623 37.4767 23.266 37.4767 23.472 37.4615C23.396 37.4851 23.3893 37.4936 23.3859 37.502C23.6695 37.3973 23.5784 37.4716 23.7523 37.4176C23.6482 37.4938 23.5347 37.5562 23.4146 37.6033H23.4197ZM23.3859 37.35C23.2171 37.4075 23.0904 37.4446 23.0685 37.4125C23.3707 37.3061 23.499 37.2842 23.8688 37.1542C23.7337 37.2032 23.5463 37.2859 23.3859 37.35ZM24.1389 37.0748C24.0494 37.0748 23.835 37.1171 24.0258 37.0225C23.6425 37.139 23.3623 37.3247 23.1411 37.3146C23.3234 37.2521 23.5193 37.2302 23.575 37.1458L23.1377 37.3146L22.8135 37.4463C22.6954 37.4948 22.5748 37.5371 22.4522 37.5729C22.307 37.6084 22.128 37.6472 21.8917 37.6894C22.1382 37.5999 22.0352 37.6269 21.8917 37.6523C22.0234 37.6016 22.2935 37.5392 22.2395 37.5071C21.9541 37.5712 21.711 37.6421 21.5135 37.6894C21.3642 37.7218 21.2184 37.7681 21.0779 37.8279C20.9496 37.8431 21.0559 37.784 20.8871 37.8127C20.7081 37.8701 20.8685 37.8498 20.985 37.8447C20.8664 37.8793 20.7449 37.903 20.622 37.9157C20.622 37.9005 20.7368 37.8836 20.7081 37.8667C20.6156 37.877 20.5244 37.8974 20.4363 37.9275C20.3442 37.9079 20.2494 37.9039 20.156 37.9157C19.8437 38.0018 20.3671 37.9325 20.3485 37.9764C20.0225 38.0475 19.6892 38.0787 19.3557 38.0693C19.3557 38.0997 18.8492 38.0997 18.8745 38.1233C18.6922 38.098 18.9471 38.0761 19.2122 38.0626C18.9184 38.044 18.6348 38.0035 18.2177 38.0068C18.2177 38.0609 17.6099 37.9798 17.4816 38.0305V37.9883C17.1844 37.9714 17.3533 38.0254 17.1102 38.0068C16.9599 37.9714 17.1102 37.9916 17.1102 37.9579C16.8383 37.9393 16.553 37.9207 16.5631 37.8836C16.6644 37.8836 16.9633 37.9038 17.2824 37.9207C17.6015 37.9376 17.9425 37.9207 18.1266 37.9207C18.0151 37.9207 17.9088 37.9207 17.9425 37.8937C17.6612 37.9068 17.3793 37.9035 17.0983 37.8836L16.5918 37.8464C16.4128 37.8312 16.2254 37.8009 16.0228 37.7772C16.2676 37.7772 15.854 37.7384 15.854 37.7063C15.9754 37.7252 16.099 37.7252 16.2204 37.7063C16.0614 37.6679 15.9001 37.6397 15.7375 37.6219C15.6236 37.6125 15.5133 37.5773 15.415 37.5189C15.1634 37.4649 15.182 37.4969 14.9642 37.4547C14.9389 37.4902 15.1162 37.5341 15.0402 37.5679C15.3593 37.6421 15.0993 37.5358 15.3154 37.578C15.3492 37.605 15.4319 37.5949 15.5855 37.6236C15.6767 37.6556 15.6683 37.686 15.7544 37.7131C15.3931 37.6624 15.128 37.6084 14.9389 37.5645C14.818 37.5391 14.7015 37.4964 14.5928 37.4378C14.6029 37.4936 14.2669 37.4226 14.2179 37.4547C13.7958 37.3213 13.757 37.3652 13.4176 37.2403C13.3237 37.2472 13.2293 37.2404 13.1374 37.22C12.8132 37.0917 12.4857 36.9431 12.099 36.8114C11.9717 36.7321 11.8404 36.6594 11.7056 36.5936C11.5621 36.5177 11.3983 36.4366 11.189 36.3302C11.5081 36.5295 10.8986 36.3167 11.3933 36.5818C11.3105 36.5582 11.0775 36.4434 11.1248 36.5008C11.5334 36.6899 11.0235 36.4603 11.1113 36.5345C11.4017 36.6747 11.2379 36.5345 11.552 36.6933C11.7309 36.8013 11.4642 36.6933 11.6178 36.7895C11.8272 36.8992 11.9032 36.852 11.9673 36.9178C11.8492 36.9012 11.735 36.864 11.6296 36.8081C11.4895 36.7405 11.3612 36.6662 11.3713 36.6511C11.2311 36.6225 11.0929 36.5847 10.9577 36.5379C10.7686 36.4623 10.5876 36.3678 10.4174 36.256C10.7044 36.3758 10.23 36.1023 10.441 36.2002C10.5705 36.2895 10.7153 36.3541 10.8682 36.391C10.392 36.1884 10.9138 36.3691 10.5575 36.1648C10.4312 36.1353 10.3088 36.0911 10.1928 36.0331C10.0425 35.9571 9.86527 35.8643 9.6863 35.7579C9.50733 35.6515 9.32161 35.5283 9.1477 35.4202C8.9738 35.3121 8.81002 35.1973 8.68508 35.0977C8.68508 35.0859 8.75431 35.1298 8.77457 35.1315C8.51624 34.9339 8.65131 35.1028 8.37104 34.885C8.3474 34.8394 8.51287 34.8985 8.24948 34.7161C8.37104 34.8546 8.22922 34.7837 8.05194 34.6554C7.90354 34.5398 7.746 34.4364 7.58087 34.3464C7.52685 34.2468 7.75984 34.4426 7.8392 34.4781C6.2977 33.2 5.20362 31.91 4.72749 31.032C5.0179 31.5115 5.37246 31.8762 5.59533 32.2139C5.69663 32.3169 5.8756 32.5516 5.87391 32.4807C5.60377 32.143 5.34038 31.856 5.12258 31.5453C5.01283 31.3917 4.89802 31.2465 4.79503 31.0962L4.49787 30.6386C4.39657 30.4901 4.3054 30.333 4.2176 30.1726C4.1298 30.0122 4.03694 29.8518 3.94577 29.6864C3.77693 29.3487 3.59627 28.9941 3.43925 28.5906C3.40254 28.3941 3.33711 28.2041 3.24509 28.0267C3.33288 28.2529 3.21638 28.0638 3.17755 27.949C3.06105 27.6603 3.1995 27.8578 3.12352 27.6485C2.97276 27.2797 2.85688 26.8975 2.7774 26.5071C2.79935 26.524 2.84663 26.654 2.87026 26.676C2.75545 26.3197 2.81117 26.3028 2.67272 25.9111C2.67272 25.8762 2.66766 25.8424 2.65753 25.8098C2.71662 25.9702 2.7774 26.1289 2.84156 26.2876C2.8767 26.4756 2.93868 26.6576 3.0256 26.8279C2.99858 26.7334 2.9665 26.6202 2.93611 26.5206C4.63503 30.6027 7.78086 33.9142 11.7705 35.8201C15.7602 37.726 20.3129 38.0922 24.556 36.8486C24.6556 36.8587 24.3162 36.9921 24.1339 37.0647L24.1389 37.0748ZM24.8092 38.2668C24.4715 38.3766 24.8244 38.1757 25.1469 38.0372C25.2904 38.0474 24.843 38.2061 24.8092 38.2668ZM30.3269 35.1771C30.3269 35.1332 30.4434 35.0302 30.6949 34.8107L30.7152 34.8411C30.5958 34.9646 30.4658 35.0776 30.3269 35.1788V35.1771ZM31.0816 33.335L31.2909 33.1544C31.0951 33.3401 31.0039 33.4566 30.8891 33.541C30.9398 33.4819 31.0073 33.411 31.0816 33.335ZM31.4649 33.7976C31.6009 33.6451 31.747 33.5019 31.9021 33.3688C31.7726 33.5274 31.626 33.6713 31.4649 33.7976ZM31.9714 33.3046C31.9866 33.2658 32.0862 33.1594 32.0912 33.1358C31.9579 33.2776 31.8464 33.3924 31.7536 33.4735C31.6954 33.5291 31.6301 33.5768 31.5594 33.6153C31.3784 33.8175 31.1832 34.0065 30.9752 34.1809C31.2251 33.9057 31.4581 33.6744 31.6995 33.4515C31.941 33.2287 32.1706 32.9973 32.4137 32.7356C32.3462 32.8319 32.3715 32.8217 32.4965 32.6749C32.3406 32.9035 32.1624 33.1162 31.9646 33.3097L31.9714 33.3046ZM32.282 32.739C32.212 32.8565 32.125 32.9629 32.0237 33.0547C31.8819 33.2016 31.686 33.3924 31.4412 33.6288C31.4243 33.6102 31.5543 33.4836 31.7012 33.3418L32.0777 32.9703C31.9899 32.9872 32.1048 32.8167 32.0777 32.8015C32.0507 32.7863 32.0237 32.8302 31.9089 32.9467C31.7941 33.0632 31.5999 33.2675 31.2707 33.5714C31.3484 33.4498 31.4851 33.3013 31.6573 33.0936C31.6371 33.0936 31.5256 33.2202 31.4361 33.2979C31.6219 33.1054 31.8228 32.8724 32.049 32.636C32.2753 32.3996 32.4981 32.1295 32.7413 31.8526C32.9844 31.5757 33.2123 31.2819 33.4352 30.9848C33.6581 30.6876 33.8826 30.3888 34.0734 30.0865C34.0305 30.1807 33.9797 30.2711 33.9215 30.3567C33.8421 30.4782 33.7357 30.6201 33.6277 30.767C33.5196 30.9139 33.4301 31.0658 33.3288 31.1975C33.2275 31.3292 33.1431 31.4373 33.0925 31.5149C33.2056 31.4237 33.4791 31.0743 33.572 30.9898C33.4447 31.193 33.3043 31.3876 33.1516 31.5723C33.2909 31.4737 33.4062 31.345 33.4892 31.1958C33.5061 31.1874 33.474 31.2363 33.4335 31.2853C33.4335 31.3022 33.4538 31.2769 33.4825 31.2414C33.2191 31.5791 33.0739 31.8205 32.8308 32.1244C32.8848 32.0822 32.9996 31.9556 32.9895 31.9944C32.7717 32.2089 32.4728 32.6141 32.2922 32.7373L32.282 32.739ZM33.4116 31.6888C33.209 31.8948 33.6851 31.2954 33.8877 31.0033C33.913 31.0033 33.805 31.157 33.6885 31.3174C33.5892 31.4358 33.4967 31.5598 33.4116 31.6888ZM33.3339 32.0501C33.3018 32.0383 33.469 31.8256 33.6344 31.6162C33.6902 31.6044 33.523 31.8171 33.3339 32.0501ZM33.3187 32.3321C33.2277 32.4367 33.1314 32.5364 33.03 32.631C33.1725 32.432 33.3264 32.2414 33.4909 32.0603C33.5382 32.0468 33.187 32.43 33.3221 32.3321H33.3187ZM33.8556 31.6804C33.8016 31.7445 33.783 31.7547 33.7155 31.8374C33.6642 31.9306 33.6042 32.0188 33.5365 32.1008C33.6282 31.907 33.7495 31.7287 33.8961 31.5723C33.8691 31.6247 33.8421 31.6719 33.8556 31.6804ZM33.8016 31.3427C33.8657 31.162 34.1393 30.9358 34.2743 30.6488C34.3385 30.6285 34.1595 30.8716 34.3554 30.7163C34.0734 31.0996 34.1426 30.8581 33.8016 31.3427ZM34.6914 29.9109C34.4854 30.2132 34.3706 30.3246 34.3537 30.4428C34.2 30.6758 34.1258 30.7264 33.9687 30.9324C34.0905 30.7237 34.2229 30.5214 34.3655 30.3263C34.5557 30.0725 34.7251 29.8037 34.872 29.5226C34.8229 29.6569 34.7624 29.7868 34.6914 29.9109ZM35.0696 28.8979C34.9092 29.1883 34.8653 29.2035 34.688 29.5209C34.7364 29.47 34.7784 29.4133 34.8129 29.3521C34.7315 29.505 34.6389 29.6517 34.536 29.7911C34.5479 29.7438 34.7049 29.504 34.6069 29.5851C34.8231 29.2692 35.0118 28.9354 35.1709 28.5872C35.1303 28.6987 35.029 28.8996 35.0696 28.8945V28.8979ZM35.1287 28.8101C35.1067 28.8101 35.4039 28.2681 35.1996 28.6058C35.2684 28.4456 35.3473 28.29 35.4359 28.1398C35.4212 28.2099 35.3979 28.2779 35.3667 28.3424C35.4089 28.2884 35.4917 28.1364 35.495 28.1736C35.3864 28.3921 35.264 28.6036 35.1287 28.8067V28.8101ZM35.6588 28.1533C35.6791 28.0841 35.7551 27.9271 35.7213 27.9439C35.8141 27.765 35.9239 27.5354 35.9357 27.5793C35.8428 27.7717 35.7517 27.9625 35.6588 28.1533ZM36.427 26.0006L36.2481 26.443C36.1873 26.5814 36.1316 26.708 36.0877 26.8228C36.1265 26.6962 36.1822 26.5527 36.2396 26.3957C36.297 26.2387 36.3544 26.0749 36.4186 25.9128C36.5537 25.5903 36.6685 25.2645 36.7563 25.0399C36.7124 25.2003 36.6617 25.3641 36.6077 25.5262C36.5537 25.6882 36.4827 25.847 36.422 26.0006H36.427ZM37.1446 24.27C37.1159 24.4152 37.175 24.2311 37.1193 24.4895C37.0416 24.6583 36.8761 25.2645 36.7478 25.5025C36.7756 25.3985 36.8129 25.2974 36.8593 25.2003C36.8593 25.0669 36.9606 24.9082 36.9268 24.8812C37.0028 24.6431 37.0619 24.4 37.1311 24.1585C37.1429 24.1585 36.9471 24.8947 37.1733 24.1721C37.2273 24.0319 37.1733 24.1721 37.1446 24.2767V24.27ZM37.2425 23.5896C37.2172 23.6875 37.1919 23.7939 37.1632 23.9036C37.1345 24.0133 37.1007 24.1298 37.0703 24.2514C37.0855 24.0522 37.3033 23.1168 37.3489 23.1016C37.332 23.2265 37.2898 23.3937 37.2425 23.5896ZM37.386 16.3412C37.386 16.2568 37.386 16.2214 37.4131 16.2264L37.4654 16.5455L37.5008 16.8663C37.4637 16.635 37.4401 16.6333 37.386 16.3412ZM37.5346 13.4709C37.617 13.7137 37.6868 13.9606 37.744 14.2105C37.8005 14.4331 37.8456 14.6585 37.879 14.8858C37.8622 14.8234 37.8318 14.6984 37.7963 14.5481C37.7609 14.3979 37.7068 14.2274 37.6629 14.0619C37.5768 13.7242 37.4941 13.4422 37.5346 13.4642V13.4709ZM37.6511 16.7313C37.6258 16.6553 37.5583 16.1184 37.5971 16.1876C37.6324 16.3667 37.6505 16.5487 37.6511 16.7313ZM37.7642 23.2401C37.6748 23.6183 37.5802 23.9627 37.5549 23.9458C37.6325 23.6199 37.7051 23.311 37.771 23.0358C37.8368 22.7605 37.8723 22.5174 37.9094 22.33C37.8853 22.6367 37.8368 22.9411 37.7642 23.2401ZM37.8723 18.8992C37.882 19.0816 37.8781 19.2644 37.8605 19.4462C37.863 19.5206 37.8721 19.5946 37.8875 19.6674C37.879 19.9544 37.8571 19.9325 37.8436 20.1537C37.8436 19.9848 37.8436 19.816 37.852 19.6353C37.852 19.5154 37.852 19.3905 37.8605 19.252V18.7911C37.8842 18.7244 37.8968 18.6542 37.8976 18.5834C37.9095 18.4334 37.9095 18.2827 37.8976 18.1326C37.9398 18.2474 37.9213 18.8232 37.9331 19.1203C37.8976 19.2132 37.8959 18.9515 37.874 18.8992H37.8723ZM37.9905 16.2315C38.0437 16.4865 38.0725 16.746 38.0766 17.0065C38.0766 16.9946 38.0361 16.7667 38.0124 16.559C37.9888 16.3514 37.9584 16.1656 37.9905 16.2315ZM38.0378 22.1308C38.0399 21.944 38.0569 21.7577 38.0884 21.5736H38.1205C38.0631 21.9197 38.085 21.8674 38.0378 22.1257V22.1308ZM38.1779 20.0068C38.1779 20.1756 38.1644 20.3259 38.1475 20.4863C38.1171 20.8037 38.0935 21.1515 38.0074 21.6681C38.0952 21.0198 38.1239 19.9899 38.1982 19.453C38.1982 19.6623 38.1846 19.8413 38.1779 20.0068ZM38.2015 19.3415C38.1559 19.4006 38.1695 18.7101 38.1475 18.4484C38.1813 18.3656 38.1728 18.7557 38.2066 18.6712C38.2184 19.0089 38.1931 19.0005 38.2066 19.3466L38.2015 19.3415ZM38.2708 16.9828C38.2201 16.8478 38.3028 17.3458 38.2522 17.2125C38.2944 17.3813 38.3011 17.719 38.2657 17.6616C38.2621 17.3791 38.2407 17.0971 38.2015 16.8174C38.1846 16.6806 38.1694 16.5574 38.1593 16.4679C38.1492 16.3784 38.1357 16.3227 38.1357 16.3227C38.112 16.0626 38.2437 16.6198 38.1475 15.985C38.1998 16.1556 38.231 16.3319 38.2404 16.5101C38.2572 16.7431 38.2758 17.0166 38.3197 17.3306C38.291 17.4117 38.2758 17.101 38.2708 16.993V16.9828ZM36.6972 27.5202C36.6347 27.6012 36.5283 27.7076 36.5739 27.5776C36.6862 27.3059 36.8295 27.0481 37.0011 26.8093L36.6972 27.5202ZM38.0665 23.6014C38.0203 23.8722 37.9537 24.1392 37.8672 24.4C37.8588 24.346 37.9331 24.0843 37.8672 24.167C37.9888 23.6419 37.9736 23.7044 38.0935 23.181C38.1128 23.3218 38.1019 23.4651 38.0614 23.6014" fill="currentColor"/>
<path d="M8.32277 34.5705C8.25524 34.476 8.45615 34.6313 8.49161 34.6397C8.4055 34.5553 8.29576 34.4557 8.15393 34.3274C8.01211 34.1991 7.84327 34.064 7.64742 33.8867C7.55455 33.9306 8.22991 34.4287 8.32277 34.5705Z" fill="currentColor"/>
<path d="M8.37609 34.3078C8.07556 34.0765 7.81386 33.8418 7.78516 33.8604C7.96501 34.0309 8.1632 34.181 8.37609 34.3078Z" fill="currentColor"/>
<path d="M5.59121 31.8112C5.62498 31.801 5.73641 31.9125 5.77018 31.9007C5.53718 31.5816 5.34977 31.514 5.59121 31.8112Z" fill="currentColor"/>
<path d="M27.4764 3.47131C27.6857 3.55937 27.8854 3.66856 28.0724 3.79717C28.0724 3.7786 28.1231 3.79717 28.1737 3.8073C27.6774 3.54729 27.7719 3.51352 27.3296 3.30078C27.3296 3.31598 27.3633 3.34468 27.4072 3.37507C27.3499 3.34554 27.2892 3.32287 27.2266 3.30754C27.5913 3.45443 27.6622 3.5304 27.4748 3.47638" fill="currentColor"/>
<path d="M3.00195 27.1602C3.02923 27.2545 3.06659 27.3456 3.11339 27.432C3.08709 27.3718 3.06728 27.309 3.05429 27.2446C3.12098 27.4639 3.20685 27.6769 3.31093 27.8811C3.17755 27.4995 3.07455 27.1669 3.00195 27.1602Z" fill="currentColor"/>
<path d="M6.05503 32.5632C6.1175 32.5632 5.93516 32.315 5.7832 32.1562C5.85649 32.3027 5.94781 32.4394 6.05503 32.5632Z" fill="currentColor"/>
<path d="M5.7398 7.40625L5.72461 7.42313L5.7398 7.40625Z" fill="currentColor"/>
<path d="M8.46308 34.6973C8.6927 34.8661 8.67413 34.7986 8.72647 34.8003C8.5951 34.7097 8.44403 34.6519 8.2858 34.6314C8.17254 34.5217 8.04932 34.4228 7.91773 34.336C7.91773 34.3089 7.96838 34.3191 7.87046 34.2363C7.73032 34.1739 7.46018 33.8548 7.41797 33.8987L7.63239 34.1046L7.84344 34.2904L8.25035 34.6382C8.39048 34.7429 8.53568 34.8492 8.68933 34.9573C8.76699 35.013 8.84635 35.0704 8.93246 35.1261L9.20429 35.295C8.86661 35.062 8.50867 34.8222 8.46308 34.7057" fill="currentColor"/>
<path d="M12.5397 36.917C12.6832 36.917 12.6427 36.9524 12.8892 37.0318L12.9027 36.9845C12.754 36.9459 12.6084 36.8963 12.4671 36.8359C12.4671 36.8596 12.4232 36.8697 12.5397 36.917Z" fill="currentColor"/>
<path d="M16.5664 37.7893C16.7801 37.7821 16.9941 37.7917 17.2063 37.818C17.4326 37.845 17.6892 37.8551 18.0269 37.8686C17.9475 37.8568 17.62 37.8214 17.2941 37.7943C16.9682 37.7673 16.6441 37.7369 16.5664 37.7943" fill="currentColor"/>
<path d="M27.4842 3.16971C27.3523 3.10937 27.2238 3.04173 27.0993 2.9671C26.997 2.90803 26.8875 2.86262 26.7734 2.83203C26.8714 2.87593 27.0014 2.94347 27.1314 3.00087C27.2429 3.06904 27.3612 3.12562 27.4842 3.16971Z" fill="currentColor"/>
<path d="M6.44653 32.515C6.3098 32.3546 6.16259 32.2034 6.00586 32.0625C6.26849 32.4152 6.56977 32.7375 6.90408 33.0232C6.83317 32.9523 6.75719 32.8712 6.67784 32.7868C6.59848 32.7024 6.5242 32.6045 6.44653 32.515Z" fill="currentColor"/>
<path d="M6.45279 32.9394L6.16576 32.5865C6.11849 32.573 6.30083 32.7993 6.49331 33.0137C6.6085 33.1428 6.73384 33.2625 6.86813 33.3716C6.69929 33.2028 6.56085 33.066 6.45279 32.9428" fill="currentColor"/>
<path d="M7.29732 33.5797C6.9073 33.2065 7.12848 33.5797 7.32602 33.6996C7.1403 33.5054 7.27875 33.6151 7.29732 33.5797Z" fill="currentColor"/>
<path d="M31.7217 33.1501C31.6643 33.1501 31.8905 32.9289 31.8905 32.8867C31.6086 33.1721 31.6727 33.1873 31.5039 33.3662C31.5782 33.297 31.6491 33.2244 31.7183 33.1501" fill="currentColor"/>
<path d="M19.3199 38.047H19.2051H19.3418C19.3418 38.047 19.3418 38.047 19.3199 38.0352" fill="currentColor"/>
<path d="M21.2877 1.65636C21.4504 1.68541 21.6143 1.70626 21.7791 1.71883C21.8145 1.69013 21.6322 1.65805 21.411 1.63273C21.2142 1.61151 21.0161 1.60474 20.8184 1.61247C20.9756 1.61758 21.1323 1.63224 21.2877 1.65636Z" fill="currentColor"/>
<path d="M19.7542 1.375C19.5314 1.375 19.1701 1.43916 19.4638 1.43409C19.474 1.375 19.685 1.45267 20.0463 1.41552V1.46617C20.4448 1.43072 20.6457 1.51851 20.823 1.48981C20.6271 1.46519 20.4327 1.43024 20.2405 1.38513C20.1645 1.41552 19.6377 1.41552 19.7525 1.375" fill="currentColor"/>
<path d="M19.2561 1.34921C19.2375 1.40323 18.893 1.3644 18.7715 1.41337C18.8365 1.40468 18.9023 1.40468 18.9673 1.41337C18.9023 1.41613 18.8378 1.42575 18.7749 1.44207C18.9693 1.43227 19.1632 1.41254 19.3557 1.38297C19.3388 1.36609 19.3877 1.33401 19.2561 1.34076" fill="currentColor"/>
<path d="M18.6733 1.4233C18.7053 1.37265 18.2512 1.45032 18.0874 1.45707C18.057 1.50603 18.5095 1.41655 18.6733 1.4233Z" fill="currentColor"/>
<path d="M18.1765 0.43367C17.7459 0.502895 17.6598 0.496141 17.4707 0.54004C17.7864 0.492764 18.1461 0.506272 18.3841 0.443801C18.2406 0.458996 18.2642 0.431982 18.1765 0.43367Z" fill="currentColor"/>
<path d="M22.4049 1.13014C22.1387 1.12396 21.8734 1.09743 21.6113 1.05078C21.6772 1.10988 21.5573 1.1352 22.0993 1.18417C22.0588 1.12676 22.3086 1.20949 22.5923 1.22806C22.6125 1.1943 22.2546 1.1639 22.4015 1.13014" fill="currentColor"/>
<path d="M25.3586 1.60393C24.9314 1.42496 24.1936 1.25612 23.9133 1.13117C23.8897 1.16157 23.5841 1.10754 23.5098 1.13117L23.9386 1.24092C24.0858 1.28714 24.2366 1.32103 24.3894 1.34222C24.3226 1.32812 24.2579 1.30542 24.1969 1.27469L24.8115 1.44353L25.3586 1.61237" fill="currentColor"/>
<path d="M18.9253 37.8973C19.0845 37.8881 19.243 37.8689 19.3998 37.8398C19.0925 37.8837 18.5556 37.8685 18.3867 37.9023C18.5421 37.9023 18.7345 37.9023 18.9202 37.9023" fill="currentColor"/>
<path d="M17.209 1.54852C17.3896 1.52151 17.6649 1.52151 17.7949 1.48605C17.5976 1.47799 17.4001 1.49904 17.209 1.54852Z" fill="currentColor"/>
<path d="M24.5078 2.33459C24.8894 2.39369 24.7324 2.41226 25.0599 2.50343C25.2574 2.52538 24.967 2.41732 24.9822 2.4055C24.8723 2.38213 24.7649 2.34821 24.6614 2.3042C24.4924 2.24852 24.3205 2.20174 24.1465 2.16406V2.1877C24.3474 2.25692 24.7712 2.33628 24.5112 2.3329" fill="currentColor"/>
<path d="M36.807 26.4636C36.7867 26.6189 36.9015 26.7084 37.1784 25.7882C37.0878 26.027 36.9846 26.2609 36.8694 26.4889C37.0028 26.109 37.1007 25.9959 37.1362 25.7696C37.0805 25.9442 37.0099 26.1137 36.9251 26.2762C36.9756 26.1003 37.0353 25.9273 37.1041 25.7578C37.0349 25.8017 36.9606 26.0955 36.807 26.4602" fill="currentColor"/>
<path d="M26.2074 2.68392C26.0338 2.59502 25.8551 2.51665 25.6721 2.44923C25.4574 2.36817 25.2374 2.30161 25.0137 2.25C25.2028 2.31416 25.4408 2.38676 25.657 2.47793C25.8731 2.56911 26.0757 2.64678 26.2074 2.68392Z" fill="currentColor"/>
<path d="M16.2567 1.26249C16.2567 1.26249 16.2381 1.25067 16.1554 1.27262C16.1368 1.30639 16.3647 1.27262 16.6045 1.22197C16.7871 1.19928 16.9674 1.16029 17.1431 1.10547C16.9912 1.1202 16.8406 1.14559 16.6923 1.18145C16.549 1.21905 16.4035 1.24781 16.2567 1.26756" fill="currentColor"/>
<path d="M17.0612 0.581191C16.6873 0.621451 16.3177 0.69548 15.957 0.802372C16.0651 0.792241 16.5058 0.680806 16.8417 0.633531C17.1777 0.586256 17.4006 0.532227 17.0612 0.582879" fill="currentColor"/>
</svg>
