<svg width="238" height="237" viewBox="0 0 238 237" fill="none" xmlns="http://www.w3.org/2000/svg">
<g clip-path="url(#clip0_3038_7722)">
<path d="M217.827 167.541C217.297 168.651 216.677 169.761 216.827 169.741C217.616 168.462 218.304 167.125 218.887 165.741C218.937 165.411 218.347 166.431 217.797 167.521" fill="currentColor"/>
<path d="M214.857 175.32C214.957 175.51 215.857 174.11 216.607 172.64C216.557 172.25 215.807 173.76 214.857 175.32Z" fill="currentColor"/>
<path d="M133.498 233.18C133.556 233.16 133.611 233.129 133.658 233.09L133.498 233.18Z" fill="currentColor"/>
<path d="M218.758 166.41C218.008 168.54 220.148 164.41 220.578 163.02C220.053 164.192 219.445 165.325 218.758 166.41Z" fill="currentColor"/>
<path d="M220.168 162.789C221.018 160.659 221.628 159.789 221.628 159.199C220.968 160.318 220.476 161.527 220.168 162.789Z" fill="currentColor"/>
<path d="M156.317 225.8C156.787 225.55 157.317 225.27 157.247 225.4C156.917 225.55 156.607 225.7 156.737 225.71C157.837 225.16 160.327 224.17 160.507 223.91C158.247 224.97 158.047 224.83 155.567 225.97C155.377 226.23 155.837 226.04 156.317 225.8Z" fill="currentColor"/>
<path d="M155.177 226.68C153.867 227.25 151.177 228.2 150.777 228.51C152.3 228.045 153.774 227.432 155.177 226.68Z" fill="currentColor"/>
<path d="M141.798 231.779C142.798 231.439 144.178 231.049 144.628 230.779C143.748 230.909 141.348 231.609 141.798 231.779Z" fill="currentColor"/>
<path d="M181.869 212.771C180.959 213.111 183.069 211.681 183.179 211.391C181.959 212.261 182.179 212.201 180.179 213.531C179.839 213.991 179.719 214.331 181.849 212.771" fill="currentColor"/>
<path d="M135.908 232.509C137.258 232.189 137.618 232.239 139.368 231.769C139.598 231.379 136.698 232.199 135.908 232.509Z" fill="currentColor"/>
<path d="M159.778 223.691C161.298 222.871 160.428 223.041 161.708 222.131C160.708 222.641 160.558 222.761 159.588 223.211C159.998 223.351 159.968 223.281 159.778 223.691Z" fill="currentColor"/>
<path d="M184.117 209.469C183.327 210.349 181.067 211.609 180.287 212.469C182.097 211.249 185.287 208.779 184.117 209.469Z" fill="currentColor"/>
<path d="M91.7189 5.66C92.7189 5.48 92.0789 5.66 91.3089 5.83C90.5389 6 89.6489 6.34 89.9789 6.29C91.3789 5.99 93.2789 5.17 94.6889 4.95C93.7689 4.95 95.2989 4.5 93.4289 4.95C93.4289 5.1 91.4889 5.56 91.7189 5.67" fill="currentColor"/>
<path d="M80.6087 9.2207C80.3787 9.1007 82.8087 8.2207 82.2387 8.2207C80.4987 9.0007 79.8887 9.1807 79.3887 9.4707C79.772 9.30921 80.1758 9.20152 80.5887 9.1507C80.2687 9.2707 79.9587 9.4607 80.5887 9.2207" fill="currentColor"/>
<path d="M98.3184 3.62031C99.4767 3.43904 100.62 3.17163 101.738 2.82031C101.268 2.82031 98.8184 3.52031 99.3084 3.16031C99.3084 3.16031 99.1984 3.10031 98.6984 3.23031C98.6084 3.43031 97.7984 3.59031 96.9084 3.76031C96.104 3.89762 95.3186 4.12922 94.5684 4.45031C95.2384 4.25031 95.8784 4.09031 96.4984 3.94031L98.3184 3.62031Z" fill="currentColor"/>
<path d="M86.8984 6.65039C88.7784 5.97039 91.3184 5.34039 93.3584 4.65039C91.1579 5.15387 88.9985 5.82242 86.8984 6.65039Z" fill="currentColor"/>
<path d="M89.939 6.15047C90.329 6.02047 90.709 5.87047 91.109 5.76047C92.049 5.33047 91.039 5.68047 91.039 5.48047C90.639 5.59047 90.259 5.74047 89.869 5.87047C89.969 6.04047 88.929 6.34047 89.939 6.15047Z" fill="currentColor"/>
<path d="M109.608 1.73016C111.018 1.52016 111.868 1.30016 113.838 1.10016C113.838 1.24016 112.188 1.41016 112.658 1.55016C115.548 1.17016 115.208 1.27016 118.108 1.05016C117.638 1.34016 119.258 1.27016 118.108 1.49016C120.828 1.20016 121.878 1.76016 123.578 1.49016C122.638 1.49016 123.158 1.35016 123.578 1.27016C121.541 1.19261 119.511 0.988886 117.498 0.660156C115.978 0.880156 114.708 0.970156 113.388 1.09016L108.998 1.52016C108.648 1.80016 111.188 1.33016 109.638 1.73016" fill="currentColor"/>
<path d="M145.497 2.80016C145.547 2.90016 145.647 3.00016 146.687 3.15016C147.097 2.89016 145.367 2.62016 143.687 2.41016C143.547 2.67016 144.177 2.52016 145.497 2.80016Z" fill="currentColor"/>
<path d="M109.498 0.85C111.098 0.77 114.428 0.19 115.588 0C112.978 0.24 110.968 0.65 109.498 0.85Z" fill="currentColor"/>
<path d="M73.3689 19.0006C72.3689 19.4206 71.7389 19.6306 70.6289 20.1806C71.4989 20.1106 73.3689 19.0706 75.4989 18.0006C74.9489 17.9306 78.0689 16.6806 77.4989 16.6406C75.7781 17.148 74.1333 17.8846 72.6089 18.8306C74.0189 18.1906 74.7789 18.0906 73.3189 18.9606" fill="currentColor"/>
<path d="M48.6183 216.709L47.0683 215.539L45.7483 214.459L44.0583 213.099C43.4783 212.639 44.1283 213.259 47.0583 215.729C46.7489 215.455 46.4141 215.21 46.0583 214.999C46.3583 215.239 46.6383 215.469 46.5183 215.459C46.8383 215.729 47.1883 215.969 47.5183 216.209C47.0583 215.599 48.4083 216.649 48.6883 216.709" fill="currentColor"/>
<path d="M14.9587 176.28C14.6787 175.68 14.6787 175.54 14.4687 175.03C14.1887 174.8 14.7087 175.94 15.2887 177.2C15.7972 178.099 16.2384 179.035 16.6087 180C16.6087 180.05 16.6087 180.12 16.8487 180.62C16.9287 180.62 17.4387 181.62 17.5787 181.74C16.4687 179.62 16.6287 179.45 15.6287 177.48C15.2487 176.7 15.2687 176.99 14.9587 176.33" fill="currentColor"/>
<path d="M33.1777 203.51C33.6192 204.283 34.1756 204.984 34.8277 205.59C35.3991 206.209 36.0286 206.771 36.7077 207.27C34.9977 205.62 34.8077 205.27 33.1777 203.51Z" fill="currentColor"/>
<path d="M86.2988 234.291C87.8788 234.631 89.4488 235.011 91.0188 235.291C91.1488 235.051 86.6588 234.091 86.2988 234.291Z" fill="currentColor"/>
<path d="M77.1074 15.5291C78.4652 15.1645 79.7527 14.5764 80.9174 13.7891C79.2374 14.6691 77.5574 15.1191 77.1074 15.5291Z" fill="currentColor"/>
<path d="M12.2575 170.169C11.9939 169.082 11.6324 168.021 11.1775 166.999C11.3675 167.879 11.1775 167.549 10.8675 166.869C10.5575 166.189 10.2075 165.129 9.9375 164.609C10.1675 165.199 10.3875 165.909 10.6475 166.609C10.9075 167.309 11.2275 168.129 11.5175 168.889C11.9685 170.195 12.5306 171.46 13.1975 172.669C12.5675 171.199 12.7775 171.499 13.1075 172.159C13.374 172.71 13.6851 173.239 14.0375 173.739C13.0975 171.629 12.7875 170.429 12.0375 168.799C12.1075 169.169 12.8075 171.479 12.2675 170.159" fill="currentColor"/>
<path d="M96.9777 236.22C97.2677 236.43 96.4877 236.42 95.5677 236.3C94.8361 236.16 94.0924 236.093 93.3477 236.1C94.7177 236.32 100.758 237.1 99.9377 236.87C97.0577 236.66 98.0177 236.44 96.9377 236.22" fill="currentColor"/>
<path d="M71.3086 20.2201L71.4286 20.4901L73.0086 19.6701C73.0786 19.4201 72.6886 19.4801 71.3086 20.2201Z" fill="currentColor"/>
<path d="M232.108 96.3295C231.244 90.2348 229.906 84.2166 228.108 78.3295C224.62 66.8527 219.316 56.0087 212.398 46.2095C211.538 45.0495 210.758 43.8395 209.858 42.7495L207.218 39.4295C206.318 38.3595 205.388 37.3395 204.478 36.2995C203.568 35.2595 202.628 34.2995 201.678 33.2995C198.056 29.5418 194.162 26.0557 190.028 22.8695C189.298 22.2195 188.148 21.3395 186.818 20.3595L182.418 17.4795C180.898 16.5795 179.418 15.7195 178.238 14.9895C177.382 14.5145 176.563 13.9764 175.788 13.3795C172.978 11.8395 170.378 11.1795 168.378 10.0995C169.378 10.5295 171.198 11.4395 170.698 10.9795C169.316 10.4655 167.979 9.84012 166.698 9.10945C165.43 8.75113 164.184 8.31701 162.968 7.80945L158.518 6.23945C158.668 6.64945 162.938 7.86945 163.068 8.31945C160.518 7.31945 156.848 6.04945 154.318 5.24945C155.298 5.56073 156.301 5.7915 157.318 5.93945C155.668 5.42945 153.718 4.74945 151.888 4.22945C150.058 3.70945 148.348 3.33945 147.218 3.17945C148.278 3.60945 151.138 4.17945 151.958 4.61945C150.198 4.19945 148.578 3.78945 147.018 3.37945L142.438 2.37945C139.221 1.7397 135.956 1.37174 132.678 1.27945C133.018 1.27945 133.368 1.37945 132.678 1.34945C131.828 1.28945 130.348 1.20945 131.468 1.34945C133.468 1.49945 134.468 1.39945 136.938 1.69945C135.108 1.69945 137.778 2.06945 138.718 2.27945C136.718 2.21945 137.798 2.34945 136.878 2.42945C135.598 2.18945 134.278 2.07945 132.958 1.88945C131.638 1.69945 130.318 1.54945 129.018 1.47945C130.898 1.19945 127.568 1.04945 131.478 1.05945C129.618 0.909453 127.308 0.959453 127.198 0.709453C128.009 0.828878 128.833 0.845677 129.648 0.759453C128.328 0.689453 126.648 0.669453 125.208 0.649453C123.768 0.629453 122.408 0.739453 121.708 0.649453C124.298 0.359453 119.788 0.549453 122.308 0.189453C121.378 0.189453 120.428 0.189453 119.498 0.189453L116.798 0.399453C115.176 0.416953 113.558 0.557355 111.958 0.819453C113.698 0.589453 115.298 0.579453 116.718 0.519453C118.138 0.459453 119.408 0.399453 120.498 0.389453C119.738 0.659453 121.398 0.599453 121.138 0.959453C122.688 0.959453 123.928 1.02945 125.068 1.10945L128.498 1.49945C126.638 1.49945 126.708 1.31945 124.848 1.36945C123.958 1.62945 127.558 1.36945 126.678 1.67945C124.998 1.44945 126.108 1.76945 124.858 1.80945C124.758 1.71945 124.968 1.58945 124.258 1.59945C121.468 1.74945 118.998 1.54945 116.548 1.54945C114.042 1.4395 111.531 1.6241 109.068 2.09945C109.788 2.09945 111.588 1.84945 111.518 2.09945C108.878 2.39945 107.518 2.61945 108.458 2.09945C106.518 2.35945 107.238 2.50945 106.088 2.73945C104.628 2.84945 101.348 3.55945 101.238 3.31945C104.068 2.59945 104.178 2.92945 106.058 2.59945C106.488 2.32945 106.058 2.34945 107.818 1.89945C106.808 1.99234 105.806 2.1527 104.818 2.37945C105.048 2.51945 102.578 2.84945 100.578 3.37945C98.578 3.90945 96.968 4.13945 98.878 3.84945C98.3103 4.12722 97.7032 4.31609 97.078 4.40945C96.4925 4.53075 95.9174 4.69793 95.358 4.90945C98.238 4.18945 102.838 3.44945 99.608 4.42945C102.248 3.69945 104.608 3.81945 106.168 3.14945C104.668 3.30945 102.628 3.87945 101.958 3.72945C104.24 3.19944 106.55 2.80211 108.878 2.53945C110.583 2.31671 112.308 2.29322 114.018 2.46945C116.627 2.14517 119.263 2.11833 121.878 2.38945C121.098 2.38945 121.038 2.31945 120.068 2.38945C119.828 2.74945 123.588 2.48945 123.688 2.27945C122.858 2.27945 121.318 2.05945 122.478 2.01945C123.638 1.97945 122.948 2.28945 124.888 2.16945C126.138 2.16945 125.458 1.89945 126.708 1.89945C127.078 2.00945 129.038 1.89945 129.118 2.08945C127.118 2.15945 126.578 2.08945 127.308 2.41945C126.518 2.41945 125.698 2.41945 124.948 2.41945C124.198 2.41945 123.538 2.50945 123.088 2.57945C124.648 2.57945 127.858 2.57945 127.908 2.86945C126.598 2.86945 125.988 2.61945 126.108 2.86945C128.608 2.86945 128.938 3.04945 130.908 3.11945C131.488 2.99945 129.118 2.79945 130.908 2.82945C135.168 3.42945 142.238 3.82945 144.608 5.02945C137.608 4.02945 130.958 3.02945 125.508 3.14945C126.608 3.14945 129.348 3.37945 127.908 3.40945C127.298 3.34945 126.068 3.29945 125.218 3.23945C124.368 3.17945 123.938 3.15945 124.908 2.99945C123.268 2.99945 121.148 2.99945 119.148 2.99945C117.148 2.99945 115.268 3.19945 114.148 3.31945C115.458 3.18945 116.058 3.21945 115.968 3.38945C115.363 3.42292 114.763 3.52012 114.178 3.67945C113.958 3.34945 110.838 3.78945 109.368 3.78945C109.558 4.15945 104.068 4.64945 105.228 4.64945C106.388 4.64945 108.528 4.15945 108.838 4.37945C111.988 3.60945 113.838 3.97945 117.198 3.79945C117.328 3.72945 117.198 3.65945 117.778 3.60945C119.468 3.60945 123.538 3.53945 123.778 3.91945C125.773 3.67019 127.794 3.71061 129.778 4.03945C128.288 4.09945 127.288 3.76945 126.778 3.97945C128.648 3.97945 128.118 4.22945 130.338 4.18945C131.338 3.82945 133.718 4.54945 135.108 4.65945C136.958 4.80945 133.598 4.33945 135.708 4.47945C136.096 4.5865 136.496 4.65022 136.898 4.66945C136.848 4.75945 136.118 4.66945 136.278 4.81945C138.608 5.12945 141.188 5.42945 141.578 5.75945L136.088 4.99945C134.715 4.85661 133.349 4.64299 131.998 4.35945C130.378 4.46075 128.752 4.4273 127.138 4.25945C125.788 4.09961 124.428 4.03612 123.068 4.06945C124.138 4.32945 128.358 4.39945 130.198 4.69945C128.634 4.58123 127.065 4.54785 125.498 4.59945C125.228 4.72945 127.098 4.99945 127.278 4.84945C126.538 4.69945 127.928 4.69945 129.548 4.74945C131.168 4.79945 133.018 5.03945 133.208 5.01945C132.415 5.07713 131.62 5.07044 130.828 4.99945C129.828 4.93945 128.738 4.89945 128.428 4.84945C128.178 5.01945 129.498 5.02945 129.008 5.22945C130.593 5.08524 132.19 5.22063 133.728 5.62945C133.898 5.50945 132.078 5.14945 133.728 5.18945C135.638 5.31945 137.878 5.45945 139.008 6.00945C137.088 5.83945 136.278 5.58945 134.898 5.48945C136.422 5.92553 137.994 6.17403 139.578 6.22945C141.888 6.52945 141.268 6.86945 143.578 7.27945C144.198 6.93945 141.028 6.33945 139.578 6.00945C140.607 6.08794 141.632 6.21811 142.648 6.39945C143.394 6.51075 144.145 6.58417 144.898 6.61945C143.911 6.4483 142.939 6.2043 141.988 5.88945C142.995 5.88515 144 5.98231 144.988 6.17945C145.746 6.4398 146.531 6.61423 147.328 6.69945C147.655 6.98187 148.023 7.21438 148.418 7.38945C151.358 7.91945 152.208 8.07945 152.558 7.98945C152.718 8.13945 153.358 8.34945 153.078 8.42945C149.848 7.42945 153.258 8.79945 150.738 7.98945C151.028 8.44945 152.678 8.57945 153.068 8.50945C153.756 8.96174 154.579 9.16304 155.398 9.07945L156.798 9.46945C157.1 9.55694 157.392 9.67768 157.668 9.82945C156.418 9.67945 159.048 10.8295 162.108 11.8295C162.048 11.9195 162.318 12.0895 162.598 12.2595C161.198 11.7195 159.918 11.2595 158.808 10.8295C157.844 10.3968 156.839 10.0618 155.808 9.82945L161.498 11.8995C163.348 12.6995 165.198 13.4795 166.948 14.4195C165.268 13.6495 164.898 13.6795 163.588 13.1595C162.851 12.6875 162.071 12.2857 161.258 11.9595C160.212 11.5337 159.14 11.1763 158.048 10.8895C160.558 11.7195 161.048 12.1395 161.298 12.5095C159.808 11.8195 158.988 12.0495 156.818 10.9395C157.548 10.8495 155.368 9.93945 154.048 9.76945C155.618 10.4695 151.708 9.09945 151.698 9.42945C153.398 10.0595 156.278 10.8395 158.698 11.8195C160.333 12.3063 161.893 13.0128 163.338 13.9195C162.414 13.4772 161.466 13.0866 160.498 12.7495L156.498 11.3495C153.628 10.4795 150.628 9.57945 148.788 8.97945C150.668 9.36945 149.948 8.88945 148.858 8.54945C149.858 8.76945 150.778 8.96945 151.738 9.20945C151.298 8.84945 152.288 9.07945 152.958 9.20945C151.528 8.75945 150.268 8.46945 149.008 8.12945C147.748 7.78945 146.448 7.43945 144.888 7.18945C144.578 7.45945 145.118 7.63945 145.378 7.93945C146.169 7.88269 146.962 7.99169 147.708 8.25945C147.117 8.28521 146.525 8.25844 145.938 8.17945C147.018 8.31945 147.828 8.81945 148.238 8.67945C147.638 8.53945 147.798 8.47945 148.838 8.73945C148.888 8.92945 148.478 8.96945 147.618 8.83945C144.578 7.99602 141.48 7.38097 138.348 6.99945C139.704 7.205 141.041 7.51594 142.348 7.92945C141.208 7.64889 140.042 7.48472 138.868 7.43945C140.602 7.78159 142.318 8.21215 144.008 8.72945C142.958 8.50945 142.008 8.32945 141.178 8.16945C140.348 8.00945 139.558 7.95945 138.838 7.85945C137.491 7.67327 136.155 7.4095 134.838 7.06945C134.738 7.14945 134.918 7.28945 134.238 7.24945C133.608 7.02945 132.238 6.79945 131.148 6.56945C130.058 6.33945 129.388 6.18945 130.148 5.95945C130.927 6.09331 131.719 6.14027 132.508 6.09945L130.658 5.83945C129.978 5.75945 129.238 5.71945 128.488 5.67945C127.088 5.54217 125.678 5.54217 124.278 5.67945C123.278 5.59945 121.968 5.53945 120.538 5.48945C119.108 5.43945 117.538 5.48945 115.918 5.56945C114.298 5.64945 112.648 5.77945 111.058 5.94945L108.738 6.19945C107.998 6.30945 107.288 6.43945 106.618 6.55945L108.838 6.26945L111.028 6.08945C111.919 5.941 112.831 5.97502 113.708 6.18945C116.798 5.89945 112.318 6.12945 114.268 5.89945C116.408 5.89945 117.088 6.09945 119.578 5.97945C117.168 6.18945 119.828 6.33945 120.178 6.17945C119.178 6.03945 121.688 5.82945 119.568 5.68945C121.544 5.58954 123.525 5.75433 125.458 6.17945C125.358 5.87945 128.978 6.23945 129.568 6.32945C128.148 6.32945 128.288 6.16945 126.628 6.19945C126.568 6.34945 129.098 6.42945 127.798 6.58945C125.478 6.28272 123.139 6.13903 120.798 6.15945C122.008 6.42945 125.088 6.32945 126.078 6.70945C123.938 6.70945 121.338 6.64945 122.568 6.39945C120.068 6.39945 117.018 6.85945 114.958 6.64945C116.328 6.53945 116.678 6.64945 118.458 6.43945C117.092 6.2976 115.714 6.2976 114.348 6.43945C113.628 6.63945 114.988 6.76945 112.628 6.87945C112.188 7.23945 113.888 6.96945 114.988 6.97945C116.338 6.45945 117.988 7.07945 119.668 6.97945C119.668 6.85945 119.578 6.71945 120.828 6.71945C120.888 6.99945 123.678 6.85945 123.748 7.13945C125.638 7.13945 124.188 6.84945 126.078 6.96945C126.858 7.35945 130.888 7.56945 128.398 7.89945C130.398 7.70945 132.208 8.15945 135.398 8.12945C134.768 8.33945 136.598 8.46945 137.098 8.67945C136.518 8.61945 135.938 8.52945 135.368 8.49945C135.248 8.70945 139.038 9.32945 139.938 9.31945C139.278 9.21945 137.258 8.76945 138.818 8.88945C140.638 9.24945 142.708 9.77945 145.058 10.2995C143.148 10.1795 142.058 9.66945 140.478 9.67945C142.158 9.90945 142.218 10.1395 143.878 10.3895C143.878 10.1395 146.568 10.8895 146.768 10.6295C148.768 11.1295 147.038 11.0495 146.128 10.9395C147.271 11.1449 148.395 11.4459 149.488 11.8395C145.608 10.9395 151.588 12.5195 148.298 11.9495C147.381 11.6589 146.445 11.4284 145.498 11.2595C145.498 11.0495 144.338 10.7195 142.728 10.2595C142.628 10.3295 142.808 10.4795 142.138 10.3795C141.528 9.89945 137.708 9.57945 137.048 9.17945C136.698 9.49945 132.848 9.05945 131.878 8.82945C131.938 8.71945 133.358 8.82945 133.048 8.68945C130.748 8.51945 128.798 8.47945 127.868 8.30945C127.868 8.43945 127.738 8.53945 127.288 8.59945L130.178 8.93945C131.178 9.07945 132.288 9.24945 133.588 9.38945C132.998 9.85945 135.308 10.0195 136.968 10.2795C136.001 10.1445 135.017 10.23 134.088 10.5295C132.638 10.3195 131.368 10.1495 130.688 10.0695C131.508 9.99945 130.688 9.80945 129.588 9.71945C128.625 9.6697 127.667 9.55949 126.718 9.38945C128.508 9.45945 128.228 9.16945 129.578 9.38945C129.058 8.93945 124.578 8.85945 122.688 8.71945C122.598 9.04945 126.248 8.78945 125.568 9.23945C121.888 9.32945 119.208 8.94945 116.968 9.23945C118.098 9.23945 119.168 9.23945 120.358 9.23945C121.548 9.23945 122.848 9.33945 124.428 9.32945C124.148 9.48945 124.748 9.50945 125.428 9.57945C126.046 9.59696 126.658 9.71517 127.238 9.92945C126.104 9.83652 124.965 9.81315 123.828 9.85945C123.608 9.93945 123.768 9.97945 124.068 10.0095C104.419 9.27765 84.9541 14.0356 67.858 23.7495C68.858 23.0695 69.928 22.3695 71.258 21.5595C70.468 21.5595 73.008 20.2795 73.678 19.7295L71.148 20.8895C70.318 21.2995 69.478 21.7195 68.628 22.1595C67.778 22.5995 66.8881 23.0495 65.988 23.5695C65.088 24.0895 64.188 24.7295 63.238 25.4095C63.3181 25.7895 64.938 24.3295 65.378 24.4095C63.538 25.4595 65.188 24.8195 63.978 25.5695C61.248 26.9795 59.248 27.2095 62.728 24.4995C64.328 23.4995 63.728 24.1395 62.858 24.7495C63.998 23.9795 65.178 23.2295 66.218 22.6695C67.0011 22.2596 67.7622 21.809 68.498 21.3195C68.288 21.3195 69.088 20.7595 69.958 20.1195C70.6451 19.6872 71.2852 19.1845 71.868 18.6195C65.9001 21.4225 60.2566 24.8696 55.038 28.8995C49.1281 33.4293 43.5965 38.4324 38.498 43.8595C38.958 43.3995 39.498 42.9995 38.928 43.5995C38.0481 44.4732 37.2357 45.4126 36.498 46.4095C37.388 45.4095 37.848 44.9595 37.878 45.1495C27.16 56.6254 18.6842 70.0057 12.888 84.5994C13.268 83.5994 13.598 82.3094 13.108 83.5994C12.238 85.9995 10.548 90.3994 9.19805 95.1294C7.95723 99.2853 6.95559 103.509 6.19805 107.779C6.27512 107.341 6.39917 106.912 6.56805 106.499C6.40805 107.369 6.22805 108.299 6.06805 109.269L5.64805 112.269C5.32805 114.269 5.11805 116.199 4.91805 117.809C4.67805 120.869 4.73805 123.509 4.64805 125.809C4.55805 128.109 4.71805 130.229 4.74805 132.199C4.77805 134.169 4.95805 135.999 5.06805 137.999C5.17805 139.999 5.43805 141.899 5.74805 144.099C5.36986 142.117 5.11272 140.113 4.97805 138.099C4.77805 139.329 4.50805 133.479 4.49805 136.099C4.60805 137.709 4.78805 139.289 4.92805 140.949C4.99805 141.789 5.07805 142.639 5.14805 143.519C5.21805 144.399 5.39805 145.299 5.54805 146.249C5.65805 146.939 5.69805 147.159 5.71805 147.249C5.73805 147.339 5.71805 147.589 5.80805 148.249C6.04646 149.841 6.3804 151.418 6.80805 152.969C7.01805 153.819 7.20805 154.579 7.34805 155.069C7.39461 155.259 7.46873 155.441 7.56805 155.609C7.56805 156.239 8.22805 159.339 8.56805 159.429C8.56805 158.809 8.15805 158.509 7.79805 156.839C8.26805 157.919 7.79805 156.029 8.29805 157.399C8.89805 159.719 8.85805 159.799 9.72805 162.589C9.54805 162.589 9.57805 163.029 9.83805 163.999C10.268 164.379 10.738 165.729 10.538 164.439C9.01805 160.169 7.02805 152.439 6.86805 150.099C7.20805 151.629 7.52805 153.099 7.86805 154.509C8.20805 155.919 8.58805 157.259 8.92805 158.579C9.10805 159.249 9.28805 159.899 9.46805 160.579L10.098 162.489C10.528 163.759 10.978 165.009 11.438 166.269C11.528 166.619 11.878 167.639 12.368 168.989C12.858 170.339 13.458 172.039 14.218 173.679C15.1656 175.949 16.2613 178.154 17.498 180.279C17.118 179.839 17.978 181.969 18.568 182.639C18.218 182.009 17.928 181.159 18.358 181.979C19.1468 183.557 20.0283 185.086 20.998 186.559C20.908 186.559 20.998 186.919 21.158 187.249C21.658 187.879 23.158 190.189 24.158 191.789C25.158 193.389 25.918 194.179 24.518 192.059L27.768 196.509C28.848 197.859 29.768 199.059 30.358 199.899L27.808 196.709C27.258 196.029 27.038 195.709 27.008 195.709C27.046 195.794 27.0929 195.875 27.148 195.949C27.248 196.099 27.388 196.339 27.598 196.619L29.388 199.069C29.0061 198.545 28.5813 198.054 28.118 197.599C29.008 198.689 30.258 200.279 31.008 201.129C31.758 201.979 32.008 202.129 30.678 200.529C32.218 202.249 33.678 203.839 34.888 205.219C36.098 206.599 37.298 207.649 38.238 208.429C37.2734 207.317 36.2379 206.268 35.138 205.289C34.2865 204.558 33.5808 203.673 33.058 202.679C33.708 203.729 35.348 205.419 33.968 203.589C35.228 204.999 36.408 205.999 37.498 206.999C38.588 207.999 39.688 208.999 40.998 210.069C41.7396 211.115 42.6853 211.999 43.778 212.669C42.908 211.989 41.358 210.669 41.938 210.909C43.178 212.069 44.328 212.909 45.328 213.739C46.328 214.569 47.248 215.289 48.198 215.939L51.078 217.939C52.078 218.639 53.238 219.309 54.538 220.149C54.248 220.229 55.748 221.679 56.418 221.919C55.418 221.189 58.198 222.749 59.138 223.409C59.688 223.469 58.778 222.889 58.218 222.469L60.408 223.689C61.128 224.079 61.838 224.409 62.498 224.749C63.828 225.409 64.968 226.049 65.828 226.509C65.218 226.459 61.318 224.139 61.358 224.509C62.638 225.139 61.888 225.019 62.918 225.509L65.018 226.509C65.748 226.849 66.518 227.149 67.288 227.509C68.8381 228.179 70.408 228.889 71.948 229.449C74.948 230.699 77.798 231.609 79.338 232.199L90.608 234.779C95.6734 235.82 100.812 236.462 105.978 236.699C105.248 236.429 107.908 236.759 107.178 236.469C106.068 236.359 105.178 236.559 104.798 236.319C105.408 236.319 106.378 236.379 107.308 236.369C108.062 236.325 108.819 236.352 109.568 236.449C109.568 236.589 107.938 236.509 108.368 236.719C111.368 236.619 110.608 236.509 113.728 236.379C116.838 236.929 121.538 236.139 125.588 235.439C125.788 235.589 123.888 235.749 123.838 235.889C126.016 235.708 128.178 235.374 130.308 234.889C129.568 234.999 129.098 235.019 129.118 234.889C130.296 234.725 131.461 234.484 132.608 234.169C129.048 234.569 135.178 233.609 134.888 233.429C133.838 233.699 133.548 233.659 133.738 233.569C134.296 233.384 134.868 233.244 135.448 233.149C134.568 233.149 133.258 233.359 133.448 233.149C133.118 233.269 132.558 233.149 131.858 233.309C131.858 233.529 134.378 233.309 131.938 233.819C130.927 233.822 129.92 233.946 128.938 234.189C127.802 234.39 126.652 234.503 125.498 234.529C125.498 234.409 127.118 234.279 127.238 234.159L123.178 234.649L119.018 235.029C122.218 234.759 118.308 235.699 117.268 235.439C120.168 235.259 116.138 235.439 117.268 235.139C115.718 235.139 114.728 235.249 114.908 235.439C115.5 235.39 116.096 235.39 116.688 235.439C115.378 235.589 117.438 235.599 116.098 235.679C115.107 235.513 114.1 235.469 113.098 235.549C112.718 235.829 111.348 235.939 113.098 236.069C111.788 236.199 110.668 236.149 109.538 236.159C108.408 236.169 107.288 236.159 105.968 236.069C106.798 236.019 106.238 235.759 107.758 235.789C108.556 235.759 109.355 235.823 110.138 235.979C111.428 235.759 111.068 235.499 109.538 235.449C109.348 235.259 112.858 235.579 111.898 235.279C110.628 235.129 108.678 235.159 106.698 235.139C104.888 235.104 103.081 234.961 101.288 234.709C105.808 234.979 110.288 235.169 114.848 234.989C115.388 234.839 115.038 234.609 116.008 234.509C117.538 234.819 119.558 234.169 120.688 234.209C120.688 234.479 117.048 234.589 117.798 234.889C119.648 234.779 119.858 234.589 121.898 234.479C121.898 234.389 122.168 234.299 122.468 234.219C120.948 234.379 121.468 233.999 121.848 233.899C123.03 234.047 124.23 233.91 125.348 233.499C126.088 233.839 122.208 234.209 122.498 234.499C125.168 234.119 126.018 233.929 128.918 233.599C128.628 233.259 131.578 232.969 132.368 232.819C133.158 232.669 132.368 232.529 133.468 232.319C134.828 232.389 137.258 231.429 138.678 231.319C138.168 231.529 136.568 231.849 136.998 231.949L139.868 231.259C139.708 231.089 139.938 230.849 140.918 230.499C142.652 230.165 144.365 229.731 146.048 229.199C147.414 228.518 148.832 227.947 150.288 227.489C151.664 227.017 152.986 226.397 154.228 225.639C154.228 225.729 154.008 225.899 153.748 226.069C156.398 225.069 155.978 224.929 158.588 223.829C158.868 223.399 156.238 224.759 155.788 224.829C158.988 223.319 153.858 225.269 156.718 223.929C157.508 223.659 158.318 223.369 159.268 222.989C160.448 222.549 161.594 222.024 162.698 221.419C162.378 221.919 164.208 220.779 166.008 220.109C165.702 220.394 165.367 220.645 165.008 220.859C164.075 221.235 163.2 221.74 162.408 222.359C163.88 221.669 165.309 220.891 166.688 220.029C167.558 219.399 167.948 219.029 167.958 218.739C166.958 219.219 166.328 219.949 165.888 219.909C167.846 218.543 169.936 217.377 172.128 216.429C172.688 216.349 170.888 217.429 170.728 217.619C172.408 216.569 172.868 216.099 172.318 216.809C173.356 216.201 174.358 215.534 175.318 214.809C174.088 215.439 173.268 215.809 174.108 215.079C175.211 214.608 176.272 214.043 177.278 213.389C177.278 213.549 175.668 214.579 175.898 214.609C177.068 213.829 178.198 212.979 179.348 212.159C179.348 212.419 180.768 211.439 180.588 211.889C182.34 210.509 184.169 209.23 186.068 208.059C186.898 207.145 187.801 206.299 188.768 205.529C188.488 205.189 185.368 207.999 183.838 209.099C184.358 208.209 188.268 205.099 190.708 203.019C190.918 202.719 192.068 201.559 193.258 200.419C194.448 199.279 195.598 198.069 195.958 197.839C195.239 198.852 194.385 199.76 193.418 200.539C193.328 201.269 190.488 203.609 189.738 204.779C190.738 203.919 191.648 203.079 192.738 202.129L194.478 200.559L196.528 198.479C196.668 198.629 195.428 199.929 194.098 201.179C192.768 202.429 191.408 203.679 191.458 203.979C192.668 202.819 193.748 201.769 194.458 201.079C194.775 200.739 195.131 200.437 195.518 200.179C195.918 199.445 196.471 198.804 197.138 198.299C197.398 198.299 195.508 200.089 196.028 199.869C196.728 199.1 197.498 198.397 198.328 197.769C198.088 198.189 196.208 199.969 196.738 199.769L199.198 197.229C199.798 196.549 200.378 195.889 201.398 194.669C200.228 195.789 199.708 195.979 199.268 196.039C201.028 193.799 202.188 193.119 202.848 191.669C202.354 192.34 201.798 192.963 201.188 193.529L204.508 188.929C205.828 187.779 203.698 190.479 203.338 191.289C204.688 189.539 206.288 187.549 207.088 186.199C206.667 186.654 206.289 187.146 205.958 187.669C205.737 188.039 205.464 188.376 205.148 188.669C205.438 188.119 206.428 186.609 207.478 185.079L209.008 182.879L210.008 181.259C209.448 182.079 209.648 181.529 209.848 181.129L208.708 182.779L207.498 184.409C206.698 185.409 205.938 186.409 205.338 187.149C205.895 186.165 206.513 185.217 207.188 184.309L208.428 182.579L209.868 180.339C208.868 182.189 209.808 181.059 210.488 180.039C210.868 180.119 211.068 179.809 210.618 180.949C212.248 178.369 210.678 181.429 211.538 180.069C211.588 179.559 214.118 175.629 214.208 174.929C213.558 175.799 213.008 177.139 212.738 176.999C213.464 175.945 214.081 174.819 214.578 173.639C213.848 174.639 212.508 176.969 211.818 177.869C211.938 177.479 213.058 175.769 212.998 175.619C212.308 176.489 212.258 177.059 210.998 178.849C210.998 178.529 210.248 179.719 210.378 179.159C211.153 178.15 211.823 177.065 212.378 175.919C212.833 174.973 213.404 174.086 214.078 173.279C214.95 171.348 215.931 169.468 217.018 167.649C216.568 167.869 219.088 162.899 219.508 161.909C218.649 163.834 217.915 165.811 217.308 167.829C217.788 166.829 218.188 166.039 218.478 165.569C218.238 165.349 218.858 164.069 219.528 162.649C220.198 161.229 220.948 159.649 221.178 159.019C221.026 159.424 220.835 159.812 220.608 160.179C221.608 157.899 222.608 155.049 223.608 152.499C224.608 149.949 225.408 147.609 225.938 146.319C225.726 147.385 225.428 148.432 225.048 149.449C225.385 148.872 225.756 148.314 226.158 147.779C225.808 148.969 224.858 151.489 225.278 150.939C226.468 147.609 226.838 145.819 227.988 141.499C227.988 141.209 227.608 142.399 227.798 141.439C227.993 140.812 228.137 140.17 228.228 139.519C228.138 140.519 228.058 141.299 228.548 139.609C228.718 138.809 228.888 137.969 229.068 137.099C229.248 136.229 229.368 135.309 229.528 134.379L230.008 131.589C230.158 130.649 230.258 129.699 230.388 128.779C230.518 127.859 230.648 126.939 230.768 126.059C230.888 125.179 230.958 124.319 231.058 123.509C231.228 121.879 231.468 120.439 231.598 119.299C231.408 119.229 231.468 117.039 231.598 114.459C231.598 113.169 231.598 111.779 231.598 110.459C231.598 109.819 231.598 109.209 231.598 108.669C231.598 108.129 231.598 107.669 231.548 107.219C231.552 108.185 231.612 109.15 231.728 110.109C231.808 110.429 231.888 110.339 231.928 110.559C231.841 111.451 231.841 112.348 231.928 113.239C231.928 112.399 231.998 111.869 232.108 111.899C232.172 112.795 232.172 113.694 232.108 114.589C231.878 114.069 231.758 111.179 231.648 114.589C231.968 113.739 231.408 117.959 231.648 118.589C231.798 117.479 231.838 114.669 232.098 115.269C232.018 116.819 232.018 117.839 232.038 118.619C231.868 119.729 231.958 118.549 231.778 118.619C231.775 119.566 231.715 120.511 231.598 121.449C231.508 122.169 231.418 122.719 231.328 123.269C231.588 122.839 231.328 124.659 231.228 125.269H231.558C231.208 127.829 231.418 127.649 231.258 129.269C230.868 130.269 231.118 128.209 230.598 129.149C230.516 130.032 230.369 130.908 230.158 131.769C230.478 131.769 229.918 134.109 229.648 135.039C229.858 135.039 230.108 133.959 230.038 135.139C229.878 136.009 229.818 135.719 229.668 136.419C229.668 137.049 229.968 136.729 229.788 137.819C229.608 138.909 229.078 140.369 228.788 141.579C228.498 142.789 228.108 143.579 228.188 142.859C227.188 146.129 227.698 145.589 227.278 147.419C226.886 148.904 226.378 150.355 225.758 151.759C226.238 149.489 224.558 154.049 224.258 155.399C224.618 154.719 225.258 152.889 225.408 153.049L219.498 166.869C219.858 166.609 220.028 166.739 220.138 167.249C222.479 162.286 224.539 157.194 226.308 151.999C226.218 151.379 227.378 147.759 227.928 146.269C228.428 145.349 227.368 148.449 227.588 148.269C228.468 145.469 227.958 147.269 227.838 148.359C229.449 143.025 230.722 137.594 231.648 132.099C232.571 126.282 233.099 120.408 233.228 114.519C233.296 108.427 232.922 102.338 232.108 96.2995V96.3295ZM112.098 2.13945C111.528 2.07945 112.248 1.93945 113.358 1.78945C114.468 1.63945 115.978 1.60945 116.928 1.58945C117.078 1.94945 112.698 1.74945 112.098 2.13945ZM132.678 2.48945C134.096 2.45021 135.514 2.58794 136.898 2.89945C135.448 2.97945 135.118 2.52945 132.678 2.48945ZM138.138 2.60945C139.159 2.6089 140.173 2.77786 141.138 3.10945C139.498 3.21945 139.778 2.72945 138.138 2.60945ZM138.758 2.45945C138.868 2.23945 142.468 2.75945 142.378 3.00945C140.888 2.75945 139.468 2.63945 138.758 2.45945ZM147.048 4.63945C146.258 4.47945 145.458 4.35945 144.658 4.21945C143.478 3.76945 148.068 4.69945 145.888 4.21945C145.788 4.13945 146.128 4.21945 146.498 4.21945C146.868 4.21945 147.288 4.37945 147.698 4.45945C147.218 4.45945 147.028 4.45945 147.048 4.61945V4.63945ZM120.208 235.549C120.288 235.669 119.498 235.759 119.638 235.889L117.788 236.009H116.458C115.648 236.009 114.908 236.009 113.698 236.009C115.348 235.689 118.218 235.929 120.208 235.469V235.549ZM223.998 68.9995C224.448 70.0894 224.878 71.1894 225.308 72.3394C226.218 74.5994 226.868 77.1395 227.808 80.1195C227.038 78.4295 226.348 76.2695 225.508 73.8295C224.668 71.3895 223.688 68.6295 222.378 65.8295C222.958 66.9194 223.508 67.9695 223.998 69.0395V68.9995ZM223.228 142.039C223.083 142.435 222.992 142.849 222.958 143.269C222.668 144.219 222.748 143.699 222.828 143.159L223.128 141.979C223.136 141.999 223.15 142.015 223.168 142.026C223.186 142.036 223.207 142.041 223.228 142.039ZM221.928 146.879C220.998 149.579 220.928 150.319 220.148 152.229C220.148 152.019 220.628 150.739 220.898 149.829C220.848 149.949 220.788 150.079 220.738 150.209C220.918 149.669 221.098 149.119 221.268 148.579C221.558 147.769 221.808 146.579 221.928 146.879ZM145.198 12.9195C145.947 13.0731 146.677 13.3043 147.378 13.6095C148.078 13.7495 147.958 13.6095 147.378 13.4595C148.398 13.6884 149.4 13.9892 150.378 14.3595L151.458 14.8395L150.198 14.4495C150.008 14.3895 149.758 14.3095 149.438 14.2295C148.238 13.8895 147.028 13.5695 145.808 13.2295C145.488 13.1095 145.088 12.9595 145.158 12.8895L145.198 12.9195ZM179.558 27.9995C180.743 28.6399 181.851 29.4151 182.858 30.3095C181.703 29.6206 180.601 28.8485 179.558 27.9995ZM184.698 31.7295C185.678 32.369 186.613 33.0739 187.498 33.8395C187.058 33.6495 187.228 33.9195 187.608 34.3295C186.258 33.2095 184.868 32.1195 183.458 31.0695C181.808 29.7195 185.458 32.4095 184.708 31.7595L184.698 31.7295ZM194.348 40.1795C194.828 40.7695 195.348 41.3595 195.938 41.9795L194.408 40.4495C194.518 40.5295 194.528 40.4495 194.348 40.1795ZM218.228 74.9995C217.228 72.6294 216.038 69.8794 214.858 67.0994C216.205 69.6319 217.332 72.2749 218.228 74.9995ZM214.948 65.6294C215.148 66.0494 215.378 66.5095 215.608 66.9795C215.838 67.4495 216.048 67.9795 216.278 68.5095C216.728 69.5095 217.208 70.6295 217.648 71.6595C218.311 73.249 218.826 74.8958 219.188 76.5795C218.248 74.1895 217.578 72.1095 216.818 70.3595C216.058 68.6095 215.558 67.0094 214.948 65.6294ZM218.948 77.3494C219.128 77.6994 219.448 78.6695 219.508 78.4395C219.852 79.4195 220.13 80.4218 220.338 81.4395C220.438 81.3095 221.088 82.9995 220.968 81.8595C221.558 83.8595 222.078 85.8595 222.608 87.8595C222.708 87.7394 222.728 87.3895 222.548 86.5795C223.058 87.5795 222.628 87.5795 223.188 89.6395C222.898 89.1795 223.188 90.5195 223.008 90.3295C222.061 86.6021 220.91 82.9298 219.558 79.3295C219.399 78.6695 219.196 78.0213 218.948 77.3895V77.3494ZM224.758 98.2694C224.338 96.4362 224.054 94.5745 223.908 92.6994C224.32 94.5342 224.604 96.3954 224.758 98.2694ZM224.388 89.9995C224.938 91.3494 224.918 92.3895 225.388 94.9995C225.189 94.2932 225.055 93.5702 224.988 92.8394C224.858 91.9894 224.688 91.0294 224.438 90.0294L224.388 89.9995ZM223.538 92.1895C223.398 91.6195 223.268 91.0495 223.118 90.4795C223.248 90.9295 223.378 91.4095 223.548 92.1895H223.538ZM212.628 64.1994H212.568C212.348 63.8194 212.128 63.4395 211.918 63.0595C212.174 63.444 212.411 63.8412 212.628 64.2495V64.1994ZM212.188 63.0995C213.151 64.6388 214.032 66.2277 214.828 67.8595C213.721 66.4097 212.832 64.8061 212.188 63.0995ZM190.498 195.829C192.218 194.303 193.885 192.719 195.498 191.079C195.258 191.349 195.028 191.629 194.798 191.899C194.038 192.749 193.258 193.559 192.458 194.409C191.632 195.313 190.757 196.171 189.838 196.979C190.838 195.819 190.998 195.689 190.468 195.829H190.498ZM198.468 187.979L199.308 187.049L198.508 188.049C198.448 188.049 198.438 188.049 198.508 187.979H198.468ZM225.138 100.519C225.146 100.373 225.146 100.226 225.138 100.079C225.324 100.883 225.424 101.705 225.438 102.529C225.348 101.849 225.258 101.179 225.158 100.529L225.138 100.519ZM220.248 64.6495C220.718 65.7094 221.248 66.9094 221.608 67.7094C220.778 66.5095 220.418 64.9995 219.058 62.4395C219.518 63.1402 219.916 63.8797 220.248 64.6495ZM214.818 51.0995C215.538 52.0995 215.978 52.7695 216.438 53.5495C216.898 54.3295 217.378 55.2495 218.238 56.7295C217.56 55.8487 216.958 54.912 216.438 53.9295C215.8 53.0458 215.257 52.0972 214.818 51.0995ZM218.818 58.7195C218.058 57.2895 216.958 55.4495 216.068 53.8695C215.368 52.869 214.772 51.8002 214.288 50.6795C215.468 52.6295 218.368 57.3495 218.818 58.6795V58.7195ZM213.498 61.3195C214.188 62.6495 214.808 64.0895 215.798 65.8494C215.228 64.9894 214.338 63.2595 213.878 62.6995C213.085 60.7911 212.142 58.9486 211.058 57.1895C212.058 58.7195 212.778 59.9995 213.498 61.3195ZM213.318 62.3195C212.854 61.643 212.427 60.942 212.038 60.2195C212.038 60.3895 212.608 61.2995 212.548 61.3595C213.008 62.4295 210.978 58.2495 210.228 57.0195C211.228 58.5695 212.318 60.5495 213.318 62.3195ZM209.898 57.7795C210.268 58.5595 210.548 59.3495 211.008 60.1995C210.53 59.5045 210.115 58.7683 209.768 57.9995C209.347 57.1153 208.88 56.2541 208.368 55.4195C208.953 56.1631 209.449 56.9718 209.848 57.8295L209.898 57.7795ZM209.258 57.8295C209.058 57.8295 207.788 55.8295 206.858 54.3895C207.788 55.7195 207.548 55.2195 207.068 54.4495C206.588 53.6795 205.808 52.7095 205.808 52.9295L204.498 50.9295C204.498 50.6195 205.258 51.7195 205.118 51.1895C205.758 52.0395 205.788 52.1895 205.408 51.7195C205.588 52.2095 206.548 53.4195 207.408 54.7195C208.104 55.7161 208.732 56.7585 209.288 57.8395L209.258 57.8295ZM207.378 53.1895C206.255 51.7506 205.226 50.2408 204.298 48.6695C204.968 49.3095 206.178 51.5695 207.378 53.1895ZM203.148 49.8595C203.618 50.5495 204.018 51.1795 204.308 51.7095C203.778 51.0195 203.238 50.3395 202.698 49.7095C202.698 49.6495 202.818 49.7095 203.048 49.9095C201.788 48.2295 199.848 45.9095 199.458 45.1695C200.158 45.9495 200.818 46.7895 201.458 47.6095C202.098 48.4295 202.658 49.1995 203.178 49.9095L203.148 49.8595ZM200.788 44.6395C199.903 43.8241 199.093 42.9305 198.368 41.9695C199.368 42.6595 199.778 43.5795 200.788 44.6395ZM197.788 40.8495C197.968 40.7395 199.528 42.6995 200.278 43.4495C200.138 43.8095 198.718 41.8695 197.788 40.8495ZM198.638 35.9895C199.468 36.9195 196.898 34.3095 196.448 33.7695C196.998 33.8795 198.028 35.2695 198.638 35.9895ZM196.118 40.0695C196.698 40.6361 197.188 41.1461 197.588 41.5995C197.922 41.9771 198.232 42.3745 198.518 42.7895C198.978 43.4495 199.128 43.8395 198.988 43.9795C198.726 43.6798 198.51 43.3428 198.348 42.9795C197.786 42.1548 197.113 41.4112 196.348 40.7695C196.818 40.9595 195.878 40.0395 196.148 40.0795L196.118 40.0695ZM190.438 31.7695C191.598 32.9095 190.738 32.3495 191.648 33.3395C190.858 32.5895 189.308 31.4495 188.848 30.9395C189.088 30.9395 190.548 32.1395 190.438 31.7695ZM191.068 30.8295C189.158 29.5395 189.958 30.2095 190.838 31.1795C189.688 30.2995 189.838 30.2495 188.518 29.1795C189.258 29.4995 188.778 29.0695 189.288 29.0695C190.848 30.2495 190.178 30.0695 191.068 30.7795V30.8295ZM186.908 20.9895L189.988 23.2195C189.808 23.3395 186.238 20.8695 186.908 20.9895ZM185.908 22.9895C186.978 23.7895 187.908 24.5295 188.758 25.1995L185.098 22.6795C184.056 22.0578 183.077 21.3343 182.178 20.5195C183.568 21.4095 184.818 22.2095 185.908 22.9895ZM187.248 31.1295C186.588 30.5495 186.108 30.1295 185.418 29.5995C183.768 28.5395 186.808 30.8795 185.238 29.8995C182.918 28.1195 183.958 28.0795 180.238 25.7495C181.818 26.9495 180.558 26.1395 178.688 24.9195C180.628 26.4595 179.918 26.1095 178.378 25.1895L175.498 23.5495L174.068 22.7295L172.808 22.0895C174.578 22.7495 173.128 22.0095 174.468 22.6395C174.728 22.4395 170.968 20.8395 172.018 20.9595C173.906 21.98 175.736 23.105 177.498 24.3295C179.388 25.0495 179.178 24.6995 175.618 22.8295C175.708 22.8295 177.878 23.8895 177.328 23.3195L178.938 24.3195L180.338 25.3195L183.218 27.3195C182.658 27.1495 181.368 25.9895 179.748 25.0595C180.458 25.8595 183.128 27.3195 183.488 28.0595C186.048 29.9695 186.018 29.9095 187.798 31.1695C187.798 31.2895 187.578 31.0795 187.298 30.8595C186.008 29.8595 188.618 32.1295 187.148 31.0995L187.248 31.1295ZM181.388 23.1795L183.388 24.6195C182.888 24.6195 183.828 25.2495 184.888 26.0895C185.807 26.7378 186.679 27.4495 187.498 28.2195C186.378 27.2695 183.298 25.2795 183.218 24.8295C182.218 24.2695 181.318 23.7395 180.128 22.9895C182.578 24.1195 174.038 19.3595 174.128 18.9895C175.338 19.6695 176.068 20.1695 177.028 20.7695L178.738 21.8395C179.428 22.2395 180.238 22.7695 181.258 23.4795C182.278 24.1895 180.688 22.8895 181.418 23.1595L181.388 23.1795ZM181.268 24.7495C180.404 24.2573 179.576 23.706 178.788 23.0995C179.526 23.3913 180.225 23.7742 180.868 24.2395C180.778 24.2995 180.698 24.3695 181.268 24.7495ZM184.128 28.1395C185.311 28.8899 186.437 29.7255 187.498 30.6395C186.331 29.8819 185.222 29.0396 184.178 28.1195L184.128 28.1395ZM185.538 28.1195C186.175 28.473 186.777 28.8848 187.338 29.3495C188.018 29.8895 188.548 30.4495 188.338 30.3495C187.818 29.7495 186.118 28.6195 185.548 28.0795L185.538 28.1195ZM178.278 19.9995C181.568 21.8695 179.688 21.4895 182.668 23.3895C181.795 22.9756 180.947 22.5115 180.128 21.9995C179.188 21.4995 178.128 20.9095 176.838 20.1695C177.785 20.5209 178.679 20.9986 179.498 21.5895C178.798 21.0695 179.768 21.3495 180.238 21.4395C179.968 21.1195 177.598 19.8895 178.238 19.9695L178.278 19.9995ZM174.798 14.0995C175.951 14.6232 177.05 15.2596 178.078 15.9995C177.538 15.7895 174.028 13.9995 174.838 14.1195L174.798 14.0995ZM174.148 15.7895C172.919 15.0594 171.654 14.3919 170.358 13.7895C171.138 13.9095 174.608 15.7895 174.148 15.7895ZM172.048 16.1595C170.328 15.3095 170.278 15.1595 168.248 14.2495C168.858 14.4595 169.998 14.8995 170.898 15.2495C171.798 15.5995 172.418 16.0795 172.048 16.1095V16.1595ZM169.498 10.8195C170.988 11.4695 171.938 11.9395 171.698 12.0495C170.208 11.3995 169.268 10.9195 169.498 10.8195ZM167.378 11.2895C168.378 11.5395 169.948 12.5995 171.858 13.3795C170.3 12.8593 168.779 12.2311 167.308 11.4995C167.238 11.3295 168.308 11.7495 167.378 11.2895ZM164.878 12.9995C168.422 14.4811 171.817 16.2959 175.018 18.4195C174.188 18.2595 171.778 16.7695 170.178 15.9995C170.348 15.9395 171.818 16.7195 171.858 16.6395C171.173 16.2095 170.461 15.8221 169.728 15.4795C168.078 14.7895 170.198 15.8595 169.628 15.7495L167.438 14.7495C168.558 15.0195 167.918 14.6495 166.998 14.1695C166.078 13.6895 164.858 13.1695 164.878 12.9895V12.9995ZM168.198 16.1995L168.298 15.9295C170.478 16.8595 171.478 17.4895 171.408 17.7695C170.368 17.1874 169.296 16.6633 168.198 16.1995ZM170.058 17.9995C168.658 17.6095 165.878 15.9995 164.678 15.5595L164.768 15.2895C167.768 16.4595 167.638 16.8995 170.058 17.9995ZM163.928 13.9995C164.647 14.1995 165.343 14.4709 166.008 14.8095C166.728 15.1895 167.298 15.5695 167.138 15.6195C166.079 15.0815 164.986 14.6106 163.868 14.2095C164.268 14.2995 164.788 14.3495 163.928 13.9995ZM165.378 16.7895L168.378 18.5195C167.228 17.9303 166.039 17.4224 164.818 16.9995C164.538 16.3695 162.718 15.8195 162.338 15.1795L165.338 16.8095L165.378 16.7895ZM156.498 12.2795C155.138 11.8995 155.298 11.7995 153.698 11.4095C152.788 11.5295 156.918 12.3595 156.428 12.5695C152.878 11.5695 152.988 11.1995 150.898 10.4995C152.859 10.7399 154.758 11.3436 156.498 12.2795ZM141.628 9.33945C139.188 8.88945 140.088 8.54945 137.078 8.15945C136.218 8.08945 137.308 8.27945 137.078 8.37945C134.338 8.04945 135.698 8.06945 134.798 7.85945L133.638 7.76945C134.218 7.76945 134.888 7.76945 135.588 7.85945C136.288 7.94945 137.038 8.05945 137.778 8.16945C139.238 8.42945 140.678 8.64945 141.708 8.89945L141.628 9.33945ZM142.188 9.50945C142.068 9.17945 146.428 10.2995 144.518 9.67945C147.228 9.91945 144.378 9.97945 147.298 10.5995C145.718 10.4195 143.608 9.81945 142.188 9.50945ZM146.328 9.25945C145.158 8.90945 149.148 9.76945 148.688 9.41945C149.518 9.66945 150.478 9.92945 150.348 10.0895C149.348 9.83945 149.158 9.88945 149.768 10.0295C148.518 9.94945 148.138 9.46945 146.328 9.25945ZM144.848 11.3695C145.308 11.5395 145.558 11.6895 145.358 11.8295C145.738 11.8895 146.108 11.9795 146.488 12.0595C146.908 11.8895 147.158 11.8095 149.308 12.5495C149.018 12.4195 148.738 12.2995 148.778 12.1995C151.778 12.9295 149.778 12.8295 151.478 13.3695C151.478 13.1595 150.748 12.5195 154.388 13.4995C154.728 13.2795 153.458 12.8295 152.838 12.4995C154.534 12.9418 156.179 13.5584 157.748 14.3395C156.698 14.1395 156.748 14.0695 157.128 14.4495C156.24 14.0807 155.319 13.7961 154.378 13.5995C155.668 14.1195 157.948 14.7995 160.378 15.7495C159.378 15.2795 159.378 15.3595 159.918 15.2895C161.468 15.8295 162.138 16.2895 163.668 16.8695C163.508 16.5495 160.158 15.4395 161.088 15.3995C163.106 16.1883 165.018 17.2264 166.778 18.4895C168.648 19.3695 168.178 18.8295 170.048 19.7295C170.428 20.2595 169.538 20.0395 172.418 21.5895L172.278 21.9195C170.858 21.2495 171.278 21.2495 170.278 20.7295C170.644 20.844 170.996 20.9983 171.328 21.1895C170.048 20.4195 168.538 19.6595 166.868 18.8395C165.198 18.0195 163.348 17.2295 161.398 16.3695C161.228 16.4295 162.038 16.8095 163.208 17.3095L165.208 18.1395L167.208 19.1395C167.128 19.2095 167.048 19.2895 167.648 19.5795C166.7 19.2309 165.772 18.8303 164.868 18.3795C164.253 18.0337 163.571 17.8256 162.868 17.7695L161.318 16.9295C159.978 16.4195 159.008 16.2195 158.048 15.9295C157.088 15.6395 156.128 15.3795 154.708 15.0895C156.908 15.7595 158.658 16.4195 160.198 16.9195L164.278 18.4995C167.17 19.6753 169.994 21.0107 172.738 22.4995C173.038 22.4995 172.058 21.9895 171.248 21.5695C170.098 20.8595 174.778 23.2895 175.398 23.6195C175.498 23.8095 174.868 23.4595 174.798 23.5295C176.038 24.0676 177.244 24.6821 178.408 25.3695C176.638 24.6095 181.408 27.5295 181.648 27.9795C182.758 28.6195 182.968 28.5795 183.738 28.9795C183.117 28.5237 182.446 28.1412 181.738 27.8395C180.518 26.8395 181.058 26.6695 183.458 28.3295C182.068 27.6895 184.788 29.5395 185.658 30.3295C188.162 31.9655 190.367 34.0185 192.178 36.3995C192.568 36.6695 193.408 37.3995 193.578 37.4695C193.248 37.0095 192.118 35.9795 191.498 35.3195C191.298 34.8795 193.548 37.2295 193.348 36.7895L190.208 33.8895C189.288 33.0695 188.728 32.4695 189.148 32.5195C190.618 33.6595 190.718 33.9195 192.268 35.2595C191.828 35.0195 190.798 34.0395 189.948 33.4395C192.112 35.2161 194.071 37.2285 195.788 39.4395C195.138 38.9795 194.588 38.5195 193.488 37.5995C193.818 37.9895 194.808 38.9895 195.488 39.7695C194.976 39.4646 194.533 39.0558 194.188 38.5695C193.558 38.3395 195.518 40.1495 195.648 40.5095C195.358 40.4595 193.648 38.4495 192.648 37.7095C192.888 37.7595 192.388 37.2995 191.868 36.8195C192.538 37.1995 191.738 36.4895 192.868 37.3695C192.288 36.7495 190.318 35.0995 191.718 35.9695L190.398 34.7895C190.538 35.2195 191.548 36.1395 190.558 35.5895C188.078 33.5095 188.998 33.6895 186.248 31.5295C187.308 32.0495 188.938 33.7795 189.988 34.3495C189.718 33.8695 188.788 33.4995 187.698 32.5095C187.528 32.1795 186.518 31.2595 187.428 31.8395C185.658 30.3095 186.358 31.3095 184.538 29.8395C185.538 30.8395 185.228 30.6895 186.218 31.5795C185.379 31.0885 184.577 30.537 183.818 29.9295C186.548 31.9295 187.128 32.8595 190.078 35.2395C190.548 35.9095 187.448 33.4495 188.518 34.4295C187.711 33.8977 186.946 33.306 186.228 32.6595C187.048 33.1495 186.228 32.5495 186.378 32.4195C184.808 31.0495 184.628 31.2495 182.598 29.7395C183.598 30.1795 182.408 29.3195 181.298 28.5095C180.188 27.6995 181.838 28.9895 180.708 28.3795C179.418 27.4795 178.628 26.9195 177.888 26.4395C177.148 25.9595 176.418 25.6495 175.288 25.1195C174.468 24.5895 175.048 24.7895 175.848 25.2795C173.538 23.8395 171.208 22.7695 168.238 21.2795C168.598 21.6995 169.518 21.8695 171.238 22.8595C170.238 22.4495 170.528 22.6695 170.178 22.5995C165.357 20.0155 160.342 17.8121 155.178 16.0095C155.228 16.0095 155.178 15.9395 155.028 15.8295C154.588 15.7095 154.168 15.4595 153.328 15.1095C152.908 14.9395 152.378 14.7295 151.698 14.4995C150.845 14.2081 149.973 13.9776 149.088 13.8095C148.638 13.5295 148.638 13.5095 149.158 13.4495C147.595 13.1619 146.064 12.7197 144.588 12.1295C143.589 11.6438 142.535 11.2812 141.448 11.0495C142.596 10.9647 143.751 11.0626 144.868 11.3395L144.848 11.3695ZM134.078 9.78945C132.938 9.47945 136.348 9.71945 134.678 9.53945C135.908 9.53945 141.338 10.6995 140.298 10.8295C139.658 10.7395 139.988 10.7195 140.298 10.7595C139.188 10.4395 135.568 9.99945 134.068 9.75945L134.078 9.78945ZM127.778 10.2595C129.538 10.3795 129.908 10.3395 128.348 10.1995L130.078 10.2595C130.828 10.2595 131.698 10.3995 132.558 10.4895C133.812 10.5573 135.054 10.7721 136.258 11.1295C134.088 10.8895 133.658 10.6795 131.188 10.5195C131.868 10.6695 133.338 10.7795 133.998 10.9295L133.348 10.8795C131.488 10.6461 129.631 10.4595 127.778 10.3195C127.778 10.3195 127.778 10.3195 127.778 10.2595ZM39.708 194.419C38.9108 193.578 38.1724 192.682 37.498 191.739L38.598 192.899C38.988 193.279 39.408 193.689 39.908 194.209L39.708 194.419ZM43.638 198.539C42.948 197.789 42.138 197.019 41.298 196.069C42.048 196.779 43.048 197.619 44.008 198.519L45.498 199.839L46.888 200.999C45.988 200.869 49.368 203.539 49.648 203.999C48.2191 203.002 46.8806 201.881 45.648 200.649C44.988 200.059 44.3881 199.339 43.648 198.649L43.638 198.539ZM47.208 214.359C47.568 214.189 48.938 215.599 50.208 216.569C51.318 217.569 48.558 215.319 47.208 214.359ZM75.598 229.599C75.0334 229.371 74.5073 229.058 74.038 228.669C72.438 228.119 74.798 229.169 73.388 228.729C72.238 228.259 71.0281 227.819 69.9081 227.299C68.788 226.779 67.678 226.299 66.688 225.889C66.808 226.119 68.568 226.889 68.238 226.979C67.866 226.805 67.4726 226.681 67.068 226.609C66.258 226.209 67.328 226.609 67.148 226.409C63.198 225.039 60.778 223.409 53.228 218.639C53.348 218.639 53.778 218.909 53.808 218.849C52.628 218.039 51.808 217.499 51.318 217.099C51.0788 216.936 50.8546 216.752 50.648 216.549C50.708 216.549 51.648 217.269 52.958 218.099C54.268 218.929 55.958 220.099 57.478 220.919C58.998 221.739 60.288 222.499 60.768 222.729C60.598 222.949 62.538 223.909 62.768 224.259C63.7095 224.658 64.6217 225.123 65.498 225.649C65.608 225.559 64.8881 225.169 65.058 225.099C63.9345 224.618 62.8452 224.06 61.798 223.429C62.3707 223.642 62.9257 223.9 63.458 224.199C65.358 225.199 63.458 223.999 64.618 224.559C68.068 226.559 70.418 226.989 75.768 229.179C76.248 229.549 78.438 230.259 78.498 230.549C77.5069 230.303 76.5398 229.968 75.608 229.549L75.598 229.599ZM52.498 205.719C53.498 206.459 53.918 206.829 53.748 206.909C51.488 205.279 54.698 207.799 53.138 206.819C52.548 206.299 51.068 205.059 51.538 205.119C51.918 205.409 51.948 205.489 51.948 205.539C52.948 206.309 51.468 205.009 52.498 205.719ZM55.628 219.279C60.228 222.079 56.818 220.279 60.798 222.599C59.688 222.079 58.318 221.319 56.718 220.389C55.118 219.459 53.348 218.229 51.358 216.879C52.788 217.589 55.208 219.389 55.628 219.279ZM57.128 208.999C58.328 209.789 59.548 210.589 59.388 210.719C58.028 209.849 56.808 209.059 57.128 208.999ZM71.388 227.119C69.838 226.249 73.388 227.649 74.208 228.119C73.898 228.259 71.208 226.809 71.388 227.119ZM85.888 233.249C85.328 233.129 85.448 233.049 85.338 232.969C84.9622 232.83 84.5681 232.746 84.168 232.719C83.108 232.259 84.108 232.489 85.088 232.789C86.068 233.089 87.088 233.369 85.888 233.249ZM80.798 231.249C82.0881 231.739 84.028 232.119 86.588 232.809C86.588 233.119 80.5881 231.439 80.798 231.249ZM91.798 234.589C90.798 234.399 90.468 234.209 90.6581 234.089C91.6581 234.269 93.598 234.669 93.028 234.359L94.208 234.559C94.508 234.669 94.808 234.779 94.778 234.879C92.028 234.489 90.778 234.089 91.778 234.589H91.798ZM88.938 233.409C88.858 233.219 90.998 233.869 91.868 233.939C92.298 233.809 90.668 233.599 90.138 233.379C89.3394 233.38 88.5459 233.251 87.788 232.999C88.028 232.789 89.418 233.179 88.448 232.699C90.048 233.029 88.948 233.089 90.138 233.379C90.248 233.149 92.788 233.829 91.368 233.259C93.368 233.709 94.078 233.749 96.628 234.139C96.168 234.139 95.9781 234.209 96.008 234.349C97.6095 234.37 99.1957 234.664 100.698 235.219C96.7384 234.91 92.8075 234.305 88.938 233.409ZM92.558 233.309C93.558 233.379 94.638 233.489 95.768 233.599C96.898 233.709 98.038 233.729 99.038 233.769C99.038 233.979 97.488 233.829 97.248 233.989C95.248 233.629 94.898 233.739 92.558 233.309ZM98.288 223.859C99.2086 223.867 100.119 224.054 100.968 224.409C99.5881 224.229 98.188 224.059 98.288 223.859ZM105.028 231.369C105.758 231.179 105.848 231.269 106.178 231.079C106.938 231.149 107.698 231.149 108.468 231.169C108.988 231.499 107.248 231.579 105.028 231.369ZM116.248 225.899C117.513 225.647 118.811 225.609 120.088 225.789C118.088 225.789 118.088 225.949 116.248 225.899ZM122.468 233.849C121.468 233.909 121.128 233.849 121.268 233.649L123.028 233.509C123.278 233.639 122.638 233.729 122.468 233.849ZM128.268 224.719C129.47 224.204 130.698 223.754 131.948 223.369C130.428 223.859 132.948 223.519 133.118 223.649C131.118 223.919 130.488 224.279 128.268 224.719ZM132.788 225.619L129.608 226.179C129.498 226.009 131.218 225.679 132.608 225.439C133.998 225.199 134.958 224.929 133.428 225.169C134.188 224.739 134.788 224.999 136.158 224.599C135.878 224.729 135.608 224.849 135.648 224.939C134.308 225.289 133.588 225.469 132.818 225.619H132.788ZM135.668 225.019C137.388 224.709 135.978 225.099 136.828 225.119C135.208 225.519 134.828 225.309 135.668 225.019ZM133.398 224.299C132.114 224.672 130.808 224.962 129.488 225.169C128.368 224.949 133.488 224.469 133.758 223.889L136.988 223.129C135.988 223.469 134.718 223.899 133.398 224.299ZM143.208 222.719C142.208 223.089 140.988 223.519 139.458 223.979C138.858 223.979 140.628 223.509 141.568 223.219C141.158 223.269 140.568 223.399 139.918 223.549C143.368 222.269 139.238 223.449 143.018 222.119L141.948 222.429C140.788 222.509 142.048 221.769 143.948 221.349C142.868 221.969 142.298 221.969 143.518 221.879C143.068 222.019 143.028 222.069 143.008 222.119C144.688 221.499 144.148 221.939 145.178 221.619C144.562 222.071 143.889 222.44 143.178 222.719H143.208ZM143.008 221.219C142.008 221.559 141.258 221.779 141.128 221.589C142.918 220.959 143.678 220.829 145.868 220.059C145.068 220.349 143.958 220.839 143.008 221.219ZM147.468 219.589C146.938 219.589 145.668 219.839 146.798 219.279C144.528 219.969 142.868 221.069 141.558 221.009C142.638 220.639 143.798 220.509 144.128 220.009L141.538 221.009L139.618 221.789C138.918 222.077 138.204 222.327 137.478 222.539C136.618 222.749 135.558 222.979 134.158 223.229C135.618 222.699 135.008 222.859 134.158 223.009C134.938 222.709 136.538 222.339 136.218 222.149C134.528 222.529 133.088 222.949 131.918 223.229C131.034 223.421 130.17 223.696 129.338 224.049C128.578 224.139 129.208 223.789 128.208 223.959C127.148 224.299 128.098 224.179 128.788 224.149C128.086 224.354 127.366 224.495 126.638 224.569C126.638 224.479 127.318 224.379 127.148 224.279C126.6 224.341 126.06 224.461 125.538 224.639C124.992 224.524 124.431 224.5 123.878 224.569C122.028 225.079 125.128 224.669 125.018 224.929C123.088 225.35 121.113 225.535 119.138 225.479C119.138 225.659 116.138 225.659 116.288 225.799C115.208 225.649 116.718 225.519 118.288 225.439C116.548 225.329 114.868 225.089 112.398 225.109C112.398 225.429 108.798 224.949 108.038 225.249V224.999C106.278 224.899 107.278 225.219 105.838 225.109C104.948 224.899 105.838 225.019 105.838 224.819C104.228 224.709 102.538 224.599 102.598 224.379C103.198 224.379 104.968 224.499 106.858 224.599C108.748 224.699 110.768 224.599 111.858 224.599C111.198 224.599 110.568 224.599 110.768 224.439C109.102 224.517 107.432 224.497 105.768 224.379L102.768 224.159C101.708 224.069 100.598 223.889 99.398 223.749C100.848 223.749 98.398 223.519 98.398 223.329C99.1171 223.441 99.849 223.441 100.568 223.329C99.6263 223.102 98.671 222.935 97.708 222.829C97.0333 222.774 96.3802 222.565 95.798 222.219C94.3081 221.899 94.418 222.089 93.128 221.839C92.978 222.049 94.028 222.309 93.578 222.509C95.468 222.949 93.928 222.319 95.208 222.569C95.408 222.729 95.898 222.669 96.808 222.839C97.348 223.029 97.298 223.209 97.808 223.369C95.668 223.069 94.0981 222.749 92.9781 222.489C92.2623 222.339 91.5719 222.086 90.928 221.739C90.988 222.069 88.998 221.649 88.708 221.839C86.208 221.049 85.9781 221.309 83.968 220.569C83.4118 220.61 82.8526 220.57 82.308 220.449C80.388 219.689 78.4481 218.809 76.1581 218.029C75.4042 217.559 74.6265 217.129 73.828 216.739C72.9781 216.289 72.008 215.809 70.768 215.179C72.658 216.359 69.048 215.099 71.9781 216.669C71.4881 216.529 70.108 215.849 70.388 216.189C72.808 217.309 69.788 215.949 70.308 216.389C72.028 217.219 71.058 216.389 72.918 217.329C73.978 217.969 72.398 217.329 73.308 217.899C74.548 218.549 74.998 218.269 75.378 218.659C74.6786 218.561 74.0018 218.341 73.378 218.009C72.548 217.609 71.788 217.169 71.848 217.079C71.0175 216.91 70.1991 216.686 69.398 216.409C68.2781 215.961 67.2061 215.402 66.198 214.739C67.898 215.449 65.088 213.829 66.338 214.409C67.105 214.938 67.9626 215.321 68.868 215.539C66.048 214.339 69.138 215.409 67.028 214.199C66.2801 214.025 65.5552 213.763 64.868 213.419C63.978 212.969 62.928 212.419 61.868 211.789C60.808 211.159 59.708 210.429 58.678 209.789C57.648 209.149 56.678 208.469 55.938 207.879C55.938 207.809 56.348 208.069 56.468 208.079C54.938 206.909 55.738 207.909 54.078 206.619C53.938 206.349 54.918 206.699 53.358 205.619C54.078 206.439 53.238 206.019 52.188 205.259C51.3091 204.575 50.376 203.963 49.398 203.429C49.078 202.839 50.458 203.999 50.928 204.209C41.798 196.639 35.318 188.999 32.498 183.799C34.218 186.639 36.318 188.799 37.638 190.799C38.238 191.409 39.298 192.799 39.288 192.379C37.688 190.379 36.128 188.679 34.838 186.839C34.188 185.929 33.508 185.069 32.898 184.179L31.138 181.469C30.538 180.589 29.998 179.659 29.478 178.709C28.958 177.759 28.408 176.809 27.868 175.829C26.868 173.829 25.798 171.729 24.868 169.339C24.6506 168.176 24.2631 167.05 23.718 165.999C24.238 167.339 23.548 166.219 23.318 165.539C22.628 163.829 23.448 164.999 22.998 163.759C22.1051 161.575 21.4188 159.312 20.948 156.999C21.078 157.099 21.358 157.869 21.498 157.999C20.818 155.889 21.148 155.789 20.328 153.469C20.328 153.263 20.298 153.063 20.238 152.869C20.588 153.819 20.948 154.759 21.328 155.699C21.5362 156.813 21.9033 157.891 22.418 158.899C22.258 158.339 22.068 157.669 21.888 157.079C31.9504 181.257 50.5825 200.87 74.2125 212.158C97.8425 223.446 124.807 225.615 149.938 218.249C150.528 218.309 148.518 219.099 147.438 219.529L147.468 219.589ZM151.438 226.649C149.438 227.299 151.528 226.109 153.438 225.289C154.288 225.349 151.638 226.289 151.438 226.649ZM184.118 208.349C184.118 208.089 184.808 207.479 186.298 206.179L186.418 206.359C185.711 207.091 184.941 207.76 184.118 208.359V208.349ZM188.588 197.439L189.828 196.369C188.668 197.469 188.128 198.159 187.448 198.659C187.748 198.309 188.148 197.889 188.588 197.439ZM190.858 200.179C191.664 199.276 192.529 198.428 193.448 197.639C192.681 198.579 191.812 199.431 190.858 200.179ZM193.858 197.259C193.948 197.029 194.538 196.399 194.568 196.259C193.778 197.099 193.118 197.779 192.568 198.259C192.224 198.589 191.837 198.872 191.418 199.099C190.346 200.297 189.19 201.417 187.958 202.449C189.438 200.819 190.818 199.449 192.248 198.129C193.678 196.809 195.038 195.439 196.478 193.889C196.078 194.459 196.228 194.399 196.968 193.529C196.045 194.884 194.99 196.143 193.818 197.289L193.858 197.259ZM195.698 193.909C195.283 194.605 194.768 195.235 194.168 195.779C193.328 196.649 192.168 197.779 190.718 199.179C190.618 199.069 191.388 198.319 192.258 197.479L194.488 195.279C193.968 195.379 194.648 194.369 194.488 194.279C194.328 194.189 194.168 194.449 193.488 195.139C192.808 195.829 191.658 197.039 189.708 198.839C190.168 198.119 190.978 197.239 191.998 196.009C191.878 196.009 191.218 196.759 190.688 197.219C191.788 196.079 192.978 194.699 194.318 193.299C195.658 191.899 196.978 190.299 198.418 188.659C199.858 187.019 201.208 185.279 202.528 183.519C203.848 181.759 205.178 179.989 206.308 178.199C206.054 178.757 205.753 179.293 205.408 179.799C204.938 180.519 204.308 181.359 203.668 182.229C203.028 183.099 202.498 183.999 201.898 184.779C201.298 185.559 200.798 186.199 200.498 186.659C201.168 186.119 202.788 184.049 203.338 183.549C202.585 184.753 201.753 185.905 200.848 186.999C201.673 186.415 202.357 185.653 202.848 184.769C202.948 184.719 202.758 185.009 202.518 185.299C202.518 185.399 202.638 185.249 202.808 185.039C201.248 187.039 200.388 188.469 198.948 190.269C199.268 190.019 199.948 189.269 199.888 189.499C198.598 190.769 196.828 193.169 195.758 193.899L195.698 193.909ZM202.388 187.689C201.188 188.909 204.008 185.359 205.208 183.629C205.358 183.629 204.718 184.539 204.028 185.489C203.44 186.191 202.892 186.925 202.388 187.689ZM201.928 189.829C201.738 189.759 202.728 188.499 203.708 187.259C204.038 187.189 203.048 188.449 201.928 189.829ZM201.838 191.499C201.299 192.119 200.728 192.71 200.128 193.269C200.972 192.091 201.883 190.962 202.858 189.889C203.138 189.809 201.058 192.079 201.858 191.499H201.838ZM205.018 187.639C204.698 188.019 204.588 188.079 204.188 188.569C203.884 189.121 203.529 189.644 203.128 190.129C203.671 188.982 204.39 187.926 205.258 186.999C205.098 187.309 204.938 187.589 205.018 187.639ZM204.698 185.639C205.078 184.569 206.698 183.229 207.498 181.529C207.878 181.409 206.818 182.849 207.978 181.929C206.308 184.199 206.718 182.769 204.698 185.639ZM209.968 177.159C208.748 178.949 208.068 179.609 207.968 180.309C207.058 181.689 206.618 181.989 205.688 183.209C206.409 181.973 207.194 180.775 208.038 179.619C209.165 178.116 210.168 176.524 211.038 174.859C210.747 175.655 210.389 176.424 209.968 177.159ZM212.208 171.159C211.258 172.879 210.998 172.969 209.948 174.849C210.235 174.548 210.483 174.212 210.688 173.849C210.206 174.755 209.658 175.624 209.048 176.449C209.118 176.169 210.048 174.749 209.468 175.229C210.748 173.359 211.866 171.381 212.808 169.319C212.568 169.979 211.968 171.169 212.208 171.139V171.159ZM212.558 170.639C212.428 170.639 214.188 167.429 212.978 169.429C213.386 168.481 213.853 167.559 214.378 166.669C214.29 167.085 214.153 167.488 213.968 167.869C214.218 167.549 214.708 166.649 214.728 166.869C214.084 168.164 213.36 169.416 212.558 170.619V170.639ZM215.698 166.749C215.818 166.339 216.268 165.409 216.068 165.509C216.618 164.449 217.268 163.089 217.338 163.349C216.788 164.489 216.248 165.619 215.698 166.749ZM220.248 153.999L219.188 156.619C218.828 157.439 218.498 158.189 218.238 158.869C218.468 158.119 218.798 157.269 219.138 156.339C219.478 155.409 219.818 154.439 220.198 153.479C220.998 151.569 221.678 149.639 222.198 148.309C221.938 149.259 221.638 150.229 221.318 151.189C220.998 152.149 220.578 153.089 220.218 153.999H220.248ZM224.498 143.749C224.328 144.609 224.678 143.519 224.348 145.049C223.888 146.049 222.908 149.639 222.148 151.049C222.312 150.434 222.533 149.834 222.808 149.259C222.808 148.469 223.408 147.529 223.208 147.369C223.658 145.959 224.008 144.519 224.418 143.089C224.488 143.089 223.328 147.449 224.668 143.169C224.988 142.339 224.668 143.169 224.498 143.789V143.749ZM225.078 139.719C224.928 140.299 224.778 140.929 224.608 141.579C224.438 142.229 224.238 142.919 224.058 143.639C224.148 142.459 225.438 136.919 225.708 136.829C225.608 137.569 225.358 138.559 225.078 139.719ZM225.928 96.7895C225.928 96.2895 225.928 96.0795 226.088 96.1095L226.398 97.9995L226.608 99.8995C226.388 98.5294 226.248 98.5195 225.928 96.7895ZM226.808 79.7895C227.296 81.2274 227.71 82.6893 228.048 84.1694C228.383 85.4882 228.65 86.8233 228.848 88.1694C228.748 87.7994 228.568 87.0594 228.358 86.1694C228.148 85.2794 227.828 84.2695 227.568 83.2895C227.058 81.2895 226.568 79.6195 226.808 79.7495V79.7895ZM227.498 99.0994C227.348 98.6495 226.948 95.4694 227.178 95.8794C227.387 96.9401 227.495 98.0183 227.498 99.0994ZM228.168 137.649C227.638 139.889 227.078 141.929 226.928 141.829C227.388 139.899 227.818 138.069 228.208 136.439C228.598 134.809 228.808 133.369 229.028 132.259C228.885 134.076 228.598 135.879 228.168 137.649ZM228.808 111.939C228.866 113.02 228.842 114.103 228.738 115.179C228.753 115.62 228.807 116.058 228.898 116.489C228.848 118.189 228.718 118.059 228.638 119.369C228.638 118.369 228.638 117.369 228.688 116.299C228.688 115.589 228.688 114.849 228.738 114.029V111.299C228.879 110.904 228.953 110.489 228.958 110.069C229.029 109.181 229.029 108.288 228.958 107.399C229.208 108.079 229.098 111.489 229.168 113.249C228.958 113.799 228.948 112.249 228.818 111.939H228.808ZM229.508 96.1395C229.823 97.6498 229.994 99.1868 230.018 100.729C230.018 100.659 229.778 99.3095 229.638 98.0795C229.498 96.8494 229.318 95.7495 229.508 96.1395ZM229.788 131.079C229.801 129.973 229.901 128.87 230.088 127.779H230.278C229.938 129.829 230.068 129.519 229.788 131.049V131.079ZM230.618 118.499C230.618 119.499 230.538 120.389 230.438 121.339C230.258 123.219 230.118 125.279 229.608 128.339C230.128 124.499 230.298 118.399 230.738 115.219C230.738 116.459 230.658 117.519 230.618 118.499ZM230.758 114.559C230.488 114.909 230.568 110.819 230.438 109.269C230.638 108.779 230.588 111.089 230.788 110.589C230.858 112.589 230.708 112.539 230.788 114.589L230.758 114.559ZM231.168 100.589C230.868 99.7894 231.358 102.739 231.058 101.949C231.308 102.949 231.348 104.949 231.138 104.609C231.117 102.936 230.99 101.266 230.758 99.6095C230.658 98.7995 230.568 98.0695 230.508 97.5395C230.448 97.0095 230.368 96.6795 230.368 96.6795C230.228 95.1395 231.008 98.4395 230.438 94.6795C230.748 95.6897 230.933 96.7342 230.988 97.7895C231.088 99.1694 231.198 100.789 231.458 102.649C231.288 103.129 231.198 101.289 231.168 100.649V100.589ZM221.848 162.999C221.478 163.479 220.848 164.109 221.118 163.339C221.783 161.73 222.632 160.203 223.648 158.789L221.848 162.999ZM229.958 139.789C229.684 141.394 229.29 142.975 228.778 144.519C228.728 144.199 229.168 142.649 228.778 143.139C229.498 140.029 229.408 140.399 230.118 137.299C230.233 138.134 230.168 138.982 229.928 139.789" fill="currentColor"/>
<path d="M53.7979 204.739C53.3979 204.179 54.5879 205.099 54.7979 205.149C54.2879 204.649 53.6379 204.059 52.7979 203.299C51.9579 202.539 50.9579 201.739 49.7979 200.689C49.2479 200.949 53.2479 203.899 53.7979 204.739Z" fill="currentColor"/>
<path d="M54.1074 203.189C52.3274 201.819 50.7774 200.429 50.6074 200.539C51.6727 201.549 52.8465 202.438 54.1074 203.189Z" fill="currentColor"/>
<path d="M37.6089 188.399C37.8089 188.339 38.4689 188.999 38.6689 188.929C37.2889 187.039 36.1789 186.639 37.6089 188.399Z" fill="currentColor"/>
<path d="M167.238 20.5705C168.477 21.0921 169.66 21.7388 170.768 22.5005C170.768 22.3905 171.068 22.5005 171.368 22.5605C168.428 21.0205 168.988 20.8205 166.368 19.5605C166.368 19.6505 166.568 19.8205 166.828 20.0005C166.488 19.8256 166.129 19.6914 165.758 19.6005C167.918 20.4705 168.338 20.9205 167.228 20.6005" fill="currentColor"/>
<path d="M22.2773 160.869C22.4389 161.428 22.6602 161.968 22.9373 162.479C22.7816 162.123 22.6643 161.751 22.5873 161.369C22.9823 162.668 23.4909 163.93 24.1073 165.139C23.3173 162.879 22.7073 160.909 22.2773 160.869Z" fill="currentColor"/>
<path d="M40.358 192.859C40.728 192.859 39.648 191.389 38.748 190.449C39.1821 191.317 39.723 192.126 40.358 192.859Z" fill="currentColor"/>
<path d="M38.4982 43.8594L38.4082 43.9594L38.4982 43.8594Z" fill="currentColor"/>
<path d="M54.6177 205.51C55.9777 206.51 55.8677 206.11 56.1777 206.12C55.3997 205.584 54.5049 205.241 53.5677 205.12C52.8969 204.471 52.1671 203.885 51.3877 203.37C51.3877 203.21 51.6877 203.27 51.1077 202.78C50.2777 202.41 48.6777 200.52 48.4277 200.78L49.6977 202L50.9477 203.1L53.3577 205.16C54.1877 205.78 55.0477 206.41 55.9577 207.05C56.4177 207.38 56.8877 207.72 57.3977 208.05L59.0077 209.05C57.0077 207.67 54.8877 206.25 54.6177 205.56" fill="currentColor"/>
<path d="M78.7671 218.64C79.6171 218.64 79.3771 218.85 80.8371 219.32L80.9171 219.04C80.0363 218.812 79.1739 218.517 78.3371 218.16C78.3371 218.3 78.0771 218.36 78.7671 218.64Z" fill="currentColor"/>
<path d="M102.617 223.819C103.883 223.777 105.15 223.834 106.407 223.989C107.747 224.149 109.267 224.209 111.267 224.289C110.797 224.219 108.857 224.009 106.927 223.849C104.997 223.689 103.077 223.509 102.617 223.849" fill="currentColor"/>
<path d="M167.278 18.7695C166.497 18.4121 165.736 18.0115 164.998 17.5695C164.393 17.2196 163.744 16.9507 163.068 16.7695C163.648 17.0295 164.418 17.4295 165.188 17.7695C165.849 18.1733 166.549 18.5084 167.278 18.7695Z" fill="currentColor"/>
<path d="M42.6784 192.571C41.8686 191.621 40.9966 190.725 40.0684 189.891C41.6239 191.98 43.4083 193.888 45.3884 195.581C44.9684 195.161 44.5184 194.681 44.0484 194.181C43.5784 193.681 43.1384 193.101 42.6784 192.571Z" fill="currentColor"/>
<path d="M42.7174 195.09L41.0174 193C40.7374 192.92 41.8174 194.26 42.9574 195.53C43.6397 196.294 44.3821 197.003 45.1774 197.65C44.1774 196.65 43.3574 195.84 42.7174 195.11" fill="currentColor"/>
<path d="M47.7185 198.889C45.4085 196.679 46.7185 198.889 47.8885 199.599C46.7885 198.449 47.6085 199.099 47.7185 198.889Z" fill="currentColor"/>
<path d="M192.378 196.349C192.038 196.349 193.378 195.039 193.378 194.789C191.708 196.479 192.088 196.569 191.088 197.629C191.528 197.219 191.948 196.789 192.358 196.349" fill="currentColor"/>
<path d="M118.928 225.34H118.248H119.058C119.058 225.34 119.058 225.34 118.928 225.27" fill="currentColor"/>
<path d="M130.579 9.81932C131.542 9.99136 132.513 10.1149 133.489 10.1893C133.699 10.0193 132.619 9.82932 131.309 9.67932C130.143 9.55365 128.97 9.51355 127.799 9.55932C128.73 9.58961 129.658 9.67643 130.579 9.81932Z" fill="currentColor"/>
<path d="M121.498 8.15039C120.178 8.15039 118.038 8.53039 119.778 8.50039C119.838 8.15039 121.088 8.61039 123.228 8.39039V8.69039C125.588 8.48039 126.778 9.00039 127.828 8.83039C126.668 8.68455 125.517 8.47759 124.378 8.21039C123.928 8.39039 120.808 8.39039 121.488 8.15039" fill="currentColor"/>
<path d="M118.548 8.00076C118.438 8.32076 116.398 8.09076 115.678 8.38076C116.063 8.32933 116.453 8.32933 116.838 8.38076C116.453 8.39712 116.071 8.45411 115.698 8.55076C116.85 8.49271 117.998 8.37589 119.138 8.20076C119.038 8.10076 119.328 7.91076 118.548 7.95076" fill="currentColor"/>
<path d="M115.098 8.44084C115.288 8.14084 112.598 8.60084 111.628 8.64084C111.448 8.93084 114.128 8.40084 115.098 8.44084Z" fill="currentColor"/>
<path d="M112.149 2.58053C109.599 2.99053 109.089 2.95053 107.969 3.21053C109.839 2.93053 111.969 3.01053 113.379 2.64053C112.529 2.73053 112.669 2.57053 112.149 2.58053Z" fill="currentColor"/>
<path d="M137.198 6.70047C135.622 6.66387 134.05 6.50675 132.498 6.23047C132.888 6.58047 132.178 6.73047 135.388 7.02047C135.148 6.68047 136.628 7.17047 138.308 7.28047C138.428 7.08047 136.308 6.90047 137.178 6.70047" fill="currentColor"/>
<path d="M154.688 9.50063C152.158 8.44063 147.788 7.44063 146.128 6.70063C145.988 6.88063 144.178 6.56063 143.738 6.70063L146.278 7.35063C147.15 7.6244 148.043 7.82509 148.948 7.95063C148.553 7.86711 148.169 7.73266 147.808 7.55063L151.448 8.55063L154.688 9.55063" fill="currentColor"/>
<path d="M116.588 224.459C117.531 224.405 118.47 224.291 119.398 224.119C117.578 224.379 114.398 224.289 113.398 224.489C114.318 224.489 115.458 224.489 116.558 224.489" fill="currentColor"/>
<path d="M106.428 9.15921C107.498 8.99921 109.128 8.99921 109.898 8.78921C108.729 8.7415 107.56 8.86617 106.428 9.15921Z" fill="currentColor"/>
<path d="M149.648 13.8205C151.908 14.1705 150.978 14.2805 152.918 14.8205C154.088 14.9505 152.368 14.3105 152.458 14.2405C151.807 14.1021 151.17 13.9012 150.558 13.6405C149.556 13.3108 148.538 13.0337 147.508 12.8105V12.9505C148.698 13.3605 151.208 13.8305 149.668 13.8105" fill="currentColor"/>
<path d="M222.498 156.741C222.378 157.661 223.058 158.191 224.698 152.741C224.161 154.155 223.55 155.54 222.868 156.891C223.658 154.641 224.238 153.971 224.448 152.631C224.118 153.665 223.7 154.668 223.198 155.631C223.496 154.589 223.85 153.564 224.258 152.561C223.848 152.821 223.408 154.561 222.498 156.721" fill="currentColor"/>
<path d="M159.718 15.8903C158.691 15.3638 157.632 14.8996 156.548 14.5003C155.276 14.0202 153.973 13.626 152.648 13.3203C153.768 13.7003 155.178 14.1303 156.458 14.6703C157.738 15.2103 158.938 15.6703 159.718 15.8903Z" fill="currentColor"/>
<path d="M100.778 7.48078C100.778 7.48078 100.668 7.41078 100.178 7.54078C100.068 7.74078 101.418 7.54078 102.838 7.24078C103.92 7.10641 104.988 6.87549 106.028 6.55078C105.129 6.63802 104.237 6.78839 103.358 7.00078C102.509 7.22351 101.648 7.39384 100.778 7.51078" fill="currentColor"/>
<path d="M105.548 3.42906C103.333 3.66751 101.144 4.10597 99.0078 4.73906C99.6478 4.67906 102.258 4.01906 104.248 3.73906C106.238 3.45906 107.558 3.13906 105.548 3.43906" fill="currentColor"/>
<path d="M148.25 117.878L96.4992 147.756L96.4992 88L148.25 117.878Z" fill="white"/>
</g>
<defs>
<clipPath id="clip0_3038_7722">
<rect width="237.004" height="237" fill="white" transform="translate(0.498047)"/>
</clipPath>
</defs>
</svg>
