<svg width="32" height="33" viewBox="0 0 32 33" fill="none" xmlns="http://www.w3.org/2000/svg">
<path d="M16.6673 7.14844C16.6673 7.14844 8.30407 7.14658 6.24693 7.72106C5.10407 8.05782 4.18934 8.98887 3.88458 10.1972C3.3322 12.3565 3.33398 16.9139 3.33398 16.9139C3.33398 16.9139 3.3322 21.4709 3.88458 23.6499C4.18934 24.8385 5.10407 25.7511 6.24693 26.0681C8.30407 26.6426 16.6673 26.6407 16.6673 26.6407C16.6673 26.6407 25.0306 26.6426 27.0877 26.0681C28.2306 25.7313 29.1453 24.839 29.4501 23.6306C30.0024 21.4713 30.0007 16.9139 30.0007 16.9139C30.0007 16.9139 30.0024 12.3763 29.4501 10.1972C29.1453 8.98887 28.2306 8.05782 27.0877 7.72106C25.0306 7.14658 16.6673 7.14844 16.6673 7.14844ZM12.8578 11.2612L22.3816 16.9178L12.8578 22.5472V11.2612Z" fill="black"/>
</svg>
