<svg width="32" height="32" viewBox="0 0 32 32" fill="none" xmlns="http://www.w3.org/2000/svg">
<path d="M16.6673 6.26172C16.6673 6.26172 8.30407 6.25986 6.24693 6.83434C5.10407 7.1711 4.18934 8.10215 3.88458 9.31053C3.3322 11.4698 3.33398 16.0272 3.33398 16.0272C3.33398 16.0272 3.3322 20.5842 3.88458 22.7632C4.18934 23.9518 5.10407 24.8644 6.24693 25.1814C8.30407 25.7558 16.6673 25.754 16.6673 25.754C16.6673 25.754 25.0306 25.7558 27.0877 25.1814C28.2306 24.8446 29.1453 23.9522 29.4501 22.7439C30.0024 20.5846 30.0007 16.0272 30.0007 16.0272C30.0007 16.0272 30.0024 11.4896 29.4501 9.31053C29.1453 8.10215 28.2306 7.1711 27.0877 6.83434C25.0306 6.25986 16.6673 6.26172 16.6673 6.26172ZM12.8578 10.3745L22.3816 16.0311L12.8578 21.6605V10.3745Z" fill="#F0F0F0"/>
</svg>
