<?xml version="1.0" standalone="no"?>
<!DOCTYPE svg PUBLIC "-//W3C//DTD SVG 20010904//EN"
 "http://www.w3.org/TR/2001/REC-SVG-20010904/DTD/svg10.dtd">
<svg version="1.0" xmlns="http://www.w3.org/2000/svg"
 width="722.000000pt" height="722.000000pt" viewBox="0 0 722.000000 722.000000"
 preserveAspectRatio="xMidYMid meet">
<metadata>
Created by potrace 1.14, written by Peter Selinger 2001-2017
</metadata>
<g transform="translate(0.000000,722.000000) scale(0.100000,-0.100000)"
fill="#000000" stroke="none">
<path d="M3250 7135 c-358 -33 -654 -106 -1011 -251 -117 -47 -405 -189 -414
-204 -4 -6 -24 -18 -46 -27 -21 -8 -39 -18 -39 -22 0 -5 -11 -13 -23 -18 -32
-15 -273 -187 -377 -270 -105 -84 -396 -372 -477 -473 -143 -179 -361 -502
-367 -546 -1 -6 -8 -19 -15 -27 -7 -9 -14 -23 -15 -30 -1 -8 -7 -21 -13 -28
-6 -8 -30 -54 -53 -104 -23 -49 -47 -98 -52 -109 -6 -10 -6 -16 -1 -13 5 4 10
-1 10 -9 0 -8 -6 -13 -13 -10 -8 3 -13 -2 -12 -12 1 -9 0 -26 -1 -37 -1 -17
-3 -18 -11 -5 -7 10 -10 11 -11 3 -2 -18 -4 -24 -18 -58 -7 -16 -14 -37 -16
-45 -2 -8 -4 -16 -5 -17 -15 -22 17 -93 34 -76 3 4 6 0 6 -8 0 -8 -4 -19 -9
-24 -6 -6 -12 -21 -15 -35 -9 -48 -31 -125 -37 -130 -3 -3 -9 -18 -13 -35 -20
-87 -28 -127 -42 -200 -8 -44 -21 -114 -30 -155 -8 -41 -17 -91 -19 -110 -13
-111 -16 -138 -21 -165 -3 -16 -7 -106 -9 -200 -3 -93 -7 -192 -9 -220 -2 -27
-1 -54 3 -60 3 -5 7 -66 8 -135 1 -69 2 -125 3 -125 1 0 3 -10 4 -22 2 -13 -1
-23 -6 -23 -14 0 -9 -47 7 -60 17 -14 21 -35 5 -25 -5 3 -10 2 -10 -4 0 -5 5
-11 11 -13 6 -2 12 -23 13 -46 1 -24 8 -47 16 -52 8 -5 12 -23 11 -47 -2 -21
-3 -47 -2 -57 0 -11 -5 -29 -11 -40 -10 -19 -10 -20 6 -7 15 13 16 12 6 -13
-13 -36 -13 -41 4 -27 11 9 15 8 20 -5 10 -26 7 -36 -9 -30 -8 3 -15 1 -15 -4
0 -6 8 -10 17 -10 13 0 14 -3 5 -12 -7 -7 -11 -21 -11 -33 1 -16 2 -17 6 -2 2
9 8 17 13 17 5 0 6 -7 3 -17 -4 -9 -2 -14 3 -10 6 3 11 -4 11 -16 1 -12 -3
-25 -9 -28 -8 -5 -9 -11 -1 -21 5 -7 15 -35 22 -63 45 -188 239 -598 393 -827
32 -49 56 -88 53 -88 -3 0 -1 -9 5 -20 6 -12 16 -18 23 -14 7 4 9 4 5 -1 -11
-12 11 -47 25 -39 7 4 9 4 5 -1 -8 -8 57 -96 123 -165 23 -25 42 -48 41 -51 0
-3 33 -41 75 -85 41 -43 69 -70 62 -59 -7 11 3 5 23 -14 21 -19 36 -37 35 -40
-1 -3 1 -6 4 -6 4 0 44 -36 91 -80 46 -44 105 -98 132 -120 27 -22 65 -54 85
-71 20 -17 54 -43 76 -57 22 -14 67 -45 100 -68 299 -209 755 -409 1146 -503
231 -55 344 -75 582 -100 28 -3 31 5 30 87 0 20 13 23 20 5 4 -10 6 -10 6 0 1
16 53 16 70 0 8 -7 11 -8 8 -3 -3 7 69 10 208 10 l212 0 -4 -49 -4 -49 78 6
c212 17 634 112 878 199 136 48 487 215 630 299 76 44 259 165 278 183 7 6 30
23 52 38 22 15 60 47 85 70 25 24 64 59 88 78 23 19 45 42 48 52 3 10 9 16 14
13 5 -3 12 4 15 16 4 11 9 18 12 15 12 -11 31 15 26 34 -4 14 0 20 13 20 16 0
16 1 -2 19 -13 13 -23 15 -31 9 -9 -7 -13 -7 -13 2 0 6 9 14 20 17 11 3 20 9
20 13 0 17 38 -3 43 -22 4 -12 10 -17 17 -13 9 5 9 10 1 18 -14 14 -14 37 -1
37 6 0 10 -7 10 -15 0 -20 7 -19 32 5 12 11 16 20 10 20 -9 0 -9 5 0 20 7 11
20 19 28 18 19 -3 40 10 40 24 0 6 -8 7 -17 3 -15 -5 -16 -4 -6 6 7 7 13 22
13 33 0 24 16 10 22 -19 4 -19 4 -18 10 3 4 13 1 28 -7 36 -8 7 -11 17 -7 20
3 4 14 -3 24 -16 l18 -23 -4 26 c-3 21 -1 26 13 22 11 -3 17 2 18 16 2 25 -3
26 -23 6 -9 -8 -19 -15 -24 -15 -4 0 -10 7 -14 15 -4 10 1 15 15 15 17 0 20 5
16 20 -4 17 -2 20 14 15 11 -4 19 -2 19 5 0 7 7 9 16 6 13 -5 16 0 12 28 -2
19 -1 33 2 31 11 -7 40 34 40 55 0 11 4 20 10 20 5 0 9 4 7 9 -4 14 64 102 74
96 5 -3 6 0 4 7 -3 8 10 30 28 50 20 21 29 39 23 42 -6 2 -4 5 4 5 9 1 16 11
17 22 1 12 8 29 16 38 8 9 22 32 31 51 9 19 28 58 44 85 58 104 71 132 95 190
14 33 43 103 65 155 62 146 109 290 152 460 53 215 60 267 66 474 3 100 7 204
10 231 9 89 5 378 -6 455 -6 41 -13 109 -15 150 -5 93 -14 152 -27 167 -15 18
-27 116 -16 130 6 7 6 18 0 30 -6 10 -15 46 -21 81 -15 78 -91 318 -137 430
-100 240 -189 414 -311 602 -59 92 -60 95 -35 81 28 -15 37 -14 23 3 -6 7 -9
21 -5 30 6 14 -34 80 -58 97 -5 3 -5 14 -1 25 7 18 6 18 -11 2 -9 -10 -19 -18
-21 -18 -2 0 -1 8 1 18 3 10 -12 35 -36 62 -22 24 -39 49 -36 56 6 15 -22 56
-34 49 -11 -7 -33 22 -26 33 7 12 -22 38 -31 29 -10 -11 -32 13 -26 29 3 8 1
14 -4 14 -5 0 -24 20 -43 45 -18 24 -36 44 -39 43 -18 -2 -31 3 -31 13 0 5 6
7 13 3 8 -5 8 -2 -2 9 -7 9 -20 17 -27 17 -8 0 -13 5 -12 11 2 6 -3 14 -10 16
-8 3 -10 -2 -7 -14 3 -10 -2 -3 -10 15 -17 37 -66 83 -169 161 -39 29 -74 59
-78 65 -5 6 -8 7 -8 1 0 -5 -5 -3 -10 6 -5 9 -28 29 -52 45 -24 16 -70 49
-103 74 -33 25 -78 54 -100 65 -22 11 -44 25 -50 32 -5 6 -35 24 -65 39 -30
15 -68 38 -85 49 -16 12 -46 28 -65 35 -19 8 -37 17 -40 20 -3 4 -59 30 -125
58 -66 28 -142 62 -170 75 -27 13 -90 36 -140 52 -49 15 -104 34 -122 42 -17
7 -37 13 -45 13 -7 0 -51 12 -98 25 -138 41 -353 81 -558 105 -120 14 -538 11
-712 -5z m290 -75 c0 -6 -36 -9 -92 -8 l-93 2 80 6 c44 3 86 7 93 8 6 1 12 -2
12 -8z m103 3 c-13 -2 -35 -2 -50 0 -16 2 -5 4 22 4 28 0 40 -2 28 -4z m-308
-13 c-11 -5 -36 -8 -55 -8 l-35 0 30 7 c17 4 41 7 55 8 22 2 23 1 5 -7z m-112
-17 c-13 -2 -33 -2 -45 0 -13 2 -3 4 22 4 25 0 35 -2 23 -4z m-80 -10 c-7 -2
-19 -2 -25 0 -7 3 -2 5 12 5 14 0 19 -2 13 -5z m3177 -1139 c0 -8 -4 -12 -10
-9 -5 3 -10 13 -10 21 0 8 5 12 10 9 6 -3 10 -13 10 -21z m105 -224 c9 -16 13
-30 11 -30 -3 0 -12 14 -21 30 -9 17 -13 30 -11 30 3 0 12 -13 21 -30z m-697
-242 c3 2 8 -1 10 -7 6 -19 -37 -12 -47 8 -14 25 0 37 17 14 7 -10 16 -17 20
-15z m42 -39 c0 -6 -4 -7 -10 -4 -5 3 -10 11 -10 16 0 6 5 7 10 4 6 -3 10 -11
10 -16z m-2245 -399 c4 -6 -14 -10 -47 -10 -29 0 -71 -3 -93 -7 -23 -3 -36 -2
-32 3 7 8 71 18 144 23 12 0 25 -3 28 -9z m75 -6 c0 -2 -15 -4 -32 -4 -23 0
-29 3 -19 9 12 8 51 4 51 -5z m1020 -369 c9 6 11 4 6 -4 -5 -7 -13 -10 -20 -8
-8 3 -11 -5 -8 -27 3 -24 1 -28 -7 -16 -6 8 -11 30 -11 49 0 32 1 33 13 16 9
-11 19 -15 27 -10z m37 3 c-3 -8 -6 -5 -6 6 -1 11 2 17 5 13 3 -3 4 -12 1 -19z
m-100 -10 c-3 -8 -6 -5 -6 6 -1 11 2 17 5 13 3 -3 4 -12 1 -19z m179 -8 c8 0
14 -7 14 -15 0 -8 7 -15 16 -15 11 0 14 -6 9 -22 -5 -20 -5 -21 5 -5 9 14 15
16 26 6 8 -6 14 -20 14 -31 0 -11 5 -16 11 -13 6 4 8 13 5 21 -3 8 -3 14 0 14
2 0 9 -10 14 -22 8 -21 9 -21 10 -3 1 34 20 -5 21 -45 1 -32 2 -33 9 -10 8 25
8 25 9 2 1 -13 5 -21 11 -17 5 3 7 12 3 20 -3 8 0 15 5 15 6 0 12 -12 14 -27
2 -14 10 -29 18 -31 13 -5 13 -3 1 11 -18 22 -3 22 21 0 18 -16 18 -16 12 0
-8 23 15 22 24 0 7 -17 16 -22 51 -27 8 -2 17 -8 19 -16 4 -10 6 -9 14 1 5 9
6 5 2 -13 -5 -23 -2 -29 19 -37 14 -5 28 -15 32 -20 3 -6 13 -11 21 -11 8 0
24 -9 36 -20 27 -25 35 -25 41 -2 3 13 6 10 11 -10 8 -27 36 -40 36 -17 0 18
30 -11 31 -30 0 -12 2 -12 8 3 7 19 8 19 14 -3 3 -13 10 -20 16 -17 5 4 13 1
16 -5 4 -5 13 -8 21 -5 8 3 14 1 14 -3 0 -20 94 -43 109 -28 8 8 11 7 11 -5 0
-11 7 -14 25 -10 21 4 25 0 26 -19 l2 -24 4 23 c4 19 9 23 26 18 12 -3 32 -6
44 -6 16 0 20 -5 16 -20 -5 -19 9 -26 40 -21 4 0 7 -7 7 -17 0 -13 2 -14 9 -3
7 11 10 10 18 -4 9 -15 12 -13 21 14 12 34 23 43 15 11 -4 -16 -2 -19 11 -14
9 4 16 1 16 -6 0 -10 3 -10 14 -1 11 9 15 9 19 -1 4 -10 8 -10 16 2 6 8 11 13
11 10 1 -3 3 -30 5 -60 3 -41 2 -47 -4 -25 -9 30 -9 30 -10 4 0 -15 -8 -30
-17 -33 -13 -5 -15 -1 -10 20 5 17 3 23 -4 19 -5 -3 -10 -15 -10 -26 0 -11 -7
-22 -15 -25 -8 -4 -15 -18 -16 -33 0 -23 -1 -24 -9 -6 -7 18 -9 16 -15 -12 -4
-18 -11 -33 -15 -33 -13 0 -50 -37 -50 -51 0 -10 -2 -11 -8 -2 -5 8 -15 3 -31
-18 -13 -16 -27 -26 -32 -23 -5 3 -14 -7 -19 -21 -6 -15 -19 -29 -30 -32 -11
-3 -18 -9 -15 -13 3 -4 -2 -10 -10 -14 -8 -3 -15 -12 -15 -20 0 -8 -5 -16 -10
-18 -6 -2 -12 -14 -15 -27 -2 -14 -8 -27 -12 -30 -12 -9 -33 -49 -33 -62 0 -7
-10 -22 -22 -34 -33 -31 -58 -64 -58 -74 0 -10 -30 -25 -43 -22 -5 1 -5 -9 -1
-21 6 -20 5 -21 -10 -9 -14 12 -16 11 -16 -3 0 -10 -9 -16 -24 -16 -19 0 -25
-6 -28 -27 -2 -16 -8 -27 -15 -26 -8 2 -13 -7 -13 -20 0 -29 -37 -54 -43 -29
-2 9 -2 -2 0 -25 2 -25 -1 -43 -7 -43 -5 0 -10 15 -10 33 0 23 -3 28 -9 17 -6
-8 -8 -17 -6 -21 3 -3 0 -21 -5 -40 -7 -24 -6 -35 2 -40 7 -5 9 -11 6 -14 -15
-16 -30 9 -25 41 5 29 3 34 -14 34 -14 0 -19 -7 -19 -25 0 -15 -6 -25 -15 -25
-9 0 -12 -6 -9 -15 4 -10 0 -15 -10 -15 -12 0 -15 -7 -11 -27 3 -16 2 -22 -1
-15 -9 19 -22 14 -27 -10 -3 -17 -5 -15 -6 9 0 17 -6 35 -12 38 -7 5 -8 -6 -4
-34 5 -32 2 -45 -11 -59 -19 -19 -20 -20 2 33 4 10 0 15 -10 15 -11 0 -16 -9
-16 -26 0 -14 -4 -23 -10 -19 -5 3 -10 26 -10 51 0 32 -3 43 -12 38 -7 -5 -9
-1 -6 12 3 11 -2 26 -10 33 -12 12 -13 9 -8 -20 5 -25 4 -30 -3 -19 -9 12 -11
9 -11 -15 -1 -25 -2 -27 -11 -12 -5 9 -7 22 -4 27 3 6 -1 10 -9 10 -10 0 -16
-9 -16 -22 0 -33 -12 -14 -20 34 -6 28 -4 45 3 50 8 5 8 10 0 20 -11 13 -36
129 -35 161 0 9 -5 17 -13 17 -11 0 -11 -8 1 -47 8 -25 14 -60 14 -78 0 -17 3
-35 7 -39 4 -4 8 -34 9 -67 2 -33 7 -66 12 -72 5 -7 6 -21 1 -32 -5 -13 -8
-15 -8 -5 -2 21 -28 157 -39 203 -6 21 -6 37 -1 37 5 0 9 4 9 10 0 5 -8 7 -17
4 -14 -5 -15 -4 -4 4 9 7 11 19 7 38 -7 28 -8 28 -22 10 -13 -18 -14 -18 -20
-2 -4 11 -2 21 6 26 7 4 10 14 8 21 -4 9 -10 5 -18 -13 -14 -29 -40 -28 -40 3
0 10 -5 19 -11 19 -6 0 -9 7 -5 15 3 8 1 15 -5 15 -7 0 -9 -12 -7 -29 2 -17 1
-28 -4 -25 -4 3 -8 17 -9 32 0 15 -5 36 -10 47 -7 15 -8 11 -4 -17 14 -102 14
-109 -1 -53 -8 33 -17 70 -20 83 l-5 23 -31 -26 c-17 -14 -33 -23 -37 -19 -3
4 0 9 7 11 6 3 12 14 11 26 0 15 -2 17 -6 7 -3 -8 -12 -21 -21 -28 -12 -9 -13
-15 -4 -24 7 -7 12 -16 12 -22 0 -5 -9 1 -20 14 -18 21 -20 22 -21 4 -1 -11
-4 -7 -9 11 -4 17 -8 23 -9 14 -1 -12 -8 -15 -28 -11 -23 4 -25 2 -20 -17 3
-11 1 -19 -4 -15 -5 3 -9 15 -9 27 0 34 -19 -1 -21 -38 -1 -29 -1 -30 -9 -5
-7 23 -8 23 -10 -10 -1 -19 -2 -38 -2 -41 1 -4 -8 -5 -18 -2 -12 3 -20 0 -20
-6 0 -7 -4 -10 -9 -7 -5 4 -7 -3 -4 -14 4 -14 0 -20 -11 -20 -10 0 -13 -6 -9
-17 3 -10 3 -15 -2 -11 -15 14 -34 -13 -31 -45 2 -18 2 -24 -1 -15 -3 10 -10
15 -19 11 -9 -3 5 32 35 88 27 52 57 121 66 154 17 66 20 145 5 145 -5 0 -7
-6 -4 -14 3 -8 -2 -31 -12 -52 l-18 -37 -9 26 c-7 22 -12 25 -26 17 -10 -5
-21 -7 -23 -4 -3 2 -16 -7 -29 -21 -13 -13 -29 -25 -36 -25 -6 0 -17 -16 -24
-35 -7 -19 -16 -35 -21 -35 -4 0 -11 -14 -15 -31 -5 -16 -12 -30 -16 -29 -5 1
-17 -9 -28 -21 -27 -31 -24 -16 6 31 46 72 65 136 65 212 0 79 -7 89 -11 16
-2 -41 -5 -46 -18 -35 -10 8 -13 8 -8 1 4 -7 -3 -14 -18 -18 -14 -4 -25 -11
-25 -16 0 -6 -9 -10 -20 -10 -11 0 -23 -7 -26 -15 -4 -8 -10 -12 -15 -9 -5 3
-9 -1 -9 -9 0 -10 -7 -13 -20 -10 -16 4 -20 0 -21 -18 -1 -17 -3 -19 -6 -6 -3
12 -14 17 -38 17 -19 0 -37 5 -40 10 -4 6 -11 8 -16 5 -5 -3 -6 0 -4 7 4 9 -2
14 -15 14 -11 0 -20 -5 -20 -11 0 -5 -4 -3 -9 5 -6 8 -7 18 -5 22 3 4 3 8 -1
8 -3 0 -15 -15 -26 -32 -17 -28 -19 -29 -14 -8 4 14 11 30 16 35 5 7 -2 12
-19 13 -20 2 -23 -1 -14 -10 13 -13 16 -29 5 -27 -30 5 -53 -3 -54 -18 -1 -17
-2 -17 -6 0 -2 9 -11 17 -19 17 -11 0 -13 -6 -9 -21 5 -15 4 -19 -4 -15 -6 4
-11 13 -11 21 0 8 -8 19 -17 24 -16 9 -15 10 7 11 14 0 32 5 40 11 12 8 10 9
-10 5 -14 -3 -35 -6 -48 -6 -19 0 -22 -4 -17 -21 5 -15 4 -19 -4 -15 -6 4 -11
12 -11 18 0 15 -43 78 -52 78 -4 0 -3 -12 2 -26 15 -39 11 -64 -5 -29 -11 24
-14 26 -14 10 -1 -17 -3 -17 -11 -5 -5 8 -10 25 -10 36 0 17 -5 20 -25 16 -20
-3 -24 -9 -20 -23 5 -14 2 -17 -8 -13 -9 3 -18 17 -21 30 -4 14 -11 22 -16 19
-6 -3 -7 1 -4 9 5 12 0 16 -17 16 -20 0 -21 1 -6 13 9 6 18 25 21 41 3 16 10
32 15 35 5 4 8 19 7 34 -4 33 2 35 14 5 8 -21 9 -20 9 10 1 22 6 32 17 32 11
0 14 -5 10 -16 -4 -11 -2 -15 8 -11 8 3 17 1 19 -6 3 -7 15 -1 31 17 19 21 26
25 26 13 0 -10 5 -17 11 -17 6 0 9 9 6 20 -3 11 -1 20 5 20 5 0 8 6 5 13 -2 7
-21 12 -48 12 -40 0 -44 2 -44 24 0 33 54 41 62 10 5 -16 8 -18 14 -7 8 11 11
11 18 -1 5 -7 13 -11 19 -7 6 3 14 -4 18 -16 7 -22 7 -22 15 -3 7 18 8 18 8 1
1 -11 6 -16 15 -13 7 3 19 0 25 -6 10 -9 16 -7 27 7 9 13 14 15 14 6 0 -9 7
-6 21 8 21 23 39 21 39 -4 0 -8 4 -14 10 -14 5 0 7 13 4 30 -4 19 -2 30 5 30
6 0 10 -5 8 -12 -2 -14 25 -18 35 -4 11 16 103 10 132 -9 25 -16 26 -16 20 -1
-5 12 2 9 22 -8 16 -15 44 -39 62 -55 39 -36 40 -30 3 35 -66 114 -215 216
-381 260 -84 22 -84 22 -35 22 28 0 56 -5 63 -10 8 -7 12 -7 12 1 0 6 10 1 21
-10 17 -17 23 -19 30 -8 6 11 11 11 21 1 6 -6 22 -12 35 -12 13 0 23 -4 23
-10 0 -5 11 -10 25 -10 14 0 25 -5 25 -11 0 -5 4 -8 9 -4 6 3 14 -2 19 -11 5
-10 20 -18 33 -20 13 -1 24 -3 24 -4 0 -3 48 -10 68 -11 27 0 102 -44 99 -57
-1 -7 2 -11 7 -10 11 4 49 -38 56 -63 4 -11 10 -19 15 -19 5 0 15 -12 22 -27
7 -14 19 -28 25 -31 9 -2 8 4 -2 25 -8 15 -15 35 -15 43 0 26 -94 163 -150
218 -30 29 -86 73 -126 98 -77 48 -257 114 -312 114 -23 0 -32 4 -29 13 2 6 9
11 14 10 6 -1 29 -3 52 -4 22 -2 41 -6 41 -10 0 -4 9 -5 20 -2 13 3 20 0 20
-8 0 -11 2 -11 10 1 5 8 10 11 10 5 0 -5 5 -3 11 5 8 12 9 10 4 -7 -4 -14 -2
-23 4 -23 6 0 11 6 11 13 0 8 3 7 10 -3 5 -8 12 -11 16 -7 4 4 13 -1 20 -10
10 -15 12 -14 8 12 l-4 30 12 -27 c14 -34 28 -37 21 -5 -3 16 -2 18 5 8 5 -7
15 -10 21 -7 7 4 11 -1 11 -13 0 -25 20 -38 21 -14 1 13 3 11 9 -7 7 -21 8
-22 10 -5 1 19 2 19 12 -2 12 -25 40 -41 31 -17 -3 7 -9 14 -14 14 -5 0 -5 7
0 18 5 9 14 28 19 42 10 23 11 23 5 -6 -3 -18 0 -34 6 -38 7 -5 11 3 12 21 0
24 1 25 8 8 5 -11 4 -25 -1 -32 -7 -9 -5 -15 6 -19 9 -3 14 -9 12 -13 -2 -3 1
-15 5 -26 9 -18 9 -18 5 2 -2 13 0 26 5 29 5 3 9 -4 9 -15 0 -23 7 -26 29 -12
8 5 12 18 8 30 -3 12 -1 21 4 21 5 0 10 -12 10 -27 2 -28 2 -28 6 2 l5 30 14
-30 14 -30 -5 35 c-4 27 -3 32 7 22 7 -7 16 -8 23 -2 7 6 12 -1 13 -23 2 -17
8 -36 14 -42 8 -7 9 -4 6 11 -3 12 -1 28 4 35 7 10 8 9 4 -5 -7 -20 -7 -20 15
0 l22 19 -6 -24 c-4 -16 -3 -21 4 -14 14 14 6 49 -9 45 -7 -1 -12 3 -12 9 0 8
-5 8 -15 -1 -12 -10 -15 -9 -15 5 0 13 6 15 28 10 21 -4 33 -1 43 11 13 16 12
17 -8 12 -23 -6 -31 6 -13 17 8 5 7 12 -2 23 -11 13 -11 14 0 8 10 -6 11 -1 7
21 l-5 28 11 -25 c24 -53 29 -66 33 -94 8 -43 15 -43 16 0 0 22 1 53 2 69 1
17 -2 46 -6 65 -5 26 -4 31 3 20 6 -8 11 -23 11 -32 0 -10 7 -18 15 -18 8 0
15 -4 15 -10 0 -5 -4 -10 -10 -10 -5 0 -10 -15 -9 -32 1 -31 1 -31 9 -8 l7 25
12 -25 c11 -23 11 -23 6 10 -14 103 -16 155 -5 144 6 -6 12 -32 14 -57 3 -50
14 -75 14 -31 0 14 6 30 13 35 12 8 6 13 -12 11 -3 -1 -6 13 -7 31 0 30 1 30
9 8 7 -19 12 -21 23 -11 12 9 15 6 14 -20 -1 -17 4 -36 11 -43 9 -9 10 -3 5
22 -5 25 -4 32 4 27 7 -4 12 -15 12 -24 0 -9 4 -23 9 -30 5 -8 7 8 5 40 -4 53
-4 53 11 23 l14 -30 2 30 c1 17 2 36 2 43 -1 13 13 17 20 5 2 -5 2 -2 1 4 -2
7 6 18 17 23 13 8 18 17 14 30 -4 13 0 20 12 22 10 2 20 0 21 -4 2 -4 10 -8
18 -8z m-106 -20 c0 -5 -2 -10 -4 -10 -3 0 -8 5 -11 10 -3 6 -1 10 4 10 6 0
11 -4 11 -10z m-81 -43 c0 -21 -1 -21 -9 -2 -12 28 -12 37 0 30 6 -3 10 -16 9
-28z m-105 7 c3 -8 2 -12 -4 -9 -6 3 -10 10 -10 16 0 14 7 11 14 -7z m46 -10
c0 -8 -4 -14 -10 -14 -5 0 -10 9 -10 21 0 11 5 17 10 14 6 -3 10 -13 10 -21z
m92 -19 c3 -14 1 -25 -3 -25 -5 0 -9 3 -9 8 0 4 -3 18 -7 31 -4 16 -2 22 4 18
6 -4 13 -18 15 -32z m-1839 -15 c3 -11 2 -20 -3 -20 -4 0 -10 11 -12 25 -6 29
7 25 15 -5z m494 -12 c-3 -8 -6 -5 -6 6 -1 11 2 17 5 13 3 -3 4 -12 1 -19z
m1227 -4 c3 -8 2 -12 -4 -9 -6 3 -10 10 -10 16 0 14 7 11 14 -7z m-1567 -36
c-3 -7 -5 -2 -5 12 0 14 2 19 5 13 2 -7 2 -19 0 -25z m1240 -10 c-3 -8 -6 -5
-6 6 -1 11 2 17 5 13 3 -3 4 -12 1 -19z m330 0 c-3 -8 -6 -5 -6 6 -1 11 2 17
5 13 3 -3 4 -12 1 -19z m-137 -24 c0 -24 19 -35 21 -11 1 6 5 -4 8 -23 8 -43
5 -57 -15 -57 -8 0 -13 5 -11 11 2 6 0 22 -5 35 -13 35 -17 81 -7 75 5 -3 9
-16 9 -30z m-118 -8 c2 -19 0 -32 -4 -30 -8 5 -12 64 -4 64 2 0 6 -15 8 -34z
m94 -66 c-2 -8 -4 -5 -5 8 0 12 -5 22 -9 22 -4 0 -6 17 -3 38 l5 37 8 -45 c4
-25 6 -52 4 -60z m-136 65 c0 -14 -4 -25 -9 -25 -4 0 -6 11 -3 25 2 14 6 25 8
25 2 0 4 -11 4 -25z m-63 -7 c-3 -8 -6 -5 -6 6 -1 11 2 17 5 13 3 -3 4 -12 1
-19z m150 -15 c-3 -10 -5 -4 -5 12 0 17 2 24 5 18 2 -7 2 -21 0 -30z m177 -22
c-8 -10 -24 14 -24 37 l1 27 13 -30 c7 -16 12 -32 10 -34z m-377 2 c-3 -10 -5
-2 -5 17 0 19 2 27 5 18 2 -10 2 -26 0 -35z m24 14 c-10 -9 -11 -8 -5 6 3 10
9 15 12 12 3 -3 0 -11 -7 -18z m-191 -7 c0 -5 -5 -10 -11 -10 -5 0 -7 5 -4 10
3 6 8 10 11 10 2 0 4 -4 4 -10z m-263 -16 c-3 -3 -12 -4 -19 -1 -8 3 -5 6 6 6
11 1 17 -2 13 -5z m58 -4 c19 -8 19 -9 -2 -9 -12 -1 -25 4 -28 9 -7 12 2 12
30 0z m494 -31 c9 -27 9 -30 -4 -19 -8 7 -15 21 -15 31 0 28 7 23 19 -12z
m-106 1 c3 -11 1 -18 -4 -14 -5 3 -9 12 -9 20 0 20 7 17 13 -6z m243 -12 c4
-7 3 -8 -4 -4 -7 4 -12 2 -12 -5 0 -7 -3 -10 -6 -6 -6 5 3 27 11 27 2 0 7 -5
11 -12z m-109 -70 c-3 -7 -5 -2 -5 12 0 14 2 19 5 13 2 -7 2 -19 0 -25z
m-1820 -75 c-3 -10 -5 -2 -5 17 0 19 2 27 5 18 2 -10 2 -26 0 -35z m1220 1
c-3 -4 -32 -8 -64 -10 -32 -3 -73 -6 -90 -9 -34 -5 -47 10 -15 17 29 7 175 8
169 2z m48 -4 c3 -5 2 -10 -4 -10 -5 0 -13 5 -16 10 -3 6 -2 10 4 10 5 0 13
-4 16 -10z m-1072 -20 c3 -11 1 -18 -4 -14 -5 3 -9 12 -9 20 0 20 7 17 13 -6z
m-106 -22 c-3 -8 -6 -5 -6 6 -1 11 2 17 5 13 3 -3 4 -12 1 -19z m51 -19 c-3
-8 -7 -3 -11 10 -4 17 -3 21 5 13 5 -5 8 -16 6 -23z m-78 -4 c7 -9 8 -15 2
-15 -5 0 -12 7 -16 15 -3 8 -4 15 -2 15 2 0 9 -7 16 -15z m57 -7 c-3 -8 -6 -5
-6 6 -1 11 2 17 5 13 3 -3 4 -12 1 -19z m253 -8 c0 -18 6 -33 15 -36 8 -4 15
-10 15 -16 0 -5 -5 -6 -11 -2 -8 5 -10 -1 -7 -20 3 -14 1 -26 -3 -26 -5 0 -9
16 -9 36 0 19 -3 33 -7 31 -5 -3 -8 10 -8 29 0 19 3 34 8 34 4 0 7 -14 7 -30z
m3145 20 c3 -5 1 -10 -4 -10 -6 0 -11 5 -11 10 0 6 2 10 4 10 3 0 8 -4 11 -10z
m-3418 -32 c-3 -7 -5 -2 -5 12 0 14 2 19 5 13 2 -7 2 -19 0 -25z m240 0 c-3
-7 -5 -2 -5 12 0 14 2 19 5 13 2 -7 2 -19 0 -25z m-326 13 c-14 -9 -7 -51 10
-51 5 0 9 -4 9 -10 0 -19 -17 -10 -28 15 -17 37 -15 55 6 55 13 0 14 -2 3 -9z
m146 -13 c-3 -8 -6 -5 -6 6 -1 11 2 17 5 13 3 -3 4 -12 1 -19z m236 2 c3 -11
1 -18 -4 -14 -5 3 -9 12 -9 20 0 20 7 17 13 -6z m-422 -9 c-12 -8 -4 -68 10
-77 5 -3 9 -14 9 -25 0 -21 15 -26 25 -8 4 6 -2 21 -14 33 -12 12 -21 31 -20
42 0 17 1 16 9 -4 5 -12 16 -25 25 -28 8 -4 15 -13 15 -21 0 -8 5 -11 10 -8
10 6 13 -10 11 -50 -1 -18 0 -17 9 3 9 22 5 116 -6 133 -3 5 0 9 5 9 6 0 11
-5 11 -11 0 -5 5 -7 10 -4 6 4 18 -11 28 -34 9 -22 23 -41 30 -41 6 0 12 -4
12 -9 0 -5 2 -16 5 -23 4 -9 -4 -19 -17 -26 l-23 -12 24 6 c15 4 21 2 17 -4
-3 -6 -2 -13 4 -17 5 -3 10 2 10 11 0 17 14 11 16 -7 1 -5 2 -13 3 -17 1 -11
31 -11 31 -1 0 4 -6 10 -12 13 -7 3 -3 3 10 0 14 -3 22 -1 23 8 1 7 5 2 10
-12 6 -18 7 -14 3 18 -3 23 -2 42 3 42 5 0 9 -10 10 -21 2 -27 23 -51 23 -27
0 9 4 20 10 23 6 4 9 -3 7 -16 -1 -12 4 -24 12 -27 9 -3 12 0 9 10 -7 17 -20
158 -14 143 2 -5 7 -23 11 -40 7 -27 8 -28 15 -10 12 29 11 42 -1 25 -9 -12
-10 -12 -5 3 3 10 6 21 6 23 0 3 5 2 10 -1 6 -3 10 -24 10 -45 0 -31 -3 -38
-15 -34 -8 4 -15 1 -15 -5 0 -6 9 -11 20 -11 22 0 27 -24 8 -36 -6 -4 -8 -3
-4 4 3 6 1 14 -5 18 -9 5 -10 -5 -6 -40 9 -64 28 -97 22 -38 -2 24 1 42 6 42
6 0 7 -9 4 -20 -10 -32 5 -23 16 10 6 17 15 30 20 30 5 0 2 -15 -8 -32 -9 -18
-18 -55 -20 -83 -1 -27 -5 -65 -8 -82 -4 -20 -2 -33 5 -33 5 0 10 -9 10 -20 0
-11 -6 -20 -12 -20 -9 0 -9 -3 -2 -8 5 -4 16 -38 23 -76 6 -38 25 -98 41 -133
17 -36 28 -69 25 -73 -2 -4 3 -16 11 -26 9 -10 12 -13 8 -5 -5 9 -3 12 5 7 6
-4 10 -10 8 -14 -2 -4 -7 -15 -11 -26 -6 -18 -7 -18 -25 3 -22 25 -31 27 -31
5 0 -9 -5 -12 -12 -8 -7 5 -9 1 -6 -13 3 -11 0 -20 -6 -21 -54 -8 -76 -17 -82
-34 -7 -22 -19 -14 -28 17 -3 11 -3 -2 -1 -30 3 -31 2 -45 -4 -36 -12 19 -30
5 -24 -19 3 -11 1 -20 -4 -20 -6 0 -10 14 -11 31 0 17 -4 34 -8 38 -7 6 0 -97
11 -159 5 -26 4 -31 -4 -20 -6 8 -11 27 -11 42 0 15 -5 30 -12 34 -8 5 -9 -2
-5 -27 6 -34 6 -34 -8 -9 -8 14 -15 34 -15 45 -1 11 -4 15 -6 9 -3 -6 -1 -30
5 -53 8 -35 7 -41 -8 -41 -11 -1 -8 -5 9 -15 14 -8 20 -14 13 -15 -24 0 -43
13 -43 30 0 11 -4 22 -10 25 -9 6 -15 -36 -10 -79 1 -11 -3 -15 -9 -12 -6 4
-11 16 -11 27 0 24 -37 62 -52 53 -8 -5 -9 -2 -5 9 3 10 2 17 -3 17 -6 0 -10
-9 -10 -20 0 -13 -5 -18 -15 -14 -8 4 -22 1 -29 -5 -17 -14 -20 -5 -31 74 -6
45 -8 47 -18 28 -11 -19 -14 -20 -31 -7 -11 8 -21 24 -23 35 -2 12 -11 29 -21
38 -10 9 -21 24 -25 34 -3 9 -14 17 -23 17 -10 0 -14 5 -10 16 3 8 2 12 -4 9
-6 -3 -10 4 -10 16 0 22 0 22 -15 3 -17 -22 -19 -7 -5 30 12 32 -3 34 -19 4
-12 -23 -11 -15 4 31 5 16 4 21 -4 17 -13 -8 -31 32 -32 72 l-1 27 -8 -25 c-6
-19 -7 -14 -6 22 1 35 5 48 16 49 11 0 11 2 2 6 -10 4 -10 8 0 21 11 13 10 15
-4 9 -19 -7 -24 3 -9 19 16 17 27 89 20 129 -5 31 -2 45 12 64 11 13 19 30 19
37 0 8 8 15 18 15 16 1 16 2 0 6 -10 2 -18 9 -18 14 0 6 8 8 19 4 21 -6 51 22
35 33 -6 4 -14 16 -18 27 -6 16 -5 18 5 8 7 -7 19 -13 27 -13 10 0 10 3 -2 16
-9 8 -16 21 -16 27 0 7 4 6 10 -3 11 -17 12 -12 12 45 0 23 1 25 5 8 5 -24 23
-32 23 -10 0 8 4 7 10 -3 8 -12 10 -9 10 13 0 30 16 37 24 10 3 -10 4 -5 2 12
-4 28 -3 29 11 10 15 -19 15 -18 9 12 -6 38 1 66 16 57 7 -4 6 -9 -1 -13z
m3549 5 c0 -23 -16 -27 -17 -5 -1 10 2 19 8 19 5 0 9 -6 9 -14z m-3381 -48 c1
-27 -18 -22 -25 6 -8 32 6 58 17 30 4 -10 8 -27 8 -36z m3418 36 c-3 -3 -12
-4 -19 -1 -8 3 -5 6 6 6 11 1 17 -2 13 -5z m-30 -46 c-3 -8 -6 -5 -6 6 -1 11
2 17 5 13 3 -3 4 -12 1 -19z m-3480 -20 c-3 -7 -5 -2 -5 12 0 14 2 19 5 13 2
-7 2 -19 0 -25z m212 -18 c0 -10 -3 -8 -9 5 -12 27 -12 43 0 25 5 -8 9 -22 9
-30z m31 25 c0 -8 -2 -15 -4 -15 -2 0 -6 7 -10 15 -3 8 -1 15 4 15 6 0 10 -7
10 -15z m14 -64 c-9 -10 -26 18 -18 30 5 9 9 8 14 -7 4 -10 6 -21 4 -23z m-74
0 c13 -25 13 -31 0 -31 -5 0 -10 9 -10 19 0 11 -6 22 -12 24 -10 4 -10 6 -1 6
7 1 17 -8 23 -18z m-23 -23 c-3 -8 -6 -5 -6 6 -1 11 2 17 5 13 3 -3 4 -12 1
-19z m4421 -32 c1 -19 -2 -37 -8 -41 -6 -4 -10 9 -10 34 0 50 15 55 18 7z
m-3273 15 c3 -5 1 -12 -5 -16 -5 -3 -10 1 -10 9 0 18 6 21 15 7z m-173 -51
c-11 -19 -18 -25 -20 -15 -2 8 3 21 10 29 22 26 28 18 10 -14z m3455 -100 c2
-41 -2 -70 -7 -70 -6 0 -10 17 -11 38 -1 20 -3 54 -4 74 -3 25 0 35 8 32 7 -2
13 -31 14 -74z m-4884 -106 c-7 -19 -10 -18 -16 5 -3 13 -1 18 9 14 7 -2 10
-11 7 -19z m1314 -36 c-3 -8 -6 -5 -6 6 -1 11 2 17 5 13 3 -3 4 -12 1 -19z
m-1333 -24 c3 -8 2 -12 -4 -9 -6 3 -10 10 -10 16 0 14 7 11 14 -7z m4893 -51
c-3 -10 -5 -4 -5 12 0 17 2 24 5 18 2 -7 2 -21 0 -30z m-3230 -25 c-3 -7 -5
-2 -5 12 0 14 2 19 5 13 2 -7 2 -19 0 -25z m828 -8 c-3 -5 -1 -10 4 -10 6 0
11 -5 11 -11 0 -5 -5 -7 -12 -3 -8 5 -9 0 -5 -17 6 -23 5 -23 -8 -5 -8 11 -15
16 -15 11 0 -4 -3 -5 -7 -2 -3 4 2 16 12 27 19 21 30 27 20 10z m-45 -80 c0
-5 -2 -10 -4 -10 -3 0 -8 5 -11 10 -3 6 -1 10 4 10 6 0 11 -4 11 -10z m169
-56 c7 4 11 -1 11 -12 0 -11 2 -35 5 -53 l5 -34 -14 35 c-7 19 -11 38 -9 43 2
4 -3 7 -11 7 -9 0 -16 8 -16 18 0 13 2 14 9 3 5 -7 14 -10 20 -7z m-339 -15
c0 -6 -4 -7 -10 -4 -5 3 -10 11 -10 16 0 6 5 7 10 4 6 -3 10 -11 10 -16z m297
-11 c-3 -8 -6 -5 -6 6 -1 11 2 17 5 13 3 -3 4 -12 1 -19z m-107 -53 c0 -5 -5
-3 -10 5 -5 8 -10 20 -10 25 0 6 5 3 10 -5 5 -8 10 -19 10 -25z m150 -5 c0
-13 -1 -13 -10 0 -5 8 -10 22 -10 30 0 13 1 13 10 0 5 -8 10 -22 10 -30z m50
3 c0 -7 -4 -13 -10 -13 -5 0 -10 12 -10 28 0 21 2 24 10 12 5 -8 10 -21 10
-27z m-1877 -40 c-3 -7 -7 -13 -10 -13 -3 0 -3 7 0 15 4 8 2 17 -3 20 -6 4
-10 1 -10 -6 0 -7 -2 -10 -5 -7 -3 3 -3 13 1 22 6 15 7 15 19 -1 7 -9 11 -23
8 -30z m1424 0 c-3 -10 -5 -4 -5 12 0 17 2 24 5 18 2 -7 2 -21 0 -30z m20 -5
c-3 -8 -6 -5 -6 6 -1 11 2 17 5 13 3 -3 4 -12 1 -19z m436 -24 c-4 -11 -3 -15
4 -11 7 4 11 -2 11 -16 -1 -12 4 -50 9 -85 6 -35 8 -76 5 -90 l-6 -27 -6 25
c-4 16 -12 24 -23 22 -9 -2 -17 2 -17 9 0 7 9 9 21 6 19 -5 20 -3 13 51 -4 31
-11 67 -15 80 -5 13 -11 37 -14 54 -5 27 -4 29 10 15 9 -9 12 -23 8 -33z
m-116 -6 c-3 -7 -5 -2 -5 12 0 14 2 19 5 13 2 -7 2 -19 0 -25z m83 28 c0 -2 7
-32 16 -66 15 -61 12 -116 -6 -105 -5 3 -9 25 -9 48 0 41 -4 70 -16 108 -4 11
-2 19 4 19 6 0 11 -2 11 -4z m-2019 -25 c-8 -5 -10 -14 -6 -22 6 -11 5 -11 -5
-2 -11 10 -11 15 0 28 7 8 15 13 19 10 3 -3 -1 -10 -8 -14z m1896 -23 c-3 -8
-6 -5 -6 6 -1 11 2 17 5 13 3 -3 4 -12 1 -19z m490 0 c-3 -8 -6 -5 -6 6 -1 11
2 17 5 13 3 -3 4 -12 1 -19z m-757 -3 c0 -8 -2 -15 -4 -15 -2 0 -6 7 -10 15
-3 8 -1 15 4 15 6 0 10 -7 10 -15z m237 -7 c-3 -8 -6 -5 -6 6 -1 11 2 17 5 13
3 -3 4 -12 1 -19z m137 -35 c3 -21 6 -47 5 -58 l0 -20 -8 20 c-14 36 -22 95
-13 95 5 0 12 -17 16 -37z m2283 5 c-3 -7 -5 -2 -5 12 0 14 2 19 5 13 2 -7 2
-19 0 -25z m-2400 6 c-3 -3 -12 -4 -19 -1 -8 3 -5 6 6 6 11 1 17 -2 13 -5z
m-1925 -47 c2 -22 -1 -34 -9 -34 -7 0 -12 11 -11 26 3 50 14 55 20 8z m1926
-32 l1 -20 -9 20 c-5 11 -8 31 -8 45 l0 25 8 -25 c4 -14 8 -34 8 -45z m-1963
-1 c3 -29 2 -34 -5 -19 -10 22 -13 72 -4 63 3 -3 7 -23 9 -44z m1926 0 c-9
-28 -9 -29 -10 -3 -1 14 2 29 6 32 11 12 13 2 4 -29z m119 15 c0 -6 -4 -7 -10
-4 -5 3 -10 11 -10 16 0 6 5 7 10 4 6 -3 10 -11 10 -16z m240 11 c0 -5 -4 -10
-10 -10 -5 0 -10 5 -10 10 0 6 5 10 10 10 6 0 10 -4 10 -10z m1395 -105 c-8
-22 -24 -51 -36 -65 l-20 -25 4 35 c2 19 11 52 20 74 9 21 17 44 17 51 0 26
15 25 22 -2 5 -18 3 -42 -7 -68z m-1395 60 c0 -8 -2 -15 -4 -15 -2 0 -6 7 -10
15 -3 8 -1 15 4 15 6 0 10 -7 10 -15z m-43 -47 c-2 -13 -4 -5 -4 17 -1 22 1
32 4 23 2 -10 2 -28 0 -40z m-270 -15 c-3 -10 -5 -2 -5 17 0 19 2 27 5 18 2
-10 2 -26 0 -35z m309 20 c-7 -7 -26 7 -26 19 0 6 6 6 15 -2 9 -7 13 -15 11
-17z m-239 -5 c-3 -8 -6 -5 -6 6 -1 11 2 17 5 13 3 -3 4 -12 1 -19z m280 -15
c-3 -10 -5 -4 -5 12 0 17 2 24 5 18 2 -7 2 -21 0 -30z m-188 -3 c6 -18 6 -30
0 -30 -5 0 -9 9 -9 20 0 11 -5 20 -11 20 -5 0 -7 5 -4 10 9 15 12 13 24 -20z
m-39 -8 c-15 -5 -12 -22 3 -22 9 0 14 -13 15 -37 1 -33 0 -35 -12 -17 -8 10
-12 23 -9 28 3 4 0 12 -6 16 -8 4 -10 17 -5 34 5 20 9 24 15 14 5 -7 4 -14 -1
-16z m-2287 -24 c6 -4 8 -10 4 -15 -11 -10 -27 17 -26 42 l1 20 5 -20 c3 -11
10 -23 16 -27z m34 22 c-3 -11 1 -26 8 -34 8 -7 11 -16 8 -20 -9 -8 -45 53
-38 65 11 17 27 9 22 -11z m58 0 c3 -5 1 -10 -4 -10 -6 0 -11 5 -11 10 0 6 2
10 4 10 3 0 8 -4 11 -10z m2104 -104 c1 -20 -11 -14 -15 7 -1 7 -4 30 -8 52
l-5 40 13 -40 c8 -22 15 -49 15 -59z m8 72 c-3 -8 -6 -5 -6 6 -1 11 2 17 5 13
3 -3 4 -12 1 -19z m-2108 -21 c0 -9 -2 -8 -6 1 -2 6 -10 9 -15 6 -7 -4 -8 -2
-4 5 9 13 26 5 25 -12z m2028 -9 c-3 -7 -5 -2 -5 12 0 14 2 19 5 13 2 -7 2
-19 0 -25z m30 0 c-3 -7 -5 -2 -5 12 0 14 2 19 5 13 2 -7 2 -19 0 -25z m113
-30 c0 -21 -4 -38 -10 -38 -5 0 -7 6 -4 14 3 8 0 24 -6 36 -9 18 -9 21 0 15 9
-5 10 -1 5 16 -5 19 -4 21 4 9 6 -8 11 -32 11 -52z m64 46 c3 -8 2 -12 -4 -9
-6 3 -10 10 -10 16 0 14 7 11 14 -7z m-384 -13 c0 -6 -4 -12 -8 -15 -5 -3 -9
1 -9 9 0 8 4 15 9 15 4 0 8 -4 8 -9z m-110 -16 c0 -8 -7 -15 -15 -15 -13 0
-14 3 -3 15 16 18 18 18 18 0z m95 -15 c17 0 39 -67 32 -100 -3 -18 -5 -14 -6
13 -1 26 -9 46 -26 63 -14 14 -24 33 -24 42 1 16 2 15 6 0 2 -10 11 -18 18
-18z m282 8 c-3 -8 -6 -5 -6 6 -1 11 2 17 5 13 3 -3 4 -12 1 -19z m-429 -23
c-3 -3 -9 2 -12 12 -6 14 -5 15 5 6 7 -7 10 -15 7 -18z m189 3 c-3 -8 -6 -5
-6 6 -1 11 2 17 5 13 3 -3 4 -12 1 -19z m184 7 c6 14 7 9 3 -15 -8 -43 -11
-47 -27 -30 -10 10 -9 11 2 5 10 -6 12 -1 9 21 -3 16 -3 22 0 14 4 -12 7 -11
13 5z m-258 -14 c2 -10 1 -25 -4 -32 -6 -10 -9 -4 -9 19 0 36 5 42 13 13z
m-53 -1 c0 -5 -4 -10 -10 -10 -5 0 -10 5 -10 10 0 6 5 10 10 10 6 0 10 -4 10
-10z m389 -40 c0 -9 -4 -8 -9 5 -5 11 -9 27 -9 35 0 9 4 8 9 -5 5 -11 9 -27 9
-35z m-312 8 c-3 -7 -5 -2 -5 12 0 14 2 19 5 13 2 -7 2 -19 0 -25z m438 23 c3
-5 2 -12 -3 -15 -5 -3 -9 1 -9 9 0 17 3 19 12 6z m-173 -53 c-6 -6 -7 0 -4 19
5 21 7 23 10 9 2 -10 0 -22 -6 -28z m-472 22 c0 -5 -2 -10 -4 -10 -3 0 -8 5
-11 10 -3 6 -1 10 4 10 6 0 11 -4 11 -10z m37 -12 c-3 -8 -6 -5 -6 6 -1 11 2
17 5 13 3 -3 4 -12 1 -19z m-59 -29 c-2 -6 -8 -10 -13 -10 -5 0 -11 4 -13 10
-2 6 4 11 13 11 9 0 15 -5 13 -11z m41 -33 c-7 -14 -16 -26 -20 -26 -5 0 0 13
9 29 20 36 27 34 11 -3z m348 2 c-3 -7 -5 -2 -5 12 0 14 2 19 5 13 2 -7 2 -19
0 -25z m58 21 c11 -16 1 -19 -13 -3 -7 8 -8 14 -3 14 5 0 13 -5 16 -11z m32
-11 c-3 -8 -6 -5 -6 6 -1 11 2 17 5 13 3 -3 4 -12 1 -19z m-150 -20 c-3 -8 -6
-5 -6 6 -1 11 2 17 5 13 3 -3 4 -12 1 -19z m-50 -20 c-3 -7 -5 -2 -5 12 0 14
2 19 5 13 2 -7 2 -19 0 -25z m30 -5 c-3 -10 -5 -4 -5 12 0 17 2 24 5 18 2 -7
2 -21 0 -30z m110 5 c-3 -8 -6 -5 -6 6 -1 11 2 17 5 13 3 -3 4 -12 1 -19z
m-20 -35 c-3 -10 -5 -4 -5 12 0 17 2 24 5 18 2 -7 2 -21 0 -30z m-298 -82 c1
-35 -5 -22 -12 24 -5 28 -4 34 3 20 5 -11 9 -31 9 -44z m200 -1 c1 -13 0 -13
-9 0 -5 8 -9 24 -9 35 l0 20 9 -20 c5 -11 9 -27 9 -35z m-172 -32 c-2 -13 -4
-5 -4 17 -1 22 1 32 4 23 2 -10 2 -28 0 -40z m-142 -47 c2 -14 1 -20 -4 -15
-5 5 -12 29 -15 54 -5 39 -4 41 4 15 6 -16 12 -41 15 -54z m122 7 c-3 -8 -6
-5 -6 6 -1 11 2 17 5 13 3 -3 4 -12 1 -19z m1953 -1237 c0 -5 -7 -11 -14 -14
-10 -4 -13 -1 -9 9 6 15 23 19 23 5z m-5234 -103 l29 -33 -32 29 c-31 28 -38
36 -30 36 2 0 16 -15 33 -32z m5157 17 c-3 -9 -11 -14 -17 -12 -6 3 -19 -3
-29 -11 -16 -14 -17 -14 -12 0 6 14 39 36 57 37 4 1 5 -6 1 -14z m-160 -140
c-38 -36 -79 -51 -53 -20 7 8 19 15 26 15 7 0 21 11 30 25 9 14 20 22 25 20 4
-3 -8 -21 -28 -40z"/>
<path d="M4531 4420 c0 -8 4 -24 9 -35 l9 -20 0 20 c0 11 -4 27 -9 35 -9 13
-10 13 -9 0z"/>
<path d="M4541 4344 c0 -11 3 -14 6 -6 3 7 2 16 -1 19 -3 4 -6 -2 -5 -13z"/>
<path d="M4396 4275 c4 -8 10 -12 15 -9 11 6 2 24 -11 24 -5 0 -7 -7 -4 -15z"/>
<path d="M4137 4243 c-10 -9 -9 -23 1 -23 5 0 9 7 9 15 0 17 -1 18 -10 8z"/>
<path d="M4296 4242 c-2 -4 -1 -23 4 -42 l9 -35 -2 43 c-1 43 -2 48 -11 34z"/>
<path d="M4246 4185 c-3 -9 -10 -13 -16 -10 -5 3 -10 1 -10 -4 0 -17 27 -13
34 5 4 9 5 19 2 21 -2 2 -6 -3 -10 -12z"/>
<path d="M4270 4190 c0 -5 5 -10 10 -10 6 0 10 5 10 10 0 6 -4 10 -10 10 -5 0
-10 -4 -10 -10z"/>
<path d="M5630 4120 c0 -5 5 -10 10 -10 6 0 10 5 10 10 0 6 -4 10 -10 10 -5 0
-10 -4 -10 -10z"/>
<path d="M3701 3834 c0 -11 3 -14 6 -6 3 7 2 16 -1 19 -3 4 -6 -2 -5 -13z"/>
<path d="M4344 3797 c3 -10 6 -25 6 -33 0 -8 5 -14 11 -14 12 0 2 40 -14 55
-7 7 -8 4 -3 -8z"/>
<path d="M4171 3734 c0 -11 3 -14 6 -6 3 7 2 16 -1 19 -3 4 -6 -2 -5 -13z"/>
<path d="M3470 3700 c0 -5 5 -10 10 -10 6 0 10 5 10 10 0 6 -4 10 -10 10 -5 0
-10 -4 -10 -10z"/>
<path d="M4382 3670 c0 -19 2 -27 5 -17 2 9 2 25 0 35 -3 9 -5 1 -5 -18z"/>
<path d="M3570 3640 c0 -5 5 -10 11 -10 5 0 7 5 4 10 -3 6 -8 10 -11 10 -2 0
-4 -4 -4 -10z"/>
<path d="M3551 3624 c0 -11 3 -14 6 -6 3 7 2 16 -1 19 -3 4 -6 -2 -5 -13z"/>
<path d="M3811 3630 c0 -8 4 -22 9 -30 12 -18 12 -2 0 25 -6 13 -9 15 -9 5z"/>
<path d="M3640 3620 c0 -5 5 -10 11 -10 5 0 7 5 4 10 -3 6 -8 10 -11 10 -2 0
-4 -4 -4 -10z"/>
<path d="M3745 3600 c3 -5 8 -10 11 -10 2 0 4 5 4 10 0 6 -5 10 -11 10 -5 0
-7 -4 -4 -10z"/>
<path d="M3748 3563 c7 -3 16 -2 19 1 4 3 -2 6 -13 5 -11 0 -14 -3 -6 -6z"/>
<path d="M4670 3520 c0 -5 5 -10 11 -10 5 0 7 5 4 10 -3 6 -8 10 -11 10 -2 0
-4 -4 -4 -10z"/>
<path d="M4670 3495 c0 -5 5 -17 10 -25 5 -8 10 -10 10 -5 0 6 -5 17 -10 25
-5 8 -10 11 -10 5z"/>
<path d="M4711 3468 c7 -12 12 -35 11 -50 0 -15 4 -28 9 -28 19 0 3 86 -17 94
-12 5 -12 2 -3 -16z"/>
<path d="M5371 3464 c0 -11 3 -14 6 -6 3 7 2 16 -1 19 -3 4 -6 -2 -5 -13z"/>
<path d="M4862 3340 c0 -19 2 -27 5 -17 2 9 2 25 0 35 -3 9 -5 1 -5 -18z"/>
<path d="M5212 3300 c0 -14 2 -19 5 -12 2 6 2 18 0 25 -3 6 -5 1 -5 -13z"/>
<path d="M5071 3264 c0 -11 3 -14 6 -6 3 7 2 16 -1 19 -3 4 -6 -2 -5 -13z"/>
<path d="M4911 3244 c0 -11 3 -14 6 -6 3 7 2 16 -1 19 -3 4 -6 -2 -5 -13z"/>
<path d="M5141 3234 c0 -11 3 -14 6 -6 3 7 2 16 -1 19 -3 4 -6 -2 -5 -13z"/>
<path d="M4882 3175 c0 -16 2 -22 5 -12 2 9 2 23 0 30 -3 6 -5 -1 -5 -18z"/>
<path d="M4856 3177 c3 -10 9 -15 12 -12 3 3 0 11 -7 18 -10 9 -11 8 -5 -6z"/>
<path d="M2460 4018 c1 -1 7 -25 15 -53 l14 -50 -2 49 c-1 29 -7 51 -14 54 -7
2 -13 2 -13 0z"/>
<path d="M2516 3935 c-3 -8 -1 -15 4 -15 6 0 10 7 10 15 0 8 -2 15 -4 15 -2 0
-6 -7 -10 -15z"/>
<path d="M2285 3920 c3 -5 8 -10 11 -10 2 0 4 5 4 10 0 6 -5 10 -11 10 -5 0
-7 -4 -4 -10z"/>
<path d="M2715 3831 c-3 -5 -1 -12 5 -16 5 -3 10 1 10 9 0 18 -6 21 -15 7z"/>
<path d="M2770 3281 c0 -5 5 -13 10 -16 6 -3 10 -2 10 4 0 5 -4 13 -10 16 -5
3 -10 2 -10 -4z"/>
<path d="M2607 3129 c4 -13 8 -18 11 -10 2 7 -1 18 -6 23 -8 8 -9 4 -5 -13z"/>
<path d="M2530 3054 c0 -8 5 -12 10 -9 6 4 8 11 5 16 -9 14 -15 11 -15 -7z"/>
<path d="M2500 3029 c0 -16 4 -28 9 -25 8 5 3 56 -5 56 -2 0 -4 -14 -4 -31z"/>
<path d="M2571 3024 c0 -11 3 -14 6 -6 3 7 2 16 -1 19 -3 4 -6 -2 -5 -13z"/>
<path d="M4772 3080 c0 -14 2 -19 5 -12 2 6 2 18 0 25 -3 6 -5 1 -5 -13z"/>
<path d="M6350 5852 c0 -5 7 -15 15 -22 8 -7 15 -9 15 -6 0 4 -7 14 -15 22 -8
9 -15 11 -15 6z"/>
<path d="M6460 5716 c0 -2 8 -10 18 -17 15 -13 16 -12 3 4 -13 16 -21 21 -21
13z"/>
<path d="M6585 5464 c8 -9 13 -24 10 -33 -3 -9 2 -26 11 -37 15 -18 15 -18 9
9 -4 21 -2 27 6 21 6 -4 1 7 -12 25 -12 17 -27 31 -32 31 -4 0 -1 -7 8 -16z"/>
<path d="M23 3600 c0 -25 2 -35 4 -22 2 12 2 32 0 45 -2 12 -4 2 -4 -23z"/>
<path d="M31 3374 c0 -11 3 -14 6 -6 3 7 2 16 -1 19 -3 4 -6 -2 -5 -13z"/>
<path d="M62 3105 c0 -16 2 -22 5 -12 2 9 2 23 0 30 -3 6 -5 -1 -5 -18z"/>
<path d="M72 3045 c0 -16 2 -22 5 -12 2 9 2 23 0 30 -3 6 -5 -1 -5 -18z"/>
<path d="M82 2990 c0 -14 2 -19 5 -12 2 6 2 18 0 25 -3 6 -5 1 -5 -13z"/>
<path d="M91 2934 c0 -11 3 -14 6 -6 3 7 2 16 -1 19 -3 4 -6 -2 -5 -13z"/>
<path d="M101 2884 c0 -11 3 -14 6 -6 3 7 2 16 -1 19 -3 4 -6 -2 -5 -13z"/>
<path d="M111 2834 c0 -11 3 -14 6 -6 3 7 2 16 -1 19 -3 4 -6 -2 -5 -13z"/>
<path d="M6375 1460 c4 -6 11 -8 16 -5 14 9 11 15 -7 15 -8 0 -12 -5 -9 -10z"/>
<path d="M6080 1120 c0 -5 5 -10 10 -10 6 0 10 5 10 10 0 6 -4 10 -10 10 -5 0
-10 -4 -10 -10z"/>
<path d="M3385 108 c2 -40 4 -43 31 -43 25 0 29 4 29 30 0 38 -12 55 -40 55
-20 0 -22 -4 -20 -42z m40 23 c3 -5 1 -12 -5 -16 -5 -3 -10 1 -10 9 0 18 6 21
15 7z m5 -52 c0 -5 -4 -9 -10 -9 -5 0 -10 7 -10 16 0 8 5 12 10 9 6 -3 10 -10
10 -16z"/>
<path d="M3603 139 c1 -6 -4 -14 -12 -17 -8 -3 -11 0 -7 7 4 6 1 11 -8 11 -8
0 -17 -6 -20 -12 -5 -10 -7 -10 -12 0 -12 25 -24 11 -24 -28 0 -28 4 -40 14
-40 9 0 12 7 9 20 -3 11 -1 20 5 20 5 0 12 -9 15 -20 7 -26 27 -26 22 0 -2 11
0 20 6 20 5 0 9 -9 9 -20 0 -11 5 -20 10 -20 6 0 9 20 8 45 0 25 -5 45 -10 45
-4 0 -7 -5 -5 -11z"/>
<path d="M3630 105 c0 -25 5 -45 10 -45 6 0 10 6 10 14 0 7 3 28 6 45 5 24 3
31 -10 31 -12 0 -16 -10 -16 -45z"/>
<path d="M3462 90 c-1 -26 3 -30 24 -30 22 0 25 4 22 28 -2 19 -9 28 -24 30
-17 2 -21 -2 -22 -28z"/>
<path d="M3665 100 c-8 -26 1 -40 26 -40 25 0 35 25 19 45 -17 21 -37 19 -45
-5z m35 -15 c0 -8 -4 -15 -10 -15 -5 0 -10 7 -10 15 0 8 5 15 10 15 6 0 10 -7
10 -15z"/>
<path d="M3728 89 c5 -33 22 -40 22 -9 0 11 4 20 9 20 5 0 11 -9 14 -20 6 -24
45 -27 54 -4 9 24 -13 39 -60 40 -42 1 -43 1 -39 -27z m82 -4 c0 -8 -4 -15
-10 -15 -5 0 -10 7 -10 15 0 8 5 15 10 15 6 0 10 -7 10 -15z"/>
</g>
</svg>
